<svg width="13" height="13" viewBox="0 0 13 13" fill="none" xmlns="http://www.w3.org/2000/svg">
<path d="M12.1062 3.54375C12.35 3.3 12.35 2.90625 12.1062 2.6625L10.3375 0.89375C10.0938 0.65 9.7 0.65 9.45625 0.89375L6.65 3.7L4.21875 1.26875C3.73125 0.78125 2.9375 0.78125 2.45 1.26875L1.2625 2.45625C0.775 2.94375 0.775 3.7375 1.2625 4.225L3.69375 6.65625L0.875 9.475V12.125H3.525L6.35 9.3L8.78125 11.7313C9.375 12.325 10.175 12.1063 10.55 11.7313L11.7375 10.5437C12.225 10.0562 12.225 9.2625 11.7375 8.775L9.30625 6.34375L12.1062 3.54375ZM2.15 3.3375L3.33125 2.15L4.125 2.94375L3.3875 3.6875L4.26875 4.56875L5.0125 3.825L5.7625 4.575L4.575 5.7625L2.15 3.3375ZM9.16875 7.9875L8.425 8.73125L9.30625 9.6125L10.05 8.86875L10.8438 9.6625L9.65625 10.85L7.225 8.41875L8.4125 7.23125L9.16875 7.9875ZM3.00625 10.875H2.125V9.99375L8.13125 3.9875L8.94375 4.8L9.0125 4.86875L3.00625 10.875ZM9.0125 3.1L9.89375 2.21875L10.775 3.1L9.89375 3.98125L9.0125 3.1Z" fill="#4D69FA"/>
</svg>
