<svg width="30" height="29" viewBox="0 0 30 29" fill="none" xmlns="http://www.w3.org/2000/svg">
<circle cx="14.9577" cy="14.6438" r="14.0373" fill="white"/>
<g clip-path="url(#clip0_209_6299)">
<path d="M27.5913 0.606445H2.32414C1.56215 0.606445 0.92041 1.24813 0.92041 2.01017V27.2773C0.92041 28.0393 1.5621 28.6811 2.32414 28.6811H27.5913C28.3534 28.6811 28.9951 28.0393 28.9951 27.2773V2.01017C28.9951 1.24813 28.3534 0.606445 27.5913 0.606445ZM11.2278 20.8602H8.74121V8.42722H11.2278V20.8602ZM21.2144 20.8602H13.7145V18.3736H21.2144V20.8602ZM21.2144 15.8871H13.7145V13.4004H21.2144V15.8871ZM21.2144 10.9138H13.7145V8.42722H21.2144V10.9138Z" fill="url(#paint0_linear_209_6299)"/>
</g>
<g clip-path="url(#clip1_209_6299)">
<path d="M27.6709 0.606445H2.40373C1.64174 0.606445 1 1.24813 1 2.01017V27.2773C1 28.0393 1.64169 28.6811 2.40373 28.6811H27.6709C28.433 28.6811 29.0747 28.0393 29.0747 27.2773V2.01017C29.0747 1.24813 28.433 0.606445 27.6709 0.606445ZM11.3074 20.8602H8.8208V8.42722H11.3074V20.8602ZM21.294 20.8602H13.794V18.3736H21.294V20.8602ZM21.294 15.8871H13.794V13.4004H21.294V15.8871ZM21.294 10.9138H13.794V8.42722H21.294V10.9138Z" fill="url(#paint1_linear_209_6299)"/>
</g>
<defs>
<linearGradient id="paint0_linear_209_6299" x1="28.9748" y1="0.578447" x2="0.900298" y2="28.6529" gradientUnits="userSpaceOnUse">
<stop stop-color="#ED345E"/>
<stop offset="1" stop-color="#382C74"/>
</linearGradient>
<linearGradient id="paint1_linear_209_6299" x1="29.0543" y1="0.578447" x2="0.979888" y2="28.6529" gradientUnits="userSpaceOnUse">
<stop stop-color="#ED345E"/>
<stop offset="1" stop-color="#382C74"/>
</linearGradient>
<clipPath id="clip0_209_6299">
<rect x="0.92041" y="0.606445" width="28.0746" height="28.0746" rx="14.0373" fill="white"/>
</clipPath>
<clipPath id="clip1_209_6299">
<rect x="1" y="0.606445" width="28.0746" height="28.0746" rx="14.0373" fill="white"/>
</clipPath>
</defs>
</svg>
