<svg width="32" height="32" viewBox="0 0 32 32" fill="none" xmlns="http://www.w3.org/2000/svg">
<path d="M17.5 17.5C16.66 18.34 15.325 18.34 14.5 17.515V17.5C13.675 16.675 13.675 15.34 14.5 14.515V14.5C15.325 13.675 16.66 13.675 17.485 14.5H17.5C18.325 15.325 18.325 16.675 17.5 17.5ZM16 7L19.18 10.18L22.93 6.43L18.13 1.63C16.96 0.460001 15.055 0.460001 13.885 1.63L9.085 6.43L12.835 10.18L16 7ZM7 16L10.18 12.82L6.43 9.07L1.63 13.87C0.460001 15.04 0.460001 16.945 1.63 18.115L6.43 22.915L10.18 19.165L7 16ZM25 16L21.82 19.18L25.57 22.93L30.37 18.13C31.54 16.96 31.54 15.055 30.37 13.885L25.57 9.085L21.82 12.835L25 16ZM16 25L12.82 21.82L9.07 25.57L13.87 30.37C15.04 31.54 16.945 31.54 18.115 30.37L22.915 25.57L19.165 21.82L16 25Z" fill="#040483"/>
</svg>
