<svg width="30" height="30" viewBox="0 0 30 30" fill="none" xmlns="http://www.w3.org/2000/svg">
<g clip-path="url(#clip0_7934_47464)">
<path d="M27.885 0.63916H1.92189C1.1389 0.63916 0.479492 1.29935 0.479492 2.08338V28.0793C0.479492 28.8632 1.13885 29.5235 1.92189 29.5235H27.885C28.6681 29.5235 29.3274 28.8633 29.3274 28.0793V2.08338C29.3274 1.29935 28.6681 0.63916 27.885 0.63916Z" fill="#287CB2"/>
<g clip-path="url(#clip1_7934_47464)">
<path d="M12.0346 8.06162C11.8325 8.25371 11.7832 8.37377 11.7832 8.6715C11.7832 9.12291 12.2071 9.47827 12.6852 9.42545C13.0204 9.39183 13.1978 9.26217 13.4837 8.85879C13.9569 8.19128 14.4399 8.10484 14.918 8.61388C15.1497 8.85879 15.0954 8.86839 15.4208 8.51303C15.5686 8.35456 15.8594 8.26812 16.1009 8.31614C16.308 8.34976 16.6234 8.63309 16.8748 9.00286C17.3085 9.65115 18.2401 9.5359 18.4422 8.81077C18.5211 8.52264 18.457 8.30173 18.2401 8.09044C18.0429 7.89835 17.9099 7.85993 17.8606 7.98479C17.8458 8.03281 17.8951 8.11445 18.0134 8.21529C18.1711 8.35936 18.1908 8.40258 18.1908 8.60427C18.1908 8.79636 18.1662 8.85399 18.0232 8.99325C17.693 9.315 17.2543 9.18054 16.9438 8.6619C16.6973 8.25851 16.3622 8.05202 15.9481 8.05202C15.6968 8.05202 15.4109 8.15287 15.2532 8.29693L15.1447 8.39298L14.9229 8.23931C14.6814 8.07603 14.3512 8.0136 14.0209 8.07123C13.809 8.11445 13.4245 8.4458 13.2372 8.74834C13.0549 9.05568 12.9021 9.15653 12.6113 9.15653C12.3993 9.15653 12.3451 9.13732 12.1972 8.99325C11.9409 8.74354 11.9705 8.46981 12.286 8.18168C12.4042 8.07123 12.424 8.03761 12.3747 7.97999C12.286 7.87434 12.212 7.89355 12.0346 8.06162Z" fill="white"/>
<path d="M8.3364 8.02454C8.29695 8.06776 8.28216 8.33188 8.29202 8.85052C8.30682 9.59967 8.30682 9.61407 8.4153 9.62848C8.56324 9.64769 8.5879 9.52763 8.56817 8.94657C8.55831 8.69205 8.56817 8.49036 8.58297 8.49516C8.59776 8.50476 8.76542 8.67764 8.94788 8.87934C9.13034 9.08583 9.298 9.25391 9.31773 9.25391C9.3917 9.25391 9.47553 9.11464 9.43608 9.05221C9.36211 8.92736 8.46955 7.95731 8.4301 7.95731C8.41037 7.95731 8.36599 7.98613 8.3364 8.02454Z" fill="white"/>
<path d="M9.07118 8.03724C9.01736 8.09437 9.02225 8.12294 9.08586 8.1896C9.16415 8.26102 9.17394 8.26102 9.25223 8.1896C9.31584 8.12294 9.32073 8.09437 9.26691 8.03724C9.23266 7.99439 9.18862 7.96106 9.16905 7.96106C9.14947 7.96106 9.10544 7.99439 9.07118 8.03724Z" fill="white"/>
<path d="M9.68373 8.02924C9.66402 8.06763 9.66402 8.13481 9.68373 8.17319C9.70837 8.23557 9.84635 8.24517 10.6348 8.23557L11.5612 8.22118V8.10122V7.98126L10.6348 7.96686C9.84635 7.95726 9.70837 7.96686 9.68373 8.02924Z" fill="white"/>
<path d="M18.7521 8.02968C18.7324 8.06806 18.7324 8.13524 18.7521 8.17363C18.7718 8.23601 18.9246 8.24561 19.6834 8.24561C20.4325 8.24561 20.6049 8.23121 20.6542 8.17363C20.7035 8.11605 20.7035 8.08726 20.6542 8.02968C20.6049 7.97209 20.4325 7.9577 19.6834 7.9577C18.9246 7.9577 18.7718 7.9673 18.7521 8.02968Z" fill="white"/>
<path d="M21.0526 8.00693C20.9596 8.05931 21.0085 8.22119 21.1211 8.22119C21.1847 8.22119 21.2238 8.1831 21.2336 8.1212C21.2483 8.0117 21.1504 7.94504 21.0526 8.00693Z" fill="white"/>
<path d="M21.2998 8.5096C21.0286 8.81694 20.8018 9.08106 20.8018 9.10507C20.8018 9.12908 20.8363 9.1723 20.8757 9.20592C20.9546 9.26835 20.999 9.22993 21.4576 8.7305L21.6894 8.47598V8.99462C21.6894 9.55168 21.719 9.65733 21.8669 9.62851C21.9557 9.61411 21.9606 9.55168 21.9754 8.85056C21.9852 8.12542 21.9606 7.95735 21.8373 7.95735C21.8176 7.95735 21.576 8.20706 21.2998 8.5096Z" fill="white"/>
<path d="M12.4823 8.27987C12.4478 8.29428 12.3887 8.36631 12.3444 8.44794C12.2508 8.62561 12.3198 8.8321 12.502 8.91373C12.6743 8.99056 12.7383 8.98096 12.886 8.86571C13.211 8.61601 12.8762 8.12621 12.4823 8.27987ZM12.7678 8.5872C12.7678 8.64482 12.625 8.70244 12.5857 8.66403C12.5709 8.64482 12.5709 8.6016 12.5857 8.56319C12.6152 8.48636 12.7678 8.51037 12.7678 8.5872Z" fill="white"/>
<path d="M17.4158 8.31614C17.273 8.41218 17.2336 8.59945 17.3222 8.76752C17.4453 8.99802 17.6817 9.03163 17.8688 8.84435C18.1839 8.54183 17.7801 8.06644 17.4158 8.31614ZM17.7161 8.63307C17.6767 8.70029 17.5487 8.68589 17.5487 8.61386C17.5487 8.57544 17.5635 8.53223 17.5832 8.51782C17.6275 8.4746 17.7506 8.58025 17.7161 8.63307Z" fill="white"/>
<path d="M10.0283 8.48012C9.81637 8.60488 9.71289 8.76323 9.71289 8.95038C9.71289 9.16631 9.8213 9.25748 10.0233 9.1999C10.2845 9.12792 10.4077 8.95038 10.3929 8.65766C10.3732 8.36975 10.2845 8.32656 10.0283 8.48012ZM10.1564 8.76803C10.1564 8.79202 10.1219 8.83521 10.0825 8.8688C10.0233 8.91679 10.0085 8.91679 10.0085 8.8592C10.0085 8.82081 10.0233 8.77283 10.043 8.75843C10.0874 8.71045 10.1564 8.71525 10.1564 8.76803Z" fill="white"/>
<path d="M19.8603 8.50498C19.7272 8.79289 19.9933 9.20557 20.3136 9.20557C20.6289 9.20557 20.5945 8.71611 20.2643 8.50018C20.0475 8.35622 19.9243 8.36102 19.8603 8.50498ZM20.2495 8.89846C20.2003 8.94644 20.1116 8.86967 20.1116 8.78329C20.1116 8.71131 20.1165 8.71131 20.1953 8.78809C20.2397 8.83128 20.2643 8.87926 20.2495 8.89846Z" fill="white"/>
<path d="M14.1284 8.83938C13.9017 8.92107 13.6258 9.13252 13.5173 9.31033C13.4434 9.43527 13.4434 9.44969 13.5173 9.52177C13.5863 9.58905 13.611 9.57944 13.7834 9.39683C14.0397 9.12772 14.1875 9.06044 14.5176 9.06044C14.7197 9.06044 14.7985 9.04121 14.8231 8.98355C14.8379 8.9451 14.833 8.89224 14.8034 8.86341C14.7197 8.78171 14.3255 8.76729 14.1284 8.83938Z" fill="white"/>
<path d="M15.543 8.82086C15.479 8.84969 15.4297 8.90736 15.4297 8.96503C15.4297 9.05153 15.4593 9.06114 15.7056 9.06114C16.0407 9.06114 16.2772 9.16206 16.4497 9.38312C16.5335 9.48884 16.6123 9.5417 16.6764 9.53209C16.8587 9.50806 16.8242 9.39273 16.5532 9.13803C16.2181 8.82086 15.8436 8.70553 15.543 8.82086Z" fill="white"/>
<path d="M15.0362 8.94138C14.9579 9.03184 15.0117 9.16516 15.1194 9.14611C15.227 9.12707 15.2613 8.94138 15.1634 8.90329C15.1243 8.889 15.0655 8.90805 15.0362 8.94138Z" fill="white"/>
<path d="M10.6631 9.09326C10.3823 9.14608 10.402 9.33337 10.7272 9.68393C11.0327 10.0153 11.3038 10.1401 11.7078 10.1401C12.0971 10.1401 12.3484 10.0489 12.3484 9.90483C12.3484 9.8376 12.2893 9.79918 12.1168 9.75596C11.9789 9.72235 11.762 9.60709 11.5994 9.48224C11.1707 9.16049 10.9145 9.05004 10.6631 9.09326ZM11.1461 9.48704C11.2643 9.56387 11.4417 9.69833 11.5354 9.77997C11.693 9.91443 11.698 9.92884 11.5846 9.89522C11.3185 9.82799 11.1559 9.73675 10.9687 9.54466C10.7371 9.30936 10.8258 9.28054 11.1461 9.48704Z" fill="white"/>
<path d="M19.3677 9.10481C19.1706 9.16724 19.0228 9.25368 18.7173 9.48419C18.5546 9.60905 18.3378 9.7243 18.1998 9.75791C18.0323 9.80113 17.9633 9.83955 17.9535 9.91158C17.9337 10.0508 18.19 10.1421 18.6088 10.1421C18.8947 10.1421 18.9932 10.1181 19.1854 10.0124C19.417 9.87797 19.693 9.59944 19.8162 9.37374C19.8753 9.26809 19.8753 9.23928 19.8112 9.18165C19.7176 9.09521 19.5254 9.06159 19.3677 9.10481ZM19.348 9.54662C19.1361 9.75791 18.9834 9.84916 18.7567 9.89718L18.6088 9.92599L18.7813 9.78192C19.0228 9.57543 19.3776 9.34973 19.4663 9.34973C19.5106 9.34973 19.4663 9.42176 19.348 9.54662Z" fill="white"/>
<path d="M14.9963 9.28622C14.9618 9.30063 14.878 9.39187 14.8139 9.48791C14.7055 9.65599 14.6759 9.6704 14.4098 9.69921C13.9809 9.74243 13.35 9.93452 12.5614 10.2659C11.896 10.5444 11.8369 10.5588 11.5313 10.5396C11.1271 10.5204 10.7081 10.3283 10.2399 9.94412C10.0378 9.78565 9.88008 9.6848 9.83572 9.70401C9.72235 9.74243 9.747 9.82407 9.92444 10.0402C10.161 10.3235 10.3335 10.6308 10.4223 10.9286C10.5751 11.4376 10.5159 11.6777 10.0723 12.3116C9.90965 12.5469 9.71742 12.8447 9.64349 12.9839C9.52519 13.2144 9.50055 13.2336 9.29353 13.2672C8.86472 13.3297 8.43097 13.0559 8.43097 12.7198C8.43097 12.5421 8.55912 12.2924 8.69713 12.206C8.76614 12.1579 8.98794 12.1051 9.19003 12.0811C9.63363 12.0331 9.816 11.9514 9.95401 11.7353C10.304 11.1783 9.70264 10.5204 9.12102 10.8133C8.9633 10.895 8.94851 10.919 9.01751 11.0246C9.05695 11.0822 9.09638 11.087 9.24425 11.0438C9.56955 10.943 9.85543 11.1591 9.78643 11.4568C9.73714 11.6777 9.5942 11.7642 9.18017 11.8266C8.97315 11.8554 8.74149 11.8986 8.66756 11.9178L8.52955 11.9514V10.9334V9.92011L8.42111 9.93452C8.30775 9.94892 8.30775 9.95373 8.27325 11.1495C8.25846 11.8074 8.22889 12.4701 8.20917 12.6238C8.1451 13.1472 8.46055 13.4833 9.05202 13.517C9.22453 13.5314 9.36747 13.541 9.36747 13.5458C9.36747 13.5506 9.31325 13.7667 9.24425 14.026C8.72178 16.0237 9.2541 18.0454 10.6786 19.5293C11.2848 20.1536 12.1819 20.7491 12.8916 20.994C13.2564 21.1236 13.2515 21.1477 12.8769 21.1525C12.2509 21.1669 11.5313 21.479 11.1419 21.9112C11.0532 22.0169 10.9595 22.0745 10.9201 22.0553C10.8609 22.0361 10.8708 21.9928 10.9743 21.8488C11.201 21.527 11.0285 21.1429 10.6342 21.0804C10.4715 21.0564 10.437 21.0276 10.368 20.8691C10.3286 20.7683 10.2202 20.6194 10.1265 20.5426C9.96387 20.3985 9.86529 20.3649 9.30832 20.2544C8.6577 20.12 8.3669 19.6446 8.62813 19.1451C8.76121 18.8954 8.75628 18.7994 8.61827 18.8186C8.54927 18.8282 8.46055 18.9098 8.39154 19.0251C8.29789 19.1836 8.2831 19.27 8.29296 19.5389C8.30775 19.8126 8.33732 19.8943 8.4704 20.0816L8.6232 20.2977L8.4359 20.3937C8.05145 20.581 7.81979 20.9844 7.76064 21.5751C7.73107 21.8392 7.74092 21.8824 7.81486 21.9112C7.86415 21.9304 7.93808 21.9208 7.98244 21.892C8.09581 21.8056 8.22396 21.7575 8.52955 21.6663C9.00766 21.5222 9.29353 21.2293 9.25903 20.9075C9.24917 20.7923 9.2196 20.7539 9.14567 20.7539C9.07666 20.7539 9.04216 20.7971 9.01751 20.9172C8.96823 21.1573 8.75135 21.3301 8.37183 21.4406C7.99723 21.551 7.99723 21.551 8.11059 21.1813C8.18453 20.9412 8.38661 20.7059 8.62813 20.581C8.78093 20.5042 9.27382 20.5042 9.60899 20.5858C9.94415 20.6626 10.1561 20.8883 10.1561 21.1717C10.1561 21.3349 10.1265 21.3974 9.96387 21.551C9.75192 21.7623 9.61884 21.7815 9.34282 21.6567C9.21467 21.5991 9.15552 21.5895 9.11609 21.6279C9.02737 21.7143 9.10624 21.8296 9.31818 21.9256L9.51534 22.0121L9.38718 22.1273C9.31818 22.1897 9.22946 22.305 9.1851 22.377C9.07173 22.5931 8.77107 22.8909 8.67249 22.8909C8.5887 22.8909 8.57884 22.8476 8.57884 22.4154C8.57884 22.0553 8.55912 21.9304 8.50491 21.8824C8.44576 21.8344 8.41619 21.8344 8.35704 21.8824C8.29789 21.9304 8.2831 22.0649 8.2831 22.5355C8.2831 23.0733 8.29296 23.131 8.38168 23.179C8.44083 23.2126 9.0323 23.2222 10.092 23.2174L11.7038 23.203L11.8566 22.9149C12.2262 22.2089 13.0444 22.0649 13.6162 22.6027C13.8873 22.8572 13.9119 22.9389 13.7148 22.9389C13.6162 22.9389 13.5571 22.9005 13.493 22.7996C13.3993 22.6459 13.0543 22.4587 12.8621 22.4587C12.5565 22.4587 12.0488 22.8668 12.0882 23.0781C12.1129 23.1982 12.31 23.203 12.3495 23.0877C12.4431 22.79 12.9262 22.6459 13.1677 22.8428C13.2712 22.9197 13.2712 22.9341 13.1972 22.9389C13.0839 22.9389 13.0346 23.0637 13.1135 23.155C13.2022 23.2606 14.0598 23.2558 14.1485 23.155C14.2471 23.0397 14.0795 22.6652 13.8035 22.4058C13.148 21.7815 12.0537 21.9592 11.6298 22.7612L11.5362 22.9389H11.1862C10.8511 22.9389 10.8412 22.9341 10.8757 22.8284C11.0679 22.2137 11.7777 21.6183 12.5171 21.4502C13.0297 21.3349 13.7394 21.4598 14.1929 21.7527C14.39 21.8776 14.464 21.9976 14.5428 22.3002C14.5724 22.4106 14.6759 22.6075 14.7794 22.7324C14.878 22.862 14.9864 23.0109 15.016 23.0589C15.0949 23.1982 15.1984 23.179 15.2772 23.0109C15.3118 22.9293 15.3955 22.814 15.4596 22.7468C15.5828 22.6171 15.7258 22.3194 15.7258 22.1945C15.7258 22.0553 15.987 21.7815 16.2384 21.6567C16.9284 21.3157 17.6826 21.3253 18.3578 21.6807C18.7768 21.9016 19.2007 22.377 19.3683 22.8044L19.4225 22.9389H19.0627H18.7078L18.5895 22.718C18.348 22.281 17.8945 22.0265 17.3474 22.0265C16.958 22.0265 16.5095 22.2522 16.2828 22.5643C16.0905 22.8236 16.0166 23.1166 16.125 23.1838C16.2137 23.2366 17.3573 23.2366 17.441 23.1838C17.4805 23.1598 17.5002 23.1022 17.4903 23.0541C17.4805 22.9821 17.4164 22.9581 17.2045 22.9389L16.9383 22.9149L17.0664 22.8284C17.3425 22.6555 17.7269 22.7564 17.8452 23.0349C17.9142 23.1982 18.0128 23.2462 18.0917 23.1502C18.2346 22.9869 17.8649 22.5499 17.5298 22.4875C17.2587 22.4346 16.9925 22.5307 16.7904 22.7468C16.6721 22.8764 16.5736 22.9389 16.4848 22.9389H16.3567L16.4553 22.7804C16.5883 22.5739 16.958 22.329 17.2045 22.2906C17.6776 22.2137 18.2346 22.5163 18.412 22.9485C18.4564 23.0637 18.5205 23.1694 18.5501 23.1886C18.6536 23.2558 21.8574 23.2366 21.9264 23.1694C22.02 23.0781 22.0052 21.9592 21.9116 21.8824C21.8524 21.8344 21.8229 21.8344 21.7637 21.8824C21.7095 21.9304 21.6898 22.0553 21.6898 22.4154C21.6898 22.6796 21.6701 22.8909 21.6454 22.8909C21.5567 22.8909 21.2905 22.6363 21.1722 22.4394C21.1032 22.329 20.9948 22.1849 20.9258 22.1225L20.8026 22.0072L20.9849 21.9064C21.0885 21.8536 21.1772 21.7719 21.187 21.7239C21.2117 21.6039 21.0589 21.5702 20.9012 21.6615C20.7188 21.7623 20.566 21.7575 20.3787 21.6471C19.9794 21.407 19.9992 20.8643 20.423 20.6482C20.5906 20.5666 21.2462 20.509 21.5123 20.557C21.7834 20.6098 22.0545 20.8883 22.158 21.2245C22.2024 21.3782 22.232 21.5126 22.2221 21.5222C22.2122 21.5366 22.0496 21.4982 21.8623 21.4454C21.4877 21.3349 21.2462 21.1429 21.2462 20.9556C21.2462 20.7923 21.123 20.6962 21.0244 20.7779C20.9258 20.8595 20.9307 20.9508 21.054 21.1957C21.1673 21.4262 21.4236 21.5991 21.7884 21.6903C21.9116 21.7239 22.094 21.7912 22.1925 21.844C22.4735 21.9976 22.5474 21.94 22.508 21.6039C22.434 20.9892 22.1975 20.5762 21.8179 20.3985L21.5961 20.2929L21.6947 20.1968C21.8524 20.0431 21.9855 19.7166 21.9855 19.4765C21.9855 19.0923 21.6947 18.6889 21.5321 18.8474C21.4976 18.881 21.5173 18.9579 21.5961 19.0779C21.9165 19.5869 21.5715 20.1872 20.9012 20.2737C20.4723 20.3313 20.221 20.4417 20.0435 20.6434C19.9499 20.7491 19.8562 20.8931 19.8414 20.9652C19.8168 21.0756 19.7872 21.0948 19.6344 21.0948C19.5013 21.0948 19.4274 21.1284 19.319 21.2485C19.1366 21.4454 19.1267 21.6759 19.2993 21.8728C19.388 21.9736 19.4028 22.0265 19.3633 22.0649C19.3239 22.1033 19.2253 22.0457 18.9937 21.8344C18.5057 21.3878 17.9635 21.1669 17.3573 21.1573C17.0763 21.1573 17.0517 21.1477 17.1552 21.1044C18.2346 20.6434 18.7472 20.3265 19.3781 19.7358C20.3245 18.8474 20.9455 17.6997 21.1525 16.4607C21.2807 15.6779 21.192 14.6263 20.9307 13.8723L20.8075 13.5266H21.0638C21.3398 13.5266 21.6602 13.4065 21.7982 13.2576C22.0003 13.0367 22.0151 12.8927 21.9954 11.3752C21.9806 10.165 21.9658 9.91531 21.9067 9.8913C21.8672 9.87689 21.8031 9.8913 21.7637 9.92491C21.7046 9.97294 21.6898 10.1602 21.6898 10.9862C21.6898 11.5385 21.6799 11.9899 21.6701 11.9899C21.6602 11.9899 21.5715 11.9562 21.4778 11.9178C21.3793 11.8794 21.2166 11.8458 21.1131 11.8458C20.5709 11.8458 20.29 11.5769 20.4378 11.1975C20.4921 11.063 20.7385 10.9862 20.9357 11.0438C21.123 11.1015 21.2314 11.0438 21.1821 10.9142C21.0983 10.7125 20.5857 10.6981 20.3738 10.895C20.0977 11.1447 20.0386 11.4424 20.2259 11.7017C20.4083 11.9707 20.5611 12.0475 20.9751 12.0859C21.5123 12.1387 21.7391 12.3212 21.7391 12.7198C21.7391 13.0752 21.3448 13.3345 20.8913 13.2672C20.6941 13.2384 20.6695 13.2144 20.5413 12.9839C20.4674 12.8447 20.2653 12.5229 20.0928 12.2636C19.7478 11.7594 19.6788 11.5433 19.7379 11.1351C19.7774 10.8517 20.0484 10.2995 20.285 10.0306C20.4674 9.82407 20.4871 9.6848 20.3294 9.6848C20.285 9.6848 20.1224 9.80006 19.9597 9.94412C19.526 10.3235 19.0972 10.5204 18.6536 10.5396C18.3036 10.5588 18.274 10.554 17.7811 10.3139C17.1453 10.0114 16.4947 9.80006 15.9919 9.72322C15.6223 9.6704 15.5927 9.66079 15.4153 9.4591C15.2378 9.26221 15.1442 9.22859 14.9963 9.28622ZM15.223 9.64639C15.4251 10.0258 15.5631 10.6885 15.4744 10.8469C15.2674 11.2263 14.74 11.0967 14.74 10.6645C14.74 10.3283 15.0111 9.54074 15.1294 9.54074C15.1491 9.54074 15.1935 9.58876 15.223 9.64639ZM14.5724 10.0786C14.5527 10.165 14.5231 10.3091 14.5083 10.3907C14.4886 10.5012 14.4541 10.5492 14.395 10.5492C14.3457 10.5492 14.0943 10.602 13.838 10.6645C13.3353 10.7893 12.6698 11.0726 12.315 11.3079C12.1375 11.428 12.0587 11.4472 11.8171 11.4472L11.5313 11.4424L11.2503 11.1255C10.8018 10.626 10.8067 10.6356 10.9989 10.7125C11.2602 10.8181 11.689 10.8517 11.9354 10.7893C12.0537 10.7605 12.3643 10.6404 12.6304 10.5204C13.1726 10.2803 13.7197 10.093 14.1633 10.0017C14.6168 9.9009 14.6118 9.9009 14.5724 10.0786ZM16.3665 10.0738C16.8003 10.1746 17.1552 10.3139 17.7713 10.602C18.1755 10.7941 18.2445 10.8133 18.5846 10.8085C18.8113 10.8085 19.0232 10.7749 19.1415 10.7269C19.2401 10.6837 19.3239 10.6645 19.3239 10.6789C19.3239 10.6933 19.181 10.8613 19.0035 11.0534C18.693 11.3944 18.6733 11.404 18.4219 11.4232C18.1952 11.4376 18.1311 11.4184 17.8649 11.2599C17.4115 10.9814 16.8101 10.7461 16.2532 10.626L15.7504 10.5156L15.7159 10.3091C15.6962 10.1986 15.6666 10.0642 15.6469 10.0114C15.6223 9.92972 15.6371 9.92011 15.8096 9.94892C15.9131 9.96813 16.1645 10.021 16.3665 10.0738ZM14.5971 11.0678C14.6414 11.1447 14.7499 11.2359 14.8336 11.2743C14.9174 11.3127 14.9864 11.356 14.9864 11.3704C14.9864 11.4232 14.8435 11.4616 14.6759 11.4616C14.1978 11.4664 13.3451 11.7642 12.8029 12.1195C12.4431 12.35 12.3988 12.3692 12.3298 12.302C12.2805 12.254 12.2509 12.1339 12.2509 11.9466V11.6633L12.522 11.4952C12.8916 11.2599 13.3796 11.0486 13.8134 10.9382C14.4393 10.7749 14.4295 10.7701 14.5971 11.0678ZM16.2236 10.8854C16.6228 10.967 17.2636 11.2167 17.6185 11.428L17.9586 11.6297L17.9734 11.913L17.9832 12.1964L17.446 12.7966C17.1305 13.1424 16.9087 13.4257 16.9186 13.4689C16.958 13.6706 17.1108 13.5602 17.653 12.9551C18.1902 12.3548 18.2198 12.3308 18.3677 12.3548C18.4564 12.3692 18.5698 12.3596 18.624 12.3308C18.7078 12.2876 18.7472 12.3068 18.8852 12.4557C19.1169 12.7198 19.452 13.2384 19.6246 13.6082C19.7527 13.8771 20.0139 14.7367 20.0139 14.8712C20.0139 14.8952 19.94 14.9576 19.8464 15.0104C19.7527 15.0681 19.6443 15.1881 19.5999 15.2794C19.4668 15.5531 19.4028 15.4907 19.3338 15.0249C19.2352 14.2949 18.9296 13.5842 18.4712 13.0127C18.2691 12.763 18.1163 12.691 18.0621 12.8254C18.0473 12.8591 18.1508 13.0367 18.2888 13.2144C18.7029 13.7475 19.0035 14.4246 19.0627 14.9768L19.0922 15.2506L18.3332 14.535C17.9142 14.1412 17.5446 13.8195 17.5101 13.8147C17.4755 13.8147 17.4361 13.8483 17.4164 13.8915C17.3967 13.9444 17.6234 14.1989 18.21 14.7703L19.0282 15.5675L17.0812 17.4644L15.1343 19.3612L13.1874 17.4644L11.2405 15.5675L12.034 14.7943C12.8079 14.0404 12.9163 13.8867 12.729 13.8243C12.6945 13.8147 12.3248 14.1316 11.9059 14.5398C11.1468 15.2698 11.1468 15.2698 11.1715 15.0825C11.2552 14.5062 11.5017 13.8819 11.8467 13.3825C12.0044 13.152 12.3248 12.8062 12.379 12.8062C12.3938 12.8062 12.5614 12.9791 12.7487 13.1904C13.0839 13.5698 13.2219 13.6466 13.281 13.4978C13.3008 13.4449 13.1923 13.2865 12.9459 13.0079L12.5762 12.5997L12.7783 12.4461C13.1825 12.1339 14.0007 11.8074 14.5675 11.7305L14.8139 11.6969L14.2077 12.2876C13.7591 12.7294 13.6113 12.9071 13.6359 12.9647C13.6507 13.0079 13.7 13.0463 13.7444 13.0463C13.7887 13.0463 14.119 12.7582 14.4788 12.4125L15.1343 11.7738L15.7997 12.4221C16.4109 13.0175 16.47 13.0608 16.544 12.9887C16.6573 12.8831 16.6081 12.8158 16.0018 12.2348C15.711 11.961 15.4892 11.7257 15.4991 11.7161C15.5434 11.6729 16.2778 11.8458 16.6031 11.9707C16.7806 12.0427 17.0418 12.1627 17.1749 12.2396C17.4312 12.3884 17.5643 12.398 17.5889 12.2684C17.6283 12.0667 16.337 11.5288 15.6716 11.476C15.3512 11.4472 15.1787 11.3752 15.3265 11.3272C15.4547 11.2839 15.7159 11.0246 15.7455 10.9094C15.7701 10.8133 15.7997 10.7941 15.8884 10.8133C15.9476 10.8277 16.1004 10.8565 16.2236 10.8854ZM11.0778 11.3272C11.3144 11.5913 11.3243 11.6153 11.3095 11.865C11.2996 12.1003 11.27 12.1579 11.0482 12.4317C10.5898 12.9935 10.1709 13.8867 10.0378 14.5782L9.97866 14.8856L9.64349 15.02L9.30832 15.1497L9.34282 14.8568C9.4414 14.0164 9.75685 13.2192 10.3138 12.4173C10.6786 11.889 10.7673 11.6345 10.7377 11.2215C10.7131 10.895 10.6884 10.8902 11.0778 11.3272ZM19.457 11.3031C19.452 11.7257 19.526 11.9322 19.8562 12.398C20.3935 13.1568 20.9012 14.4006 20.9012 14.9528C20.9012 15.0969 20.8864 15.1161 20.8174 15.0825C20.7681 15.0633 20.6251 15.0152 20.497 14.972C20.3393 14.924 20.2604 14.8712 20.2604 14.8184C20.2604 14.7751 20.2062 14.5254 20.1372 14.2661C19.9794 13.6658 19.6541 13.0079 19.2549 12.4989C18.969 12.1387 18.9394 12.0763 18.9247 11.8362C18.9049 11.5721 18.9099 11.5625 19.1662 11.2743C19.3091 11.1159 19.4373 10.9814 19.4422 10.9814C19.452 10.9814 19.457 11.1255 19.457 11.3031ZM18.6043 11.7305C18.7521 11.8746 18.6684 12.0859 18.4613 12.0859C18.4022 12.0859 18.3332 12.0619 18.2987 12.0283C18.2642 11.9947 18.2395 11.9274 18.2395 11.8698C18.2395 11.6681 18.4564 11.5865 18.6043 11.7305ZM11.965 11.8266C12.0242 11.9178 12.0192 11.9418 11.9404 12.0379C11.7629 12.254 11.4524 12.0427 11.5855 11.7978C11.6545 11.6681 11.8664 11.6873 11.965 11.8266ZM12.0981 12.4701C12.1868 12.5565 12.1868 12.5661 11.9453 12.8398C11.8073 12.9935 11.6151 13.2432 11.5165 13.3921C11.1862 13.9011 10.9004 14.7463 10.8954 15.2169C10.8954 15.433 10.8215 15.4907 10.7426 15.3418C10.6588 15.1833 10.442 14.9672 10.368 14.9672C10.2497 14.9672 10.2448 14.8376 10.3533 14.4054C10.5208 13.7427 10.9299 12.9551 11.344 12.4989C11.477 12.35 11.5017 12.3404 11.7432 12.3644C11.9009 12.374 12.0389 12.4173 12.0981 12.4701ZM10.299 15.2313C10.5406 15.3514 10.5751 15.6203 10.373 15.8172C10.2645 15.9229 10.2152 15.9373 10.0329 15.9181C9.7815 15.8892 9.3724 15.7068 9.33297 15.6059C9.28861 15.5003 9.4759 15.3514 9.76671 15.2506C10.092 15.1449 10.1265 15.1401 10.299 15.2313ZM20.6498 15.3034C20.7533 15.3514 20.8667 15.4282 20.9012 15.4715C20.9652 15.5435 20.9554 15.5723 20.8174 15.6924C20.5364 15.9373 20.1421 15.9901 19.9351 15.8172C19.6344 15.5627 19.871 15.1161 20.2752 15.1785C20.3787 15.1977 20.5512 15.2506 20.6498 15.3034ZM10.8954 15.8892C10.9004 16.4031 11.1961 17.2771 11.5461 17.8005C11.6594 17.9686 11.9009 18.2567 12.0784 18.444L12.3988 18.7754L12.2262 18.7466C12.1326 18.7273 11.9009 18.7033 11.7136 18.6841L11.3785 18.6505L11.1665 18.3864C10.856 18.0022 10.5159 17.3011 10.3779 16.7632C10.3089 16.5087 10.2547 16.2734 10.2547 16.2446C10.2547 16.2158 10.3385 16.1438 10.4469 16.0861C10.5504 16.0285 10.6638 15.9181 10.6983 15.8364C10.7919 15.6155 10.8954 15.6443 10.8954 15.8892ZM19.6048 15.8316C19.6344 15.9085 19.7379 16.0189 19.8365 16.0765C19.9351 16.1294 20.0139 16.1918 20.0139 16.2158C20.0139 16.235 19.9597 16.4655 19.8907 16.7248C19.7478 17.2675 19.4274 17.9398 19.112 18.3576L18.8902 18.6505L18.555 18.6793C18.3677 18.6985 18.1262 18.7273 18.0177 18.7466L17.8206 18.7754L18.0079 18.6217C18.6782 18.0454 19.2056 17.0514 19.3338 16.1053C19.383 15.7836 19.4126 15.6876 19.4718 15.6876C19.5161 15.6876 19.5753 15.75 19.6048 15.8316ZM14.7646 19.4237C14.7548 19.4333 14.5626 19.4093 14.3358 19.3612C12.8473 19.0683 11.6348 17.9446 11.275 16.5183C11.0778 15.75 10.9447 15.6683 12.9656 17.6324C13.9662 18.6073 14.7745 19.4141 14.7646 19.4237ZM18.9592 16.6048C18.6536 17.6324 18.0128 18.4296 17.0566 18.9627C16.6278 19.2028 15.5779 19.5005 15.4843 19.4093C15.4695 19.3901 16.263 18.5929 17.2537 17.642C18.9197 16.0285 19.0528 15.9133 19.0676 16.0381C19.0775 16.1149 19.0282 16.3695 18.9592 16.6048ZM9.6632 16.0909L9.97866 16.2062L10.0427 16.5279C10.1561 17.133 10.4025 17.7333 10.7722 18.2807C10.8905 18.468 10.994 18.6361 10.994 18.6553C10.9891 18.6745 10.856 18.7129 10.6933 18.7418L10.3976 18.7946L10.2793 18.6457C10.0822 18.3912 9.77657 17.7957 9.61884 17.3491C9.45619 16.8977 9.26396 15.9709 9.33297 15.9757C9.33789 15.9757 9.48576 16.0285 9.6632 16.0909ZM20.9258 16.1053C20.8321 16.6864 20.773 16.9601 20.6695 17.2723C20.5364 17.6613 20.1224 18.4728 19.9499 18.6793C19.8513 18.7994 19.8266 18.8042 19.6689 18.761C19.5753 18.737 19.4373 18.7129 19.3633 18.7129C19.2845 18.7129 19.2253 18.7033 19.2253 18.6841C19.2253 18.6697 19.319 18.5305 19.4274 18.3672C19.7379 17.9254 20.009 17.3203 20.1618 16.7296L20.2998 16.1966L20.5512 16.1149C20.6941 16.0717 20.8223 16.0237 20.8371 16.0045C20.9061 15.9373 20.9455 15.9853 20.9258 16.1053ZM12.2952 19.0299C12.5072 19.0683 12.8916 19.1788 13.1578 19.27C13.9711 19.5629 14.188 19.6206 14.6513 19.6782C15.366 19.7598 16.0018 19.6686 16.82 19.3612C17.7614 19.0059 18.6092 18.8618 19.2549 18.9531C19.4668 18.9771 19.6492 19.0155 19.664 19.0251C19.6788 19.0395 19.5999 19.1355 19.4964 19.2412C19.3091 19.4237 19.2894 19.4285 19.1021 19.3852C18.6043 19.27 17.6974 19.3516 17.0566 19.5677C16.5243 19.7502 15.711 20.2208 15.43 20.5138C15.2723 20.677 15.2329 20.6626 15.2329 20.4609C15.2329 20.3121 15.2181 20.2929 15.1245 20.3073C15.0357 20.3169 15.0062 20.3601 14.9963 20.4802L14.9815 20.6338L14.7252 20.4225C13.8331 19.683 12.7191 19.2988 11.6151 19.3516C11.3144 19.366 11.0334 19.3901 10.9891 19.4045C10.9398 19.4285 10.8609 19.3756 10.7525 19.2412C10.6638 19.1307 10.5997 19.0299 10.6145 19.0203C10.6638 18.9723 11.3144 18.9194 11.6101 18.9386C11.7728 18.9482 12.0784 18.9915 12.2952 19.0299ZM12.7044 19.6974C13.35 19.8415 14.0302 20.1968 14.6808 20.7251C14.9717 20.9604 14.9864 20.9844 14.9864 21.1861C14.9864 21.3061 14.9717 21.4022 14.9569 21.4022C14.9372 21.4022 14.7203 21.2101 14.4738 20.9796C13.7246 20.2833 12.9409 19.9663 11.9749 19.9615C11.5904 19.9615 11.5362 19.9519 11.3735 19.8271C11.275 19.755 11.1961 19.683 11.1912 19.6638C11.1862 19.5629 12.2065 19.5869 12.7044 19.6974ZM18.8803 19.6158L19.0972 19.6494L18.9049 19.803C18.7176 19.9519 18.6881 19.9615 18.2888 19.9615C17.7417 19.9615 17.2735 20.0624 16.8101 20.2785C16.3567 20.485 16.0462 20.7155 15.6124 21.1429L15.2822 21.4742V21.2245C15.2822 20.9748 15.2822 20.97 15.5927 20.7251C16.6475 19.8655 17.8403 19.4621 18.8803 19.6158ZM12.8818 20.3313C13.2416 20.4321 13.6261 20.6338 13.9859 20.8979C14.3063 21.1284 14.6907 21.527 14.6907 21.6279C14.6907 21.7671 14.5823 21.7239 14.3654 21.4982C14.2372 21.3638 13.976 21.1525 13.7887 21.0324C13.4683 20.8259 12.7586 20.5378 12.5516 20.5378C12.4579 20.5378 11.9305 20.2641 11.9305 20.216C11.9305 20.168 12.6107 20.2496 12.8818 20.3313ZM18.2691 20.2448C18.2198 20.3217 17.8058 20.5378 17.7121 20.5378C17.5101 20.5378 16.8003 20.8259 16.4799 21.0324C16.2926 21.1525 16.0314 21.3638 15.9032 21.4982C15.7159 21.6951 15.6518 21.7335 15.5976 21.6855C15.5434 21.6423 15.5631 21.5943 15.7159 21.4118C16.1546 20.8883 16.9777 20.4033 17.6234 20.2785C18.0325 20.1968 18.3036 20.1824 18.2691 20.2448ZM10.7377 21.4118C10.8215 21.4934 10.8116 21.6663 10.7229 21.7383C10.5356 21.8872 10.2497 21.6087 10.4025 21.4262C10.4765 21.3397 10.6539 21.3301 10.7377 21.4118ZM19.8513 21.479C19.9104 21.5702 19.9055 21.5943 19.8266 21.6903C19.6492 21.9064 19.3387 21.6951 19.4718 21.4502C19.5408 21.3205 19.7527 21.3397 19.8513 21.479ZM15.3265 21.8104C15.4202 21.916 15.4793 22.0361 15.4793 22.1129C15.4793 22.257 15.2181 22.6988 15.1343 22.6988C15.0259 22.6988 14.7893 22.3002 14.7893 22.1177C14.7893 21.9304 14.9815 21.6423 15.1097 21.6423C15.1442 21.6423 15.2427 21.7191 15.3265 21.8104ZM20.5463 22.1321C20.635 22.1849 20.8174 22.3866 20.9554 22.5835L21.2018 22.9389H20.4477H19.6936L19.5802 22.6459L19.4619 22.353L19.595 22.2185C19.8365 21.9736 20.216 21.94 20.5463 22.1321ZM10.6539 22.1993L10.7969 22.3434L10.6638 22.6411L10.5258 22.9389H9.82586H9.12595L9.31325 22.6652C9.6632 22.1561 9.88008 22.0169 10.2695 22.0457C10.4568 22.0553 10.5455 22.0937 10.6539 22.1993Z" fill="white"/>
<path d="M18.5059 12.6374C18.4911 12.6758 18.57 12.8247 18.6933 12.9831C18.8117 13.1368 18.9695 13.3625 19.0434 13.4826C19.1963 13.7419 19.4231 14.3806 19.4231 14.5487C19.4231 14.7167 19.5514 14.8128 19.65 14.7167C19.719 14.6543 19.719 14.6111 19.65 14.3326C19.507 13.7371 19.2012 13.1368 18.8413 12.7478C18.6637 12.5557 18.5503 12.5173 18.5059 12.6374Z" fill="white"/>
<path d="M14.6657 14.2908C14.2025 14.4925 14.0251 14.9247 14.0596 15.7555C14.0793 16.178 14.1039 16.3317 14.1877 16.4854C14.3996 16.8888 14.7495 17.0617 15.262 17.0184C15.6266 16.9944 15.8878 16.8552 16.0061 16.6343C16.0553 16.543 16.0948 16.3221 16.1096 16.0868C16.1293 15.7074 16.1342 15.693 16.2623 15.6642C16.4446 15.6258 16.76 15.3665 16.76 15.2512C16.76 15.1168 16.627 15.136 16.4348 15.2992C16.3264 15.3905 16.1785 15.4577 15.9864 15.4961C15.4394 15.6018 15.3408 15.6402 15.1881 15.8083C15.0205 15.9956 14.9959 16.106 15.1141 16.154C15.1634 16.1732 15.2373 16.1252 15.3359 16.01C15.4739 15.8515 15.735 15.7122 15.7942 15.7699C15.809 15.7891 15.8237 15.9139 15.8237 16.058C15.8237 16.567 15.6118 16.7927 15.1437 16.7927C14.8579 16.7927 14.6214 16.6583 14.4735 16.4086C14.3848 16.2645 14.37 16.1588 14.37 15.6402C14.37 14.9535 14.444 14.7374 14.7347 14.5501C15.0895 14.3196 15.6414 14.4493 15.7695 14.7998C15.8779 15.0783 15.9765 15.136 16.0701 14.9631C16.1145 14.8863 16.1046 14.8238 16.0209 14.6557C15.8237 14.2524 15.1536 14.0747 14.6657 14.2908Z" fill="white"/>
<path d="M11.4279 12.7478C11.0679 13.1368 10.7622 13.7371 10.6192 14.3326C10.5501 14.6111 10.5501 14.6543 10.6192 14.7167C10.7178 14.8128 10.846 14.7167 10.846 14.5487C10.846 14.2077 11.2504 13.3577 11.6202 12.9207C11.9062 12.5749 11.7336 12.4165 11.4279 12.7478Z" fill="white"/>
<path d="M9.46427 9.38099C9.41045 9.43813 9.41045 9.46669 9.47406 9.52383C9.54256 9.59049 9.55724 9.59049 9.63063 9.51907C9.69424 9.45717 9.69914 9.42384 9.6551 9.37147C9.5817 9.28576 9.53767 9.28576 9.46427 9.38099Z" fill="white"/>
<path d="M20.5406 9.33068C20.4819 9.38782 20.5015 9.53066 20.57 9.55446C20.6727 9.59255 20.7608 9.51637 20.7412 9.41639C20.7266 9.32592 20.5993 9.27355 20.5406 9.33068Z" fill="white"/>
<path d="M9.08072 9.81632C8.83434 9.93148 8.71115 10.2338 8.80477 10.4737C8.85898 10.6081 9.15463 10.5697 9.32216 10.4065C9.45521 10.2818 9.46999 10.2386 9.45521 10.0131C9.44042 9.72035 9.36158 9.67716 9.08072 9.81632ZM9.21869 10.1138C9.21869 10.1378 9.18419 10.181 9.14477 10.2146C9.08564 10.2626 9.07086 10.2626 9.07086 10.205C9.07086 10.1666 9.08564 10.1186 9.10535 10.1042C9.1497 10.0562 9.21869 10.061 9.21869 10.1138Z" fill="white"/>
<path d="M20.8358 9.76561C20.7816 9.81359 20.7963 10.2071 20.8505 10.3126C20.959 10.5094 21.4024 10.6246 21.4616 10.471C21.5502 10.2407 21.4271 9.91916 21.1955 9.804C21.0427 9.72722 20.89 9.71282 20.8358 9.76561ZM21.1955 10.1639C21.23 10.2263 21.23 10.2599 21.2004 10.2599C21.1708 10.2599 21.1265 10.2167 21.0969 10.1639C21.0624 10.1015 21.0624 10.0679 21.092 10.0679C21.1216 10.0679 21.1659 10.1111 21.1955 10.1639Z" fill="white"/>
<path d="M8.94854 12.3337C8.74651 12.4441 8.6726 12.66 8.75636 12.8807C8.79086 12.9671 9.02738 13.0967 9.14564 13.0967C9.27376 13.0967 9.51521 12.8328 9.51521 12.6936C9.51521 12.4441 9.16535 12.2185 8.94854 12.3337ZM9.23434 12.6264C9.26883 12.7272 9.21463 12.8088 9.121 12.8088C9.00767 12.8088 8.95347 12.732 8.99289 12.6408C9.02738 12.5544 9.20477 12.5448 9.23434 12.6264Z" fill="white"/>
<path d="M20.9258 12.3373C20.773 12.4237 20.709 12.5293 20.709 12.6876C20.709 13.0523 21.1377 13.2107 21.3939 12.942C21.5713 12.7548 21.5072 12.4621 21.2609 12.3373C21.1278 12.2654 21.0539 12.2654 20.9258 12.3373ZM21.2215 12.6876C21.2215 12.7932 21.0687 12.846 20.9899 12.7692C20.9061 12.6876 20.9849 12.5581 21.1081 12.5773C21.182 12.5869 21.2215 12.6253 21.2215 12.6876Z" fill="white"/>
<path d="M8.31765 13.7053C8.2634 13.7533 8.2782 16.3032 8.32751 16.3321C8.35217 16.3513 8.40641 16.3465 8.45079 16.3321C8.51983 16.308 8.52969 16.1592 8.52969 15.1747C8.52969 14.2143 8.53956 14.051 8.59873 14.0702C8.81078 14.1519 9.00803 14.1567 9.0672 14.0846C9.15597 13.979 9.05734 13.8637 8.87981 13.8637C8.81078 13.8637 8.67763 13.8205 8.58887 13.7677C8.41627 13.6668 8.36696 13.6524 8.31765 13.7053Z" fill="white"/>
<path d="M21.6799 13.7463C21.6306 13.7943 21.4974 13.8423 21.384 13.8567C21.2114 13.8807 21.1671 13.9048 21.1572 13.996C21.1375 14.1353 21.2262 14.1641 21.4827 14.1065L21.6898 14.0632V15.1581C21.6898 16.0706 21.6996 16.2626 21.7637 16.3107C21.8229 16.3587 21.8525 16.3587 21.9117 16.3107C21.9758 16.2578 21.9856 16.0658 21.9758 14.9708C21.961 13.7367 21.9561 13.6935 21.8624 13.6791C21.8081 13.6743 21.7243 13.7031 21.6799 13.7463Z" fill="white"/>
<path d="M8.34133 16.55C8.24836 16.6024 8.2875 16.7643 8.39515 16.7833C8.43919 16.7928 8.49301 16.7643 8.50769 16.7214C8.55173 16.6214 8.4294 16.4976 8.34133 16.55Z" fill="white"/>
<path d="M21.7736 16.5393C21.7247 16.5822 21.7345 16.7345 21.7834 16.7631C21.8617 16.8107 21.984 16.7393 21.984 16.6488C21.984 16.6012 21.9498 16.5489 21.9057 16.5346C21.8128 16.5012 21.8128 16.5012 21.7736 16.5393Z" fill="white"/>
<path d="M8.264 16.9799C8.24924 17.0039 8.24924 17.0613 8.264 17.1044C8.28861 17.1619 8.34767 17.1763 8.50024 17.1667C8.66265 17.1571 8.70202 17.1332 8.70202 17.0565C8.70202 16.9799 8.66265 16.956 8.49531 16.9464C8.38704 16.9368 8.27877 16.9512 8.264 16.9799Z" fill="white"/>
<path d="M21.5269 17.0056C21.4826 17.111 21.6155 17.1876 21.7976 17.1684C21.9206 17.1589 21.9649 17.1301 21.9747 17.0439C21.9895 16.9481 21.9698 16.9386 21.773 16.9386C21.6253 16.9386 21.5416 16.9625 21.5269 17.0056Z" fill="white"/>
<path d="M21.4682 17.3413C21.414 17.3796 21.3894 17.4323 21.4091 17.485C21.4583 17.6096 21.9507 17.5761 21.9753 17.4467C21.9852 17.3988 21.9655 17.3413 21.9261 17.3173C21.8276 17.2551 21.5716 17.2646 21.4682 17.3413Z" fill="white"/>
<path d="M8.26397 17.3646C8.24427 17.3886 8.2492 17.4461 8.26397 17.4892C8.28859 17.5467 8.3526 17.561 8.54955 17.5515C8.76619 17.5371 8.80066 17.5227 8.81543 17.4269C8.8302 17.3311 8.81543 17.3215 8.55939 17.3215C8.41168 17.3215 8.27874 17.3407 8.26397 17.3646Z" fill="white"/>
<path d="M8.28207 17.7285C8.2328 17.786 8.2328 17.8148 8.28207 17.8723C8.37077 17.973 8.88816 17.973 8.97686 17.8675C9.03106 17.8004 9.02613 17.7812 8.94729 17.7237C8.81918 17.6326 8.36091 17.6374 8.28207 17.7285Z" fill="white"/>
<path d="M21.3047 17.7005C21.2653 17.7245 21.2456 17.7819 21.2554 17.8299C21.2702 17.9065 21.3194 17.9209 21.6149 17.9209C21.9103 17.9209 21.9595 17.9065 21.9743 17.8299C21.9989 17.7053 21.9004 17.6574 21.6149 17.6574C21.4819 17.6574 21.3391 17.6765 21.3047 17.7005Z" fill="white"/>
<path d="M8.28207 18.1143C8.2328 18.1719 8.2328 18.2006 8.28207 18.2582C8.32642 18.3109 8.44468 18.3301 8.72555 18.3301C9.00642 18.3301 9.12468 18.3109 9.16903 18.2582C9.21831 18.2006 9.21831 18.1719 9.16903 18.1143C9.12468 18.0616 9.00642 18.0424 8.72555 18.0424C8.44468 18.0424 8.32642 18.0616 8.28207 18.1143Z" fill="white"/>
<path d="M21.1129 18.0741C21.0784 18.0837 21.0488 18.1365 21.0488 18.1892C21.0488 18.3043 21.1868 18.3378 21.6155 18.3187C21.9062 18.3043 21.9604 18.2899 21.9752 18.2132C21.9851 18.1652 21.9653 18.1077 21.9259 18.0837C21.8569 18.0406 21.2164 18.031 21.1129 18.0741Z" fill="white"/>
<path d="M8.28207 18.4966C8.2328 18.5542 8.2328 18.5829 8.28207 18.6405C8.33135 18.6932 8.45454 18.7124 8.8241 18.7124C9.19367 18.7124 9.31686 18.6932 9.36613 18.6405C9.41541 18.5829 9.41541 18.5542 9.36613 18.4966C9.31686 18.4439 9.19367 18.4247 8.8241 18.4247C8.45454 18.4247 8.33135 18.4439 8.28207 18.4966Z" fill="white"/>
<path d="M20.9168 18.4522C20.8281 18.4906 20.8379 18.6488 20.9315 18.6824C21.0498 18.7256 21.853 18.716 21.9269 18.668C21.9663 18.644 21.986 18.5865 21.9762 18.5386C21.9614 18.457 21.9072 18.4474 21.4686 18.4379C21.1976 18.4331 20.9463 18.4427 20.9168 18.4522Z" fill="white"/>
<path d="M9.07043 18.8811C8.97688 18.9913 9.09505 19.0967 9.3117 19.0967C9.53327 19.0967 9.62682 19.0392 9.6022 18.9242C9.58251 18.7996 9.16891 18.7661 9.07043 18.8811Z" fill="white"/>
<path d="M20.635 18.8861C20.5907 19.0011 20.6498 19.0394 20.8763 19.049C21.1865 19.0633 21.2062 19.0586 21.1865 18.9388C21.1717 18.8477 21.1372 18.8334 20.9206 18.819C20.7187 18.8094 20.6596 18.819 20.635 18.8861Z" fill="white"/>
<path d="M8.85449 19.2758C8.79535 19.4196 8.95796 19.4819 9.39159 19.4819C9.84492 19.4819 10.0272 19.41 9.91391 19.271C9.81536 19.1559 8.89883 19.1607 8.85449 19.2758Z" fill="white"/>
<path d="M20.33 19.2625C20.2709 19.4063 20.3645 19.4351 20.8819 19.4351C21.3944 19.4351 21.3993 19.4351 21.3845 19.3248C21.3697 19.2241 21.3451 19.2193 20.8622 19.2049C20.4532 19.1953 20.3547 19.2049 20.33 19.2625Z" fill="white"/>
<path d="M8.84417 19.652C8.82459 19.6949 8.83438 19.752 8.86374 19.7806C8.93714 19.852 9.07904 19.7853 9.05946 19.6901C9.03989 19.5806 8.88331 19.552 8.84417 19.652Z" fill="white"/>
<path d="M9.38694 19.6492C9.33274 19.7883 9.44114 19.8219 9.86491 19.8075C10.2394 19.7931 10.2788 19.7835 10.2788 19.6972C10.2788 19.6109 10.2394 19.6013 9.8452 19.5869C9.48549 19.5773 9.41158 19.5869 9.38694 19.6492Z" fill="white"/>
<path d="M19.9841 19.6496C19.9299 19.7838 20.0186 19.8174 20.4325 19.8174C20.8415 19.8174 20.9154 19.7838 20.8661 19.6352C20.8316 19.5441 20.0186 19.5537 19.9841 19.6496Z" fill="white"/>
<path d="M21.2066 19.6358C21.1332 19.7215 21.2115 19.831 21.324 19.8072C21.4366 19.7882 21.4512 19.612 21.3387 19.5882C21.2946 19.5835 21.2359 19.6025 21.2066 19.6358Z" fill="white"/>
<path d="M9.74714 19.9938C9.72757 20.0128 9.71289 20.07 9.71289 20.1176C9.71289 20.1842 9.74225 20.2081 9.82543 20.1938C9.89393 20.1842 9.93308 20.1462 9.93308 20.0843C9.93308 19.989 9.81075 19.9319 9.74714 19.9938Z" fill="white"/>
<path d="M10.1203 20.0153C10.0021 20.1303 10.1105 20.2021 10.401 20.2021C10.6915 20.2021 10.7998 20.1303 10.6816 20.0153C10.6127 19.9482 10.1892 19.9482 10.1203 20.0153Z" fill="white"/>
<path d="M19.5412 20.0328C19.487 20.1574 19.5904 20.2053 19.8711 20.1909C20.0976 20.1765 20.137 20.1621 20.137 20.0807C20.137 19.9992 20.0976 19.9849 19.8514 19.9705C19.6298 19.9609 19.5609 19.9705 19.5412 20.0328Z" fill="white"/>
<path d="M20.3285 20.0348C20.309 20.0777 20.3188 20.1348 20.3481 20.1634C20.4215 20.2348 20.5634 20.1682 20.5438 20.0729C20.5243 19.9634 20.3677 19.9349 20.3285 20.0348Z" fill="white"/>
</g>
</g>
<defs>
<clipPath id="clip0_7934_47464">
<rect x="0.479492" y="0.638672" width="28.8479" height="28.8844" rx="14.4239" fill="white"/>
</clipPath>
<clipPath id="clip1_7934_47464">
<rect width="14.8361" height="15.367" fill="white" transform="translate(7.69336 7.86035)"/>
</clipPath>
</defs>
</svg>
