<svg width="20" height="22" viewBox="0 0 20 22" fill="none" xmlns="http://www.w3.org/2000/svg">
<path fill-rule="evenodd" clip-rule="evenodd" d="M1.87873 4.07646L9.87873 2.07646C10.1943 1.99757 10.5 2.23625 10.5 2.56153V2.99998V4.49998V17.5V19V19.4384C10.5 19.7637 10.1943 20.0024 9.87873 19.9235L1.87873 17.9235C1.65615 17.8679 1.5 17.6679 1.5 17.4384V4.56153C1.5 4.3321 1.65615 4.13211 1.87873 4.07646ZM12 19V19.4384C12 20.7396 10.7772 21.6943 9.51493 21.3787L1.51493 19.3787C0.624594 19.1561 0 18.3562 0 17.4384V4.56153C0 3.6438 0.624595 2.84383 1.51493 2.62125L9.51493 0.621247C10.7772 0.305674 12 1.26039 12 2.56153V2.99998H17.5C18.6046 2.99998 19.5 3.89541 19.5 4.99998V17C19.5 18.1045 18.6046 19 17.5 19H12ZM12 4.49998V17.5H17.5C17.7761 17.5 18 17.2761 18 17V4.99998C18 4.72384 17.7761 4.49998 17.5 4.49998H12Z" fill="white"/>
</svg>
