<svg fill="none" xmlns="http://www.w3.org/2000/svg" viewBox="0 0 178 174"><g clip-path="url(#a)"><path d="M.054 89.805s1.03 31.909 27.645 53.14 63.5 22.772 93.359 24.79c29.86 2.018 52.794-14.885 56.25-40.448 3.456-25.564-19.361-33.051-31.738-62.138-12.378-29.087-11.276-38.65-37.469-56.533-26.193-17.883-67.149-6.899-88.65 23.739C-2.048 62.992.055 89.805.055 89.805Z" fill="#EAEEF7"/><path opacity=".7" d="M.054 89.805s1.03 31.909 27.645 53.14 63.5 22.772 93.359 24.79c29.86 2.018 52.794-14.885 56.25-40.448 3.456-25.564-19.361-33.051-31.738-62.138-12.378-29.087-11.276-38.65-37.469-56.533-26.193-17.883-67.149-6.899-88.65 23.739C-2.048 62.992.055 89.805.055 89.805Z" fill="#EAEEF7"/><path d="M129.911 154.922c17.425 0 31.55-4.191 31.55-9.362 0-5.17-14.125-9.361-31.55-9.361-17.424 0-31.55 4.191-31.55 9.361 0 5.171 14.126 9.362 31.55 9.362Z" fill="#0B2C4B" stroke="#0B2C4B" stroke-width=".521" stroke-linecap="round" stroke-linejoin="round"/><path d="M129.911 140.504c14.926 0 27.415 3.079 30.7 7.191a3.468 3.468 0 0 0 .85-2.153c0-5.168-14.126-9.361-31.55-9.361s-31.55 4.193-31.55 9.361c.027.793.325 1.553.845 2.153 3.281-4.112 15.78-7.191 30.705-7.191Z" fill="#fff" stroke="#263238" stroke-width=".521" stroke-linecap="round" stroke-linejoin="round"/><path d="M125.605 153.748c-10.539-.48-18.494-2.638-18.494-5.226a1.43 1.43 0 0 1 .257-.8M150.063 145.951c1.798.764 2.832 1.641 2.832 2.571 0 2.939-10.252 5.321-22.894 5.321h-.544M110.189 145.853c3.964-1.587 11.353-2.657 19.811-2.657a80.242 80.242 0 0 1 14.35 1.178M125.304 150.347c-2.67-.369-4.458-1.048-4.458-1.825 0-1.178 4.098-2.13 9.155-2.13 5.056 0 9.159.952 9.159 2.13 0 1.007-3.016 1.852-7.065 2.072" stroke="#fff" stroke-width=".521" stroke-linecap="round" stroke-linejoin="round"/><path d="M51.765 114.118a.79.79 0 0 1-.418-.116.861.861 0 0 1-.306-1.169c.211-.373 54.241-59.288 78.96-80.897a.423.423 0 0 1 .593.045.45.45 0 0 1-.045.602c-24.615 21.514-77.84 80.735-78.056 81.109a.834.834 0 0 1-.728.426Z" fill="#164778"/><path d="M54.75 102.389s2.696-2.859 4.287-2.859c1.59 0 4.642 2.697 4.463 4.108-.18 1.411-2.859.18-2.859.18s-2.498 3.393-4.997 2.858c-2.5-.535-.895-4.287-.895-4.287Z" fill="#89C0FF" stroke="#263238" stroke-width=".521" stroke-linecap="round" stroke-linejoin="round"/><path d="M60.642 103.818s1.64 1.132 1.798 1.932c.157.8-1.798 3.057-4.004 3.564-2.207.508-3.344-.728-2.697-1.892.647-1.164 3.268-3.501 4.903-3.604Z" fill="#89C0FF" stroke="#263238" stroke-width=".521" stroke-linecap="round" stroke-linejoin="round"/><path d="M127.953 93.463V34.345s-1.191 4.279-1.191 4.589" stroke="#164778" stroke-width=".521" stroke-linecap="round" stroke-linejoin="round"/><path d="M152.607 96.578h-45.334V132.9h45.334V96.578Z" fill="#fff" stroke="#164778" stroke-width=".521" stroke-linecap="round" stroke-linejoin="round"/><path d="M128.592 96.425v-2.076a.52.52 0 0 0-1.043 0v2.076h1.043ZM132.775 91.364v.103a.517.517 0 0 0-.584-.248.51.51 0 0 0-.378.51v5.554a1.606 1.606 0 0 1-.724 1.345 1.603 1.603 0 0 1-1.523.125.9.9 0 0 0 .135 1.123 2.62 2.62 0 0 0 3.146-2.593v-2.575h1.195l-1.267-3.344Z" fill="#164778"/><path d="M127.998 33.792s.926-3.294.103-2.984c-.822.31-.103 2.984-.103 2.984ZM127.997 33.792s-3.497-1.236-3.191-.103c.306 1.132 3.191.103 3.191.103Z" stroke="#164778" stroke-width=".521" stroke-linecap="round" stroke-linejoin="round"/><path d="M52.637 62.47s-4.315-2.417-12.773-1.208C31.406 62.47 29.793 69.45 31.172 76.7c1.38 7.249 9.38 13.388 10.589 12.871 1.209-.517-.346-16.745 2.418-19.85 2.764-3.106 11.734-2.59 12.256-5.008.521-2.417-3.798-2.242-3.798-2.242Z" fill="#0B2C4B" stroke="#263238" stroke-width=".521" stroke-linecap="round" stroke-linejoin="round"/><path d="m37.577 66.776.899 5.712s-5.42 14.79-4.54 16.84c.882 2.05 9.08 2.782 9.08 2.782s13.325 1.609 17.28 0c3.955-1.609 1.905-6.292 1.465-7.613-.44-1.322-2.93-11.865-2.93-11.865s.898-2.49.898-3.807c0-1.317-.148-4.98-.732-5.842-.585-.863-10.84-1.906-15.38-1.173-4.539.732-6.624 1.892-6.04 4.966Z" fill="#11406C" stroke="#11406C" stroke-width=".521" stroke-linecap="round" stroke-linejoin="round"/><path d="M39.922 73.365s-.148 12.741.585 15.23c.732 2.49 3.663 5.421 9.81 4.689 6.149-.733 6.742-6.594 6.742-6.594l-.45-13.617-16.687.292Z" fill="#fff" stroke="#263238" stroke-width=".521" stroke-linecap="round" stroke-linejoin="round"/><path d="M49.37 83.611a1.097 1.097 0 1 0 0-2.193 1.097 1.097 0 0 0 0 2.193Z" stroke="#263238" stroke-width=".521" stroke-miterlimit="10"/><path d="M50.319 87.13a.733.733 0 1 1-1.465 0 .733.733 0 0 1 1.465 0ZM45.897 77.823c.45.503.633 1.11.364 1.348-.27.239-.859.045-1.349-.45-.49-.493-.629-1.114-.364-1.347.265-.234.9-.054 1.349.45ZM51.847 77.823c-.472.503-.633 1.11-.368 1.348.265.239.863.045 1.348-.45.486-.493.634-1.114.369-1.347-.265-.234-.881-.054-1.349.45Z" fill="#263238"/><path d="M42.75 76.092a2.8 2.8 0 0 1 3.056-1.123M51.613 75.13s2.09-.642 2.733 1.124" stroke="#263238" stroke-width=".521" stroke-linecap="round" stroke-linejoin="round"/><path d="M58.664 156.85s2.3-1.38 3.595-1.924c.135-.058.26-.108.369-.143 1.128-.374 4.319-.189 7.325-2.063 3.007-1.874 1.501-4.135-.75-4.697-2.252-.562-4.697-1.317-4.697-1.317l-.584-8.813s-6.741 1.879-9.015 2.818c-2.274.939-.922 14.26-.75 15.388.17 1.128.188 1.879 4.507.751Z" fill="#263238" stroke="#263238" stroke-width=".521" stroke-linecap="round" stroke-linejoin="round"/><path d="M66.18 152.724c-3.946.75-3.946 1.501-8.265 2.247-1.27.254-2.563.36-3.856.315.04.4.076.687.099.813.188 1.128.188 1.879 4.494.751 0 0 2.3-1.38 3.595-1.924.135-.058.26-.108.369-.144 1.128-.373 4.319-.188 7.325-2.063.962-.602 1.461-1.244 1.623-1.856a22.61 22.61 0 0 1-5.384 1.861Z" fill="#fff" stroke="#263238" stroke-width=".521" stroke-linecap="round" stroke-linejoin="round"/><path d="M67.748 147.907s-.148 10.246-.45 12.444c-.3 2.198.15 4.98 3.515 4.98 3.367 0 9.96-2.198 12.301-2.634 2.342-.436 6.153-1.465 7.762-5.128 1.609-3.663-8.202-3.222-8.202-3.222l.597-7.465s-10.107 2.049-15.523 1.025Z" fill="#0B2C4B" stroke="#0B2C4B" stroke-width=".521" stroke-linecap="round" stroke-linejoin="round"/><path d="M90.883 157.569c.18-.355.222-.762.121-1.146a9.176 9.176 0 0 1-3.928 3.051c-3.514 1.466-10.103 3.075-15.082 3.807-2.279.333-3.722-.036-4.625-.535.324 1.416 1.272 2.584 3.452 2.584 3.366 0 9.959-2.197 12.3-2.633 2.342-.436 6.153-1.465 7.762-5.128Z" fill="#fff" stroke="#263238" stroke-width=".521" stroke-linecap="round" stroke-linejoin="round"/><path d="M82.682 154.347s.733 2.49-1.317 4.103" stroke="#fff" stroke-width=".521" stroke-linecap="round" stroke-linejoin="round"/><path d="M66.723 142.487s-.23 4.453 0 5.348c.94 3.38 1.24 2.589 8.27 2.44 7.028-.148 9.887-2.957 10.601-4.714.715-1.758 0-5.564-.292-6.881-.292-1.317-2.638-1.757-3.514-1.613-.877.143-14.63 3.972-15.065 5.42Z" fill="#205689" stroke="#263238" stroke-width=".521" stroke-linecap="round" stroke-linejoin="round"/><path d="M18.396 153.623v9.842a2.12 2.12 0 0 0 1.142 1.879l15.82 8.171a2.141 2.141 0 0 0 1.834.049l23.302-8.885a2.099 2.099 0 0 0 1.25-1.924v-11.923l-26.633 8.054-16.714-5.263Z" fill="#999"/><path d="M18.396 153.623v9.842a2.12 2.12 0 0 0 1.142 1.879l15.82 8.171a2.141 2.141 0 0 0 1.834.049l23.302-8.885a2.099 2.099 0 0 0 1.25-1.924v-11.923l-26.633 8.054-16.714-5.263Z" stroke="#263238" stroke-width=".521" stroke-linecap="round" stroke-linejoin="round"/><path d="m42.75 136.994-25.568 8.202a.992.992 0 0 0-.692.944v7.29a.992.992 0 0 0 .567.899l17.801 8.48a.98.98 0 0 0 .773.036l26.786-10.008a.999.999 0 0 0 .643-.931l.05-6.822a1 1 0 0 0-.783-.971l-19.069-7.119a1.016 1.016 0 0 0-.508 0Z" fill="#fff"/><path d="m42.75 136.994-25.568 8.202a.992.992 0 0 0-.692.944v7.29a.992.992 0 0 0 .567.899l17.801 8.48a.98.98 0 0 0 .773.036l26.786-10.008a.999.999 0 0 0 .643-.931l.05-6.822a1 1 0 0 0-.783-.971l-19.069-7.119a1.016 1.016 0 0 0-.508 0Z" stroke="#263238" stroke-width=".521" stroke-linecap="round" stroke-linejoin="round"/><path d="M77.85 123.597s3.366 1.609 5.128 4.832c1.761 3.222.449 9.37-.59 11.276-1.037 1.905-7.905 2.782-10.25 2.782-2.347 0-2.783-.292-2.783-.292s-7.469 1.465-12.134 2.341c-4.665.876-3.515-10.103-2.05-15.083 1.466-4.979 9.663-7.469 13.034-7.469 3.37 0 9.645 1.613 9.645 1.613Z" fill="#0B2C4B" stroke="#0B2C4B" stroke-width=".521" stroke-linecap="round" stroke-linejoin="round"/><path d="M69.356 142.194s6.291-2.197 8.934-7.761M75.361 138.972a16.763 16.763 0 0 0 5.42-3.663" stroke="#fff" stroke-width=".521" stroke-linecap="round" stroke-linejoin="round"/><path d="M60.57 128.429s1.757 9.226.899 13.033c-.858 3.807-6.004 4.391-7.19 3.955-1.187-.436-.585-9.519-.585-14.058s4.535-4.252 6.876-2.93Z" fill="#757575" stroke="#263238" stroke-width=".521" stroke-linecap="round" stroke-linejoin="round"/><path d="M23.227 103.827s-1.025 6.004-.293 8.93a12.45 12.45 0 0 0 2.05 4.539s-3.658 5.42-2.908 9.959 2.634 5.128 2.634 5.128-1.61 8.346 1.317 11.276c2.925 2.931 9.375 6.148 16.547 4.832 7.173-1.317 12.01-1.614 13.483-4.099 1.474-2.486.584-13.483.584-13.483s-.292-12.157-.584-19.622-1.317-13.483-4.831-16.404c-3.515-2.921-19.038 1.613-23.725 4.688-4.688 3.074-4.274 4.256-4.274 4.256Z" fill="#89C0FF"/><mask id="b" style="mask-type:alpha" maskUnits="userSpaceOnUse" x="43" y="120" width="36" height="55"><path d="M45.195 129.974s-1.024 6.004-.292 8.93a12.433 12.433 0 0 0 2.05 4.539s-3.659 5.42-2.908 9.96c.75 4.539 2.633 5.128 2.633 5.128s-1.608 8.345 1.317 11.276c2.926 2.93 9.375 6.148 16.548 4.831 7.173-1.317 12.009-1.613 13.483-4.099 1.474-2.485.584-13.483.584-13.483s-.292-12.157-.584-19.621c-.292-7.465-1.317-13.483-4.831-16.405-3.515-2.921-19.038 1.614-23.726 4.688-4.687 3.074-4.274 4.256-4.274 4.256Z" fill="#fff"/></mask><g mask="url(#b)"><path d="M24.27 103.826s-1.024 6.004-.291 8.93a12.435 12.435 0 0 0 2.05 4.539s-3.66 5.42-2.931 9.96c.728 4.539 2.638 5.128 2.638 5.128s-1.609 8.346 1.317 11.276c2.925 2.93 9.375 6.148 16.548 4.831 7.172-1.317 12.008-1.613 13.483-4.099 1.474-2.485.584-13.482.584-13.482s-.292-12.157-.584-19.622c-.293-7.465-1.317-13.483-4.832-16.405-3.514-2.92-19.038 1.614-23.725 4.688-4.688 3.074-4.256 4.256-4.256 4.256Z" fill="#6C98C9"/></g><path d="M23.227 103.827s-1.025 6.004-.293 8.93a12.45 12.45 0 0 0 2.05 4.539s-3.658 5.42-2.908 9.959 2.634 5.128 2.634 5.128-1.61 8.346 1.317 11.276c2.925 2.931 9.375 6.148 16.547 4.832 7.173-1.317 12.01-1.614 13.483-4.099 1.474-2.486.584-13.483.584-13.483s-.292-12.157-.584-19.622-1.317-13.483-4.831-16.404c-3.515-2.921-19.038 1.613-23.725 4.688-4.688 3.074-4.274 4.256-4.274 4.256Z" stroke="#263238" stroke-width=".521" stroke-linecap="round" stroke-linejoin="round"/><path d="M24.984 117.296a17.797 17.797 0 0 0 15.672 2.198M24.691 132.383s7.47 7.321 19.775.292" stroke="#263238" stroke-width=".521" stroke-linecap="round" stroke-linejoin="round"/><path d="M53.833 96.65s-2.782-4.248-6.588-6.59c-3.807-2.34-13.618-4.103-17.573-4.83-3.955-.729-8.202-.45-9.37 3.95-1.169 4.4-1.03 11.716.143 14.939 1.173 3.222 6.005 5.123 9.811 2.93 3.807-2.193 14.35-10.692 18.013-11.132 3.663-.44 5.268 2.346 5.564.732Z" fill="#0B2C4B"/><path d="M53.833 96.65s-2.782-4.248-6.588-6.59c-3.807-2.34-13.618-4.103-17.573-4.83-3.955-.729-8.202-.45-9.37 3.95-1.169 4.4-1.03 11.716.143 14.939 1.173 3.222 6.005 5.123 9.811 2.93 3.807-2.193 14.35-10.692 18.013-11.132 3.663-.44 5.268 2.346 5.564.732Z" stroke="#263238" stroke-width=".521" stroke-linecap="round" stroke-linejoin="round"/><path d="M69.649 116.568s3.37.449 5.568 1.317c2.198.867 3.658 6.292 2.782 7.029-.876.737-2.638-.149-2.638-.149-1.377.486-2.8.83-4.247 1.025-1.758.148-3.645-8.197-1.465-9.222Z" fill="#89C0FF" stroke="#263238" stroke-width=".521" stroke-linecap="round" stroke-linejoin="round"/><path d="M58.521 116.127s.584 0 3.807-1.465c3.222-1.465 5.843-1.465 7.91 1.757 2.067 3.223 2.926 7.191 1.757 9.519-1.168 2.328-5.568 3.955-7.91 3.955-2.341 0-2.633-3.078-2.633-3.078s-.297-4.832-1.758-6.589c-1.46-1.757-1.757-3.658-1.173-4.099Z" fill="#205689" stroke="#263238" stroke-width=".521" stroke-linecap="round" stroke-linejoin="round"/><path d="M47.694 96.65c3.222-1.174 7.32-.45 8.786 3.662 1.465 4.112 2.782 16.107 2.782 16.107s3.658.45 5.123 2.05c1.465 1.6 2.198 5.712 1.906 7.761-.292 2.05-5.42 5.843-11.276 6.005-5.856.161-10.104-2.634-12.157-10.103-2.054-7.47-1.236-18.876-1.236-18.876s.746-3.349 1.86-4.095" fill="#89C0FF"/><mask id="c" style="mask-type:alpha" maskUnits="userSpaceOnUse" x="63" y="122" width="26" height="37"><path d="M69.662 122.797c3.223-1.173 7.321-.45 8.786 3.662 1.466 4.113 2.783 16.108 2.783 16.108s3.658.449 5.123 2.049c1.465 1.6 2.198 5.712 1.906 7.762-.293 2.049-5.42 5.842-11.277 6.004-5.856.162-10.103-2.634-12.157-10.103-2.053-7.469-1.235-18.876-1.235-18.876s.745-3.348 1.86-4.094" fill="#fff"/></mask><g mask="url(#c)"><path d="M66.282 126.231c.292-2.05-.45-6.149-1.906-7.762-.058-.063-.126-.121-.189-.184.179 1.314.285 2.638.32 3.964.287 8.597-11.722 7.159-14.149.934-1.303-3.352-1.671-18.053-5.581-19.172-2.248-.643-3.02 1.124-3.268 2.737-.076 4.22.059 10.714 1.349 15.384 2.053 7.469 6.292 10.251 12.157 10.103 5.865-.148 10.975-3.955 11.267-6.004Z" fill="#80B4EE"/></g><path d="M47.694 96.65c3.222-1.174 7.32-.45 8.786 3.662 1.465 4.112 2.782 16.107 2.782 16.107s3.658.45 5.123 2.05c1.465 1.6 2.198 5.712 1.906 7.761-.292 2.05-5.42 5.843-11.276 6.005-5.856.161-10.104-2.634-12.157-10.103-2.054-7.47-1.236-18.876-1.236-18.876s.746-3.349 1.86-4.095" stroke="#263238" stroke-width=".521" stroke-linecap="round" stroke-linejoin="round"/><path d="M59.253 116.419s1.141 5.335-4.737 8.274" stroke="#263238" stroke-width=".521" stroke-linecap="round" stroke-linejoin="round"/><g opacity=".5"><path d="M129.5 117.087c0-.889.72-1.609 1.609-1.609h15.282c.889 0 1.609.72 1.609 1.609v11.261c0 .888-.72 1.608-1.609 1.608h-15.282c-.889 0-1.609-.72-1.609-1.608v-11.261Z" fill="#ADD3FF"/><path fill-rule="evenodd" clip-rule="evenodd" d="M111 117.087c0-.889.72-1.609 1.609-1.609h15.282c.889 0 1.609.72 1.609 1.609v3.041a.98.98 0 0 0 .981.981c.278 0 .538-.128.758-.299a2.413 2.413 0 1 1 0 3.814c-.22-.171-.48-.298-.759-.298a.98.98 0 0 0-.98.98v3.042c0 .888-.72 1.608-1.609 1.608h-15.282c-.889 0-1.609-.72-1.609-1.608v-11.261Z" fill="#5BA8FF"/><path fill-rule="evenodd" clip-rule="evenodd" d="M111 102.609c0-.889.72-1.609 1.609-1.609h15.282c.889 0 1.609.72 1.609 1.609v11.261c0 .888-.72 1.608-1.609 1.608h-4.65a.98.98 0 0 0-.98.981c0 .278.127.537.298.758a2.413 2.413 0 1 1-3.814 0c.171-.221.299-.48.299-.759a.98.98 0 0 0-.981-.98h-5.454c-.889 0-1.609-.72-1.609-1.608v-11.261Z" fill="#89C0FF"/></g></g><defs><clipPath id="a"><path fill="#fff" d="M0 0h177.663v174H0z"/></clipPath></defs></svg>