<svg width="22" height="22" viewBox="0 0 22 22" fill="none" xmlns="http://www.w3.org/2000/svg">
<path fill-rule="evenodd" clip-rule="evenodd" d="M1.5 1.5V20.5H8.5V1.5H1.5ZM1 0C0.447715 0 0 0.447716 0 1V21C0 21.5523 0.447715 22 1 22H9C9.55229 22 10 21.5523 10 21V1C10 0.447715 9.55228 0 9 0H1ZM13.5 1.5V8.5H20.5V1.5H13.5ZM13 0C12.4477 0 12 0.447715 12 1V9C12 9.55229 12.4477 10 13 10H21C21.5523 10 22 9.55228 22 9V1C22 0.447715 21.5523 0 21 0H13ZM12.7539 12.25C12.3397 12.25 12.0039 12.5858 12.0039 13C12.0039 13.4142 12.3397 13.75 12.7539 13.75H21.25C21.6642 13.75 22 13.4142 22 13C22 12.5858 21.6642 12.25 21.25 12.25H12.7539ZM12.0039 17C12.0039 16.5858 12.3397 16.25 12.7539 16.25H21.25C21.6642 16.25 22 16.5858 22 17C22 17.4142 21.6642 17.75 21.25 17.75H12.7539C12.3397 17.75 12.0039 17.4142 12.0039 17ZM12.7539 20.25C12.3397 20.25 12.0039 20.5858 12.0039 21C12.0039 21.4142 12.3397 21.75 12.7539 21.75H21.25C21.6642 21.75 22 21.4142 22 21C22 20.5858 21.6642 20.25 21.25 20.25H12.7539Z" fill="#040483"/>
</svg>
