<svg width="18" height="22" viewBox="0 0 18 22" fill="none" xmlns="http://www.w3.org/2000/svg">
<path fill-rule="evenodd" clip-rule="evenodd" d="M4 1.75C2.75736 1.75 1.75 2.75736 1.75 4V18C1.75 19.2426 2.75736 20.25 4 20.25H14C15.2426 20.25 16.25 19.2426 16.25 18V6.75H14C12.4812 6.75 11.25 5.51878 11.25 4V1.75H4ZM12.75 2.81066L15.1893 5.25H14C13.3096 5.25 12.75 4.69036 12.75 4V2.81066ZM0.25 4C0.25 1.92893 1.92893 0.25 4 0.25H12H12.3107L12.5303 0.46967L17.5303 5.46967L17.75 5.68934V6V18C17.75 20.0711 16.0711 21.75 14 21.75H4C1.92893 21.75 0.25 20.0711 0.25 18V4ZM4.25 11C4.25 10.5858 4.58579 10.25 5 10.25H10C10.4142 10.25 10.75 10.5858 10.75 11C10.75 11.4142 10.4142 11.75 10 11.75H5C4.58579 11.75 4.25 11.4142 4.25 11ZM5 14.75C4.58579 14.75 4.25 15.0858 4.25 15.5C4.25 15.9142 4.58579 16.25 5 16.25H13C13.4142 16.25 13.75 15.9142 13.75 15.5C13.75 15.0858 13.4142 14.75 13 14.75H5Z" fill="#040483"/>
</svg>
