<svg width="36" height="36" viewBox="0 0 36 36" fill="none" xmlns="http://www.w3.org/2000/svg">
<path fill-rule="evenodd" clip-rule="evenodd" d="M6 4C3.79086 4 2 5.8045 2 8.03046V16.0914C2 18.3174 3.79086 20.1219 6 20.1219H17V18.1066H6C4.89543 18.1066 4 17.2044 4 16.0914V8.03046C4 6.91748 4.89543 6.01523 6 6.01523H30C31.1046 6.01523 32 6.91748 32 8.03046V16.0914C32 17.2044 31.1046 18.1066 30 18.1066H25L26 20.1219H30C32.2091 20.1219 34 18.3174 34 16.0914V8.03046C34 5.8045 32.2091 4 30 4H6ZM10.004 11.0537C9.4495 11.0537 9 11.5032 9 12.0577C9 12.6122 9.4495 13.0617 10.004 13.0617H25.996C26.5505 13.0617 27 12.6122 27 12.0577C27 11.5032 26.5505 11.0537 25.996 11.0537H10.004Z" fill="#666666"/>
<path fill-rule="evenodd" clip-rule="evenodd" d="M15.1136 17.7998C14.5652 16.188 16.0959 14.6456 17.6955 15.1982L30.415 19.5924C32.3042 20.245 32.2241 22.9644 30.2998 23.503L24.8653 25.0241L23.3557 30.5C22.8211 32.439 20.1223 32.5197 19.4746 30.6161L15.1136 17.7998ZM18.0185 17.4749C17.6187 17.3367 17.236 17.7223 17.3731 18.1253L20.8657 28.3896C21.0276 28.8655 21.7023 28.8453 21.8359 28.3606L23.2143 23.3606L28.1765 21.9717C28.6576 21.8371 28.6776 21.1572 28.2053 20.9941L18.0185 17.4749Z" fill="black"/>
</svg>
