<svg width="36" height="36" viewBox="0 0 36 36" fill="none" xmlns="http://www.w3.org/2000/svg">
<path fill-rule="evenodd" clip-rule="evenodd" d="M10.717 10.2824C11.1074 10.673 11.1073 11.3062 10.7166 11.6966L4.41493 17.9947L10.7204 24.2929C11.1112 24.6833 11.1115 25.3164 10.7212 25.7072C10.3309 26.0979 9.69776 26.0983 9.30701 25.708L2.30582 18.7148L2.29269 18.7019C2.09757 18.5066 2.00001 18.2508 2 17.995C1.99994 17.7392 2.09742 17.4833 2.29249 17.2881L2.3056 17.2752L9.30281 10.2819C9.69344 9.89154 10.3266 9.89172 10.717 10.2824ZM25.2963 10.2931C24.9065 10.6837 24.9067 11.3169 25.2967 11.7073L31.589 18.0056L25.2929 24.3041C24.9027 24.6944 24.9023 25.3275 25.292 25.7183C25.6818 26.109 26.314 26.1094 26.7041 25.7191L33.7071 18.7134C33.8315 18.589 33.9162 18.4399 33.9614 18.2819C34.0581 17.9438 33.9734 17.5646 33.7074 17.2984L26.7083 10.2927C26.3183 9.90228 25.6861 9.90246 25.2963 10.2931Z" fill="black"/>
<path d="M17.8423 8.78827C17.934 8.32993 18.3365 8 18.8039 8C19.4227 8 19.8868 8.56611 19.7654 9.17289L16.1577 27.2117C16.066 27.6701 15.6635 28 15.1961 28C14.5773 28 14.1132 27.4339 14.2346 26.8271L17.8423 8.78827Z" fill="#666666"/>
</svg>
