<svg width="36" height="36" viewBox="0 0 36 36" fill="none" xmlns="http://www.w3.org/2000/svg">
<path fill-rule="evenodd" clip-rule="evenodd" d="M9 4C8.44772 4 8 4.44772 8 5V28C8 28.5523 8.44772 29 9 29H15C15.5523 29 16 29.4477 16 30C16 30.5523 15.5523 31 15 31H9C7.34315 31 6 29.6569 6 28V5C6 3.34315 7.34315 2 9 2H17H17.7217C18.6476 2 19.5216 2.42753 20.09 3.15844L25.3683 9.94638C25.7777 10.4729 26 11.1209 26 11.7879V18.3683C26 18.9206 25.5523 19.3683 25 19.3683C24.4477 19.3683 24 18.9206 24 18.3683V13H17C16.4477 13 16 12.5523 16 12V4H9ZM18 11H23.654L18.5111 4.38615C18.3801 4.2177 18.2004 4.09759 18 4.0395V11Z" fill="#666666"/>
<path fill-rule="evenodd" clip-rule="evenodd" d="M21.5 32C25.0899 32 28 29.0899 28 25.5C28 21.9101 25.0899 19 21.5 19C17.9101 19 15 21.9101 15 25.5C15 29.0899 17.9101 32 21.5 32ZM21.5 34C26.1944 34 30 30.1944 30 25.5C30 20.8056 26.1944 17 21.5 17C16.8056 17 13 20.8056 13 25.5C13 30.1944 16.8056 34 21.5 34ZM19.9339 22.9524C19.7112 21.9504 20.4736 21 21.5 21C22.5264 21 23.2888 21.9504 23.0662 22.9524L22.3113 26.3492C22.2268 26.7295 21.8895 27 21.5 27C21.1105 27 20.7732 26.7295 20.6887 26.3492L19.9339 22.9524ZM21.5 30C22.0523 30 22.5 29.5523 22.5 29C22.5 28.4477 22.0523 28 21.5 28C20.9477 28 20.5 28.4477 20.5 29C20.5 29.5523 20.9477 30 21.5 30Z" fill="black"/>
</svg>
