<svg width="36" height="36" viewBox="0 0 36 36" fill="none" xmlns="http://www.w3.org/2000/svg">
<path fill-rule="evenodd" clip-rule="evenodd" d="M20.05 17L21 17L21 19L20.05 19L20.05 17ZM16.25 17L18.15 17L18.15 19L16.25 19L16.25 17ZM12.45 17L14.35 17L14.35 19L12.45 19L12.45 17ZM8.65 17L10.55 17L10.55 19L8.65 19L8.65 17ZM4.85 17L6.75 17L6.75 19L4.85 19L4.85 17ZM2 17L2.95 17L2.95 19L2 19L2 17Z" fill="#666666"/>
<path fill-rule="evenodd" clip-rule="evenodd" d="M18 4C16.3431 4 15 5.34315 15 7V14C15 14.5523 15.4477 15 16 15C16.5523 15 17 14.5523 17 14V7C17 6.44772 17.4477 6 18 6H31C31.5523 6 32 6.44772 32 7V29C32 29.5523 31.5523 30 31 30H18C17.4477 30 17 29.5523 17 29V22C17 21.4477 16.5523 21 16 21C15.4477 21 15 21.4477 15 22V29C15 30.6569 16.3431 32 18 32H31C32.6569 32 34 30.6569 34 29V7C34 5.34315 32.6569 4 31 4H18ZM20.3039 21.1789L22.5377 19H11C10.4477 19 10 18.5523 10 18C10 17.4477 10.4477 17 11 17H22.6447L20.3019 14.716C19.9065 14.3305 19.8984 13.6974 20.284 13.3019C20.6695 12.9065 21.3026 12.8984 21.6981 13.284L25.737 17.2215C25.7465 17.2304 25.7558 17.2396 25.7649 17.249C25.8079 17.2931 25.846 17.3401 25.8793 17.3895C25.9157 17.4436 25.9464 17.5006 25.9711 17.5594C26.1221 17.9187 26.0544 18.349 25.7652 18.6455L25.7541 18.6568C25.7179 18.6983 25.6784 18.7368 25.6359 18.7718L21.7005 22.6106C21.3051 22.9962 20.672 22.9884 20.2864 22.593C19.9007 22.1977 19.9086 21.5646 20.3039 21.1789Z" fill="black"/>
</svg>
