<svg width="36" height="36" viewBox="0 0 36 36" fill="none" xmlns="http://www.w3.org/2000/svg">
<path fill-rule="evenodd" clip-rule="evenodd" d="M29.1 17L30 17L30 19L29.1 19L29.1 17ZM25.5 17L27.3 17L27.3 19L25.5 19L25.5 17ZM21.9 17L23.7 17L23.7 19L21.9 19L21.9 17ZM18.3 17L20.1 17L20.1 19L18.3 19L18.3 17ZM14.7 17L16.5 17L16.5 19L14.7 19L14.7 17ZM12 17L12.9 17L12.9 19L12 19L12 17Z" fill="#666666"/>
<path fill-rule="evenodd" clip-rule="evenodd" d="M18.0001 4C16.3433 4 15.0001 5.34315 15.0001 7V14C15.0001 14.5523 15.4478 15 16.0001 15C16.5524 15 17.0001 14.5523 17.0001 14V7C17.0001 6.44772 17.4478 6 18.0001 6H31.0001C31.5524 6 32.0001 6.44772 32.0001 7V29C32.0001 29.5523 31.5524 30 31.0001 30H18.0001C17.4478 30 17.0001 29.5523 17.0001 29V22C17.0001 21.4477 16.5524 21 16.0001 21C15.4478 21 15.0001 21.4477 15.0001 22V29C15.0001 30.6569 16.3433 32 18.0001 32H31.0001C32.657 32 34.0001 30.6569 34.0001 29V7C34.0001 5.34315 32.657 4 31.0001 4H18.0001ZM7.74524 21.1789L5.51147 19H17.0492C17.6015 19 18.0492 18.5523 18.0492 18C18.0492 17.4477 17.6015 17 17.0492 17H5.40444L7.74724 14.716C8.1427 14.3305 8.15075 13.6974 7.76522 13.3019C7.3797 12.9065 6.74658 12.8984 6.35112 13.284L2.31215 17.2215C2.30272 17.2304 2.29342 17.2396 2.28427 17.249C2.24126 17.2931 2.20315 17.3401 2.16992 17.3895C2.13345 17.4436 2.10283 17.5006 2.07808 17.5594C1.92706 17.9187 1.99482 18.349 2.28396 18.6455L2.29508 18.6568C2.33125 18.6983 2.3708 18.7368 2.41329 18.7718L6.34872 22.6106C6.74407 22.9962 7.37718 22.9884 7.76282 22.593C8.14846 22.1977 8.14059 21.5646 7.74524 21.1789Z" fill="black"/>
</svg>
