<svg width="36" height="36" viewBox="0 0 36 36" fill="none" xmlns="http://www.w3.org/2000/svg">
<path d="M33 4.07143V27C28.7752 28.5094 27.4884 29 25 29C20.7933 29 19.1987 26 15 26C13.2475 26 11.9652 26.935 10.7658 27.3623C10.1116 27.596 9.42857 27.1138 9.42857 26.4174C9.42857 25.9983 9.68913 25.6239 10.0817 25.4772C11.4911 24.9509 12.8504 24 15 24C19.2007 24 20.7953 27 25 27C27.0022 27 28.3951 26.9442 31 26V7C28.3951 7.9442 27.0022 8 25 8C20.7933 8 19.1987 6 15 6C10.7879 6 9.20737 8 5 8V31.9286C5 32.5179 4.59196 33 4 33C3.40804 33 3 32.5179 3 31.9286V4.07143C3 3.47946 3.4083 3 4 3C4.5917 3 5 3.47946 5 4.07143V6C9.20737 6 10.79 4 15 4C19.2007 4 20.7931 6.21429 24.9978 6.21429C27.4888 6.21429 28.7746 5.5808 33 4.07143Z" fill="#666666"/>
<path d="M3 4C3 3.44772 3.44772 3 4 3C4.55228 3 5 3.44772 5 4V32C5 32.5523 4.55228 33 4 33C3.44772 33 3 32.5523 3 32V4Z" fill="black"/>
</svg>
