<svg width="36" height="36" viewBox="0 0 36 36" fill="none" xmlns="http://www.w3.org/2000/svg">
<path fill-rule="evenodd" clip-rule="evenodd" d="M33 10C33.5523 10 34 10.4477 34 11V13C34 13.5523 33.5523 14 33 14C32.4477 14 32 13.5523 32 13V12L29 12V24H30C30.5523 24 31 24.4477 31 25C31 25.5523 30.5523 26 30 26H28H26C25.4477 26 25 25.5523 25 25C25 24.4477 25.4477 24 26 24H27V12L24 12V13C24 13.5523 23.5523 14 23 14C22.4477 14 22 13.5523 22 13V11C22 10.7681 22.0789 10.5547 22.2113 10.3851C22.2219 10.3716 22.2327 10.3585 22.2439 10.3456C22.2568 10.3306 22.2703 10.316 22.2841 10.3018C22.287 10.2988 22.2899 10.2958 22.2929 10.2929C22.4739 10.1119 22.7239 10 23 10H28H33Z" fill="#666666"/>
<path fill-rule="evenodd" clip-rule="evenodd" d="M17 8C17.4832 8 17.8864 8.34278 17.9797 8.79847C17.993 8.86356 18 8.93097 18 9V13C18 13.5523 17.5523 14 17 14C16.4477 14 16 13.5523 16 13V10L11 10V26H14C14.5523 26 15 26.4477 15 27C15 27.5523 14.5523 28 14 28H10H6C5.44772 28 5 27.5523 5 27C5 26.4477 5.44772 26 6 26H9V10L4 10L4 13C4 13.5523 3.55229 14 3 14C2.44772 14 2 13.5523 2 13V9C2 8.81786 2.0487 8.64709 2.13378 8.5C2.24219 8.3126 2.40967 8.16364 2.61075 8.07858C2.73039 8.02798 2.86193 8 3 8H10H17Z" fill="black"/>
</svg>
