<svg width="36" height="36" viewBox="0 0 36 36" fill="none" xmlns="http://www.w3.org/2000/svg">
<path fill-rule="evenodd" clip-rule="evenodd" d="M17.9999 24.5C12.7554 24.5 8.13724 21.9214 5.37802 18C8.13724 14.0786 12.7554 11.5 17.9999 11.5C23.2443 11.5 27.8625 14.0786 30.6217 18C27.8625 21.9214 23.2443 24.5 17.9999 24.5ZM17.9999 9.5C24.4094 9.5 30.0057 12.9187 32.9998 18C30.0057 23.0813 24.4094 26.5 17.9999 26.5C11.5903 26.5 5.99411 23.0813 3 18C5.99411 12.9187 11.5903 9.5 17.9999 9.5ZM20.5 18C20.5 19.3807 19.3807 20.5 18 20.5C16.6193 20.5 15.5 19.3807 15.5 18C15.5 16.6193 16.6193 15.5 18 15.5C19.3807 15.5 20.5 16.6193 20.5 18ZM22.5 18C22.5 20.4853 20.4853 22.5 18 22.5C15.5147 22.5 13.5 20.4853 13.5 18C13.5 15.5147 15.5147 13.5 18 13.5C20.4853 13.5 22.5 15.5147 22.5 18Z" fill="#666666"/>
<path d="M20.7707 8.10181C20.9088 7.73946 21.2562 7.5 21.644 7.5C22.2985 7.5 22.7503 8.15551 22.5173 8.76716L15.2293 27.8982C15.0912 28.2605 14.7438 28.5 14.356 28.5C13.7015 28.5 13.2497 27.8445 13.4827 27.2328L20.7707 8.10181Z" fill="black"/>
</svg>
