<svg width="36" height="36" viewBox="0 0 36 36" fill="none" xmlns="http://www.w3.org/2000/svg">
<path fill-rule="evenodd" clip-rule="evenodd" d="M15.5478 5.14431C15.1993 5.09121 14.8489 5.05859 14.4984 5.04629L14.5691 3C14.9975 3.01503 15.4258 3.0549 15.8518 3.1198C16.2778 3.18469 16.6986 3.27416 17.1123 3.38741L16.5791 5.36326C16.2407 5.27061 15.8964 5.1974 15.5478 5.14431ZM12.4007 5.21668C12.0567 5.28539 11.716 5.37415 11.3804 5.48282C11.0448 5.59148 10.7166 5.71931 10.3972 5.8654L9.55664 4.00114C9.94696 3.82258 10.3481 3.66634 10.7583 3.53353C11.1684 3.40072 11.5848 3.29224 12.0053 3.20825L12.4007 5.21668ZM19.4295 6.70896C19.1408 6.5052 18.8414 6.31893 18.5329 6.15082L19.5003 4.34997C19.8773 4.55545 20.2432 4.78311 20.5961 5.03215C20.9489 5.28119 21.2862 5.54992 21.6067 5.83675L20.2564 7.36727C19.9942 7.13259 19.7182 6.91272 19.4295 6.70896ZM8.59397 6.95814C8.31622 7.17387 8.05033 7.40605 7.7978 7.65377C7.54526 7.9015 7.3078 8.16308 7.08634 8.43704L5.50999 7.14425C5.78066 6.8094 6.07089 6.48969 6.37954 6.18692C6.68819 5.88415 7.01317 5.60037 7.35264 5.3367L8.59397 6.95814ZM22.2145 9.84991C22.046 9.53805 21.8602 9.23706 21.6582 8.94824L23.32 7.76905C23.5669 8.12205 23.794 8.48993 24 8.87109L22.2145 9.84991ZM5.95415 10.2238C5.80071 10.5415 5.66517 10.8686 5.54844 11.2037C5.43172 11.5387 5.33461 11.8794 5.25732 12.224L3.27451 11.7727C3.36899 11.3515 3.48767 10.9351 3.63033 10.5257C3.77299 10.1162 3.93866 9.7164 4.1262 9.32811L5.95415 10.2238ZM5.03272 14.3316C5.03565 14.6849 5.05875 15.0385 5.10223 15.3909C5.1457 15.7432 5.20924 16.0919 5.29224 16.4351L3.3172 16.9197C3.21575 16.5001 3.13809 16.074 3.08495 15.6434C3.03182 15.2128 3.00358 14.7805 3 14.3487L5.03272 14.3316ZM6.02216 18.4232C6.18084 18.7383 6.35778 19.0447 6.55236 19.3408C6.74695 19.6368 6.95786 19.9205 7.18383 20.1907L5.62914 21.5099C5.35295 21.1796 5.09517 20.8329 4.85735 20.471C4.61952 20.1092 4.40327 19.7347 4.20931 19.3496L6.02216 18.4232ZM8.71578 21.6441C8.99707 21.8551 9.29087 22.0502 9.59592 22.2281L8.57725 24C8.20441 23.7825 7.84532 23.5441 7.50151 23.2862L8.71578 21.6441Z" fill="#666666"/>
<path fill-rule="evenodd" clip-rule="evenodd" d="M17.0844 9.04994C19.1231 8.91269 21.1445 9.50268 22.7889 10.715C24.4334 11.9273 25.5943 13.6833 26.0653 15.6707C26.4517 17.3013 26.3531 19.0009 25.7941 20.5642L20.4963 17.8376C19.7549 17.4561 18.8959 18.0843 19.0354 18.906L20.2223 25.9016C18.669 26.3832 17.0026 26.4189 15.4167 25.9914C13.4439 25.4596 11.7236 24.2456 10.562 22.5653C9.40045 20.885 8.87277 18.8474 9.07285 16.8148C9.27293 14.7822 10.1878 12.8864 11.6548 11.4646C13.1217 10.0428 15.0457 9.1872 17.0844 9.04994ZM20.5644 27.9178C18.7204 28.4386 16.7587 28.4561 14.8878 27.9518C12.4507 27.2949 10.3258 25.7952 8.89087 23.7196C7.45595 21.6439 6.80411 19.1268 7.05127 16.6159C7.29843 14.1051 8.42858 11.7632 10.2407 10.0069C12.0528 8.25059 14.4295 7.19366 16.9479 7.02411C19.4663 6.85456 21.9633 7.58337 23.9947 9.08092C26.026 10.5785 27.4602 12.7477 28.042 15.2027C28.5402 17.3052 28.3857 19.5005 27.6129 21.5003L32.4508 23.9903C33.3046 24.4297 33.1232 25.6995 32.1804 25.8825L26.1239 27.0581L23.1698 32.4721C22.71 33.3148 21.4443 33.1033 21.2837 32.1569L20.5644 27.9178ZM28.9286 24.4529L24.8032 25.2537L22.7909 28.9414L21.3692 20.5623L28.9286 24.4529Z" fill="black"/>
</svg>
