<svg id="Layer_1" data-name="Layer 1" xmlns="http://www.w3.org/2000/svg" viewBox="0 0 122.88 107.55">
<path d="M51,31.48a5.35,5.35,0,1,1-7.56-7.56L60.71,6.61c5-5,12-7,18.94-6.55A30.6,30.6,0,0,1,99,8.55a30.6,30.6,0,0,1,8.49,19.35,28,28,0,0,1-.28,6.28,33.11,33.11,0,0,0-9.71-1.44h-.88a17.59,17.59,0,0,0,.22-4.18,19.67,19.67,0,0,0-5.4-12.46A19.65,19.65,0,0,0,79,10.71c-4.07-.26-8,.79-10.71,3.46L51,31.48Zm12.75,4.8a5.34,5.34,0,0,1,7.56,7.55L43.83,71.28a5.35,5.35,0,1,1-7.56-7.56L63.72,36.28Zm-7.32,40A5.35,5.35,0,1,1,64,83.82L46.84,100.94c-5,5-12,7-18.94,6.55A30.6,30.6,0,0,1,8.55,99,30.6,30.6,0,0,1,.06,79.65c-.44-7,1.56-13.94,6.55-18.94L23.73,43.59a5.35,5.35,0,0,1,7.56,7.56L14.17,68.27C11.5,70.94,10.45,74.91,10.71,79a19.65,19.65,0,0,0,5.4,12.46,19.67,19.67,0,0,0,12.46,5.4c4.07.26,8-.79,10.71-3.46L56.4,76.26Z"/>
<path style='fill : #f44336 ; fill-rule : evenodd;' class="cls-1" d="M97.5,40.51A25.38,25.38,0,1,1,72.13,65.89,25.38,25.38,0,0,1,97.5,40.51ZM86.26,60.83c-.93-.92-1.68-1.5-.51-2.63l3.77-3.69c1.19-1.21,1.89-1.14,3,0l5.08,5.08,5-5.05c.92-.94,1.5-1.68,2.63-.52L109,57.8c1.21,1.19,1.15,1.89,0,3l-5.09,5.08L109,71c1.14,1.12,1.2,1.82,0,3l-3.69,3.78c-1.13,1.17-1.71.42-2.63-.52l-5-5-5.08,5.08c-1.12,1.14-1.82,1.21-3,0l-3.77-3.69c-1.17-1.13-.42-1.71.51-2.63l5.06-5-5.06-5.06Z"/></svg>