<svg width="36" height="36" viewBox="0 0 36 36" fill="none" xmlns="http://www.w3.org/2000/svg">
<path fill-rule="evenodd" clip-rule="evenodd" d="M17 18C17 17.4477 17.4477 17 18 17C18.5523 17 19 17.4477 19 18V19V21V22C19 22.5523 18.5523 23 18 23C17.4477 23 17 22.5523 17 22V21V19V18ZM27.8511 26.3653C27.5553 26.7546 27.2384 27.1261 26.9023 27.4781L25.4558 26.0969C25.7402 25.799 26.0083 25.4847 26.2587 25.1553L27.8511 26.3653ZM8.47635 27.8583C8.12601 27.5205 7.79409 27.1625 7.48242 26.7856L9.02361 25.511C9.28733 25.8298 9.56818 26.1328 9.86462 26.4187L8.47635 27.8583ZM24.6612 29.3502C24.255 29.6183 23.8332 29.864 23.3974 30.0858C22.9616 30.3076 22.5146 30.5042 22.0588 30.6749L21.3575 28.8019C21.7432 28.6574 22.1213 28.4911 22.4901 28.3034C22.8589 28.1157 23.2158 27.9078 23.5595 27.681L24.6612 29.3502ZM12.0859 30.3193C11.6413 30.1156 11.2097 29.8875 10.7928 29.6364L11.8247 27.9232C12.1774 28.1356 12.5427 28.3286 12.9189 28.501C13.2951 28.6733 13.6798 28.8239 14.0711 28.9522L13.4476 30.8526C12.9851 30.7009 12.5305 30.5229 12.0859 30.3193ZM19.2264 31.3852C18.744 31.4499 18.2573 31.4875 17.7684 31.4976C17.2795 31.5077 16.7915 31.4902 16.3069 31.4455L16.4905 29.4539C16.9006 29.4917 17.3134 29.5066 17.7271 29.498C18.1408 29.4895 18.5527 29.4576 18.9608 29.403L19.2264 31.3852ZM6 21H7V19H6V21ZM9 21H11V19H9V21ZM13 21H15V19H13V21ZM21 21H23V19H21V21ZM25 21H27V19H25V21ZM29 21H30V19H29V21Z" fill="#666666"/>
<path fill-rule="evenodd" clip-rule="evenodd" d="M17 3C17 2.44772 17.4477 2 18 2C18.5523 2 19 2.44772 19 3V5C19 5.03342 18.9984 5.06646 18.9952 5.09904C21.2798 5.56043 23 7.57933 23 10C23 11.6655 22.1856 13.1409 20.9334 14.0496L30 28.7153V28C30 27.4477 30.4477 27 31 27C31.5523 27 32 27.4477 32 28V33C32 33.5523 31.5523 34 31 34C30.4477 34 30 33.5523 30 33V32.5865L19.0583 14.8878C18.7172 14.9613 18.3631 15 18 15C17.4773 15 16.9733 14.9198 16.4997 14.771L16.714 14.8978L6 32.5918V33C6 33.5523 5.55228 34 5 34C4.44772 34 4 33.5523 4 33V28C4 27.4477 4.44772 27 5 27C5.55228 27 6 27.4477 6 28V28.6613L14.9164 13.9362C13.7496 13.0208 13 11.598 13 10C13 7.57933 14.7202 5.56043 17.0048 5.09904C17.0016 5.06646 17 5.03342 17 5V3ZM21 10C21 11.6569 19.6569 13 18 13C16.3431 13 15 11.6569 15 10C15 8.34315 16.3431 7 18 7C19.6569 7 21 8.34315 21 10Z" fill="black"/>
</svg>
