<svg width="36" height="36" viewBox="0 0 36 36" fill="none" xmlns="http://www.w3.org/2000/svg">
<path fill-rule="evenodd" clip-rule="evenodd" d="M7.18406 6.69712C7.5697 7.09247 8.20282 7.10034 8.59816 6.7147C8.99351 6.32906 9.00138 5.69595 8.61574 5.3006L6.91542 3.55747C6.7605 3.22919 6.40884 3 5.99982 3L5.97446 3.0003C5.96606 3.00009 5.95765 2.99999 5.94925 3C5.68926 3.00016 5.42956 3.10107 5.23373 3.30194L3.28396 5.30194C2.89843 5.6974 2.90648 6.33051 3.30194 6.71604C3.6974 7.10157 4.33051 7.09352 4.71604 6.69806L4.99982 6.40697V29.9995L4.99982 30L4.99982 30.0005V30.0667C4.99982 30.3196 5.10762 30.549 5.28269 30.7171C5.45078 30.8922 5.68022 31 5.93315 31H5.99982L29.5855 31L29.2926 31.2929C28.9021 31.6834 28.9021 32.3166 29.2926 32.7071C29.6831 33.0976 30.3163 33.0976 30.7068 32.7071L32.5761 30.8379C32.8312 30.6594 32.9998 30.3508 32.9998 30C32.9998 29.6493 32.8314 29.3408 32.5764 29.1623L30.7082 27.2931C30.3177 26.9025 29.6846 26.9023 29.294 27.2927C28.9033 27.6831 28.9032 28.3163 29.2936 28.7069L29.5865 29L6.99982 29V6.50824L7.18406 6.69712Z" fill="black"/>
<path fill-rule="evenodd" clip-rule="evenodd" d="M29 9H13V22.7766L23.1254 12.2822C23.3153 12.0853 23.5776 11.9749 23.8512 11.9766C24.1247 11.9783 24.3857 12.092 24.5732 12.2912L29 16.9942V9ZM29 23H15.5636L23.836 14.4261L29 19.9123V23ZM31 23V19.5168V19.5142V9C31 7.89543 30.1046 7 29 7H13C11.8954 7 11 7.89543 11 9V23C11 24.1046 11.8954 25 13 25H29C30.1046 25 31 24.1046 31 23ZM17 15C18.1046 15 19 14.1046 19 13C19 11.8954 18.1046 11 17 11C15.8954 11 15 11.8954 15 13C15 14.1046 15.8954 15 17 15Z" fill="#666666"/>
</svg>
