<svg width="36" height="36" viewBox="0 0 36 36" fill="none" xmlns="http://www.w3.org/2000/svg">
<path fill-rule="evenodd" clip-rule="evenodd" d="M12 6H32V15.4L26.3 9.4C26.1 9.2 25.9 9.1 25.6 9.1C25.3 9.1 25.1 9.2 24.9 9.4L12.5 22H12V6ZM15.3 22H32V18.3L25.5 11.6L15.3 22ZM34 17.9V22C34 23.1 33.1 24 32 24H12C10.9 24 10 23.1 10 22V6C10 4.9 10.9 4 12 4H32C33.1 4 34 4.9 34 6V17.9ZM16.3 10C16.1 10 16 10.1 16 10.4C16 10.6 16.2 10.8 16.3 10.8C16.5 10.8 16.6 10.7 16.6 10.4C16.7 10.1 16.5 10 16.3 10ZM14 10.4C14 9.1 15 8 16.3 8C17.6 8 18.6 9.1 18.6 10.4C18.6 11.7 17.6 12.8 16.3 12.8C15 12.7 14 11.7 14 10.4Z" fill="black"/>
<path fill-rule="evenodd" clip-rule="evenodd" d="M5.88466 4.4939C5.72482 4.18572 5.40884 4 5 4C4.59116 4 4.27518 4.18572 4.11534 4.4939L2.3 6.4C1.9 6.8 1.9 7.4 2.3 7.8C2.5 8 2.7 8.1 3 8.1C3.3 8.1 3.5 8 3.7 7.8L4 7.485V20.615L3.7 20.3C3.3 19.9 2.7 19.9 2.3 20.3C1.9 20.7 1.9 21.3 2.3 21.7L4.26228 23.7604C4.27443 23.7738 4.287 23.787 4.3 23.8C4.5 24 4.7 24.1 5 24.1C5.29999 24.1 5.49999 24 5.69998 23.8L5.7 23.8C5.713 23.787 5.72557 23.7738 5.73772 23.7604L7.7 21.7C8.1 21.3 8.1 20.7 7.7 20.3C7.3 19.9 6.7 19.9 6.3 20.3L6 20.615V7.485L6.3 7.8C6.5 8 6.7 8.1 7 8.1C7.3 8.1 7.5 8 7.7 7.8C8.1 7.4 8.1 6.8 7.7 6.4L5.88466 4.4939ZM33.5059 29.8848C33.8142 29.725 34 29.4089 34 29C34 28.5911 33.8142 28.275 33.5059 28.1152L31.5999 26.3C31.1999 25.9 30.5999 25.9 30.1999 26.3C29.7999 26.7 29.7999 27.3 30.1999 27.7L30.5149 28H13.485L13.8 27.7C14.2 27.3 14.2 26.7 13.8 26.3C13.4 25.9 12.8 25.9 12.4 26.3L10.4939 28.1153C10.1857 28.2752 10 28.5912 10 29C10 29.4088 10.1857 29.7248 10.4939 29.8847L12.4 31.7C12.6 31.9 12.8 32 13.1 32C13.3 32 13.6 31.9 13.8 31.7C14.2 31.3 14.2 30.7 13.8 30.3L13.485 30H30.5149L30.1999 30.3C29.7999 30.7 29.7999 31.3 30.1999 31.7C30.3999 31.9 30.5999 32 30.8999 32C31.1999 32 31.4999 31.9 31.5999 31.7L33.5059 29.8848Z" fill="#666666"/>
</svg>
