<svg width="36" height="36" viewBox="0 0 36 36" fill="none" xmlns="http://www.w3.org/2000/svg">
<path fill-rule="evenodd" clip-rule="evenodd" d="M31 6H5C4.44772 6 4 6.44772 4 7V29C4 29.5523 4.44772 30 5 30H31C31.5523 30 32 29.5523 32 29V7C32 6.44772 31.5523 6 31 6ZM5 4C3.34315 4 2 5.34315 2 7V29C2 30.6569 3.34315 32 5 32H31C32.6569 32 34 30.6569 34 29V7C34 5.34315 32.6569 4 31 4H5Z" fill="black"/>
<path fill-rule="evenodd" clip-rule="evenodd" d="M11 11C11 11.5523 10.5523 12 10 12C9.44772 12 9 11.5523 9 11C9 10.4477 9.44772 10 10 10C10.5523 10 11 10.4477 11 11ZM13 11C13 12.6569 11.6569 14 10 14C8.34315 14 7 12.6569 7 11C7 9.34315 8.34315 8 10 8C11.6569 8 13 9.34315 13 11ZM22.9072 12.579C22.5545 11.8194 21.4802 11.8038 21.1057 12.5528L16.5002 21.764L13.8946 16.5528C13.5417 15.8471 12.5486 15.8089 12.1427 16.4856L6.14266 26.4856C5.85851 26.9591 6.01208 27.5734 6.48566 27.8576C6.95924 28.1417 7.5735 27.9881 7.85764 27.5146L12.9204 19.0766L15.6057 24.4473C15.9742 25.1843 17.0261 25.1843 17.3946 24.4473L21.9668 15.3029L27.5931 27.4212C27.8257 27.9221 28.4203 28.1396 28.9213 27.9071C29.4222 27.6745 29.6397 27.0799 29.4072 26.579L22.9072 12.579Z" fill="#666666"/>
</svg>
