<svg width="36" height="36" viewBox="0 0 36 36" fill="none" xmlns="http://www.w3.org/2000/svg">
<path fill-rule="evenodd" clip-rule="evenodd" d="M27 16C27 22.0751 22.0751 27 16 27C9.92487 27 5 22.0751 5 16C5 9.92487 9.92487 5 16 5C22.0751 5 27 9.92487 27 16ZM24.4582 25.8725C22.1846 27.8221 19.2299 29 16 29C8.8203 29 3 23.1797 3 16C3 8.8203 8.8203 3 16 3C23.1797 3 29 8.8203 29 16C29 19.2299 27.8221 22.1847 25.8724 24.4583L32.2936 30.8795C32.6841 31.27 32.6841 31.9032 32.2936 32.2937C31.9031 32.6842 31.2699 32.6842 30.8794 32.2937L24.4582 25.8725Z" fill="black"/>
<path fill-rule="evenodd" clip-rule="evenodd" d="M16.707 11.0503C17.8786 9.87874 19.7781 9.87874 20.9497 11.0503C22.1212 12.2219 22.1212 14.1214 20.9497 15.293L19.5355 16.7072C19.1449 17.0977 19.1449 17.7309 19.5355 18.1214C19.926 18.5119 20.5591 18.5119 20.9497 18.1214L22.3639 16.7072C24.3165 14.7545 24.3165 11.5887 22.3639 9.6361C20.4113 7.68348 17.2454 7.68348 15.2928 9.6361L13.8786 11.0503C13.4881 11.4408 13.4881 12.074 13.8786 12.4645C14.2691 12.855 14.9023 12.855 15.2928 12.4645L16.707 11.0503ZM11.0501 16.7073C9.87849 17.8788 9.87849 19.7783 11.0501 20.9499C12.2216 22.1215 14.1211 22.1215 15.2927 20.9499L16.7069 19.5357C17.0974 19.1452 17.7306 19.1452 18.1211 19.5357C18.5117 19.9262 18.5117 20.5594 18.1211 20.9499L16.7069 22.3641C14.7543 24.3167 11.5885 24.3167 9.63585 22.3641C7.68323 20.4115 7.68323 17.2457 9.63585 15.2931L11.0501 13.8788C11.4406 13.4883 12.0738 13.4883 12.4643 13.8788C12.8548 14.2694 12.8548 14.9025 12.4643 15.2931L11.0501 16.7073ZM12.4644 18.1215C12.0739 18.512 12.0739 19.1452 12.4644 19.5357C12.8549 19.9262 13.4881 19.9262 13.8786 19.5357L19.5355 13.8788C19.926 13.4883 19.926 12.8552 19.5355 12.4646C19.145 12.0741 18.5118 12.0741 18.1213 12.4646L12.4644 18.1215Z" fill="#666666"/>
</svg>
