<svg width="36" height="36" viewBox="0 0 36 36" fill="none" xmlns="http://www.w3.org/2000/svg">
<path fill-rule="evenodd" clip-rule="evenodd" d="M2 21C2 20.4477 2.44772 20 3 20H33C33.5523 20 34 20.4477 34 21C34 21.5523 33.5523 22 33 22H3C2.44772 22 2 21.5523 2 21Z" fill="black"/>
<path fill-rule="evenodd" clip-rule="evenodd" d="M7.74916 10.2579C8.15901 9.88772 8.79136 9.91987 9.16154 10.3297L11.7422 13.1869C11.9151 13.3783 12.0002 13.6182 12.0001 13.8573C12.0002 14.0964 11.9151 14.3363 11.7422 14.5277L9.16154 17.3849C8.79136 17.7947 8.15901 17.8269 7.74916 17.4567C7.3393 17.0865 7.30715 16.4541 7.67734 16.0443L8.62057 15L3 15C2.44772 15 2 14.5523 2 14C2 13.4477 2.44772 13 3 13L8.87836 13L7.67734 11.6703C7.30715 11.2604 7.3393 10.6281 7.74916 10.2579ZM13 16C12.4477 16 12 16.4477 12 17V25C12 25.5523 12.4477 26 13 26C13.5523 26 14 25.5523 14 25V17C14 16.4477 13.5523 16 13 16ZM23 16C22.4477 16 22 16.4477 22 17V25C22 25.5523 22.4477 26 23 26C23.5523 26 24 25.5523 24 25V17C24 16.4477 23.5523 16 23 16ZM26.8385 10.3297C27.2087 9.91987 27.8411 9.88772 28.2509 10.2579C28.6608 10.6281 28.6929 11.2604 28.3228 11.6703L27.1217 13L33.0246 13C33.5633 13 34.0001 13.4477 34.0001 14C34.0001 14.5523 33.5633 15 33.0246 15L27.3795 15L28.3228 16.0443C28.6929 16.4541 28.6608 17.0865 28.2509 17.4567C27.8411 17.8269 27.2087 17.7947 26.8385 17.3849L24.2579 14.5277C24.085 14.3363 23.9999 14.0964 24 13.8573C23.9999 13.6182 24.085 13.3783 24.2579 13.1869L26.8385 10.3297Z" fill="#666666"/>
</svg>
