<svg width="36" height="36" viewBox="0 0 36 36" fill="none" xmlns="http://www.w3.org/2000/svg">
<path fill-rule="evenodd" clip-rule="evenodd" d="M4 5C4 3.34315 5.34315 2 7 2H21C22.6569 2 24 3.34315 24 5V16H22V5C22 4.44772 21.5523 4 21 4H7C6.44772 4 6 4.44772 6 5V31C6 31.5523 6.44772 32 7 32H21C21.5523 32 22 31.5523 22 31V25H24V31C24 32.6569 22.6569 34 21 34H7C5.34315 34 4 32.6569 4 31V5Z" fill="black"/>
<path fill-rule="evenodd" clip-rule="evenodd" d="M8 7C8 6.44772 8.44772 6 9 6H19C19.5523 6 20 6.44772 20 7C20 7.55228 19.5523 8 19 8H9C8.44772 8 8 7.55228 8 7ZM8 11C8 10.4477 8.44772 10 9 10H16C16.5523 10 17 10.4477 17 11C17 11.5523 16.5523 12 16 12H9C8.44772 12 8 11.5523 8 11ZM26.3381 14.3087L29.1666 17.1371L19.4463 26.8574L16.4276 27.0476L16.6178 24.0289L26.3381 14.3087ZM24.9239 12.8944C25.705 12.1134 26.9713 12.1134 27.7523 12.8944L30.5808 15.7229C31.3618 16.5039 31.3618 17.7702 30.5808 18.5513L20.8605 28.2716C20.5162 28.6159 20.058 28.8228 19.5721 28.8534L14.855 29.1507C14.5545 29.1696 14.3056 28.9207 14.3245 28.6202L14.6218 23.9032C14.6524 23.4172 14.8593 22.9591 15.2036 22.6147L24.9239 12.8944Z" fill="#666666"/>
</svg>
