<svg width="36" height="36" viewBox="0 0 36 36" fill="none" xmlns="http://www.w3.org/2000/svg">
<path fill-rule="evenodd" clip-rule="evenodd" d="M8 14H14V30H8L8 14ZM6 14C6 12.8954 6.89543 12 8 12H14C15.1046 12 16 12.8954 16 14V30C16 31.1046 15.1046 32 14 32H8C6.89543 32 6 31.1046 6 30V14ZM22 14H28V30H22V14ZM20 14C20 12.8954 20.8954 12 22 12H28C29.1046 12 30 12.8954 30 14V30C30 31.1046 29.1046 32 28 32H22C20.8954 32 20 31.1046 20 30V14Z" fill="#666666"/>
<path fill-rule="evenodd" clip-rule="evenodd" d="M6 5C6 4.44772 6.44772 4 7 4C7.55228 4 8 4.44772 8 5V6H14V5C14 4.44772 14.4477 4 15 4C15.5523 4 16 4.44772 16 5V6H20V5C20 4.44772 20.4477 4 21 4C21.5523 4 22 4.44772 22 5V6H28V5C28 4.44772 28.4477 4 29 4C29.5523 4 30 4.44772 30 5V6H33C33.5523 6 34 6.44772 34 7C34 7.55228 33.5523 8 33 8H30V9C30 9.55228 29.5523 10 29 10C28.4477 10 28 9.55228 28 9V8H22V9C22 9.55228 21.5523 10 21 10C20.4477 10 20 9.55228 20 9V8H16V9C16 9.55228 15.5523 10 15 10C14.4477 10 14 9.55228 14 9V8H8V9C8 9.55228 7.55228 10 7 10C6.44772 10 6 9.55228 6 9V8H3C2.44772 8 2 7.55228 2 7C2 6.44772 2.44772 6 3 6H6V5Z" fill="black"/>
</svg>
