<svg width="36" height="36" viewBox="0 0 36 36" fill="none" xmlns="http://www.w3.org/2000/svg">
<path fill-rule="evenodd" clip-rule="evenodd" d="M28.3415 20.5474L33.1804 17.9818L26.4437 14.6333L25.5467 16.4169L28.8101 18.039L17.9952 23.773L7.18036 18.039L10.4437 16.4169L9.54668 14.6333L2.81006 17.9818L7.64895 20.5474L2.81006 22.9527L17.9952 31.0038L33.1804 22.9527L28.3415 20.5474ZM26.1712 21.6981L17.9952 26.033L9.81925 21.6981L7.18036 23.0098L17.9952 28.7439L28.8101 23.0098L26.1712 21.6981Z" fill="#666666"/>
<path fill-rule="evenodd" clip-rule="evenodd" d="M18 5L32.6675 13L18 21L3 13L18 5ZM18 7L7 13L18 19L29 13L18 7Z" fill="black"/>
</svg>
