<svg width="36" height="36" viewBox="0 0 36 36" fill="none" xmlns="http://www.w3.org/2000/svg">
<path fill-rule="evenodd" clip-rule="evenodd" d="M14 18C14 20.7614 11.7614 23 9 23C6.23858 23 4 20.7614 4 18C4 15.2386 6.23858 13 9 13C11.7614 13 14 15.2386 14 18ZM16 18C16 21.866 12.866 25 9 25C5.13401 25 2 21.866 2 18C2 14.134 5.13401 11 9 11C12.866 11 16 14.134 16 18ZM9 21C10.6569 21 12 19.6569 12 18C12 16.3431 10.6569 15 9 15C7.34315 15 6 16.3431 6 18C6 19.6569 7.34315 21 9 21Z" fill="black"/>
<path fill-rule="evenodd" clip-rule="evenodd" d="M27 23C29.7614 23 32 20.7614 32 18C32 15.2386 29.7614 13 27 13C24.2386 13 22 15.2386 22 18C22 20.7614 24.2386 23 27 23ZM27 25C30.866 25 34 21.866 34 18C34 14.134 30.866 11 27 11C23.134 11 20 14.134 20 18C20 21.866 23.134 25 27 25Z" fill="#666666"/>
</svg>
