<svg width="36" height="36" viewBox="0 0 36 36" fill="none" xmlns="http://www.w3.org/2000/svg">
<path fill-rule="evenodd" clip-rule="evenodd" d="M18 14C15.2386 14 13 11.7614 13 9C13 6.23858 15.2386 4 18 4C20.7614 4 23 6.23858 23 9C23 11.7614 20.7614 14 18 14ZM18 16C14.134 16 11 12.866 11 9C11 5.13401 14.134 2 18 2C21.866 2 25 5.13401 25 9C25 12.866 21.866 16 18 16ZM15 9C15 10.6569 16.3431 12 18 12C19.6569 12 21 10.6569 21 9C21 7.34315 19.6569 6 18 6C16.3431 6 15 7.34315 15 9Z" fill="black"/>
<path fill-rule="evenodd" clip-rule="evenodd" d="M13 27C13 29.7614 15.2386 32 18 32C20.7614 32 23 29.7614 23 27C23 24.2386 20.7614 22 18 22C15.2386 22 13 24.2386 13 27ZM11 27C11 30.866 14.134 34 18 34C21.866 34 25 30.866 25 27C25 23.134 21.866 20 18 20C14.134 20 11 23.134 11 27Z" fill="#666666"/>
</svg>
