<svg width="36" height="36" viewBox="0 0 36 36" fill="none" xmlns="http://www.w3.org/2000/svg">
<path fill-rule="evenodd" clip-rule="evenodd" d="M22 15.0645H30L30 22.1118L22 22.1118V15.0645ZM20 15.0645C20 13.9599 20.8955 13.0645 22 13.0645L30 13.0645C31.1046 13.0645 32 13.9599 32 15.0645L32 22.1118C32 23.2163 31.1046 24.1118 30 24.1118L22 24.1118C20.8955 24.1118 20 23.2163 20 22.1118L20 15.0645ZM25.3617 28.6939L25.95 29.6741C26.2352 30.1491 26.8497 30.302 27.3227 30.0157C27.7957 29.7293 27.948 29.1121 27.6629 28.6371L25.8174 25.5626C25.5322 25.0876 24.9177 24.9346 24.4447 25.221C24.438 25.225 24.4313 25.2292 24.4248 25.2333L21.3773 27.089C20.905 27.3766 20.7543 27.9942 21.0406 28.4685C21.327 28.9428 21.9419 29.0941 22.4142 28.8066L23.3867 28.2144C23.1059 28.808 22.7237 29.3541 22.2523 29.8257L22.251 29.8271C21.1713 30.9113 19.7085 31.5215 18.1841 31.5241C16.6598 31.5267 15.1986 30.9217 14.1209 29.8425L14.1195 29.841C13.5304 29.2535 13.077 28.5432 12.7913 27.76C12.6013 27.2392 12.0268 26.9717 11.5083 27.1625C10.9897 27.3534 10.7234 27.9303 10.9134 28.4511C11.2998 29.5101 11.9128 30.4708 12.7094 31.2655C14.1632 32.721 16.1335 33.5363 18.1875 33.5327C20.2415 33.5292 22.2111 32.7073 23.6645 31.2481L23.6638 31.2487L22.9581 30.5372L23.6652 31.2474L23.6645 31.2481C24.3996 30.5124 24.9738 29.6424 25.3617 28.6939ZM12.7094 31.2655L12.7102 31.2662L13.4148 30.5536L12.7087 31.2648L12.7094 31.2655Z" fill="#666666"/>
<path fill-rule="evenodd" clip-rule="evenodd" d="M6 15.0645L14 15.0645L14 22.1118L6 22.1118L6 15.0645ZM4 15.0645C4 13.96 4.89543 13.0645 6 13.0645H14C15.1046 13.0645 16 13.96 16 15.0645L16 22.1118C16 23.2164 15.1046 24.1118 14 24.1118L6 24.1118C4.89543 24.1118 4 23.2164 4 22.1118L4 15.0645ZM11.4672 7.30586L10.8789 6.32565C10.5937 5.85063 9.97913 5.69769 9.50615 5.98405C9.03316 6.27042 8.88088 6.88764 9.16602 7.36266L11.0115 10.4371C11.2966 10.9122 11.9112 11.0651 12.3842 10.7787C12.3909 10.7747 12.3975 10.7706 12.4041 10.7664L15.4516 8.91071C15.9239 8.62314 16.0746 8.00554 15.7882 7.53124C15.5019 7.05695 14.887 6.90558 14.4147 7.19315L13.4423 7.78525C13.7231 7.1917 14.1052 6.64573 14.5766 6.17412L14.5779 6.17276C15.6575 5.0885 17.1204 4.47833 18.6448 4.47571C20.1691 4.47309 21.6303 5.07811 22.708 6.15736L22.7094 6.15884C23.2985 6.74629 23.7518 7.45662 24.0376 8.23985C24.2276 8.76065 24.802 9.02814 25.3206 8.8373C25.8392 8.64647 26.1055 8.06958 25.9155 7.54878C25.5291 6.48975 24.916 5.52903 24.1194 4.73434C22.6657 3.27881 20.6953 2.46358 18.6413 2.46711C16.5874 2.47064 14.6177 3.29254 13.1644 4.75179L13.1651 4.75111L13.8708 5.46262L13.1637 4.75247L13.1644 4.75179C12.4293 5.48743 11.8551 6.35739 11.4672 7.30586ZM24.1194 4.73434L24.1187 4.7336L23.4141 5.44622L24.1202 4.73508L24.1194 4.73434Z" fill="black"/>
</svg>
