<svg width="36" height="36" viewBox="0 0 36 36" fill="none" xmlns="http://www.w3.org/2000/svg">
<path fill-rule="evenodd" clip-rule="evenodd" d="M11 21.9995C11 22.5518 10.5523 22.9995 10 22.9995C9.44771 22.9995 9 22.5518 9 21.9995C9 21.4472 9.44771 20.9995 10 20.9995C10.5523 20.9995 11 21.4472 11 21.9995ZM13 21.9995C13 23.6564 11.6569 24.9995 10 24.9995C8.34314 24.9995 7 23.6564 7 21.9995C7 20.3427 8.34314 18.9995 10 18.9995C11.6569 18.9995 13 20.3427 13 21.9995ZM23.7474 22.3351C23.4551 22.0063 22.9823 21.9072 22.5825 22.0908L4.0825 30.5908C3.58065 30.8214 3.36074 31.4152 3.59132 31.917C3.8219 32.4189 4.41565 32.6388 4.9175 32.4082L22.7446 24.2174L30.2526 32.6639C30.6195 33.0767 31.2516 33.1138 31.6644 32.7469C32.0771 32.38 32.1143 31.7479 31.7474 31.3351L23.7474 22.3351Z" fill="#666666"/>
<path fill-rule="evenodd" clip-rule="evenodd" d="M26.5499 5.11093C27.215 4.77569 28 5.25911 28 6.0039V8.68063L12.5741 12.1556L26.5499 5.11093ZM4.74712 13.8611L25.6497 3.32499C27.6449 2.31926 30 3.76951 30 6.0039V8.30404C31.6137 8.30062 33 9.61001 33 11.3053V15.8453V16.8696V30.9996C33 32.1041 32.1046 32.9996 31 32.9996H5C3.89543 32.9996 3 32.1041 3 30.9996V15.8453C3 14.8264 3.76194 13.9854 4.74712 13.8611ZM31 11.3053C31 10.6643 30.4055 10.1889 29.7802 10.3297L14.174 13.8453H31V11.3053ZM5.29561 15.8453L5 15.9119L5 30.9996L31 30.9996V16.8696V15.8453L5.29561 15.8453Z" fill="black"/>
</svg>
