<svg width="36" height="36" viewBox="0 0 36 36" fill="none" xmlns="http://www.w3.org/2000/svg">
<path fill-rule="evenodd" clip-rule="evenodd" d="M8 3C7.44772 3 7 3.44772 7 4C7 4.55228 7.44772 5 8 5H28C28.5523 5 29 4.55228 29 4C29 3.44772 28.5523 3 28 3H8ZM6 7C5.44772 7 5 7.44772 5 8C5 8.55228 5.44772 9 6 9H30C30.5523 9 31 8.55228 31 8C31 7.44772 30.5523 7 30 7H6Z" fill="#666666"/>
<path fill-rule="evenodd" clip-rule="evenodd" d="M31 13H5L5 31H31V13ZM5 11C3.89543 11 3 11.8954 3 13V31C3 32.1046 3.89543 33 5 33H31C32.1046 33 33 32.1046 33 31V13C33 11.8954 32.1046 11 31 11H5Z" fill="black"/>
</svg>
