<svg width="36" height="36" viewBox="0 0 36 36" fill="none" xmlns="http://www.w3.org/2000/svg">
<path fill-rule="evenodd" clip-rule="evenodd" d="M32 30V12.5H13C10.7909 12.5 9 10.7091 9 8.5V6H4V30H32ZM4 4C2.89543 4 2 4.89543 2 6V30C2 31.1046 2.89543 32 4 32H32C33.1046 32 34 31.1046 34 30V12.5C34 11.3954 33.1046 10.5 32 10.5H13C11.8954 10.5 11 9.60457 11 8.5V6C11 4.89543 10.1046 4 9 4H4Z" fill="black"/>
<path fill-rule="evenodd" clip-rule="evenodd" d="M15 4C13.3431 4 12 5.34315 12 7V9C12 9.55228 12.4477 10 13 10C13.5523 10 14 9.55228 14 9V7C14 6.44772 14.4477 6 15 6H19C19.5523 6 20 6.44772 20 7V9C20 9.55228 20.4477 10 21 10C21.5523 10 22 9.55228 22 9V7C22 5.34315 20.6569 4 19 4H15ZM26 4C24.3431 4 23 5.34315 23 7V9C23 9.55228 23.4477 10 24 10C24.5523 10 25 9.55228 25 9V7C25 6.44772 25.4477 6 26 6H30C30.5523 6 31 6.44772 31 7V9C31 9.55228 31.4477 10 32 10C32.5523 10 33 9.55228 33 9V7C33 5.34315 31.6569 4 30 4H26Z" fill="#666666"/>
</svg>
