<svg width="17" height="17" viewBox="0 0 17 17" fill="none" xmlns="http://www.w3.org/2000/svg">
<path fill-rule="evenodd" clip-rule="evenodd" d="M16.6897 10.6538C16.2601 10.5829 15.8697 10.3618 15.588 10.0298C15.3063 9.69781 15.1517 9.27659 15.1517 8.84123C15.1517 8.40586 15.3063 7.98465 15.588 7.65268C15.8697 7.32072 16.2601 7.09959 16.6897 7.02873C16.7406 7.02132 16.7892 7.00301 16.8324 6.97505C16.8755 6.94709 16.9121 6.91014 16.9397 6.86673C16.9678 6.82269 16.9865 6.77325 16.9944 6.72159C17.0023 6.66993 16.9993 6.61718 16.9857 6.56673C16.8096 5.91384 16.5576 5.28387 16.2347 4.68973C16.2101 4.64445 16.176 4.60501 16.1347 4.57412C16.0935 4.54323 16.0461 4.5216 15.9957 4.51073C15.9456 4.49984 15.8936 4.5002 15.8437 4.51179C15.7937 4.52337 15.7469 4.54589 15.7067 4.57773C15.3637 4.83623 14.939 4.96227 14.5106 4.93269C14.0822 4.90312 13.6788 4.7199 13.3747 4.41673C13.0734 4.09735 12.893 3.68282 12.8647 3.24466C12.8364 2.8065 12.962 2.3722 13.2197 2.01673C13.2504 1.97384 13.2719 1.92501 13.2828 1.87336C13.2936 1.82171 13.2936 1.76837 13.2827 1.71673C13.2731 1.66561 13.2526 1.61716 13.2226 1.5747C13.1925 1.53225 13.1537 1.49678 13.1087 1.47073C12.5363 1.13856 11.925 0.878578 11.2887 0.696723C11.2395 0.682972 11.1879 0.680053 11.1375 0.688167C11.0871 0.696282 11.0391 0.715236 10.9967 0.743723C10.9539 0.773066 10.9177 0.811134 10.8907 0.855427C10.8636 0.89972 10.8462 0.949236 10.8397 1.00073C10.7944 1.43559 10.5896 1.83826 10.2649 2.13098C9.9401 2.42369 9.51839 2.58569 9.08118 2.58569C8.64397 2.58569 8.22226 2.42369 7.8975 2.13098C7.57273 1.83826 7.36794 1.43559 7.32268 1.00073C7.31599 0.949272 7.29856 0.899802 7.27151 0.855526C7.24446 0.81125 7.20841 0.773158 7.16568 0.743723C7.12333 0.715174 7.07528 0.696183 7.02486 0.688067C6.97443 0.679951 6.92285 0.682904 6.87368 0.696723C6.23778 0.87882 5.62682 1.13879 5.05468 1.47073C5.00965 1.49688 4.97074 1.53236 4.94055 1.57479C4.91037 1.61722 4.88962 1.66561 4.87968 1.71673C4.8691 1.76844 4.86932 1.82179 4.88033 1.87341C4.89135 1.92504 4.91291 1.97383 4.94368 2.01673C5.20172 2.37202 5.32755 2.80629 5.29944 3.2445C5.27132 3.6827 5.09101 4.09733 4.78968 4.41673C4.48501 4.71949 4.08137 4.90224 3.65284 4.93145C3.22431 4.96065 2.79962 4.83435 2.45668 4.57573C2.41639 4.54402 2.3696 4.52157 2.31965 4.50999C2.2697 4.49841 2.21782 4.49798 2.16768 4.50873C2.11741 4.51955 2.0701 4.54116 2.029 4.57206C1.98791 4.60297 1.95402 4.64243 1.92968 4.68773C1.606 5.28161 1.35359 5.91164 1.17768 6.56473C1.16432 6.61521 1.16151 6.6679 1.16943 6.71952C1.17734 6.77113 1.19581 6.82057 1.22368 6.86473C1.25113 6.90823 1.2877 6.94525 1.33087 6.97322C1.37403 7.00119 1.42276 7.01945 1.47368 7.02673C1.90324 7.09759 2.29367 7.31872 2.57535 7.65068C2.85703 7.98264 3.01166 8.40386 3.01166 8.83923C3.01166 9.27459 2.85703 9.69581 2.57535 10.0278C2.29367 10.3598 1.90324 10.5809 1.47368 10.6518C1.42288 10.659 1.37427 10.6772 1.33125 10.7052C1.28824 10.7332 1.25187 10.7702 1.22468 10.8138C1.19664 10.8579 1.17815 10.9073 1.1704 10.959C1.16265 11.0107 1.16581 11.0634 1.17968 11.1138C1.3558 11.7663 1.60786 12.3959 1.93068 12.9898C1.95538 13.0349 1.98936 13.0743 2.03039 13.1053C2.07141 13.1363 2.11854 13.1583 2.16868 13.1698C2.21883 13.1801 2.27063 13.1795 2.32051 13.1679C2.3704 13.1563 2.41719 13.1341 2.45768 13.1028C2.8003 12.8433 3.22517 12.7165 3.65393 12.7458C4.08269 12.775 4.48643 12.9582 4.79068 13.2618C5.09219 13.5811 5.27261 13.9957 5.30073 14.434C5.32886 14.8722 5.20291 15.3065 4.94468 15.6618C4.91391 15.7047 4.89235 15.7535 4.88133 15.8051C4.87032 15.8567 4.8701 15.9101 4.88068 15.9618C4.8905 16.0128 4.9111 16.0611 4.94111 16.1036C4.97112 16.146 5.00984 16.1815 5.05468 16.2078C5.62728 16.5402 6.23897 16.8002 6.87568 16.9818C6.9248 16.996 6.97646 16.9992 7.02696 16.991C7.07745 16.9829 7.12551 16.9637 7.16768 16.9348C7.21041 16.9053 7.24646 16.8672 7.27351 16.823C7.30056 16.7787 7.31799 16.7292 7.32468 16.6778C7.36994 16.2429 7.57473 15.8402 7.8995 15.5475C8.22426 15.2548 8.64597 15.0928 9.08318 15.0928C9.52039 15.0928 9.9421 15.2548 10.2669 15.5475C10.5916 15.8402 10.7964 16.2429 10.8417 16.6778C10.8482 16.7293 10.8656 16.7788 10.8927 16.8231C10.9197 16.8674 10.9559 16.9054 10.9987 16.9348C11.0409 16.9636 11.089 16.9827 11.1394 16.9908C11.1899 16.999 11.2415 16.9959 11.2907 16.9818C11.9265 16.8026 12.5378 16.5456 13.1107 16.2168C13.1554 16.1904 13.194 16.1548 13.224 16.1124C13.254 16.07 13.2747 16.0217 13.2847 15.9708C13.2953 15.9191 13.295 15.8657 13.284 15.8141C13.273 15.7625 13.2514 15.7137 13.2207 15.6708C12.9625 15.3155 12.8365 14.8812 12.8646 14.443C12.8927 14.0047 13.0732 13.5901 13.3747 13.2708C13.679 12.9674 14.0827 12.7843 14.5115 12.7551C14.9402 12.7259 15.365 12.8525 15.7077 13.1118C15.7481 13.1432 15.7949 13.1654 15.8448 13.177C15.8947 13.1886 15.9465 13.1892 15.9967 13.1788C16.047 13.1675 16.0944 13.1456 16.1356 13.1145C16.1768 13.0835 16.2109 13.044 16.2357 12.9988C16.5597 12.4034 16.8118 11.7716 16.9867 11.1168C17.0005 11.0663 17.0035 11.0136 16.9956 10.9619C16.9876 10.9102 16.9689 10.8608 16.9407 10.8168C16.9132 10.773 16.8765 10.7358 16.8331 10.7076C16.7898 10.6795 16.7408 10.6611 16.6897 10.6538ZM5.77286 12.1919C6.64296 13.0884 7.83304 13.6033 9.08218 13.6237C10.331 13.6028 11.5207 13.0877 12.3906 12.1913C13.2605 11.2947 13.7395 10.0899 13.7227 8.84073C13.7395 7.5916 13.2605 6.38674 12.3906 5.49019C11.5206 4.59364 10.3307 4.07852 9.08168 4.05773C7.83253 4.07826 6.6425 4.59329 5.77251 5.4899C4.90251 6.38651 4.42357 7.59153 4.44068 8.84073C4.42357 10.0901 4.90265 11.2953 5.77286 12.1919ZM9.03683 4.7207C8.22335 4.7207 7.42815 4.96192 6.75177 5.41386C6.07539 5.8658 5.54822 6.50817 5.23691 7.25972C4.92561 8.01127 4.84416 8.83826 5.00286 9.6361C5.16156 10.434 5.55329 11.1669 6.1285 11.7421C6.70371 12.3173 7.43658 12.709 8.23442 12.8677C9.03227 13.0264 9.85925 12.945 10.6108 12.6337C11.3624 12.3224 12.0047 11.7952 12.4567 11.1188C12.9086 10.4424 13.1498 9.64717 13.1498 8.8337C13.1485 7.74327 12.7147 6.69788 11.9437 5.92683C11.1726 5.15578 10.1273 4.72202 9.03683 4.7207ZM9.03683 11.4517C8.51904 11.4517 8.01287 11.2982 7.58235 11.0105C7.15182 10.7229 6.81626 10.314 6.61811 9.83556C6.41996 9.35719 6.36812 8.83079 6.46913 8.32295C6.57015 7.81511 6.81949 7.34863 7.18562 6.98249C7.55176 6.61636 8.01824 6.36702 8.52608 6.266C9.03393 6.16498 9.56032 6.21683 10.0387 6.41498C10.5171 6.61313 10.9259 6.94869 11.2136 7.37921C11.5013 7.80974 11.6548 8.31591 11.6548 8.8337C11.654 9.52779 11.378 10.1933 10.8872 10.6841C10.3964 11.1749 9.73092 11.451 9.03683 11.4517ZM10.6055 9.87279C10.811 9.56527 10.9207 9.20372 10.9207 8.83387C10.9207 8.33792 10.7236 7.86227 10.373 7.51158C10.0223 7.16089 9.54662 6.96387 9.05066 6.96387C8.68081 6.96387 8.31927 7.07354 8.01175 7.27902C7.70423 7.4845 7.46455 7.77656 7.32301 8.11825C7.18147 8.45995 7.14444 8.83595 7.2166 9.19869C7.28875 9.56143 7.46685 9.89464 7.72838 10.1562C7.9899 10.4177 8.3231 10.5958 8.68585 10.668C9.04859 10.7401 9.42458 10.7031 9.76628 10.5616C10.108 10.42 10.4 10.1803 10.6055 9.87279Z" fill="#888888"/>
</svg>
