<svg width="13" height="14" viewBox="0 0 13 14" fill="none" xmlns="http://www.w3.org/2000/svg">
<path fill-rule="evenodd" clip-rule="evenodd" d="M7.53822 12.7848C7.7465 12.9931 7.7465 13.3308 7.53822 13.539C7.32994 13.7473 6.99226 13.7473 6.78398 13.539L0.622518 7.37758C0.414239 7.1693 0.414239 6.83161 0.622518 6.62333L6.78398 0.461874C6.99226 0.253594 7.32994 0.253594 7.53822 0.461874C7.7465 0.670153 7.7465 1.00784 7.53822 1.21612L1.75389 7.00046L7.53822 12.7848ZM12.2052 12.7848C12.4135 12.9931 12.4135 13.3308 12.2052 13.539C11.9969 13.7473 11.6592 13.7473 11.451 13.539L5.28951 7.37758C5.08123 7.1693 5.08123 6.83161 5.28951 6.62333L11.451 0.461874C11.6592 0.253594 11.9969 0.253594 12.2052 0.461874C12.4135 0.670153 12.4135 1.00784 12.2052 1.21612L6.42088 7.00046L12.2052 12.7848Z" fill="#B2C8DF"/>
</svg>
