<svg width="24" height="24" viewBox="0 0 24 24" fill="none" xmlns="http://www.w3.org/2000/svg">
<path opacity="0.4" d="M22.3172 0.9375H17.4422C16.9946 0.9375 16.5654 1.11529 16.2489 1.43176C15.9325 1.74822 15.7547 2.17745 15.7547 2.625V6.375C15.7547 6.52418 15.814 6.66726 15.9194 6.77275C16.0249 6.87824 16.168 6.9375 16.3172 6.9375H23.4422C23.5159 6.93818 23.5889 6.92425 23.6572 6.89652C23.7254 6.86879 23.7875 6.8278 23.8398 6.77593C23.8921 6.72406 23.9336 6.66233 23.9619 6.59432C23.9902 6.5263 24.0048 6.45335 24.0047 6.37969V2.625C24.0047 2.17745 23.8269 1.74822 23.5104 1.43176C23.194 1.11529 22.7647 0.9375 22.3172 0.9375ZM6.5625 0.942188H1.6875C1.23995 0.942188 0.810725 1.11998 0.494257 1.43644C0.17779 1.75291 0 2.18213 0 2.62969L0 6.37969C0 6.52887 0.0592632 6.67195 0.164752 6.77744C0.270242 6.88292 0.413316 6.94219 0.5625 6.94219H7.69219C7.76585 6.94225 7.8388 6.92771 7.90682 6.89941C7.97483 6.87111 8.03656 6.8296 8.08843 6.77729C8.1403 6.72499 8.18129 6.66291 8.20902 6.59467C8.23675 6.52642 8.25068 6.45335 8.25 6.37969V2.62969C8.25 2.18213 8.07221 1.75291 7.75574 1.43644C7.43927 1.11998 7.01005 0.942188 6.5625 0.942188Z" fill="black"/>
<path d="M24.0002 9.00933C23.9908 9.9562 23.9721 10.9031 24.0002 11.5031C24.0002 18.5671 17.6955 23.0671 12.0424 23.0671C6.38928 23.0671 0.00490235 18.5671 0.00490235 11.5078C0.0330273 10.8984 0.00958985 10.0125 0.00490235 9.00933C0.00428347 8.93506 0.0183761 8.86141 0.0463672 8.79263C0.0743583 8.72384 0.115694 8.66127 0.167988 8.60854C0.220283 8.55581 0.282502 8.51396 0.351055 8.4854C0.419608 8.45684 0.493138 8.44214 0.567402 8.44214H7.6924C7.84159 8.44214 7.98466 8.5014 8.09015 8.60689C8.19564 8.71238 8.2549 8.85545 8.2549 9.00464V11.4421C8.2549 17.4375 15.7549 17.4468 15.7549 11.4421V9.00464C15.7549 8.85545 15.8142 8.71238 15.9197 8.60689C16.0251 8.5014 16.1682 8.44214 16.3174 8.44214H23.4377C23.512 8.44214 23.5855 8.45684 23.6541 8.4854C23.7226 8.51396 23.7848 8.55581 23.8371 8.60854C23.8894 8.66127 23.9308 8.72384 23.9587 8.79263C23.9867 8.86141 24.0008 8.93506 24.0002 9.00933Z" fill="black"/>
</svg>
