<svg width="12" height="13" viewBox="0 0 12 13" fill="none" xmlns="http://www.w3.org/2000/svg">
<path d="M5.5485 0.750827C5.49544 0.770725 5.40921 0.828209 5.35836 0.879061C5.18149 1.05594 5.19254 0.828209 5.19254 4.07165V6.95914L4.74593 6.51253C4.26837 6.03718 4.18436 5.97748 4.00085 5.97527C3.83945 5.97527 3.73111 6.0217 3.6073 6.14109C3.42379 6.32018 3.384 6.528 3.49012 6.76015C3.51665 6.81985 3.78418 7.10285 4.33249 7.64895C5.05325 8.36529 5.15274 8.45594 5.28098 8.51564C5.57503 8.65271 5.89783 8.65493 6.19852 8.52448C6.3157 8.47142 6.42182 8.37635 7.14701 7.65779C7.74396 7.06526 7.9739 6.82206 8.00485 6.75131C8.06012 6.63192 8.06233 6.43736 8.01148 6.31797C7.93189 6.1234 7.70858 5.97527 7.50297 5.97527C7.30398 5.97748 7.22881 6.03054 6.74683 6.51253L6.29801 6.95914V4.07165C6.29801 0.828209 6.30906 1.05594 6.13219 0.879061C5.97963 0.724296 5.75854 0.677866 5.5485 0.750827Z" fill="#8991A4"/>
<path d="M0.442458 5.85776C0.30538 5.9064 0.168302 6.05011 0.119662 6.19604C0.0864976 6.29774 0.0820758 6.35964 0.0953414 6.62496C0.143982 7.67736 0.466778 8.66123 1.04162 9.51686C1.46833 10.1558 2.11835 10.7815 2.76173 11.1817C4.29612 12.1324 6.17099 12.2938 7.86236 11.6239C8.58312 11.3387 9.21987 10.9053 9.80356 10.3062C10.783 9.30019 11.3357 8.02448 11.3999 6.62053C11.4153 6.2491 11.3866 6.13192 11.2407 5.986C11.024 5.76933 10.6835 5.76933 10.4668 5.986C10.3452 6.1076 10.3076 6.2292 10.2922 6.57189C10.2745 6.92564 10.2303 7.22412 10.144 7.5447C9.71733 9.14542 8.43057 10.4057 6.82322 10.7948C4.40003 11.3829 1.95695 9.91261 1.33568 7.49164C1.25829 7.18653 1.19197 6.71118 1.19197 6.44808C1.19197 6.24247 1.14111 6.10097 1.02614 5.986C0.87359 5.83123 0.652497 5.7848 0.442458 5.85776Z" fill="#8991A4"/>
</svg>
