<svg width="20" height="14" viewBox="0 0 20 14" fill="none" xmlns="http://www.w3.org/2000/svg">
<rect width="20" height="14" fill="#6200FF"/>
<path fill-rule="evenodd" clip-rule="evenodd" d="M5 2.36009C5 2.16122 5.16122 2 5.36009 2H6.78335C6.98222 2 7.14343 2.16122 7.14343 2.36009V3.78335C7.14343 3.98222 6.98222 4.14343 6.78335 4.14343H5.36009C5.16122 4.14343 5 3.98222 5 3.78335V2.36009ZM5 6.2896C5 6.09078 5.16118 5.9296 5.36 5.9296H6.78291C6.98173 5.9296 7.14291 6.09078 7.14291 6.2896V7.71251C7.14291 7.91133 6.98173 8.07251 6.78291 8.07251H5.36C5.16118 8.07251 5 7.91133 5 7.71251V6.2896ZM5.36 9.85571C5.16118 9.85571 5 10.0169 5 10.2157V11.6386C5 11.8374 5.16118 11.9986 5.36 11.9986H6.78291C6.98173 11.9986 7.14291 11.8374 7.14291 11.6386V10.2157C7.14291 10.0169 6.98173 9.85571 6.78291 9.85571H5.36ZM8.92844 2.35996C8.92844 2.16116 9.0896 2 9.28839 2H10.7114C10.9102 2 11.0714 2.16116 11.0714 2.35996V3.78296C11.0714 3.98175 10.9102 4.14291 10.7114 4.14291H9.28839C9.0896 4.14291 8.92844 3.98175 8.92844 3.78296V2.35996ZM9.28844 5.9296C9.08962 5.9296 8.92844 6.09078 8.92844 6.2896V7.71251C8.92844 7.91133 9.08962 8.07251 9.28844 8.07251H10.7113C10.9102 8.07251 11.0714 7.91133 11.0714 7.71251V6.2896C11.0714 6.09078 10.9102 5.9296 10.7113 5.9296H9.28844ZM8.92844 10.2157C8.92844 10.0169 9.08962 9.85571 9.28844 9.85571H10.7113C10.9102 9.85571 11.0714 10.0169 11.0714 10.2157V11.6386C11.0714 11.8374 10.9102 11.9986 10.7113 11.9986H9.28844C9.08962 11.9986 8.92844 11.8374 8.92844 11.6386V10.2157ZM13.2169 2C13.0181 2 12.8569 2.16118 12.8569 2.36V3.78291C12.8569 3.98173 13.0181 4.14291 13.2169 4.14291H14.6398C14.8386 4.14291 14.9998 3.98173 14.9998 3.78291V2.36C14.9998 2.16118 14.8386 2 14.6398 2H13.2169ZM12.8569 6.2896C12.8569 6.09078 13.0181 5.9296 13.2169 5.9296H14.6398C14.8386 5.9296 14.9998 6.09078 14.9998 6.2896V7.71251C14.9998 7.91133 14.8386 8.07251 14.6398 8.07251H13.2169C13.0181 8.07251 12.8569 7.91133 12.8569 7.71251V6.2896ZM13.2168 9.85571C13.018 9.85571 12.8569 10.0169 12.8569 10.2156V11.6387C12.8569 11.8375 13.018 11.9986 13.2168 11.9986H14.6399C14.8387 11.9986 14.9998 11.8375 14.9998 11.6387V10.2156C14.9998 10.0169 14.8387 9.85571 14.6399 9.85571H13.2168Z" fill="white"/>
</svg>
