<svg width="16" height="16" viewBox="0 0 16 16" fill="none" xmlns="http://www.w3.org/2000/svg">
<circle cx="8" cy="8" r="8" fill="#6200FF"/>
<path fill-rule="evenodd" clip-rule="evenodd" d="M5.21581 5.21581C5.24706 5.18455 5.28946 5.16699 5.33366 5.16699H8.33366C8.37786 5.16699 8.42025 5.18455 8.45151 5.21581C8.48277 5.24706 8.50033 5.28946 8.50033 5.33366V5.66699C8.50033 5.94313 8.72418 6.16699 9.00033 6.16699C9.27647 6.16699 9.50033 5.94313 9.50033 5.66699V5.33366C9.50033 5.02424 9.37741 4.72749 9.15862 4.5087C8.93982 4.28991 8.64308 4.16699 8.33366 4.16699H5.33366C5.02424 4.16699 4.72749 4.28991 4.5087 4.5087C4.28991 4.72749 4.16699 5.02424 4.16699 5.33366V8.33366C4.16699 8.64308 4.28991 8.93982 4.5087 9.15862C4.72749 9.37741 5.02424 9.50033 5.33366 9.50033H5.66699C5.94313 9.50033 6.16699 9.27647 6.16699 9.00033C6.16699 8.72418 5.94313 8.50033 5.66699 8.50033H5.33366C5.28946 8.50033 5.24706 8.48277 5.21581 8.45151C5.18455 8.42025 5.16699 8.37786 5.16699 8.33366V5.33366C5.16699 5.28946 5.18455 5.24706 5.21581 5.21581ZM7.5 7.66667C7.5 7.57462 7.57462 7.5 7.66667 7.5H10.6667C10.7587 7.5 10.8333 7.57462 10.8333 7.66667V10.6667C10.8333 10.7587 10.7587 10.8333 10.6667 10.8333H7.66667C7.57462 10.8333 7.5 10.7587 7.5 10.6667V7.66667ZM7.66667 6.5C7.02233 6.5 6.5 7.02233 6.5 7.66667V10.6667C6.5 11.311 7.02233 11.8333 7.66667 11.8333H10.6667C11.311 11.8333 11.8333 11.311 11.8333 10.6667V7.66667C11.8333 7.02233 11.311 6.5 10.6667 6.5H7.66667Z" fill="white"/>
</svg>
