<svg width="24" height="24" viewBox="0 0 24 24" fill="none" xmlns="http://www.w3.org/2000/svg">
<rect x="0.333333" y="0.333333" width="23.3333" height="23.3333" rx="0.333333" stroke="#344552" stroke-width="0.666667"/>
<path fill-rule="evenodd" clip-rule="evenodd" d="M10.2894 17.7848C10.0811 17.9931 10.0811 18.3308 10.2894 18.539C10.4977 18.7473 10.8354 18.7473 11.0437 18.539L17.2051 12.3776C17.4134 12.1693 17.4134 11.8316 17.2051 11.6233L11.0437 5.46187C10.8354 5.25359 10.4977 5.25359 10.2894 5.46187C10.0811 5.67015 10.0811 6.00784 10.2894 6.21612L16.0737 12.0005L10.2894 17.7848ZM5.62275 17.7848C5.41447 17.9931 5.41447 18.3308 5.62275 18.539C5.83103 18.7473 6.16871 18.7473 6.37699 18.539L12.5385 12.3776C12.7467 12.1693 12.7467 11.8316 12.5385 11.6233L6.37699 5.46187C6.16871 5.25359 5.83103 5.25359 5.62275 5.46187C5.41447 5.67015 5.41447 6.00784 5.62275 6.21612L11.4071 12.0005L5.62275 17.7848Z" fill="#808B93"/>
</svg>
