<svg width="26" height="27" viewBox="0 0 26 27" fill="none" xmlns="http://www.w3.org/2000/svg">
<path d="M24.5071 0.560547H1.35276C0.654479 0.560547 0.0664062 1.14857 0.0664062 1.84689V25.0012C0.0664062 25.6994 0.654436 26.2875 1.35276 26.2875H24.5071C25.2054 26.2875 25.7934 25.6995 25.7934 25.0012V1.84689C25.7934 1.14857 25.2054 0.560547 24.5071 0.560547ZM9.51191 19.1207H7.23323V7.72734H9.51191V19.1207ZM18.6634 19.1207H11.7906V16.842H18.6634V19.1207ZM18.6634 14.5634H11.7906V12.2847H18.6634V14.5634ZM18.6634 10.006H11.7906V7.72734H18.6634V10.006Z" fill="url(#paint0_linear_3876_36636)"/>
<defs>
<linearGradient id="paint0_linear_3876_36636" x1="25.7748" y1="0.534889" x2="0.0479748" y2="26.2617" gradientUnits="userSpaceOnUse">
<stop stop-color="#ED345E"/>
<stop offset="1" stop-color="#382C74"/>
</linearGradient>
</defs>
</svg>
