<svg width="40" height="40" viewBox="0 0 40 40" fill="none" xmlns="http://www.w3.org/2000/svg">
<g clip-path="url(#clip0_3689_41833)">
<path d="M24.0652 18.9298C23.9252 18.8348 23.7335 18.8731 23.6385 19.0148C23.0819 19.8531 21.9002 19.8981 21.8385 19.8981C21.8268 19.8981 21.8219 19.8981 21.8102 19.8981C20.3535 19.8981 19.7969 21.1414 19.7752 21.1914C19.7085 21.3481 19.7802 21.5281 19.9319 21.5964C19.9718 21.6131 20.0168 21.6248 20.0552 21.6248C20.1735 21.6248 20.2852 21.5581 20.3368 21.4398C20.3419 21.4281 20.7252 20.5731 21.7085 20.5181V22.1098C21.6685 22.4531 21.5069 22.7231 21.2185 22.9248C20.9202 23.1331 20.5219 23.2398 20.0319 23.2398C19.4468 23.2398 18.9685 23.0381 18.6152 22.6381C18.2552 22.2381 18.0752 21.6714 18.0752 20.9398L18.0802 19.1848C18.1085 18.5381 18.2818 18.0264 18.6152 17.6614C18.9752 17.2614 19.4468 17.0598 20.0319 17.0598C20.5219 17.0598 20.9202 17.1664 21.2185 17.3748C21.5168 17.5831 21.6852 17.8698 21.7135 18.2414C21.7135 18.2531 21.7135 18.2698 21.7135 18.2814C21.7135 18.4948 21.8885 18.6698 22.1019 18.6698C22.3152 18.6698 22.4902 18.4948 22.4902 18.2814C22.4902 18.2698 22.4902 18.2531 22.4902 18.2414C22.4335 17.6848 22.1802 17.2464 21.7252 16.9148C21.2702 16.5798 20.7035 16.4164 20.0169 16.4164C19.2019 16.4164 18.5435 16.6864 18.0435 17.2198C17.5718 17.7198 17.3235 18.3781 17.2952 19.1881C17.2952 19.2448 17.2902 19.2998 17.2902 19.3564L17.2952 20.9364H17.2902C17.2902 21.8298 17.5435 22.5448 18.0435 23.0781C18.5435 23.6114 19.2019 23.8814 20.0169 23.8814C20.7035 23.8814 21.2702 23.7181 21.7269 23.3864C22.1435 23.0831 22.3902 22.6831 22.4752 22.1881L22.4918 20.4231C23.0035 20.2998 23.7002 20.0181 24.1402 19.3548C24.2502 19.2164 24.2119 19.0248 24.0652 18.9298ZM29.4802 0.851443H33.7935C33.9852 0.851443 34.1419 0.694776 34.1419 0.50311C34.1419 0.311443 33.9852 0.154776 33.7935 0.154776H29.4802C29.2885 0.154776 29.1319 0.311443 29.1319 0.50311C29.1319 0.694776 29.2885 0.851443 29.4802 0.851443ZM6.37518 0.851443H10.6885C10.8802 0.851443 11.0369 0.694776 11.0369 0.50311C11.0369 0.311443 10.8785 0.154776 10.6885 0.154776H6.37518C6.18352 0.154776 6.02685 0.311443 6.02685 0.50311C6.02685 0.694776 6.17852 0.851443 6.37518 0.851443ZM34.0135 3.65144C34.2069 3.65144 34.3619 3.80811 34.3619 3.99978C34.3619 4.19311 34.2052 4.34811 34.0135 4.34811C33.8202 4.34811 33.6652 4.19144 33.6652 3.99978C33.6635 3.80811 33.8202 3.65144 34.0135 3.65144ZM19.9835 2.55478C20.1768 2.55478 20.3319 2.71144 20.3319 2.90311C20.3319 3.09478 20.1752 3.25144 19.9835 3.25144C19.7918 3.25144 19.6352 3.09478 19.6352 2.90311C19.6352 2.71144 19.7902 2.55478 19.9835 2.55478ZM13.5169 4.00644C13.5219 4.00644 13.5285 4.00644 13.5335 4.00644C14.8435 4.00644 15.4285 3.18478 15.8735 2.42144C16.0202 2.16811 16.5602 1.32478 17.3235 1.10644C18.2685 0.831443 19.2752 1.26978 19.6685 2.12978C19.7252 2.25311 19.8485 2.32644 19.9718 2.33144C19.9769 2.33144 19.9835 2.33144 19.9885 2.33144C19.9935 2.33144 20.0002 2.33144 20.0102 2.33144C20.1335 2.32644 20.2568 2.25311 20.3135 2.12978C20.7069 1.26978 21.7135 0.831443 22.6585 1.10644C23.4235 1.33144 23.9635 2.16978 24.1085 2.42144C24.5535 3.19144 25.1369 4.00644 26.4652 4.00644C27.2635 4.00644 28.2085 3.40978 28.4719 2.26811C28.6919 1.32311 28.2868 0.46811 27.4035 0.0364429C27.2285 -0.0485571 27.0219 0.0197762 26.9369 0.19311C26.8519 0.36811 26.9202 0.574776 27.0935 0.659776C27.9319 1.07644 27.8585 1.81311 27.7902 2.10978C27.6552 2.69478 27.1385 3.31311 26.4569 3.31311C25.5852 3.31311 25.1685 2.87478 24.7019 2.06978C24.4719 1.67644 23.8302 0.719776 22.8469 0.43311C21.7735 0.11811 20.6369 0.494776 19.9852 1.32144C19.3335 0.494776 18.1968 0.11811 17.1235 0.43311C16.1402 0.719776 15.4985 1.67644 15.2685 2.06978C14.8019 2.87311 14.3852 3.31311 13.5302 3.31311C13.5252 3.31311 13.5185 3.31311 13.5185 3.31311C12.7769 3.30811 12.3035 2.78978 12.1685 2.27811C12.1019 2.03644 11.9602 1.20978 12.9052 0.64811C13.0685 0.55311 13.1252 0.33811 13.0235 0.169776C12.9252 0.00810956 12.7185 -0.0485571 12.5485 0.0531096C11.4635 0.699776 11.2952 1.72311 11.4969 2.46478C11.7452 3.38144 12.5602 3.99978 13.5169 4.00644ZM19.9935 36.8331H20.0002H19.9935ZM5.83018 3.65144C6.02352 3.65144 6.17852 3.80811 6.17852 3.99978C6.17852 4.19311 6.02185 4.34811 5.83018 4.34811C5.63852 4.34811 5.48018 4.19311 5.48018 3.99978C5.48018 3.80811 5.63685 3.65144 5.83018 3.65144ZM4.85185 0.159776C5.04518 0.159776 5.20018 0.316443 5.20018 0.50811C5.20018 0.699776 5.04352 0.856443 4.85185 0.856443C4.66018 0.856443 4.50185 0.701443 4.50185 0.50811C4.50185 0.314776 4.65852 0.159776 4.85185 0.159776ZM35.2502 0.159776C35.4435 0.159776 35.5985 0.316443 35.5985 0.50811C35.5985 0.699776 35.4419 0.856443 35.2502 0.856443C35.0585 0.856443 34.9019 0.699776 34.9019 0.50811C34.9019 0.316443 35.0569 0.159776 35.2502 0.159776ZM37.1169 22.4998C37.3102 22.4998 37.4652 22.6564 37.4652 22.8481C37.4652 23.0414 37.3085 23.1964 37.1169 23.1964C36.9235 23.1964 36.7685 23.0398 36.7685 22.8481C36.7685 22.6564 36.9235 22.4998 37.1169 22.4998ZM35.7169 30.4748C35.9102 30.4748 36.0652 30.6314 36.0652 30.8231C36.0652 31.0164 35.9085 31.1714 35.7169 31.1714C35.5252 31.1714 35.3685 31.0148 35.3685 30.8231C35.3685 30.6298 35.5235 30.4748 35.7169 30.4748ZM33.4785 31.4698C33.6719 31.4698 33.8269 31.6264 33.8269 31.8181C33.8269 32.0114 33.6702 32.1664 33.4785 32.1664C33.2852 32.1664 33.1302 32.0098 33.1302 31.8181C33.1302 31.6248 33.2869 31.4698 33.4785 31.4698ZM12.7902 1.81311C12.7902 2.32978 13.2119 2.75144 13.7285 2.75144C14.2452 2.75144 14.6669 2.32978 14.6669 1.81311C14.6669 1.29644 14.2469 0.87311 13.7302 0.87311C13.2135 0.86811 12.7902 1.28978 12.7902 1.81311ZM13.7302 1.56478C13.8652 1.56478 13.9769 1.67644 13.9769 1.81144C13.9769 1.94644 13.8652 2.05811 13.7302 2.05811C13.5952 2.05811 13.4835 1.94644 13.4835 1.81144C13.4819 1.67811 13.5952 1.56478 13.7302 1.56478ZM26.3819 2.75144C26.8985 2.75144 27.3202 2.32978 27.3202 1.81311C27.3202 1.29644 26.8985 0.874776 26.3819 0.874776C25.8652 0.874776 25.4435 1.29644 25.4435 1.81311C25.4435 2.32978 25.8652 2.75144 26.3819 2.75144ZM26.3819 1.56478C26.5169 1.56478 26.6285 1.67644 26.6285 1.81144C26.6285 1.94644 26.5169 2.05811 26.3819 2.05811C26.2469 2.05811 26.1352 1.94644 26.1352 1.81144C26.1352 1.67811 26.2469 1.56478 26.3819 1.56478ZM20.9335 2.39811C20.7535 2.46478 20.6635 2.66311 20.7318 2.84311C20.7985 3.02311 20.9969 3.11311 21.1769 3.05144C21.2335 3.02978 22.5819 2.57978 23.6168 4.18811C23.6835 4.28978 23.7969 4.34478 23.9085 4.34478C23.9702 4.34478 24.0385 4.32811 24.0935 4.28811C24.2569 4.18644 24.3019 3.96811 24.2002 3.80978C23.1202 2.13978 21.5919 2.15644 20.9335 2.39811ZM19.0552 2.39811C19.0052 2.38144 18.5435 2.21811 17.9135 2.31311C17.3285 2.39811 16.4902 2.72978 15.7935 3.81478C15.6918 3.97811 15.7368 4.19144 15.9002 4.29311C15.9569 4.33311 16.0235 4.34978 16.0852 4.34978C16.1968 4.34978 16.3102 4.29311 16.3769 4.19311C17.4052 2.58478 18.7552 3.03478 18.8169 3.05644C18.9969 3.12311 19.1935 3.02811 19.2619 2.84811C19.3302 2.66811 19.2352 2.46478 19.0552 2.39811ZM35.0535 3.34811L36.7469 1.42478V4.19644C36.7469 4.38811 36.9035 4.54478 37.0952 4.54478C37.2869 4.54478 37.4435 4.38811 37.4435 4.19644V0.50811C37.4435 0.361443 37.3535 0.23311 37.2185 0.181443C37.0835 0.129776 36.9319 0.169776 36.8369 0.276443L34.5369 2.89144C34.4069 3.03811 34.4252 3.25644 34.5702 3.38144C34.7052 3.51144 34.9235 3.49478 35.0535 3.34811ZM2.94518 4.55144C3.13685 4.55144 3.29352 4.39478 3.29352 4.20311V1.42978L4.98685 3.35311C5.11518 3.49978 5.33518 3.51144 5.47518 3.38811C5.62185 3.25811 5.63185 3.03978 5.50852 2.89811L3.20852 0.27811C3.11352 0.171443 2.96185 0.131443 2.82685 0.181443C2.69185 0.23311 2.60185 0.361443 2.60185 0.50811V4.20311C2.60185 4.39311 2.75352 4.55144 2.94518 4.55144ZM27.4952 4.89478C27.3319 4.88311 27.1802 4.99644 27.1402 5.15311C27.1002 5.31644 27.1802 5.48478 27.3252 5.55311C27.8769 5.81144 28.3769 5.91311 28.8269 5.91311C29.6869 5.91311 30.3735 5.53644 30.8519 5.14311C31.6169 4.51311 32.0102 3.71978 32.0269 3.68644C32.1052 3.52311 32.0485 3.32644 31.8919 3.23644C31.5369 3.02811 30.9252 2.89978 29.9919 3.46644C29.5252 3.75311 29.1652 4.09644 29.1035 4.15811C28.2485 4.91144 27.5352 4.89478 27.4952 4.89478ZM29.5702 4.67478C29.5752 4.66978 29.5819 4.66311 29.5869 4.65811C29.8519 4.39311 30.5985 3.78144 31.1835 3.75311C31.0152 3.99478 30.7619 4.32144 30.4185 4.60811C29.9119 5.02478 29.3719 5.22644 28.7985 5.21478C29.0369 5.09144 29.3002 4.91144 29.5702 4.67478ZM8.26352 3.23478C8.10685 3.32478 8.05018 3.52311 8.13018 3.68478C8.14685 3.71811 8.54018 4.51144 9.30518 5.14144C9.78352 5.53478 10.4635 5.91144 11.3302 5.91144C11.7852 5.91144 12.2869 5.80978 12.8319 5.55144C12.9835 5.47811 13.0569 5.31478 13.0169 5.15144C12.9769 4.98978 12.8302 4.88311 12.6619 4.88811C12.6335 4.88811 11.9135 4.90978 11.0585 4.15644C10.9969 4.09644 10.6369 3.75311 10.1702 3.46644C9.23685 2.90311 8.61852 3.03311 8.26352 3.23478ZM10.5919 4.67478C10.8569 4.91144 11.1202 5.08478 11.3619 5.21478C10.1469 5.22644 9.34352 4.29811 8.97685 3.75311C9.56185 3.78144 10.3102 4.39478 10.5735 4.65811C10.5819 4.66311 10.5869 4.66978 10.5919 4.67478ZM37.5269 32.9314C37.1785 32.6398 36.7952 32.4698 36.4419 32.3748C36.5769 32.2731 36.7069 32.1548 36.8185 32.0264C37.6785 31.0148 37.6852 29.5248 36.8302 28.5564C36.7002 28.4098 36.4819 28.3998 36.3402 28.5281C36.1935 28.6581 36.1835 28.8764 36.3119 29.0181C36.9369 29.7264 36.9252 30.8231 36.2902 31.5764C35.7735 32.1831 34.7885 32.3298 34.4969 32.3631C33.6135 32.4581 32.6235 32.6614 32.0902 33.8698C32.0052 34.0548 31.9552 34.2631 31.9435 34.4881C31.8202 34.4481 31.6852 34.4264 31.5502 34.4264C30.8469 34.4264 30.2735 34.9998 30.2735 35.7031C30.2735 36.1864 30.5435 36.6081 30.9419 36.8214C30.8235 36.9281 30.7119 37.0464 30.6102 37.1814C29.4285 35.5898 27.5402 34.5898 25.4602 34.5898C25.1618 34.5898 24.8635 34.6114 24.5769 34.6514C26.2869 34.1281 27.8769 33.3131 29.3285 32.2331C31.2019 30.8331 32.7585 29.0048 33.8269 26.9531C34.9519 24.7931 35.5202 22.4598 35.5202 20.0314C35.5202 20.0148 35.5202 20.0031 35.5202 19.9864C35.5202 19.9814 35.5202 19.9814 35.5202 19.9748C35.5202 19.9681 35.5202 19.9631 35.5202 19.9581C35.5085 17.9848 35.0702 16.2081 34.4468 14.6781C34.6769 14.7231 34.8969 14.7398 35.0935 14.7398C36.5502 14.7398 37.1902 13.7381 37.2585 13.6214C37.5735 13.0931 37.6235 12.4514 37.4435 11.8731C37.4485 11.8564 37.4485 11.8331 37.4485 11.8114V5.47311C37.4485 5.28144 37.2919 5.12478 37.1002 5.12478C36.9085 5.12478 36.7519 5.28144 36.7519 5.47311V10.7981C36.1619 10.2864 35.3069 10.2298 34.9519 10.2298C34.2652 10.2348 33.8385 10.1281 33.5235 9.58811C33.2585 9.13311 33.4119 8.65978 33.6752 8.38978C34.0069 8.05311 34.4785 8.00811 34.9402 8.25978C35.1085 8.34978 35.3219 8.29311 35.4119 8.12478C35.5019 7.95644 35.4452 7.74311 35.2769 7.65311C34.5452 7.24811 33.7252 7.34978 33.1802 7.89978C32.6402 8.45144 32.5385 9.26644 32.9219 9.92978C33.4219 10.7898 34.1819 10.9131 34.9285 10.9131C34.9402 10.9131 34.9452 10.9131 34.9569 10.9131C35.1819 10.9131 35.9069 10.9464 36.3235 11.3398C36.8635 11.8514 37.0035 12.6548 36.6502 13.2514C36.6502 13.2514 36.6452 13.2564 36.6452 13.2631C36.6169 13.3131 35.9485 14.4498 34.0819 13.8531C33.5202 12.6614 32.8669 11.6481 32.2602 10.8398L31.9835 11.0514L32.2585 10.8381L32.1469 10.6914C30.9485 8.68478 32.3319 6.54644 33.0519 5.64144L33.4569 5.17978C33.5802 5.03311 33.5685 4.81478 33.4235 4.68978C33.2835 4.57144 33.0802 4.57811 32.9519 4.70644C32.9402 4.71811 32.8785 4.77978 32.7835 4.88644C32.1585 5.52144 29.7185 7.77144 27.3518 6.59644L27.2852 6.55144L27.2519 6.52978C25.1319 5.38811 23.0402 4.72978 21.0435 4.56144C20.7852 3.97144 20.4419 3.52144 20.0085 3.52144C19.5702 3.52144 19.2269 3.97644 18.9618 4.57811C16.1669 4.70144 12.6919 6.50644 12.5452 6.57978C10.1652 7.77978 7.71352 5.51811 7.08852 4.88311C6.99352 4.77644 6.92518 4.71478 6.92018 4.70311C6.79018 4.57311 6.58852 4.56811 6.44852 4.68644C6.30185 4.80978 6.29185 5.02978 6.41518 5.17644L6.84852 5.66644C7.10018 5.97978 7.42018 6.43478 7.69018 6.97978C8.36518 8.34644 8.37685 9.58811 7.73018 10.6798C6.92518 11.6814 6.27352 12.7331 5.77352 13.8414C3.89018 14.4548 3.21518 13.3064 3.18685 13.2564C3.18685 13.2514 3.18185 13.2514 3.18185 13.2448C2.82685 12.6481 2.96685 11.8448 3.50685 11.3331C3.92352 10.9398 4.64852 10.9064 4.87352 10.9064H4.87852C5.63185 10.9064 6.40852 10.7881 6.90852 9.92311C7.29185 9.25811 7.19018 8.43644 6.65018 7.89144C6.10518 7.33478 5.28352 7.23978 4.55352 7.64478C4.38352 7.73478 4.32185 7.94811 4.41852 8.11644C4.50852 8.28478 4.72185 8.34644 4.89018 8.25144C5.35685 7.99811 5.82852 8.04311 6.15518 8.38144C6.42018 8.65144 6.56685 9.12311 6.30685 9.57811C5.99852 10.1131 5.57685 10.2198 4.90185 10.2198C4.89685 10.2198 4.89018 10.2198 4.88018 10.2198C4.57018 10.2198 3.85185 10.2648 3.27685 10.6364V5.55811C3.27685 5.36644 3.12018 5.20978 2.92852 5.20978C2.73685 5.20978 2.58018 5.36644 2.58018 5.55811V11.4064C2.19685 12.0914 2.17518 12.9298 2.56852 13.6048C2.60685 13.6781 2.84852 14.0831 3.38852 14.3864C3.69852 14.5598 4.14185 14.7231 4.73352 14.7231C4.94685 14.7231 5.18352 14.7014 5.43685 14.6498C4.83018 16.2798 4.52518 18.0348 4.51518 19.9464C4.51518 19.9514 4.51518 19.9514 4.51518 19.9581V19.9631C4.51518 19.9798 4.51518 19.9964 4.51518 20.0081C4.51518 23.4614 5.73018 26.8514 7.93352 29.5564C9.88518 31.9514 12.5385 33.7281 15.4802 34.6348C15.1702 34.5898 14.8552 34.5681 14.5419 34.5681C12.4785 34.5681 10.6052 35.5514 9.42518 37.1214C9.33018 36.9981 9.22352 36.8798 9.10518 36.7781C9.47685 36.5531 9.73018 36.1481 9.73018 35.6814C9.73018 34.9781 9.15685 34.4048 8.45352 34.4048C8.32352 34.4048 8.20018 34.4264 8.08185 34.4614C8.06518 34.2414 8.01518 34.0348 7.93518 33.8481C7.39518 32.6398 6.41185 32.4364 5.52852 32.3414C5.23685 32.3081 4.25185 32.1614 3.73518 31.5548C3.08352 30.8181 3.07185 29.7214 3.69518 29.0131C3.82518 28.8664 3.80685 28.6481 3.66685 28.5231C3.52018 28.3931 3.30185 28.4114 3.17685 28.5514C2.32852 29.5181 2.33352 31.0081 3.18852 32.0214C3.30018 32.1564 3.43018 32.2681 3.56518 32.3698C3.21018 32.4648 2.82852 32.6398 2.48018 32.9264C1.65352 33.6064 1.23185 34.7431 1.22018 36.2898C1.19185 36.4298 1.25352 36.5764 1.37685 36.6548C1.43352 36.6881 1.49518 36.7048 1.55685 36.7048C1.57852 36.7048 1.60685 36.6998 1.63018 36.6931H1.63518C1.64685 36.6931 1.65185 36.6881 1.66352 36.6814C1.68018 36.6764 1.70352 36.6698 1.72018 36.6598C1.72518 36.6598 1.72518 36.6548 1.73185 36.6548C1.78852 36.6214 1.83852 36.5764 1.87185 36.5198C2.00685 36.3448 2.56352 36.1264 3.02518 36.0298C4.83018 35.6364 5.20685 34.4164 5.15018 33.8314C5.13352 33.6398 4.96518 33.4998 4.77352 33.5164C4.58185 33.5331 4.44185 33.7014 4.45852 33.8931C4.45852 33.8981 4.46352 33.9998 4.43018 34.1514C4.34518 34.4998 4.03685 35.1014 2.87852 35.3548C2.87352 35.3548 2.87352 35.3548 2.86685 35.3548C2.73185 35.3831 2.32685 35.4781 1.95018 35.6531C2.05185 34.6514 2.37185 33.9214 2.91685 33.4664C3.75518 32.7698 4.86185 32.9664 4.87352 32.9714C4.91352 32.9764 4.94685 32.9764 4.98018 32.9714C5.16518 33.0114 5.32352 33.0331 5.44185 33.0448C6.37018 33.1464 6.93685 33.3481 7.29185 34.1414C7.56685 34.7664 7.21352 35.4848 6.73518 35.8448C6.49352 36.0298 5.84685 36.3964 5.12185 35.7998C4.97518 35.6764 4.75685 35.6981 4.63185 35.8448C4.50852 35.9914 4.53018 36.2098 4.67685 36.3348C5.00352 36.6048 5.36852 36.7614 5.74518 36.8064C5.26185 37.1998 4.93518 37.6948 4.78852 37.9531C4.31685 38.7681 3.93352 39.2064 3.29852 39.2131V36.7781C3.29852 36.5864 3.14185 36.4298 2.95018 36.4298C2.75852 36.4298 2.60185 36.5864 2.60185 36.7781V39.6014C2.60185 39.7414 2.68685 39.8598 2.80352 39.9164C2.86518 39.9614 2.93852 39.9948 3.01685 39.9948H11.1135C11.2369 39.9948 11.3385 39.9331 11.4052 39.8381C11.4502 39.7931 11.4902 39.7364 11.5069 39.6698C11.8269 38.4264 12.9469 37.5614 14.2285 37.5614C15.3752 37.5614 16.3935 38.2581 16.8268 39.2998H16.0869C15.7835 38.5514 15.0519 38.0514 14.2252 38.0514C13.3202 38.0514 12.5219 38.6648 12.2802 39.5364C12.2302 39.7214 12.3419 39.9131 12.5219 39.9631C12.7069 40.0131 12.8985 39.9014 12.9485 39.7214C13.1052 39.1481 13.6285 38.7481 14.2202 38.7481C14.6585 38.7481 15.0518 38.9614 15.2935 39.2998H15.0902C14.8985 39.2998 14.7419 39.4564 14.7419 39.6481C14.7419 39.8398 14.8985 39.9964 15.0902 39.9964H15.7935C15.8052 39.9948 15.8218 39.9998 15.8335 39.9998C15.8502 39.9998 15.8669 39.9998 15.8785 39.9948H17.2735C17.4652 39.9948 17.6219 39.8381 17.6219 39.6464C17.6219 39.6298 17.6218 39.6131 17.6168 39.5964C17.6218 39.5514 17.6219 39.5014 17.6119 39.4498C17.2019 37.9264 15.8069 36.8631 14.2269 36.8631C12.6969 36.8631 11.3535 37.8531 10.8869 39.2981H9.07018C9.21685 38.8314 9.41352 38.3981 9.66018 37.9931C9.67685 37.9714 9.68852 37.9481 9.70518 37.9264C10.7335 36.3131 12.5335 35.2781 14.5302 35.2781C15.7119 35.2781 16.8469 35.6381 17.8085 36.3131C17.8369 36.3298 17.8652 36.3464 17.8935 36.3531C18.0402 36.5281 18.1852 36.7131 18.3269 36.9048C18.3602 36.9498 18.3885 36.9948 18.4219 37.0398C18.3885 37.7531 18.7768 38.5014 19.5802 39.2664C19.6085 39.3514 19.6369 39.4231 19.6535 39.4798V39.5531C19.6535 39.7448 19.8102 39.9014 20.0019 39.9014C20.1652 39.9014 20.2935 39.7948 20.3335 39.6431C20.3335 39.6381 20.3835 39.4681 20.4852 39.1881C21.2102 38.4798 21.5702 37.7881 21.5652 37.1181C21.6102 37.0514 21.6602 36.9781 21.7119 36.9098C21.8685 36.6964 22.0319 36.4881 22.2019 36.2914C23.1585 35.6281 24.2768 35.2798 25.4468 35.2798C27.9669 35.2798 30.1702 36.9214 30.9019 39.2998H29.0852C28.6235 37.8548 27.2802 36.8648 25.7452 36.8648C24.1652 36.8648 22.7769 37.9281 22.3602 39.4514C22.3435 39.5081 22.3435 39.5631 22.3602 39.6198C22.3602 39.6314 22.3602 39.6364 22.3602 39.6481C22.3602 39.8398 22.5168 39.9964 22.7085 39.9964H25.7569C25.9485 39.9964 26.1052 39.8398 26.1052 39.6481C26.1052 39.4564 25.9485 39.2998 25.7569 39.2998H24.6485C24.8902 38.9631 25.2835 38.7481 25.7218 38.7481C26.3235 38.7481 26.8468 39.1531 26.9985 39.7381C27.0385 39.8948 27.1785 39.9964 27.3352 39.9964C27.3635 39.9964 27.3918 39.9914 27.4202 39.9848C27.6052 39.9398 27.7185 39.7481 27.6735 39.5631C27.4435 38.6748 26.6452 38.0498 25.7218 38.0498C24.9002 38.0498 24.1702 38.5498 23.8602 39.2981H23.1569C23.5835 38.2581 24.6069 37.5598 25.7552 37.5598C27.0368 37.5598 28.1569 38.4264 28.4769 39.6681C28.4819 39.6964 28.4985 39.7248 28.5102 39.7531C28.5552 39.8931 28.6852 39.9948 28.8419 39.9948H37.0919C37.2835 39.9948 37.4402 39.8381 37.4402 39.6464C37.4402 39.6414 37.4402 39.6298 37.4402 39.6248C37.4402 39.6198 37.4402 39.6081 37.4402 39.6031V39.5364C37.4452 39.5031 37.4452 39.4698 37.4452 39.4348C37.4452 39.4298 37.4452 39.4231 37.4402 39.4181V36.7814C37.4402 36.5898 37.2835 36.4331 37.0919 36.4331C36.9002 36.4331 36.7435 36.5898 36.7435 36.7814V39.1431C36.1585 39.0981 35.7935 38.6648 35.3435 37.8898C35.1968 37.6431 34.8935 37.1764 34.4435 36.7931C34.7535 36.7264 35.0502 36.5798 35.3269 36.3481C35.4735 36.2248 35.4952 36.0048 35.3719 35.8581C35.2485 35.7114 35.0285 35.6898 34.8819 35.8131C34.1619 36.4098 33.5152 36.0431 33.2685 35.8581C32.7902 35.4981 32.4369 34.7731 32.7119 34.1548C33.0669 33.3614 33.6335 33.1531 34.5619 33.0581C34.6802 33.0464 34.8369 33.0248 35.0235 32.9848C35.0569 32.9898 35.0969 32.9898 35.1352 32.9848C35.1469 32.9848 36.2435 32.7831 37.0869 33.4798C37.6385 33.9348 37.9635 34.6664 38.0602 35.6731C37.6785 35.4931 37.2669 35.3981 37.1385 35.3698C37.1335 35.3698 37.1335 35.3698 37.1269 35.3698C35.9735 35.1164 35.6585 34.5214 35.5752 34.1714C35.5419 34.0248 35.5419 33.9248 35.5469 33.9131C35.5635 33.7214 35.4235 33.5531 35.2319 33.5364C35.0402 33.5198 34.8719 33.6598 34.8552 33.8514C34.7985 34.4414 35.1752 35.6564 36.9869 36.0498C37.4535 36.1514 38.0435 36.3814 38.1502 36.5564C38.1502 36.5564 38.1502 36.5614 38.1552 36.5614C38.1719 36.5831 38.1885 36.6064 38.2052 36.6231C38.2102 36.6281 38.2169 36.6281 38.2219 36.6348C38.2385 36.6464 38.2552 36.6631 38.2719 36.6681C38.2769 36.6731 38.2885 36.6798 38.2935 36.6798C38.3102 36.6914 38.3269 36.6964 38.3435 36.7014C38.3485 36.7014 38.3602 36.7064 38.3652 36.7064C38.3869 36.7114 38.4152 36.7181 38.4435 36.7181C38.4652 36.7181 38.4835 36.7181 38.5052 36.7131C38.5102 36.7131 38.5169 36.7131 38.5219 36.7081C38.5385 36.7031 38.5552 36.6964 38.5785 36.6914H38.5835C38.6002 36.6864 38.6119 36.6748 38.6285 36.6698L38.6335 36.6648C38.6452 36.6598 38.6552 36.6481 38.6619 36.6431C38.6669 36.6381 38.6785 36.6314 38.6835 36.6214C38.6885 36.6164 38.7002 36.6048 38.7052 36.5998C38.7102 36.5881 38.7219 36.5831 38.7269 36.5714C38.7319 36.5598 38.7385 36.5548 38.7435 36.5431C38.7485 36.5314 38.7552 36.5264 38.7602 36.5148C38.7652 36.5031 38.7652 36.4931 38.7719 36.4814C38.7769 36.4698 38.7769 36.4598 38.7835 36.4481C38.7835 36.4364 38.7885 36.4264 38.7885 36.4198C38.7885 36.4081 38.7935 36.3981 38.7935 36.3798V36.3664C38.7919 34.7764 38.3652 33.6231 37.5269 32.9314ZM8.34852 39.2914H4.68852C4.99852 38.9764 5.21685 38.5998 5.38518 38.3081C5.53185 38.0548 6.07185 37.2114 6.83518 36.9931C7.73518 36.7281 8.57852 37.0381 8.99518 37.7514C8.72018 38.2281 8.50018 38.7464 8.34852 39.2914ZM8.44352 36.2714C8.12352 36.2714 7.86352 36.0131 7.86352 35.6914C7.86352 35.3698 8.12185 35.1114 8.44352 35.1114C8.76352 35.1114 9.02352 35.3698 9.02352 35.6914C9.02352 36.0131 8.75852 36.2714 8.44352 36.2714ZM29.0585 31.8798L29.1085 31.9414L29.0585 31.8798ZM29.0702 31.5314C25.7869 31.1498 23.4135 32.5598 21.9969 33.8081C21.3835 34.3481 20.9002 34.9048 20.5352 35.3764C20.4685 35.3314 20.4052 35.2864 20.3502 35.2581V34.2681C23.0102 31.5964 25.6535 30.7981 27.4069 30.6014C28.5702 30.4714 29.5102 30.5798 30.0719 30.6864C29.7502 30.9864 29.4185 31.2664 29.0702 31.5314ZM33.1919 26.6281C32.8552 27.2748 32.4669 27.8931 32.0385 28.4898C31.5935 28.3498 31.0369 28.2198 30.3685 28.1581C31.8585 26.2681 32.8035 24.0131 33.1069 21.6348C33.5902 21.5781 34.2602 21.3698 34.7719 21.0381C34.6369 22.9898 34.1085 24.8681 33.1919 26.6281ZM30.8252 20.3531L31.2302 20.3364C31.3652 20.9381 31.8202 21.4214 32.4169 21.5848C32.1019 23.9914 31.1019 26.2631 29.5035 28.1181C28.7335 28.1181 27.8385 28.2081 26.8269 28.4281C29.1885 26.5048 30.7285 23.6081 30.8252 20.3531ZM24.2169 29.2364C23.9918 29.3264 23.8352 29.3998 23.7552 29.4331C22.8219 29.8048 21.8202 30.0464 20.7752 30.1248L30.1035 20.7964C29.8235 24.5531 27.4835 27.7364 24.2169 29.2364ZM34.8052 19.9764C34.7935 20.2914 33.9335 20.8031 33.1752 20.9264C33.0685 20.9431 32.9619 20.9548 32.8602 20.9548C32.7252 20.9548 32.5952 20.9264 32.4785 20.8764C32.1235 20.7248 31.8769 20.3764 31.8769 19.9714C31.8769 19.5664 32.1235 19.2181 32.4785 19.0664C32.5969 19.0164 32.7252 18.9881 32.8602 18.9881C32.9619 18.9881 33.0685 18.9998 33.1752 19.0164C33.9335 19.1398 34.7885 19.6514 34.8052 19.9614C34.8052 19.9648 34.8052 19.9698 34.8052 19.9764ZM31.5502 11.0798L31.6969 11.2764C32.9735 12.9798 34.4685 15.6181 34.7552 18.9014C34.2485 18.5748 33.5852 18.3664 33.1069 18.3114C32.7469 15.4664 31.4819 12.8964 29.6085 10.9114C29.6869 10.7481 29.7319 10.5631 29.7319 10.3714C29.7319 10.1131 29.6535 9.87144 29.5235 9.67478L31.1202 7.85311C30.8185 9.00978 30.9652 10.1064 31.5502 11.0798ZM26.8885 7.13811L26.9619 7.18811L27.0002 7.21144C27.5569 7.49311 28.1535 7.63311 28.7719 7.63311C29.4235 7.63311 30.1052 7.47644 30.7902 7.16144L28.9902 9.21311C28.8269 9.13478 28.6469 9.09478 28.4502 9.09478C28.1969 9.09478 27.9669 9.16811 27.7702 9.29144C25.9985 7.99811 23.9018 7.13811 21.6185 6.85644C21.5618 6.44644 21.4502 5.86144 21.2819 5.28811C23.0869 5.48978 24.9702 6.10978 26.8885 7.13811ZM29.0369 10.3714C29.0369 10.6248 28.8685 10.8431 28.6369 10.9231C28.5802 10.9398 28.5185 10.9514 28.4569 10.9514C28.4402 10.9514 28.4169 10.9514 28.4002 10.9514C28.1419 10.9298 27.9335 10.7314 27.8885 10.4848C27.8835 10.4514 27.8769 10.4114 27.8769 10.3781C27.8769 10.3381 27.8819 10.3048 27.8885 10.2664C27.9385 10.0131 28.1535 9.81644 28.4169 9.79978C28.4285 9.79978 28.4452 9.79978 28.4569 9.79978C28.4685 9.79978 28.4785 9.79978 28.4902 9.79978C28.7485 9.81644 28.9685 10.0014 29.0252 10.2498C29.0302 10.2831 29.0369 10.3114 29.0369 10.3448C29.0302 10.3481 29.0369 10.3598 29.0369 10.3714ZM21.6469 7.56478C23.7385 7.83978 25.6735 8.63811 27.3102 9.81978C27.2252 9.98811 27.1802 10.1748 27.1802 10.3764C27.1802 10.6298 27.2535 10.8598 27.3819 11.0631L24.5819 14.2564C24.4518 14.4031 24.4702 14.6214 24.6152 14.7464C24.6819 14.8031 24.7619 14.8314 24.8452 14.8314C24.9402 14.8314 25.0368 14.7914 25.1102 14.7131L27.9052 11.5248C28.0735 11.6098 28.2602 11.6548 28.4619 11.6548C28.7202 11.6548 28.9569 11.5764 29.1535 11.4464C30.8969 13.3131 32.0719 15.7081 32.4202 18.3631C31.8185 18.5314 31.3519 19.0264 31.2285 19.6448L30.8285 19.6614C30.7435 17.0914 29.7485 14.6398 28.0119 12.7331C27.8819 12.5931 27.6635 12.5814 27.5219 12.7114C27.3819 12.8414 27.3702 13.0598 27.5002 13.2014C29.0302 14.8764 29.9402 17.0031 30.1152 19.2514L26.3752 15.5231C26.2402 15.3881 26.0202 15.3881 25.8852 15.5231C25.7502 15.6581 25.7502 15.8781 25.8852 16.0131L29.9002 20.0281L20.0035 29.9248L10.1069 20.0281L14.0885 16.0464C14.2235 15.9114 14.2235 15.6914 14.0885 15.5564C13.9535 15.4214 13.7335 15.4214 13.5985 15.5564L9.90685 19.2498C10.1035 16.6914 11.2502 14.3914 13.0002 12.7164L14.7435 14.7064C14.8102 14.7848 14.9068 14.8248 15.0085 14.8248C15.0869 14.8248 15.1718 14.7964 15.2385 14.7398C15.3852 14.6098 15.3952 14.3914 15.2719 14.2498L13.5219 12.2548C15.0969 10.9398 17.0702 10.0898 19.2352 9.92644L16.2669 12.8681C16.1319 13.0031 16.1319 13.2231 16.2669 13.3581C16.3335 13.4248 16.4235 13.4598 16.5135 13.4598C16.6035 13.4598 16.6885 13.4264 16.7602 13.3581L20.0218 10.1298L23.1885 13.2964C23.3235 13.4314 23.5435 13.4314 23.6785 13.2964C23.8135 13.1614 23.8135 12.9414 23.6785 12.8064L20.8002 9.92811C22.5835 10.0631 24.2802 10.6598 25.7602 11.6764C25.9169 11.7831 26.1369 11.7431 26.2435 11.5864C26.3502 11.4298 26.3102 11.2098 26.1535 11.1031C24.4435 9.92811 22.4535 9.27478 20.3735 9.21311V8.96478C21.0235 8.80811 21.5469 8.25144 21.6469 7.56478ZM11.4869 11.7431C11.6835 11.7431 11.8685 11.6981 12.0319 11.6198L12.5319 12.1931C10.5469 14.0881 9.28185 16.7248 9.18018 19.6548L8.89852 19.6381C8.76352 18.9798 8.25185 18.4631 7.59352 18.3281C7.93685 15.7248 9.08352 13.3748 10.7702 11.5298C10.9802 11.6648 11.2219 11.7431 11.4869 11.7431ZM10.9069 10.4731C10.9069 10.4448 10.9069 10.4231 10.9119 10.3948C10.9119 10.3781 10.9169 10.3664 10.9169 10.3498C10.9669 10.1031 11.1819 9.91144 11.4402 9.89478C11.4519 9.89478 11.4619 9.89478 11.4685 9.89478C11.4752 9.89478 11.4735 9.89478 11.4802 9.89478C11.7452 9.89478 11.9702 10.0748 12.0369 10.3214C12.0485 10.3714 12.0585 10.4231 12.0585 10.4731C12.0585 10.5131 12.0535 10.5514 12.0469 10.5914C11.9969 10.8381 11.7819 11.0298 11.5235 11.0464C11.5069 11.0464 11.4952 11.0464 11.4785 11.0464C11.4052 11.0464 11.3319 11.0298 11.2702 11.0064C11.0652 10.9281 10.9069 10.7148 10.9069 10.4731ZM8.89352 20.3348L9.18018 20.3514C9.27518 23.6131 10.8219 26.5148 13.1902 28.4381C12.1719 28.2131 11.2785 28.1231 10.5019 28.1181C8.91685 26.2681 7.91018 24.0081 7.59518 21.6114C8.24185 21.4764 8.75352 20.9764 8.89352 20.3348ZM9.90018 20.7964L19.2285 30.1248C14.2585 29.7481 10.2769 25.7681 9.90018 20.7964ZM19.0502 6.79478C19.2019 5.74311 19.7185 4.33811 19.9885 4.22478C20.2985 4.34311 20.7752 5.79978 20.9219 6.78811C20.9502 6.98644 20.9669 7.16644 20.9669 7.31311C20.9669 7.37478 20.9618 7.43144 20.9502 7.48811C20.8652 7.94311 20.4669 8.29144 19.9835 8.29144C19.5002 8.29144 19.1002 7.94311 19.0168 7.48811C19.0052 7.43144 19.0002 7.36978 19.0002 7.31311C19.0052 7.15978 19.0219 6.98644 19.0502 6.79478ZM19.6568 8.95978V9.20144C17.1485 9.27978 14.8552 10.2198 13.0552 11.7264L12.5602 11.1581C12.6902 10.9614 12.7685 10.7198 12.7685 10.4664C12.7685 10.2531 12.7119 10.0498 12.6219 9.87644C14.2702 8.66811 16.2202 7.85144 18.3402 7.56478C18.4368 8.26311 18.9702 8.82478 19.6568 8.95978ZM11.0702 7.63311C11.6885 7.63311 12.2852 7.49311 12.8469 7.21144C12.8802 7.19478 16.0919 5.52478 18.6885 5.29978C18.5202 5.86811 18.4068 6.45811 18.3519 6.86311C16.0418 7.14978 13.9102 8.04311 12.1269 9.36978C11.9369 9.25811 11.7219 9.19644 11.4869 9.19644C11.2902 9.19644 11.1052 9.24144 10.9419 9.31978L9.05185 7.16644C9.74352 7.47478 10.4185 7.63311 11.0702 7.63311ZM8.26352 11.1131L8.29185 11.0731C8.87685 10.1064 9.02352 9.00311 8.73018 7.84478L10.4169 9.77311C10.2885 9.97144 10.2102 10.2131 10.2102 10.4664C10.2102 10.6514 10.2502 10.8264 10.3219 10.9898C8.48352 12.9698 7.24518 15.5114 6.89185 18.3231C6.39185 18.4014 5.72852 18.6148 5.22685 18.9364C5.42518 15.9664 6.42018 13.3964 8.26352 11.1131ZM5.20018 19.9648C5.21185 19.6381 6.11685 19.1881 6.83018 19.0431C6.98685 19.0098 7.13352 18.9931 7.25685 18.9931C7.35185 18.9931 7.43685 19.0048 7.52685 19.0331C7.93685 19.1514 8.24018 19.5281 8.24018 19.9781C8.24018 20.4281 7.93685 20.8048 7.52685 20.9231C7.44185 20.9448 7.35185 20.9631 7.25685 20.9631C7.12685 20.9631 6.98185 20.9464 6.83018 20.9131C6.11685 20.7614 5.21018 20.3114 5.20018 19.9848C5.20018 19.9698 5.20018 19.9698 5.20018 19.9648ZM5.23352 20.9998C5.73352 21.3264 6.40352 21.5398 6.89852 21.6181C7.19685 24.0031 8.14185 26.2631 9.63685 28.1514C8.96852 28.2131 8.41018 28.3364 7.96185 28.4781C6.34685 26.2631 5.41352 23.7031 5.23352 20.9998ZM8.46185 29.1298C8.44518 29.1081 8.42852 29.0898 8.41185 29.0681C10.1052 28.6014 11.9552 28.8481 13.2535 29.1581C14.8219 29.5348 15.9702 30.0798 15.9802 30.0864L15.9852 30.0748C17.2285 30.5698 18.5835 30.8448 20.0002 30.8448C21.4118 30.8448 22.7619 30.5748 23.9985 30.0798C23.9985 30.0798 24.0102 30.0748 24.0319 30.0631C24.1785 30.0014 24.3302 29.9398 24.4702 29.8714C24.9485 29.6748 25.7519 29.3814 26.7202 29.1514C28.0302 28.8364 29.8869 28.5898 31.5785 29.0614C31.2869 29.4214 30.9819 29.7648 30.6569 30.0964C30.1852 29.9664 28.9818 29.7198 27.3568 29.8948C25.5919 30.0864 22.9935 30.8398 20.3385 33.2914V32.6781C20.3385 32.4864 20.1819 32.3298 19.9902 32.3298C19.7985 32.3298 19.6418 32.4864 19.6418 32.6781V33.2581C17.0052 30.8348 14.4185 30.0864 12.6635 29.8948C10.9985 29.7148 9.77852 29.9848 9.33518 30.1081C9.04018 29.8048 8.74185 29.4731 8.46185 29.1298ZM9.94018 30.6931C10.5019 30.5814 11.4535 30.4681 12.6385 30.6031C15.7602 30.9514 18.1552 32.7348 19.6568 34.2298V35.2481C19.6068 35.2764 19.5502 35.3098 19.4885 35.3548C19.1235 34.8881 18.6452 34.3431 18.0435 33.8148C16.6269 32.5614 14.2419 31.1431 10.9469 31.5381V31.5431C10.5985 31.2731 10.2602 30.9914 9.94018 30.6931ZM18.6735 36.2048C18.0152 35.3614 17.2952 34.7264 16.5768 34.2481L16.5819 34.2314C16.5652 34.2264 16.5485 34.2198 16.5318 34.2198C15.3335 33.4381 14.1302 33.0948 13.1635 32.9548C12.7085 32.7181 12.2585 32.4548 11.8252 32.1681C13.9452 32.1064 15.8685 32.8264 17.5669 34.3164C18.1518 34.8281 18.6135 35.3564 18.9618 35.8114C18.8535 35.9281 18.7569 36.0581 18.6735 36.2048ZM20.3535 38.3131C20.2685 38.4148 20.1785 38.5148 20.0785 38.6164C20.0569 38.6381 20.0285 38.6664 20.0002 38.6898L19.9952 38.6948L19.9902 38.6998V38.6881C19.9785 38.6764 19.9619 38.6664 19.9502 38.6481C19.8385 38.5414 19.7419 38.4348 19.6519 38.3281C19.2419 37.8381 19.0618 37.3831 19.1235 36.9681C19.1285 36.9348 19.1352 36.9014 19.1452 36.8664C19.1902 36.6864 19.2752 36.5298 19.3752 36.3948C19.4602 36.2831 19.5552 36.1864 19.6502 36.1031C19.7352 36.0298 19.8185 35.9681 19.8919 35.9181C19.9252 35.8964 19.9535 35.8781 19.9819 35.8614C19.9819 35.8614 19.9868 35.8614 19.9868 35.8564H19.9918C20.0319 35.8781 20.0702 35.9064 20.1219 35.9414C20.1885 35.9864 20.2685 36.0481 20.3469 36.1164C20.4485 36.2064 20.5485 36.3131 20.6335 36.4314C20.7352 36.5781 20.8185 36.7414 20.8535 36.9264C20.8535 36.9381 20.8585 36.9548 20.8652 36.9664C20.9285 37.3731 20.7535 37.8231 20.3535 38.3131ZM21.7269 35.7764C21.7152 35.7881 21.7052 35.7981 21.6985 35.8098C21.5685 35.9564 21.4519 36.1014 21.3435 36.2431C21.2585 36.0964 21.1635 35.9614 21.0618 35.8431C21.4102 35.3881 21.8835 34.8414 22.4785 34.3198C24.1652 32.8348 26.0835 32.1148 28.1869 32.1664C27.7485 32.4531 27.2985 32.7231 26.8368 32.9598C24.4302 33.3248 22.7835 34.5731 21.7269 35.7764ZM31.5385 35.1131C31.8585 35.1131 32.1185 35.3714 32.1185 35.6931C32.1185 36.0148 31.8602 36.2731 31.5385 36.2731C31.2169 36.2731 30.9585 36.0148 30.9585 35.6931C30.9602 35.3781 31.2185 35.1131 31.5385 35.1131ZM33.2935 36.9181C34.0585 37.1431 34.5985 37.9814 34.7435 38.2331C34.9235 38.5481 35.1652 38.9648 35.5202 39.2898H31.6335C31.4869 38.7614 31.2785 38.2614 31.0152 37.7998C31.4435 37.0364 32.3985 36.6548 33.2935 36.9181ZM3.66518 12.4914C3.66518 13.0598 4.12685 13.5264 4.70018 13.5264C5.27352 13.5264 5.73352 13.0648 5.73352 12.4914C5.73352 11.9231 5.27185 11.4564 4.69852 11.4564C4.12518 11.4564 3.66518 11.9231 3.66518 12.4914ZM5.03685 12.4914C5.03685 12.6764 4.88518 12.8281 4.70018 12.8281C4.51518 12.8281 4.36352 12.6764 4.36352 12.4914C4.36352 12.3064 4.51518 12.1548 4.70018 12.1548C4.88518 12.1531 5.03685 12.3064 5.03685 12.4914ZM36.2285 12.4914C36.2285 11.9231 35.7668 11.4564 35.1935 11.4564C34.6252 11.4564 34.1585 11.9181 34.1585 12.4914C34.1585 13.0598 34.6202 13.5264 35.1935 13.5264C35.7668 13.5264 36.2285 13.0648 36.2285 12.4914ZM34.8569 12.4914C34.8569 12.3064 35.0085 12.1548 35.1935 12.1548C35.3785 12.1548 35.5302 12.3064 35.5302 12.4914C35.5302 12.6764 35.3785 12.8281 35.1935 12.8281C35.0085 12.8348 34.8569 12.6831 34.8569 12.4914ZM37.2235 15.0664C37.0935 15.0164 36.9419 15.0448 36.8419 15.1448C36.3869 15.6114 35.6385 15.5948 35.6269 15.5948C35.6219 15.5948 35.6152 15.5948 35.6152 15.5948C35.4302 15.5948 35.2785 15.7414 35.2669 15.9264C35.2619 16.1181 35.4069 16.2814 35.5985 16.2864C35.6319 16.2864 36.1835 16.3031 36.7452 16.0448V21.7181C36.7452 21.9098 36.9019 22.0664 37.0935 22.0664C37.2852 22.0664 37.4419 21.9098 37.4419 21.7181V15.3864C37.4369 15.2464 37.3535 15.1164 37.2235 15.0664ZM2.88352 22.0681C3.07518 22.0681 3.23185 21.9114 3.23185 21.7198V16.0448C3.79352 16.3031 4.34518 16.2864 4.37852 16.2864C4.57018 16.2814 4.72185 16.1181 4.71018 15.9264C4.70518 15.7364 4.54185 15.5848 4.35018 15.5948C4.34518 15.5948 3.59185 15.6114 3.13518 15.1448C3.03518 15.0448 2.88852 15.0164 2.75352 15.0664C2.62352 15.1164 2.54018 15.2464 2.54018 15.3864V21.7231C2.53352 21.9164 2.69185 22.0681 2.88352 22.0681ZM37.4985 27.8531C37.4985 27.6614 37.3419 27.5048 37.1502 27.5048H34.9002C34.7085 27.5048 34.5519 27.6614 34.5519 27.8531C34.5519 28.0448 34.7085 28.2014 34.9002 28.2014H37.1502C37.3419 28.2031 37.4985 28.0498 37.4985 27.8531ZM35.1652 29.1864C35.3569 29.1864 35.5135 29.0298 35.5135 28.8381C35.5135 28.6464 35.3569 28.4898 35.1652 28.4898H34.2985C34.1069 28.4898 33.9502 28.6464 33.9502 28.8381C33.9502 29.0298 34.1069 29.1864 34.2985 29.1864H35.1652ZM36.0085 29.8281C36.0085 29.6364 35.8519 29.4798 35.6602 29.4798H33.5119C33.3202 29.4798 33.1635 29.6364 33.1635 29.8281C33.1635 30.0198 33.3202 30.1764 33.5119 30.1764H35.6602C35.8519 30.1764 36.0085 30.0248 36.0085 29.8281ZM34.6485 30.8231C34.6485 30.6314 34.4919 30.4748 34.3002 30.4748H32.6185C32.4269 30.4748 32.2702 30.6314 32.2702 30.8231C32.2702 31.0148 32.4269 31.1714 32.6185 31.1714H34.3002C34.4902 31.1714 34.6485 31.0148 34.6485 30.8231ZM31.5269 31.4698C31.3352 31.4698 31.1785 31.6264 31.1785 31.8181C31.1785 32.0098 31.3352 32.1664 31.5269 32.1664H32.4835C32.6752 32.1664 32.8319 32.0098 32.8319 31.8181C32.8319 31.6264 32.6752 31.4698 32.4835 31.4698H31.5269ZM37.1502 25.5198H35.8969C35.7052 25.5198 35.5485 25.6764 35.5485 25.8681C35.5485 26.0598 35.7052 26.2164 35.8969 26.2164H37.1502C37.3419 26.2164 37.4985 26.0598 37.4985 25.8681C37.4985 25.6781 37.3419 25.5198 37.1502 25.5198ZM37.1502 26.5148H35.4019C35.2102 26.5148 35.0535 26.6714 35.0535 26.8631C35.0535 27.0548 35.2102 27.2114 35.4019 27.2114H37.1502C37.3419 27.2114 37.4985 27.0548 37.4985 26.8631C37.4985 26.6714 37.3419 26.5148 37.1502 26.5148ZM37.1502 23.5348H36.5935C36.4019 23.5348 36.2452 23.6914 36.2452 23.8831C36.2452 24.0748 36.4019 24.2314 36.5935 24.2314H37.1502C37.3419 24.2314 37.4985 24.0748 37.4985 23.8831C37.4985 23.6931 37.3419 23.5348 37.1502 23.5348ZM37.1502 24.5298H36.2952C36.1035 24.5298 35.9469 24.6864 35.9469 24.8781C35.9469 25.0698 36.1035 25.2264 36.2952 25.2264H37.1502C37.3419 25.2264 37.4985 25.0698 37.4985 24.8781C37.4985 24.6881 37.3419 24.5298 37.1502 24.5298ZM2.87185 22.5181C3.06518 22.5181 3.22018 22.6748 3.22018 22.8664C3.22018 23.0598 3.06352 23.2148 2.87185 23.2148C2.67852 23.2148 2.52352 23.0581 2.52352 22.8664C2.52352 22.6731 2.67852 22.5181 2.87185 22.5181ZM4.27685 30.4848C4.47018 30.4848 4.62518 30.6414 4.62518 30.8331C4.62518 31.0264 4.46852 31.1814 4.27685 31.1814C4.08352 31.1814 3.92852 31.0248 3.92852 30.8331C3.92852 30.6414 4.08518 30.4848 4.27685 30.4848ZM6.51518 31.4814C6.70852 31.4814 6.86352 31.6381 6.86352 31.8298C6.86352 32.0231 6.70685 32.1781 6.51518 32.1781C6.32352 32.1781 6.16685 32.0214 6.16685 31.8298C6.16685 31.6364 6.32352 31.4814 6.51518 31.4814ZM2.83852 28.2131H5.08852C5.28018 28.2131 5.43685 28.0564 5.43685 27.8648C5.43685 27.6731 5.27852 27.5164 5.08685 27.5164H2.83685C2.64518 27.5164 2.48852 27.6731 2.48852 27.8648C2.48852 28.0614 2.64685 28.2131 2.83852 28.2131ZM5.68852 28.5064H4.82185C4.63018 28.5064 4.47352 28.6631 4.47352 28.8548C4.47352 29.0464 4.63018 29.2031 4.82185 29.2031H5.68852C5.88018 29.2031 6.03685 29.0464 6.03685 28.8548C6.03685 28.6631 5.88018 28.5064 5.68852 28.5064ZM6.47685 29.4964H4.32852C4.13685 29.4964 3.98018 29.6531 3.98018 29.8448C3.98018 30.0364 4.13685 30.1931 4.32852 30.1931H6.47685C6.66852 30.1931 6.82518 30.0364 6.82518 29.8448C6.82518 29.6481 6.66685 29.4964 6.47685 29.4964ZM7.37018 30.4848H5.68852C5.49685 30.4848 5.34018 30.6414 5.34018 30.8331C5.34018 31.0248 5.49685 31.1814 5.68852 31.1814H7.37018C7.56185 31.1814 7.71852 31.0248 7.71852 30.8331C7.71852 30.6431 7.56185 30.4848 7.37018 30.4848ZM7.15685 31.8298C7.15685 32.0214 7.31352 32.1781 7.50518 32.1781H8.46185C8.65352 32.1781 8.81018 32.0214 8.81018 31.8298C8.81018 31.6381 8.65352 31.4814 8.46185 31.4814H7.50518C7.31352 31.4814 7.15685 31.6381 7.15685 31.8298ZM2.83852 26.2281H4.09185C4.28352 26.2281 4.44018 26.0714 4.44018 25.8798C4.44018 25.6881 4.28352 25.5314 4.09185 25.5314H2.83852C2.64685 25.5314 2.49018 25.6881 2.49018 25.8798C2.48852 26.0714 2.64685 26.2281 2.83852 26.2281ZM2.83852 27.2248H4.58685C4.77852 27.2248 4.93518 27.0681 4.93518 26.8764C4.93518 26.6848 4.77852 26.5281 4.58685 26.5281H2.83852C2.64685 26.5281 2.49018 26.6848 2.49018 26.8764C2.49018 27.0681 2.64685 27.2248 2.83852 27.2248ZM2.83852 24.2431H3.39518C3.58685 24.2431 3.74352 24.0864 3.74352 23.8948C3.74352 23.7031 3.58685 23.5464 3.39518 23.5464H2.83852C2.64685 23.5464 2.49018 23.7031 2.49018 23.8948C2.49018 24.0864 2.64685 24.2431 2.83852 24.2431ZM2.83852 25.2331H3.69352C3.88518 25.2331 4.04185 25.0764 4.04185 24.8848C4.04185 24.6931 3.88518 24.5364 3.69352 24.5364H2.83852C2.64685 24.5364 2.49018 24.6931 2.49018 24.8848C2.48852 25.0814 2.64685 25.2331 2.83852 25.2331ZM19.9935 38.6948C19.9985 38.6898 19.9935 38.6898 19.9935 38.6831V38.6948ZM35.8069 6.95811C35.8119 6.95811 35.8119 6.95811 35.8069 6.95811C35.9635 6.95811 36.1052 6.85144 36.1435 6.69311C36.2669 6.19811 36.2169 5.77644 35.9802 5.42811C35.6035 4.86644 34.9119 4.75978 34.8335 4.74811C34.6535 4.72644 34.4852 4.83811 34.4452 5.01811C34.3152 5.60811 34.3885 6.08144 34.6702 6.42978C35.0869 6.93478 35.7385 6.95311 35.8069 6.95811ZM35.4135 5.82144C35.4802 5.92811 35.5202 6.05144 35.5202 6.19811C35.4185 6.15811 35.3069 6.09644 35.2285 5.99644C35.1385 5.88478 35.0935 5.73811 35.0935 5.55144C35.2052 5.60811 35.3285 5.69811 35.4135 5.82144ZM33.5469 1.93144C33.1702 1.36978 32.4785 1.26311 32.4002 1.25144C32.2202 1.22978 32.0519 1.34144 32.0119 1.52144C31.8819 2.11144 31.9552 2.58478 32.2369 2.93311C32.6419 3.43978 33.2935 3.45644 33.3669 3.45644C33.5235 3.45644 33.6652 3.34978 33.7035 3.19144C33.8335 2.70644 33.7819 2.27978 33.5469 1.93144ZM32.7869 2.49811C32.6969 2.38644 32.6519 2.23978 32.6519 2.05311C32.7702 2.10978 32.8935 2.19978 32.9719 2.32311C33.0385 2.42978 33.0785 2.55311 33.0785 2.69978C32.9785 2.66144 32.8652 2.59978 32.7869 2.49811ZM5.22185 4.74811C5.14352 4.75978 4.45685 4.86644 4.07518 5.42811C3.84518 5.77644 3.78852 6.19811 3.91185 6.69311C3.95185 6.84478 4.09185 6.95811 4.25018 6.95811C4.32352 6.95811 4.97518 6.94144 5.38018 6.43478C5.66018 6.08644 5.73352 5.60811 5.60518 5.02311C5.57018 4.84311 5.40185 4.72644 5.22185 4.74811ZM4.84518 5.99644C4.76685 6.09811 4.65352 6.15978 4.54685 6.19811C4.54685 6.05144 4.58685 5.92311 4.65352 5.82144C4.73852 5.69811 4.86185 5.60811 4.97352 5.55144C4.97518 5.73811 4.93018 5.88478 4.84518 5.99644ZM7.60685 1.24978C7.52852 1.26144 6.84185 1.36811 6.45852 1.93144C6.22852 2.27978 6.17185 2.70144 6.29685 3.19644C6.33518 3.34811 6.47685 3.45978 6.63352 3.45978C6.70685 3.45978 7.35852 3.44311 7.76352 2.93644C8.04518 2.58811 8.11852 2.10978 7.98852 1.52478C7.95018 1.34644 7.78685 1.22811 7.60685 1.24978ZM7.22352 2.49811C7.14518 2.59978 7.03352 2.66144 6.92685 2.70144C6.92685 2.55478 6.96685 2.42644 7.03352 2.32478C7.11685 2.20144 7.24018 2.11144 7.35352 2.05478C7.35352 2.23978 7.31352 2.38644 7.22352 2.49811ZM30.9652 17.6031C30.9869 17.7831 31.1335 17.9131 31.3085 17.9131C31.3202 17.9131 31.3369 17.9131 31.3485 17.9131C31.5402 17.8914 31.6752 17.7164 31.6519 17.5248C31.3035 14.4881 29.2285 12.3398 29.1385 12.2498C29.0035 12.1148 28.7835 12.1098 28.6485 12.2448C28.5135 12.3798 28.5085 12.5998 28.6435 12.7348C28.6652 12.7548 30.6452 14.8081 30.9652 17.6031ZM8.69685 17.9064C8.70852 17.9064 8.72518 17.9064 8.73685 17.9064C8.91185 17.9064 9.06352 17.7764 9.08018 17.5964C9.40018 14.8031 11.3802 12.7498 11.3969 12.7331C11.5319 12.5981 11.5269 12.3731 11.3919 12.2431C11.2552 12.1081 11.0302 12.1081 10.9019 12.2498C10.8119 12.3398 8.74185 14.4881 8.38852 17.5248C8.37185 17.7148 8.50685 17.8831 8.69685 17.9064Z" fill="black"/>
</g>
<defs>
<clipPath id="clip0_3689_41833">
<rect width="40" height="40" fill="white"/>
</clipPath>
</defs>
</svg>
