<svg width="27" height="27" viewBox="0 0 27 27" fill="none" xmlns="http://www.w3.org/2000/svg">
<g clip-path="url(#clip0_3876_36498)">
<path d="M25.1726 0.920898H2.07981C1.38338 0.920898 0.796875 1.50736 0.796875 2.20383V25.2966C0.796875 25.993 1.38334 26.5795 2.07981 26.5795H25.1726C25.8691 26.5795 26.4555 25.993 26.4555 25.2966V2.20383C26.4555 1.50736 25.8691 0.920898 25.1726 0.920898Z" fill="#287CB2"/>
<g clip-path="url(#clip1_3876_36498)">
<path d="M11.0712 7.51432C10.8915 7.68496 10.8477 7.7916 10.8477 8.05609C10.8477 8.45708 11.2247 8.77276 11.6499 8.72584C11.948 8.69597 12.1059 8.5808 12.3601 8.22246C12.781 7.6295 13.2106 7.55271 13.6359 8.0049C13.8419 8.22246 13.7937 8.23099 14.0831 7.91531C14.2146 7.77454 14.4732 7.69775 14.6881 7.74041C14.8722 7.77027 15.1528 8.02196 15.3763 8.35044C15.7621 8.92633 16.5907 8.82395 16.7705 8.1798C16.8406 7.92385 16.7836 7.72761 16.5907 7.53992C16.4154 7.36928 16.297 7.33515 16.2531 7.44607C16.24 7.48872 16.2838 7.56124 16.3891 7.65083C16.5293 7.77881 16.5469 7.8172 16.5469 7.99637C16.5469 8.167 16.525 8.21819 16.3978 8.3419C16.1041 8.62772 15.7139 8.50828 15.4377 8.04756C15.2185 7.68922 14.9204 7.50579 14.5521 7.50579C14.3286 7.50579 14.0743 7.59537 13.934 7.72335L13.8376 7.80867L13.6403 7.67216C13.4255 7.52712 13.1317 7.47166 12.838 7.52285C12.6495 7.56124 12.3075 7.85559 12.1409 8.12434C11.9787 8.39736 11.8428 8.48695 11.5842 8.48695C11.3957 8.48695 11.3474 8.46988 11.2159 8.3419C10.9879 8.12008 11.0142 7.87692 11.2948 7.62097C11.4 7.52285 11.4176 7.49299 11.3737 7.4418C11.2948 7.34795 11.2291 7.36501 11.0712 7.51432Z" fill="white"/>
<path d="M7.78427 7.48073C7.7492 7.51913 7.73605 7.75375 7.74482 8.21447C7.75797 8.87995 7.75797 8.89275 7.85442 8.90555C7.98594 8.92261 8.00786 8.81596 7.99032 8.29979C7.98155 8.07369 7.99032 7.89453 8.00347 7.89879C8.01663 7.90732 8.16568 8.0609 8.32789 8.24006C8.4901 8.4235 8.63915 8.5728 8.65669 8.5728C8.72245 8.5728 8.79698 8.44909 8.76191 8.39364C8.69615 8.28272 7.90264 7.42101 7.86757 7.42101C7.85003 7.42101 7.81058 7.44661 7.78427 7.48073Z" fill="white"/>
<path d="M8.4355 7.48835C8.38727 7.53954 8.39166 7.56514 8.44865 7.62486C8.51879 7.68885 8.52756 7.68885 8.59771 7.62486C8.6547 7.56514 8.65908 7.53954 8.61086 7.48835C8.58017 7.44996 8.54071 7.4201 8.52318 7.4201C8.50564 7.4201 8.46619 7.44996 8.4355 7.48835Z" fill="white"/>
<path d="M8.9819 7.48462C8.96437 7.51875 8.96437 7.57847 8.9819 7.6126C9.00382 7.66806 9.12657 7.67659 9.82802 7.66806L10.6522 7.65526V7.54861V7.44196L9.82802 7.42917C9.12657 7.42064 9.00382 7.42917 8.9819 7.48462Z" fill="white"/>
<path d="M17.0483 7.48479C17.0308 7.51892 17.0308 7.57864 17.0483 7.61277C17.0658 7.66823 17.2017 7.67676 17.8769 7.67676C18.5432 7.67676 18.6967 7.66396 18.7405 7.61277C18.7844 7.56158 18.7844 7.53598 18.7405 7.48479C18.6967 7.4336 18.5432 7.4208 17.8769 7.4208C17.2017 7.4208 17.0658 7.42934 17.0483 7.48479Z" fill="white"/>
<path d="M19.0946 7.46233C19.0113 7.50926 19.0551 7.6543 19.156 7.6543C19.213 7.6543 19.248 7.62017 19.2568 7.56471C19.2699 7.4666 19.1823 7.40687 19.0946 7.46233Z" fill="white"/>
<path d="M19.3139 7.9114C19.0728 8.18442 18.8711 8.41905 18.8711 8.44038C18.8711 8.46171 18.9018 8.5001 18.9369 8.52996C19.007 8.58542 19.0465 8.55129 19.4542 8.10764L19.6602 7.88154V8.34226C19.6602 8.83711 19.6865 8.93096 19.818 8.90536C19.8969 8.89256 19.9013 8.83711 19.9145 8.21428C19.9232 7.57013 19.9013 7.42083 19.7917 7.42083C19.7742 7.42083 19.5594 7.64265 19.3139 7.9114Z" fill="white"/>
<path d="M11.4723 7.70627C11.4417 7.71907 11.389 7.78306 11.3496 7.85558C11.2663 8.01342 11.3277 8.19685 11.4899 8.26937C11.6433 8.33762 11.7003 8.32909 11.8318 8.22671C12.1212 8.00488 11.8231 7.56976 11.4723 7.70627ZM11.7266 7.97929C11.7266 8.03048 11.5995 8.08167 11.5644 8.04754C11.5513 8.03048 11.5513 7.99209 11.5644 7.95796C11.5907 7.88971 11.7266 7.91103 11.7266 7.97929Z" fill="white"/>
<path d="M15.8596 7.73991C15.7325 7.82523 15.6974 7.9916 15.7763 8.14091C15.8859 8.34567 16.0963 8.37553 16.2629 8.20916C16.5435 7.94041 16.184 7.51809 15.8596 7.73991ZM16.127 8.02146C16.0919 8.08118 15.978 8.06839 15.978 8.0044C15.978 7.97027 15.9911 7.93188 16.0087 7.91908C16.0481 7.88069 16.1577 7.97454 16.127 8.02146Z" fill="white"/>
<path d="M9.28839 7.88513C9.09988 7.99605 9.00781 8.13682 9.00781 8.30319C9.00781 8.49516 9.10426 8.57621 9.284 8.52502C9.51635 8.46103 9.62595 8.30319 9.6128 8.04297C9.59527 7.78702 9.51635 7.74862 9.28839 7.88513ZM9.40237 8.14109C9.40237 8.16242 9.37168 8.20081 9.33661 8.23067C9.284 8.27333 9.27085 8.27333 9.27085 8.22214C9.27085 8.18801 9.284 8.14535 9.30154 8.13256C9.341 8.0899 9.40237 8.09416 9.40237 8.14109Z" fill="white"/>
<path d="M18.0351 7.90648C17.9167 8.16243 18.1535 8.5293 18.4384 8.5293C18.719 8.5293 18.6883 8.09417 18.3946 7.90221C18.2017 7.77423 18.0921 7.7785 18.0351 7.90648ZM18.3814 8.25628C18.3376 8.29894 18.2587 8.23068 18.2587 8.1539C18.2587 8.08991 18.2631 8.08991 18.3332 8.15816C18.3727 8.19656 18.3946 8.23922 18.3814 8.25628Z" fill="white"/>
<path d="M12.9367 8.20498C12.735 8.2775 12.4895 8.4652 12.3931 8.62304C12.3273 8.73396 12.3273 8.74675 12.3931 8.81074C12.4544 8.87046 12.4764 8.86193 12.6298 8.69983C12.8578 8.46094 12.9893 8.40122 13.283 8.40122C13.4628 8.40122 13.5329 8.38415 13.5548 8.33296C13.568 8.29883 13.5636 8.25191 13.5373 8.22631C13.4628 8.15379 13.112 8.141 12.9367 8.20498Z" fill="white"/>
<path d="M14.1907 8.18797C14.1337 8.21357 14.0898 8.26476 14.0898 8.31595C14.0898 8.39273 14.1161 8.40127 14.3353 8.40127C14.6335 8.40127 14.8439 8.49085 14.9973 8.68708C15.0719 8.78093 15.142 8.82786 15.199 8.81932C15.3612 8.79799 15.3305 8.69561 15.0894 8.46952C14.7913 8.18797 14.4581 8.08559 14.1907 8.18797Z" fill="white"/>
<path d="M13.7403 8.29539C13.6702 8.37644 13.7184 8.49589 13.8149 8.47882C13.9113 8.46176 13.942 8.29539 13.8543 8.26126C13.8192 8.24846 13.7666 8.26553 13.7403 8.29539Z" fill="white"/>
<path d="M9.85437 8.43136C9.60448 8.47829 9.62202 8.64466 9.91136 8.95607C10.1832 9.25041 10.4243 9.36133 10.7838 9.36133C11.1301 9.36133 11.3537 9.28028 11.3537 9.1523C11.3537 9.09258 11.3011 9.05845 11.1477 9.02006C11.0249 8.9902 10.832 8.88781 10.6873 8.7769C10.3059 8.49108 10.078 8.39297 9.85437 8.43136ZM10.284 8.78117C10.3892 8.84942 10.547 8.96887 10.6303 9.04139C10.7706 9.16083 10.775 9.17363 10.6742 9.14377C10.4374 9.08404 10.2928 9.00299 10.1262 8.83236C9.92013 8.62333 9.99904 8.59773 10.284 8.78117Z" fill="white"/>
<path d="M17.5951 8.43989C17.4197 8.49535 17.2882 8.57214 17.0164 8.7769C16.8717 8.88781 16.6788 8.99019 16.5561 9.02006C16.407 9.05845 16.3456 9.09258 16.3369 9.15656C16.3193 9.28028 16.5473 9.36133 16.92 9.36133C17.1742 9.36133 17.2619 9.34 17.4329 9.24615C17.6389 9.1267 17.8844 8.87928 17.994 8.67878C18.0466 8.58493 18.0466 8.55934 17.9897 8.50815C17.9064 8.43136 17.7354 8.4015 17.5951 8.43989ZM17.5776 8.83236C17.389 9.02006 17.2531 9.10111 17.0515 9.14377L16.92 9.16936L17.0734 9.04139C17.2882 8.85795 17.6039 8.65745 17.6828 8.65745C17.7222 8.65745 17.6828 8.72144 17.5776 8.83236Z" fill="white"/>
<path d="M13.7073 8.60151C13.6767 8.61431 13.6021 8.69536 13.5451 8.78068C13.4487 8.92999 13.4224 8.94278 13.1856 8.96838C12.8042 9.00677 12.2431 9.17741 11.5416 9.47176C10.9498 9.71918 10.8972 9.73197 10.6254 9.71491C10.2659 9.69785 9.89326 9.52721 9.47677 9.18594C9.29703 9.04516 9.15674 8.95558 9.11729 8.97264C9.01645 9.00677 9.03837 9.07929 9.1962 9.27126C9.40663 9.52295 9.56007 9.79596 9.63898 10.0604C9.77489 10.5126 9.72228 10.7259 9.32772 11.289C9.18305 11.4981 9.01207 11.7625 8.94631 11.8863C8.84109 12.091 8.81917 12.1081 8.63504 12.1379C8.25364 12.1934 7.86784 11.9502 7.86784 11.6516C7.86784 11.4938 7.98183 11.272 8.10458 11.1952C8.16596 11.1525 8.36324 11.1056 8.54298 11.0843C8.93754 11.0416 9.09975 10.9691 9.2225 10.7771C9.53377 10.2823 8.99892 9.69785 8.4816 9.95807C8.34132 10.0306 8.32816 10.0519 8.38954 10.1458C8.42461 10.197 8.45968 10.2012 8.5912 10.1628C8.88055 10.0732 9.13482 10.2652 9.07345 10.5297C9.02961 10.7259 8.90247 10.8027 8.53421 10.8582C8.35008 10.8838 8.14404 10.9222 8.07828 10.9392L7.95552 10.9691V10.0647V9.16461L7.85908 9.17741C7.75824 9.19021 7.75824 9.19447 7.72756 10.2567C7.7144 10.8411 7.6881 11.4298 7.67056 11.5663C7.61357 12.0313 7.89415 12.3299 8.42023 12.3598C8.57367 12.3726 8.7008 12.3811 8.7008 12.3854C8.7008 12.3896 8.65258 12.5816 8.5912 12.812C8.1265 14.5866 8.59997 16.3825 9.86695 17.7007C10.4062 18.2552 11.2041 18.7842 11.8354 19.0018C12.1598 19.117 12.1554 19.1383 11.8222 19.1426C11.2654 19.1554 10.6254 19.4326 10.279 19.8166C10.2001 19.9104 10.1168 19.9616 10.0818 19.9445C10.0292 19.9275 10.0379 19.8891 10.13 19.7611C10.3317 19.4753 10.1782 19.134 9.8275 19.0786C9.68282 19.0572 9.65213 19.0316 9.59076 18.8909C9.55569 18.8013 9.45924 18.669 9.37594 18.6008C9.23127 18.4728 9.14359 18.4429 8.6482 18.3448C8.06951 18.2254 7.81085 17.8031 8.0432 17.3594C8.16157 17.1376 8.15719 17.0523 8.03444 17.0693C7.97306 17.0779 7.89415 17.1504 7.83277 17.2528C7.74948 17.3935 7.73632 17.4703 7.74509 17.7092C7.75824 17.9524 7.78455 18.0249 7.90292 18.1913L8.03882 18.3832L7.87223 18.4685C7.53027 18.6349 7.32423 18.9932 7.27162 19.518C7.24531 19.7526 7.25408 19.791 7.31984 19.8166C7.36368 19.8336 7.42944 19.8251 7.4689 19.7995C7.56973 19.7227 7.68371 19.6801 7.95552 19.599C8.38077 19.471 8.63504 19.2108 8.60436 18.925C8.59559 18.8226 8.56928 18.7885 8.50352 18.7885C8.44215 18.7885 8.41146 18.8269 8.38954 18.9335C8.3457 19.1468 8.1528 19.3004 7.81524 19.3985C7.48205 19.4966 7.48205 19.4966 7.58288 19.1682C7.64864 18.9549 7.82839 18.7458 8.0432 18.6349C8.17911 18.5667 8.61751 18.5667 8.91562 18.6392C9.21373 18.7074 9.40225 18.9079 9.40225 19.1596C9.40225 19.3047 9.37594 19.3601 9.23127 19.4966C9.04276 19.6843 8.92439 19.7014 8.67888 19.5905C8.5649 19.5393 8.51229 19.5308 8.47722 19.5649C8.39831 19.6417 8.46845 19.744 8.65696 19.8294L8.83233 19.9062L8.71834 20.0085C8.65696 20.064 8.57805 20.1664 8.5386 20.2304C8.43776 20.4223 8.17034 20.6868 8.08266 20.6868C8.00813 20.6868 7.99936 20.6484 7.99936 20.2645C7.99936 19.9445 7.98183 19.8336 7.9336 19.791C7.881 19.7483 7.85469 19.7483 7.80208 19.791C7.74948 19.8336 7.73632 19.9531 7.73632 20.3711C7.73632 20.8489 7.74509 20.9001 7.824 20.9428C7.87661 20.9726 8.40269 20.9812 9.34525 20.9769L10.7788 20.9641L10.9147 20.7081C11.2435 20.0811 11.9713 19.9531 12.4798 20.4309C12.7209 20.657 12.7429 20.7295 12.5675 20.7295C12.4798 20.7295 12.4272 20.6953 12.3702 20.6058C12.2869 20.4693 11.98 20.3029 11.8091 20.3029C11.5373 20.3029 11.0857 20.6655 11.1208 20.8532C11.1427 20.9598 11.3181 20.9641 11.3531 20.8617C11.4364 20.5972 11.8661 20.4693 12.0809 20.6442C12.1729 20.7124 12.1729 20.7252 12.1072 20.7295C12.0063 20.7295 11.9625 20.8404 12.0327 20.9214C12.1116 21.0153 12.8744 21.011 12.9533 20.9214C13.041 20.8191 12.8919 20.4863 12.6464 20.256C12.0633 19.7014 11.0901 19.8592 10.7131 20.5716L10.6298 20.7295H10.3185C10.0204 20.7295 10.0116 20.7252 10.0423 20.6314C10.2133 20.0853 10.8446 19.5563 11.5022 19.407C11.9581 19.3047 12.5894 19.4156 12.9927 19.6758C13.1681 19.7867 13.2339 19.8934 13.304 20.1621C13.3303 20.2602 13.4224 20.4351 13.5144 20.546C13.6021 20.6612 13.6986 20.7935 13.7249 20.8361C13.795 20.9598 13.8871 20.9428 13.9572 20.7935C13.9879 20.7209 14.0624 20.6186 14.1194 20.5588C14.229 20.4437 14.3562 20.1792 14.3562 20.0683C14.3562 19.9445 14.5885 19.7014 14.8121 19.5905C15.4259 19.2876 16.0966 19.2961 16.6972 19.6118C17.0699 19.808 17.4469 20.2304 17.596 20.61L17.6442 20.7295H17.3241H17.0085L16.9033 20.5332C16.6885 20.145 16.2851 19.919 15.7985 19.919C15.4522 19.919 15.0532 20.1194 14.8516 20.3967C14.6806 20.6271 14.6148 20.8873 14.7113 20.947C14.7902 20.994 15.8073 20.994 15.8818 20.947C15.9169 20.9257 15.9344 20.8745 15.9257 20.8319C15.9169 20.7679 15.8599 20.7465 15.6714 20.7295L15.4346 20.7081L15.5486 20.6314C15.7941 20.4778 16.1361 20.5674 16.2413 20.8148C16.3027 20.9598 16.3904 21.0025 16.4605 20.9172C16.5876 20.7721 16.2588 20.3839 15.9607 20.3285C15.7196 20.2816 15.4829 20.3669 15.3031 20.5588C15.1979 20.674 15.1102 20.7295 15.0313 20.7295H14.9173L15.005 20.5887C15.1234 20.4053 15.4522 20.1877 15.6714 20.1536C16.0922 20.0853 16.5876 20.3541 16.7455 20.738C16.7849 20.8404 16.8419 20.9342 16.8682 20.9513C16.9603 21.011 19.8099 20.994 19.8713 20.9342C19.9546 20.8532 19.9414 19.8592 19.8581 19.791C19.8055 19.7483 19.7792 19.7483 19.7266 19.791C19.6784 19.8336 19.6608 19.9445 19.6608 20.2645C19.6608 20.4991 19.6433 20.6868 19.6214 20.6868C19.5425 20.6868 19.3057 20.4607 19.2005 20.2858C19.1391 20.1877 19.0427 20.0597 18.9813 20.0043L18.8717 19.9019L19.0339 19.8123C19.126 19.7654 19.2049 19.6929 19.2137 19.6502C19.2356 19.5436 19.0997 19.5137 18.9594 19.5947C18.7972 19.6843 18.6613 19.6801 18.4947 19.5819C18.1396 19.3686 18.1571 18.8866 18.5341 18.6946C18.6832 18.6221 19.2663 18.5709 19.503 18.6136C19.7441 18.6605 19.9852 18.9079 20.0773 19.2065C20.1168 19.3431 20.1431 19.4625 20.1343 19.471C20.1255 19.4838 19.9809 19.4497 19.8143 19.4028C19.4811 19.3047 19.2663 19.134 19.2663 18.9677C19.2663 18.8226 19.1567 18.7373 19.069 18.8098C18.9813 18.8823 18.9857 18.9634 19.0953 19.1809C19.1961 19.3857 19.4241 19.5393 19.7485 19.6203C19.8581 19.6502 20.0203 19.7099 20.108 19.7568C20.3579 19.8934 20.4236 19.8422 20.3886 19.5436C20.3228 18.9975 20.1124 18.6306 19.7748 18.4728L19.5775 18.379L19.6652 18.2936C19.8055 18.1571 19.9239 17.8671 19.9239 17.6538C19.9239 17.3125 19.6652 16.9541 19.5205 17.0949C19.4898 17.1248 19.5074 17.193 19.5775 17.2997C19.8625 17.7519 19.5556 18.2851 18.9594 18.3619C18.578 18.4131 18.3544 18.5112 18.1966 18.6904C18.1133 18.7842 18.03 18.9122 18.0168 18.9762C17.9949 19.0743 17.9686 19.0914 17.8327 19.0914C17.7143 19.0914 17.6486 19.1212 17.5521 19.2279C17.3899 19.4028 17.3811 19.6075 17.5346 19.7824C17.6135 19.872 17.6266 19.919 17.5916 19.9531C17.5565 19.9872 17.4688 19.936 17.2628 19.7483C16.8288 19.3516 16.3465 19.1554 15.8073 19.1468C15.5574 19.1468 15.5355 19.1383 15.6275 19.0999C16.5876 18.6904 17.0436 18.4088 17.6047 17.8841C18.4465 17.0949 18.9988 16.0754 19.183 14.9748C19.297 14.2794 19.218 13.3452 18.9857 12.6754L18.8761 12.3683H19.1041C19.3496 12.3683 19.6345 12.2617 19.7573 12.1294C19.937 11.9332 19.9502 11.8052 19.9326 10.4572C19.9195 9.38217 19.9063 9.16034 19.8537 9.13901C19.8187 9.12622 19.7617 9.13901 19.7266 9.16888C19.674 9.21153 19.6608 9.3779 19.6608 10.1116C19.6608 10.6022 19.6521 11.0032 19.6433 11.0032C19.6345 11.0032 19.5556 10.9734 19.4723 10.9392C19.3846 10.9051 19.24 10.8752 19.1479 10.8752C18.6657 10.8752 18.4158 10.6363 18.5473 10.2993C18.5955 10.1799 18.8147 10.1116 18.9901 10.1628C19.1567 10.214 19.2531 10.1628 19.2093 10.0477C19.1347 9.86848 18.6788 9.85569 18.4903 10.0306C18.2448 10.2524 18.1922 10.5169 18.3588 10.7473C18.521 10.9861 18.6569 11.0544 19.0251 11.0885C19.503 11.1355 19.7047 11.2976 19.7047 11.6516C19.7047 11.9673 19.3539 12.1977 18.9506 12.1379C18.7753 12.1123 18.7533 12.091 18.6394 11.8863C18.5736 11.7625 18.3938 11.4767 18.2404 11.2464C17.9335 10.7985 17.8722 10.6065 17.9248 10.2439C17.9598 9.9922 18.201 9.50162 18.4114 9.26273C18.5736 9.07929 18.5911 8.95558 18.4508 8.95558C18.4114 8.95558 18.2667 9.05796 18.122 9.18594C17.7362 9.52295 17.3548 9.69785 16.9603 9.71491C16.649 9.73197 16.6227 9.72771 16.1843 9.51441C15.6188 9.24566 15.0401 9.05796 14.5929 8.98971C14.2641 8.94278 14.2378 8.93425 14.08 8.75508C13.9222 8.58018 13.8389 8.55032 13.7073 8.60151ZM13.909 8.92145C14.0888 9.25846 14.2115 9.84715 14.1326 9.98793C13.9485 10.3249 13.4794 10.2098 13.4794 9.82582C13.4794 9.52721 13.7205 8.8276 13.8257 8.8276C13.8432 8.8276 13.8827 8.87026 13.909 8.92145ZM13.3303 9.30538C13.3128 9.38217 13.2865 9.51015 13.2733 9.58267C13.2558 9.68078 13.2251 9.72344 13.1725 9.72344C13.1287 9.72344 12.9051 9.77037 12.6771 9.82582C12.2299 9.93674 11.6381 10.1884 11.3224 10.3975C11.1646 10.5041 11.0945 10.5212 10.8797 10.5212L10.6254 10.5169L10.3755 10.2354C9.97655 9.7917 9.98094 9.80023 10.1519 9.86848C10.3843 9.96233 10.7657 9.9922 10.9849 9.93674C11.0901 9.91114 11.3663 9.80449 11.603 9.69785C12.0853 9.48455 12.5719 9.31818 12.9664 9.23713C13.3698 9.14755 13.3654 9.14755 13.3303 9.30538ZM14.9261 9.30112C15.3119 9.3907 15.6275 9.51441 16.1755 9.77037C16.535 9.941 16.5964 9.95807 16.8989 9.9538C17.1006 9.9538 17.2891 9.92394 17.3943 9.88128C17.482 9.84289 17.5565 9.82582 17.5565 9.83862C17.5565 9.85142 17.4294 10.0007 17.2715 10.1714C16.9953 10.4742 16.9778 10.4828 16.7542 10.4998C16.5526 10.5126 16.4956 10.4956 16.2588 10.3548C15.8555 10.1074 15.3207 9.89834 14.8253 9.7917L14.3781 9.69358L14.3474 9.51015C14.3299 9.41203 14.3036 9.29259 14.286 9.24566C14.2641 9.17314 14.2773 9.16461 14.4307 9.19021C14.5228 9.20727 14.7464 9.25419 14.9261 9.30112ZM13.3522 10.1842C13.3917 10.2524 13.4881 10.3335 13.5627 10.3676C13.6372 10.4017 13.6986 10.4401 13.6986 10.4529C13.6986 10.4998 13.5714 10.534 13.4224 10.534C12.9971 10.5382 12.2387 10.8027 11.7565 11.1184C11.4364 11.3232 11.397 11.3402 11.3356 11.2805C11.2918 11.2378 11.2654 11.1312 11.2654 10.9648V10.7131L11.5066 10.5638C11.8354 10.3548 12.2694 10.1671 12.6552 10.069C13.2119 9.92394 13.2032 9.91967 13.3522 10.1842ZM14.799 10.0221C15.1541 10.0946 15.724 10.3164 16.0396 10.5041L16.3421 10.6833L16.3553 10.935L16.3641 11.1866L15.8862 11.7199C15.6056 12.027 15.4083 12.2787 15.4171 12.3171C15.4522 12.4963 15.5881 12.3982 16.0703 11.8607C16.5482 11.3274 16.5745 11.3061 16.706 11.3274C16.7849 11.3402 16.8857 11.3317 16.934 11.3061C17.0085 11.2677 17.0436 11.2848 17.1663 11.417C17.3724 11.6516 17.6705 12.1123 17.8239 12.4408C17.9379 12.6797 18.1703 13.4433 18.1703 13.5628C18.1703 13.5841 18.1045 13.6395 18.0212 13.6865C17.9379 13.7377 17.8415 13.8443 17.802 13.9254C17.6836 14.1685 17.6266 14.1131 17.5653 13.6993C17.4776 13.0508 17.2058 12.4195 16.7981 11.9119C16.6183 11.69 16.4824 11.626 16.4342 11.7455C16.421 11.7753 16.5131 11.9332 16.6359 12.091C17.0041 12.5645 17.2715 13.166 17.3241 13.6566L17.3505 13.8998L16.6753 13.2641C16.3027 12.9143 15.9739 12.6285 15.9432 12.6243C15.9125 12.6243 15.8774 12.6541 15.8599 12.6925C15.8424 12.7394 16.044 12.9655 16.5657 13.4732L17.2935 14.1813L15.5618 15.8663L13.8301 17.5514L12.0984 15.8663L10.3667 14.1813L11.0726 13.4945C11.7608 12.8248 11.8573 12.6882 11.6907 12.6328C11.66 12.6243 11.3312 12.9058 10.9586 13.2684C10.2834 13.9168 10.2834 13.9168 10.3054 13.7505C10.3799 13.2385 10.5991 12.684 10.906 12.2403C11.0462 12.0356 11.3312 11.7284 11.3794 11.7284C11.3926 11.7284 11.5416 11.882 11.7082 12.0697C12.0063 12.4067 12.1291 12.4749 12.1817 12.3427C12.1992 12.2958 12.1028 12.155 11.8836 11.9076L11.5548 11.545L11.7345 11.4085C12.094 11.1312 12.8218 10.8411 13.3259 10.7729L13.5451 10.743L13.0059 11.2677C12.607 11.6602 12.4754 11.818 12.4974 11.8692C12.5105 11.9076 12.5543 11.9417 12.5938 11.9417C12.6333 11.9417 12.927 11.6858 13.247 11.3786L13.8301 10.8112L14.4219 11.3871C14.9656 11.9161 15.0182 11.9545 15.0839 11.8905C15.1848 11.7967 15.1409 11.7369 14.6017 11.2208C14.343 10.9776 14.1457 10.7686 14.1545 10.7601C14.194 10.7217 14.8472 10.8752 15.1365 10.9861C15.2944 11.0501 15.5267 11.1568 15.6451 11.225C15.873 11.3573 15.9914 11.3658 16.0133 11.2506C16.0484 11.0715 14.8998 10.5937 14.308 10.5468C14.023 10.5212 13.8696 10.4572 14.0011 10.4145C14.1151 10.3761 14.3474 10.1458 14.3737 10.0434C14.3956 9.95807 14.4219 9.941 14.5008 9.95807C14.5535 9.97087 14.6894 9.99646 14.799 10.0221ZM10.2221 10.4145C10.4325 10.6491 10.4413 10.6705 10.4281 10.8923C10.4193 11.1013 10.393 11.1525 10.1958 11.3957C9.78804 11.8948 9.4154 12.6882 9.29703 13.3025L9.24442 13.5756L8.94631 13.695L8.6482 13.8102L8.67888 13.55C8.76657 12.8034 9.04714 12.0953 9.54253 11.3829C9.86695 10.9136 9.94586 10.6875 9.91956 10.3207C9.89764 10.0306 9.87572 10.0263 10.2221 10.4145ZM17.6749 10.3932C17.6705 10.7686 17.7362 10.952 18.03 11.3658C18.5078 12.0398 18.9594 13.1447 18.9594 13.6353C18.9594 13.7633 18.9462 13.7803 18.8849 13.7505C18.841 13.7334 18.7139 13.6907 18.5999 13.6523C18.4596 13.6097 18.3895 13.5628 18.3895 13.5158C18.3895 13.4774 18.3412 13.2556 18.2799 13.0253C18.1396 12.492 17.8502 11.9076 17.4951 11.4554C17.2409 11.1355 17.2145 11.08 17.2014 10.8667C17.1839 10.6321 17.1882 10.6235 17.4162 10.3676C17.5434 10.2268 17.6573 10.1074 17.6617 10.1074C17.6705 10.1074 17.6749 10.2354 17.6749 10.3932ZM16.9164 10.7729C17.048 10.9008 16.9734 11.0885 16.7893 11.0885C16.7367 11.0885 16.6753 11.0672 16.6446 11.0373C16.6139 11.0075 16.592 10.9478 16.592 10.8966C16.592 10.7174 16.7849 10.6449 16.9164 10.7729ZM11.0112 10.8582C11.0638 10.9392 11.0594 10.9606 10.9893 11.0459C10.8314 11.2378 10.5552 11.0501 10.6736 10.8326C10.735 10.7174 10.9235 10.7345 11.0112 10.8582ZM11.1295 11.4298C11.2085 11.5066 11.2085 11.5151 10.9936 11.7583C10.8709 11.8948 10.6999 12.1166 10.6122 12.2489C10.3185 12.701 10.0642 13.4518 10.0598 13.8699C10.0598 14.0619 9.99409 14.1131 9.92394 13.9808C9.84942 13.84 9.65652 13.6481 9.59076 13.6481C9.48554 13.6481 9.48116 13.5329 9.57761 13.149C9.72666 12.5603 10.0905 11.8607 10.4588 11.4554C10.5772 11.3232 10.5991 11.3146 10.8139 11.336C10.9542 11.3445 11.0769 11.3829 11.1295 11.4298ZM9.52938 13.8827C9.7442 13.9893 9.77489 14.2282 9.59514 14.4031C9.49869 14.497 9.45485 14.5098 9.29265 14.4927C9.06906 14.4671 8.70519 14.305 8.67012 14.2154C8.63066 14.1216 8.79725 13.9893 9.05591 13.8998C9.34525 13.8059 9.37594 13.8016 9.52938 13.8827ZM18.7358 13.9467C18.8279 13.9893 18.9287 14.0576 18.9594 14.096C19.0164 14.16 19.0076 14.1856 18.8849 14.2922C18.635 14.5098 18.2842 14.5567 18.1001 14.4031C17.8327 14.177 18.0431 13.7803 18.4026 13.8358C18.4947 13.8528 18.6481 13.8998 18.7358 13.9467ZM10.0598 14.4671C10.0642 14.9236 10.3273 15.7 10.6385 16.165C10.7394 16.3143 10.9542 16.5702 11.112 16.7366L11.397 17.0309L11.2435 17.0053C11.1602 16.9883 10.9542 16.9669 10.7876 16.9499L10.4895 16.92L10.301 16.6854C10.0248 16.3441 9.72228 15.7213 9.59953 15.2435C9.53815 15.0174 9.48993 14.8084 9.48993 14.7828C9.48993 14.7572 9.56445 14.6932 9.6609 14.642C9.75297 14.5908 9.8538 14.4927 9.88449 14.4202C9.96778 14.224 10.0598 14.2496 10.0598 14.4671ZM17.8064 14.4159C17.8327 14.4842 17.9248 14.5823 18.0124 14.6335C18.1001 14.6804 18.1703 14.7359 18.1703 14.7572C18.1703 14.7743 18.122 14.979 18.0607 15.2094C17.9335 15.6914 17.6486 16.2887 17.368 16.6598L17.1707 16.92L16.8726 16.9456C16.706 16.9627 16.4912 16.9883 16.3947 17.0053L16.2194 17.0309L16.386 16.8944C16.9822 16.3825 17.4513 15.4995 17.5653 14.6591C17.6091 14.3733 17.6354 14.288 17.688 14.288C17.7275 14.288 17.7801 14.3434 17.8064 14.4159ZM13.5013 17.6068C13.4925 17.6154 13.3215 17.594 13.1199 17.5514C11.7959 17.2912 10.7174 16.2929 10.3974 15.026C10.2221 14.3434 10.1037 14.2709 11.9011 16.0156C12.7911 16.8816 13.5101 17.5983 13.5013 17.6068ZM17.2321 15.1027C16.9603 16.0156 16.3904 16.7238 15.5399 17.1973C15.1584 17.4106 14.2247 17.6751 14.1414 17.594C14.1282 17.577 14.834 16.8688 15.7152 16.0242C17.197 14.5908 17.3154 14.4885 17.3285 14.5994C17.3373 14.6676 17.2935 14.8937 17.2321 15.1027ZM8.96385 14.6463L9.24442 14.7487L9.30141 15.0345C9.40225 15.572 9.62145 16.1052 9.95025 16.5915C10.0555 16.7579 10.1475 16.9072 10.1475 16.9243C10.1431 16.9414 10.0248 16.9755 9.8801 17.0011L9.61706 17.048L9.51185 16.9158C9.33649 16.6897 9.06468 16.1607 8.92439 15.764C8.77972 15.363 8.60874 14.5396 8.67012 14.5439C8.6745 14.5439 8.80602 14.5908 8.96385 14.6463ZM18.9813 14.6591C18.898 15.1753 18.8454 15.4184 18.7533 15.6957C18.635 16.0412 18.2667 16.7622 18.1133 16.9456C18.0256 17.0523 18.0037 17.0565 17.8634 17.0181C17.7801 16.9968 17.6573 16.9755 17.5916 16.9755C17.5214 16.9755 17.4688 16.9669 17.4688 16.9499C17.4688 16.9371 17.5521 16.8134 17.6486 16.6683C17.9248 16.2759 18.1659 15.7384 18.3018 15.2137L18.4245 14.7401L18.6481 14.6676C18.7753 14.6292 18.8892 14.5866 18.9024 14.5695C18.9638 14.5098 18.9988 14.5524 18.9813 14.6591ZM11.3049 17.257C11.4934 17.2912 11.8354 17.3893 12.0721 17.4703C12.7955 17.7305 12.9884 17.7817 13.4005 17.8329C14.0361 17.9054 14.6017 17.8244 15.3294 17.5514C16.1668 17.2357 16.9208 17.1077 17.4951 17.1888C17.6836 17.2101 17.8458 17.2442 17.859 17.2528C17.8722 17.2656 17.802 17.3509 17.7099 17.4447C17.5434 17.6068 17.5258 17.6111 17.3592 17.5727C16.9164 17.4703 16.1098 17.5428 15.5399 17.7348C15.0664 17.8969 14.343 18.315 14.0931 18.5752C13.9528 18.7202 13.9178 18.7074 13.9178 18.5283C13.9178 18.396 13.9046 18.379 13.8213 18.3918C13.7424 18.4003 13.7161 18.4387 13.7073 18.5453L13.6942 18.6818L13.4662 18.4941C12.6727 17.8372 11.6819 17.4959 10.6999 17.5428C10.4325 17.5556 10.1826 17.577 10.1431 17.5898C10.0993 17.6111 10.0292 17.5642 9.93271 17.4447C9.8538 17.3466 9.79681 17.257 9.80996 17.2485C9.8538 17.2058 10.4325 17.1589 10.6955 17.176C10.8402 17.1845 11.112 17.2229 11.3049 17.257ZM11.6688 17.85C12.2431 17.978 12.8481 18.2936 13.4268 18.7629C13.6854 18.9719 13.6986 18.9932 13.6986 19.1724C13.6986 19.2791 13.6854 19.3644 13.6723 19.3644C13.6547 19.3644 13.4618 19.1937 13.2426 18.989C12.5763 18.3704 11.8792 18.0889 11.0199 18.0846C10.678 18.0846 10.6298 18.0761 10.4851 17.9652C10.3974 17.9012 10.3273 17.8372 10.3229 17.8201C10.3185 17.7305 11.226 17.7519 11.6688 17.85ZM17.1619 17.7775L17.3548 17.8073L17.1839 17.9438C17.0173 18.0761 16.991 18.0846 16.6359 18.0846C16.1492 18.0846 15.7328 18.1742 15.3207 18.3662C14.9173 18.5496 14.6411 18.7544 14.2553 19.134L13.9616 19.4284V19.2065C13.9616 18.9847 13.9616 18.9805 14.2378 18.7629C15.176 17.9993 16.2369 17.641 17.1619 17.7775ZM11.8266 18.4131C12.1466 18.5027 12.4886 18.6818 12.8086 18.9165C13.0936 19.1212 13.4355 19.4753 13.4355 19.5649C13.4355 19.6886 13.3391 19.6502 13.1462 19.4497C13.0322 19.3303 12.7999 19.1426 12.6333 19.0359C12.3483 18.8525 11.717 18.5965 11.5329 18.5965C11.4496 18.5965 10.9805 18.3534 10.9805 18.3107C10.9805 18.268 11.5855 18.3406 11.8266 18.4131ZM16.6183 18.3363C16.5745 18.4046 16.2062 18.5965 16.1229 18.5965C15.9432 18.5965 15.3119 18.8525 15.0269 19.0359C14.8603 19.1426 14.628 19.3303 14.514 19.4497C14.3474 19.6246 14.2904 19.6587 14.2422 19.6161C14.194 19.5777 14.2115 19.535 14.3474 19.3729C14.7376 18.9079 15.4697 18.4771 16.044 18.3662C16.4079 18.2936 16.649 18.2808 16.6183 18.3363ZM9.91956 19.3729C9.99409 19.4454 9.98532 19.599 9.90641 19.663C9.73981 19.7952 9.48554 19.5478 9.62145 19.3857C9.68721 19.3089 9.84503 19.3004 9.91956 19.3729ZM18.0256 19.4326C18.0782 19.5137 18.0738 19.535 18.0037 19.6203C17.8458 19.8123 17.5697 19.6246 17.688 19.407C17.7494 19.2919 17.9379 19.3089 18.0256 19.4326ZM14.0011 19.727C14.0844 19.8208 14.137 19.9275 14.137 19.9957C14.137 20.1237 13.9046 20.5162 13.8301 20.5162C13.7336 20.5162 13.5232 20.1621 13.5232 20C13.5232 19.8336 13.6942 19.5777 13.8082 19.5777C13.8389 19.5777 13.9265 19.6459 14.0011 19.727ZM18.6437 20.0128C18.7226 20.0597 18.8849 20.2389 19.0076 20.4138L19.2268 20.7295H18.5561H17.8853L17.7845 20.4693L17.6793 20.209L17.7976 20.0896C18.0124 19.872 18.35 19.8422 18.6437 20.0128ZM9.84503 20.0725L9.97217 20.2005L9.8538 20.465L9.73105 20.7295H9.10852H8.48599L8.65258 20.4863C8.96385 20.0341 9.15674 19.9104 9.50308 19.936C9.66967 19.9445 9.74858 19.9787 9.84503 20.0725Z" fill="white"/>
<path d="M16.8258 11.5799C16.8126 11.614 16.8828 11.7463 16.9924 11.8871C17.0976 12.0236 17.2379 12.2241 17.3037 12.3307C17.4396 12.5611 17.6412 13.1284 17.6412 13.2777C17.6412 13.427 17.7552 13.5124 17.8429 13.427C17.9043 13.3716 17.9043 13.3332 17.8429 13.0858C17.7157 12.5568 17.4439 12.0236 17.1239 11.678C16.9661 11.5074 16.8653 11.4733 16.8258 11.5799Z" fill="white"/>
<path d="M13.414 13.0468C13.0019 13.226 12.8441 13.6099 12.8748 14.3479C12.8923 14.7233 12.9143 14.8598 12.9888 14.9963C13.1773 15.3547 13.4886 15.5082 13.9445 15.4698C14.2689 15.4485 14.5013 15.3248 14.6065 15.1286C14.6503 15.0475 14.6854 14.8513 14.6986 14.6423C14.7161 14.3052 14.7205 14.2924 14.8345 14.2669C14.9967 14.2327 15.2773 14.0024 15.2773 13.9C15.2773 13.7805 15.1589 13.7976 14.9879 13.9426C14.8915 14.0237 14.7599 14.0834 14.589 14.1175C14.1023 14.2114 14.0147 14.2455 13.8787 14.3948C13.7297 14.5612 13.7078 14.6593 13.813 14.702C13.8568 14.719 13.9226 14.6764 14.0103 14.574C14.133 14.4332 14.3654 14.3095 14.418 14.3607C14.4311 14.3778 14.4443 14.4887 14.4443 14.6167C14.4443 15.0688 14.2558 15.2693 13.8393 15.2693C13.585 15.2693 13.3746 15.1499 13.2431 14.9281C13.1642 14.8001 13.151 14.7062 13.151 14.2455C13.151 13.6355 13.2168 13.4435 13.4754 13.2772C13.7911 13.0724 14.2821 13.1876 14.3961 13.499C14.4925 13.7464 14.5802 13.7976 14.6635 13.644C14.7029 13.5758 14.6942 13.5203 14.6196 13.371C14.4443 13.0127 13.8481 12.8548 13.414 13.0468Z" fill="white"/>
<path d="M10.5306 11.678C10.2106 12.0236 9.93879 12.5568 9.81166 13.0858C9.75028 13.3332 9.75028 13.3716 9.81166 13.427C9.89934 13.5124 10.0133 13.427 10.0133 13.2777C10.0133 12.9749 10.3728 12.2198 10.7016 11.8316C10.9559 11.5245 10.8024 11.3837 10.5306 11.678Z" fill="white"/>
<path d="M8.78905 8.68312C8.74082 8.73431 8.74082 8.75991 8.79781 8.8111C8.85919 8.87082 8.87234 8.87082 8.9381 8.80683C8.99509 8.75137 8.99948 8.72151 8.96002 8.67459C8.89426 8.5978 8.85481 8.5978 8.78905 8.68312Z" fill="white"/>
<path d="M18.6405 8.63918C18.5879 8.69038 18.6055 8.81835 18.6668 8.83968C18.7589 8.87381 18.8378 8.80556 18.8203 8.71597C18.8071 8.63492 18.6931 8.58799 18.6405 8.63918Z" fill="white"/>
<path d="M8.44916 9.07167C8.22996 9.17405 8.12037 9.44281 8.20366 9.6561C8.25188 9.77555 8.51492 9.74142 8.66398 9.59638C8.78235 9.48547 8.7955 9.44707 8.78235 9.24657C8.7692 8.98635 8.69905 8.94796 8.44916 9.07167ZM8.57192 9.33616C8.57192 9.35749 8.54123 9.39588 8.50616 9.42574C8.45355 9.4684 8.4404 9.4684 8.4404 9.41721C8.4404 9.38308 8.45355 9.34042 8.47108 9.32763C8.51054 9.28497 8.57192 9.28923 8.57192 9.33616Z" fill="white"/>
<path d="M18.9053 9.02855C18.857 9.07121 18.8702 9.42101 18.9184 9.51486C19.0149 9.68976 19.4094 9.79214 19.462 9.65564C19.5409 9.45087 19.4313 9.16506 19.2253 9.06267C19.0894 8.99442 18.9535 8.98162 18.9053 9.02855ZM19.2253 9.38262C19.256 9.43807 19.256 9.46794 19.2297 9.46794C19.2034 9.46794 19.1639 9.42954 19.1376 9.38262C19.1069 9.32716 19.1069 9.2973 19.1332 9.2973C19.1595 9.2973 19.199 9.33569 19.2253 9.38262Z" fill="white"/>
<path d="M8.33009 11.3061C8.15035 11.4042 8.08459 11.5962 8.15911 11.7924C8.1898 11.8692 8.40023 11.9844 8.50545 11.9844C8.61943 11.9844 8.83425 11.7498 8.83425 11.626C8.83425 11.4042 8.52299 11.2037 8.33009 11.3061ZM8.58436 11.5663C8.61505 11.6559 8.56683 11.7284 8.48353 11.7284C8.3827 11.7284 8.33447 11.6602 8.36955 11.5791C8.40023 11.5023 8.55806 11.4938 8.58436 11.5663Z" fill="white"/>
<path d="M18.982 11.3105C18.8461 11.3873 18.7891 11.4812 18.7891 11.6219C18.7891 11.9461 19.1705 12.0869 19.3984 11.848C19.5563 11.6817 19.4993 11.4214 19.2801 11.3105C19.1617 11.2465 19.0959 11.2465 18.982 11.3105ZM19.245 11.6219C19.245 11.7158 19.1091 11.7627 19.039 11.6945C18.9644 11.6219 19.0346 11.5068 19.1442 11.5238C19.2099 11.5324 19.245 11.5665 19.245 11.6219Z" fill="white"/>
<path d="M7.7689 12.5264C7.72068 12.569 7.73383 14.8342 7.77767 14.8598C7.79959 14.8769 7.84782 14.8726 7.88727 14.8598C7.94865 14.8385 7.95742 14.7063 7.95742 13.8318C7.95742 12.9786 7.96618 12.8335 8.01879 12.8506C8.2073 12.9231 8.38266 12.9274 8.43527 12.8634C8.51418 12.7695 8.4265 12.6672 8.26868 12.6672C8.2073 12.6672 8.08894 12.6288 8.01002 12.5818C7.85658 12.4923 7.81274 12.4795 7.7689 12.5264Z" fill="white"/>
<path d="M19.6507 12.565C19.6068 12.6077 19.4884 12.6503 19.3876 12.6631C19.2342 12.6845 19.1947 12.7058 19.1859 12.7868C19.1684 12.9105 19.2473 12.9361 19.4753 12.885L19.6594 12.8466V13.8192C19.6594 14.6297 19.6682 14.8003 19.7252 14.843C19.7778 14.8857 19.8041 14.8857 19.8567 14.843C19.9137 14.7961 19.9225 14.6254 19.9137 13.6528C19.9005 12.5565 19.8962 12.5181 19.8129 12.5053C19.7646 12.501 19.6901 12.5266 19.6507 12.565Z" fill="white"/>
<path d="M7.78901 15.052C7.70572 15.0989 7.74079 15.244 7.83724 15.2611C7.87669 15.2696 7.92492 15.244 7.93807 15.2056C7.97753 15.116 7.86793 15.0051 7.78901 15.052Z" fill="white"/>
<path d="M19.7359 15.0437C19.692 15.0821 19.7008 15.2186 19.7446 15.2442C19.8148 15.2868 19.9244 15.2229 19.9244 15.1418C19.9244 15.0991 19.8937 15.0522 19.8542 15.0394C19.7709 15.0096 19.7709 15.0096 19.7359 15.0437Z" fill="white"/>
<path d="M7.7169 15.4357C7.70374 15.457 7.70374 15.5082 7.7169 15.5466C7.73882 15.5978 7.79142 15.6106 7.92733 15.6021C8.072 15.5935 8.10707 15.5722 8.10707 15.5039C8.10707 15.4357 8.072 15.4143 7.92294 15.4058C7.8265 15.3973 7.73005 15.4101 7.7169 15.4357Z" fill="white"/>
<path d="M19.5154 15.4578C19.476 15.5517 19.5944 15.6199 19.7566 15.6028C19.8662 15.5943 19.9056 15.5687 19.9144 15.4919C19.9276 15.4066 19.91 15.3981 19.7347 15.3981C19.6031 15.3981 19.5286 15.4194 19.5154 15.4578Z" fill="white"/>
<path d="M19.4609 15.7557C19.4127 15.7899 19.3908 15.8368 19.4083 15.8837C19.4522 15.9946 19.8906 15.9648 19.9125 15.8496C19.9213 15.8069 19.9037 15.7557 19.8687 15.7344C19.781 15.679 19.553 15.6875 19.4609 15.7557Z" fill="white"/>
<path d="M7.7186 15.7765C7.70106 15.7978 7.70545 15.849 7.7186 15.8874C7.74052 15.9386 7.79751 15.9514 7.97287 15.9429C8.16576 15.9301 8.19645 15.9173 8.2096 15.832C8.22276 15.7467 8.2096 15.7381 7.98164 15.7381C7.85012 15.7381 7.73175 15.7552 7.7186 15.7765Z" fill="white"/>
<path d="M7.73991 16.1013C7.69607 16.1524 7.69607 16.178 7.73991 16.2292C7.81882 16.3188 8.27914 16.3188 8.35806 16.225C8.40628 16.1652 8.4019 16.1482 8.33175 16.097C8.21777 16.0159 7.81006 16.0202 7.73991 16.1013Z" fill="white"/>
<path d="M19.3156 16.0762C19.2805 16.0976 19.263 16.1487 19.2718 16.1914C19.2849 16.2597 19.3288 16.2725 19.5918 16.2725C19.8548 16.2725 19.8987 16.2597 19.9118 16.1914C19.9337 16.0805 19.8461 16.0378 19.5918 16.0378C19.4734 16.0378 19.3463 16.0549 19.3156 16.0762Z" fill="white"/>
<path d="M7.73601 16.4428C7.69216 16.494 7.69216 16.5196 7.73601 16.5708C7.77546 16.6177 7.88068 16.6348 8.13057 16.6348C8.38045 16.6348 8.48567 16.6177 8.52513 16.5708C8.56897 16.5196 8.56897 16.494 8.52513 16.4428C8.48567 16.3959 8.38045 16.3788 8.13057 16.3788C7.88068 16.3788 7.77546 16.3959 7.73601 16.4428Z" fill="white"/>
<path d="M19.1507 16.4078C19.1201 16.4163 19.0938 16.4633 19.0938 16.5102C19.0938 16.6126 19.2165 16.6424 19.5979 16.6254C19.8566 16.6126 19.9048 16.5998 19.9179 16.5315C19.9267 16.4889 19.9092 16.4377 19.8741 16.4163C19.8127 16.3779 19.2428 16.3694 19.1507 16.4078Z" fill="white"/>
<path d="M7.73991 16.7836C7.69607 16.8348 7.69607 16.8604 7.73991 16.9116C7.78375 16.9585 7.89335 16.9756 8.22215 16.9756C8.55095 16.9756 8.66055 16.9585 8.70439 16.9116C8.74823 16.8604 8.74823 16.8348 8.70439 16.7836C8.66055 16.7367 8.55095 16.7196 8.22215 16.7196C7.89335 16.7196 7.78375 16.7367 7.73991 16.7836Z" fill="white"/>
<path d="M18.9725 16.7453C18.8936 16.7794 18.9024 16.9202 18.9856 16.9501C19.0909 16.9885 19.8055 16.98 19.8712 16.9373C19.9063 16.916 19.9238 16.8648 19.9151 16.8221C19.9019 16.7496 19.8537 16.7411 19.4635 16.7325C19.2224 16.7283 18.9988 16.7368 18.9725 16.7453Z" fill="white"/>
<path d="M8.43505 17.1254C8.35175 17.2235 8.45697 17.3174 8.64987 17.3174C8.84715 17.3174 8.93044 17.2662 8.90852 17.1638C8.89099 17.0529 8.52273 17.023 8.43505 17.1254Z" fill="white"/>
<path d="M18.7192 17.1301C18.6797 17.2325 18.7324 17.2667 18.934 17.2752C19.2102 17.288 19.2277 17.2837 19.2102 17.1771C19.1971 17.096 19.1664 17.0832 18.9735 17.0704C18.7937 17.0619 18.7411 17.0704 18.7192 17.1301Z" fill="white"/>
<path d="M8.24479 17.4748C8.19219 17.6027 8.33686 17.6582 8.72265 17.6582C9.12598 17.6582 9.28819 17.5942 9.18736 17.4705C9.09968 17.3681 8.28425 17.3724 8.24479 17.4748Z" fill="white"/>
<path d="M18.4514 17.4626C18.3988 17.5906 18.4821 17.6162 18.9424 17.6162C19.3983 17.6162 19.4027 17.6162 19.3895 17.5181C19.3764 17.4285 19.3545 17.4243 18.9248 17.4115C18.561 17.4029 18.4733 17.4115 18.4514 17.4626Z" fill="white"/>
<path d="M8.23569 17.8082C8.21815 17.8466 8.22692 17.8977 8.25322 17.9233C8.31898 17.9873 8.44612 17.9276 8.42858 17.8423C8.41105 17.7442 8.27076 17.7186 8.23569 17.8082Z" fill="white"/>
<path d="M8.71852 17.8077C8.6703 17.9314 8.76675 17.9612 9.14377 17.9484C9.47696 17.9356 9.51203 17.9271 9.51203 17.8503C9.51203 17.7735 9.47696 17.765 9.12623 17.7522C8.8062 17.7437 8.74044 17.7522 8.71852 17.8077Z" fill="white"/>
<path d="M18.1456 17.8067C18.0974 17.9262 18.1763 17.9561 18.5445 17.9561C18.9084 17.9561 18.9742 17.9262 18.9303 17.794C18.8997 17.7129 18.1763 17.7214 18.1456 17.8067Z" fill="white"/>
<path d="M19.2326 17.7956C19.1669 17.8724 19.237 17.9705 19.3379 17.9492C19.4387 17.9321 19.4519 17.7743 19.351 17.7529C19.3116 17.7487 19.259 17.7657 19.2326 17.7956Z" fill="white"/>
<path d="M9.0385 18.1112C9.02096 18.1283 9.00781 18.1795 9.00781 18.2221C9.00781 18.2818 9.03412 18.3032 9.10864 18.2904C9.17002 18.2818 9.20509 18.2477 9.20509 18.1923C9.20509 18.1069 9.09549 18.0557 9.0385 18.1112Z" fill="white"/>
<path d="M9.37393 18.1324C9.26872 18.2348 9.36516 18.2988 9.62382 18.2988C9.88248 18.2988 9.97892 18.2348 9.87371 18.1324C9.81233 18.0727 9.43531 18.0727 9.37393 18.1324Z" fill="white"/>
<path d="M17.7467 18.149C17.6985 18.2599 17.7906 18.3026 18.0404 18.2898C18.2421 18.277 18.2772 18.2642 18.2772 18.1917C18.2772 18.1192 18.2421 18.1064 18.0229 18.0936C17.8256 18.085 17.7643 18.0936 17.7467 18.149Z" fill="white"/>
<path d="M18.4505 18.149C18.433 18.1874 18.4418 18.2386 18.4681 18.2642C18.5338 18.3281 18.661 18.2684 18.6434 18.1831C18.6259 18.085 18.4856 18.0594 18.4505 18.149Z" fill="white"/>
</g>
</g>
<defs>
<clipPath id="clip0_3876_36498">
<rect x="0.796875" y="0.920898" width="25.6586" height="25.6586" rx="12.8293" fill="white"/>
</clipPath>
<clipPath id="clip1_3876_36498">
<rect width="13.1959" height="13.6509" fill="white" transform="translate(7.21094 7.33496)"/>
</clipPath>
</defs>
</svg>
