<svg width="24" height="24" viewBox="0 0 24 24" fill="none" xmlns="http://www.w3.org/2000/svg">
<g clip-path="url(#clip0_3876_39199)">
<path d="M22.8 0H1.2C0.548597 0 0 0.548554 0 1.2V22.8C0 23.4514 0.548556 24 1.2 24H22.8C23.4515 24 24 23.4514 24 22.8V1.2C24 0.548554 23.4515 0 22.8 0Z" fill="#287CB2"/>
<g clip-path="url(#clip1_3876_39199)">
<path d="M8.8755 4.9886C8.68589 5.1686 8.63965 5.2811 8.63965 5.5601C8.63965 5.9831 9.03736 6.3161 9.48595 6.2666C9.80042 6.2351 9.96691 6.1136 10.2351 5.7356C10.6791 5.1101 11.1323 5.0291 11.5809 5.5061C11.7982 5.7356 11.7474 5.7446 12.0526 5.4116C12.1913 5.2631 12.4642 5.1821 12.6908 5.2271C12.885 5.2586 13.181 5.5241 13.4169 5.8706C13.8238 6.4781 14.6979 6.3701 14.8875 5.6906C14.9615 5.4206 14.9013 5.2136 14.6979 5.0156C14.5129 4.8356 14.388 4.7996 14.3418 4.9166C14.3279 4.9616 14.3741 5.0381 14.4851 5.1326C14.6331 5.2676 14.6516 5.3081 14.6516 5.4971C14.6516 5.6771 14.6285 5.7311 14.4944 5.8616C14.1845 6.1631 13.7729 6.0371 13.4816 5.5511C13.2504 5.1731 12.9359 4.9796 12.5474 4.9796C12.3116 4.9796 12.0433 5.0741 11.8954 5.2091L11.7936 5.2991L11.5855 5.1551C11.3589 5.0021 11.0491 4.9436 10.7392 4.9976C10.5404 5.0381 10.1796 5.3486 10.0039 5.6321C9.83279 5.9201 9.68943 6.0146 9.41658 6.0146C9.21772 6.0146 9.16685 5.9966 9.02811 5.8616C8.78764 5.6276 8.81538 5.3711 9.11136 5.1011C9.22235 4.9976 9.24085 4.9661 9.1946 4.9121C9.11136 4.8131 9.04199 4.8311 8.8755 4.9886Z" fill="white"/>
<path d="M5.40572 4.95128C5.36873 4.99178 5.35485 5.23928 5.3641 5.72528C5.37798 6.42728 5.37798 6.44078 5.47972 6.45428C5.61845 6.47228 5.64158 6.35978 5.62308 5.81528C5.61383 5.57678 5.62308 5.38778 5.63695 5.39228C5.65083 5.40128 5.80806 5.56328 5.97917 5.75228C6.15028 5.94578 6.30752 6.10328 6.32602 6.10328C6.39538 6.10328 6.474 5.97278 6.43701 5.91428C6.36764 5.79728 5.53059 4.88828 5.49359 4.88828C5.47509 4.88828 5.43347 4.91528 5.40572 4.95128Z" fill="white"/>
<path d="M6.09454 4.96065C6.04367 5.01465 6.0483 5.04165 6.10842 5.10465C6.18241 5.17215 6.19166 5.17215 6.26565 5.10465C6.32577 5.04165 6.3304 5.01465 6.27953 4.96065C6.24715 4.92015 6.20553 4.88865 6.18704 4.88865C6.16854 4.88865 6.12692 4.92015 6.09454 4.96065Z" fill="white"/>
<path d="M6.66915 4.95682C6.65065 4.99282 6.65065 5.05582 6.66915 5.09182C6.69227 5.15032 6.82176 5.15932 7.56169 5.15032L8.43111 5.13682V5.02432V4.91182L7.56169 4.89832C6.82176 4.88932 6.69227 4.89832 6.66915 4.95682Z" fill="white"/>
<path d="M15.1779 4.95668C15.1594 4.99268 15.1594 5.05568 15.1779 5.09168C15.1964 5.15018 15.3398 5.15918 16.052 5.15918C16.7549 5.15918 16.9168 5.14568 16.963 5.09168C17.0093 5.03768 17.0093 5.01068 16.963 4.95668C16.9168 4.90268 16.7549 4.88918 16.052 4.88918C15.3398 4.88918 15.1964 4.89818 15.1779 4.95668Z" fill="white"/>
<path d="M17.3372 4.93422C17.2494 4.98372 17.2956 5.13672 17.402 5.13672C17.4621 5.13672 17.4991 5.10072 17.5083 5.04222C17.5222 4.93872 17.4297 4.87572 17.3372 4.93422Z" fill="white"/>
<path d="M17.5686 5.40645C17.3143 5.69445 17.1016 5.94195 17.1016 5.96445C17.1016 5.98695 17.1339 6.02745 17.1709 6.05895C17.2449 6.11745 17.2865 6.08145 17.7166 5.61345L17.934 5.37495V5.86095C17.934 6.38295 17.9617 6.48195 18.1005 6.45495C18.1837 6.44145 18.1883 6.38295 18.2022 5.72595C18.2114 5.04645 18.1883 4.88895 18.0727 4.88895C18.0542 4.88895 17.8276 5.12295 17.5686 5.40645Z" fill="white"/>
<path d="M9.29557 5.19053C9.26319 5.20403 9.2077 5.27153 9.16608 5.34803C9.07821 5.51453 9.14296 5.70803 9.31407 5.78453C9.47593 5.85653 9.53605 5.84753 9.67478 5.73953C9.98001 5.50553 9.66553 5.04653 9.29557 5.19053ZM9.56379 5.47853C9.56379 5.53253 9.42968 5.58653 9.39268 5.55053C9.37881 5.53253 9.37881 5.49203 9.39268 5.45603C9.42043 5.38403 9.56379 5.40653 9.56379 5.47853Z" fill="white"/>
<path d="M13.9251 5.22659C13.791 5.31659 13.754 5.49209 13.8372 5.64959C13.9528 5.86559 14.1748 5.89709 14.3505 5.72159C14.6465 5.43809 14.2673 4.99259 13.9251 5.22659ZM14.2072 5.52359C14.1702 5.58659 14.0499 5.57309 14.0499 5.50559C14.0499 5.46959 14.0638 5.42909 14.0823 5.41559C14.1239 5.37509 14.2395 5.47409 14.2072 5.52359Z" fill="white"/>
<path d="M6.99226 5.37849C6.7934 5.49549 6.69629 5.64399 6.69629 5.81949C6.69629 6.02199 6.79803 6.10749 6.98764 6.05349C7.23274 5.98599 7.34835 5.81949 7.33448 5.54499C7.31598 5.27499 7.23274 5.23449 6.99226 5.37849ZM7.1125 5.64849C7.1125 5.67099 7.08013 5.71149 7.04313 5.74299C6.98764 5.78799 6.97376 5.78799 6.97376 5.73399C6.97376 5.69799 6.98764 5.65299 7.00613 5.63949C7.04776 5.59449 7.1125 5.59899 7.1125 5.64849Z" fill="white"/>
<path d="M16.2194 5.40257C16.0946 5.67257 16.3443 6.05957 16.6449 6.05957C16.9409 6.05957 16.9085 5.60057 16.5986 5.39807C16.3952 5.26307 16.2795 5.26757 16.2194 5.40257ZM16.5848 5.77157C16.5385 5.81657 16.4553 5.74457 16.4553 5.66357C16.4553 5.59607 16.4599 5.59607 16.5339 5.66807C16.5755 5.70857 16.5986 5.75357 16.5848 5.77157Z" fill="white"/>
<path d="M10.8393 5.71675C10.6266 5.79325 10.3676 5.99125 10.2659 6.15775C10.1965 6.27475 10.1965 6.28825 10.2659 6.35575C10.3306 6.41875 10.3538 6.40975 10.5156 6.23875C10.7561 5.98675 10.8948 5.92375 11.2047 5.92375C11.3943 5.92375 11.4683 5.90575 11.4914 5.85175C11.5053 5.81575 11.5007 5.76625 11.4729 5.73925C11.3943 5.66275 11.0243 5.64925 10.8393 5.71675Z" fill="white"/>
<path d="M12.1679 5.69917C12.1078 5.72617 12.0615 5.78017 12.0615 5.83417C12.0615 5.91517 12.0893 5.92417 12.3205 5.92417C12.635 5.92417 12.857 6.01867 13.0188 6.22567C13.0974 6.32467 13.1714 6.37417 13.2315 6.36517C13.4026 6.34267 13.3703 6.23467 13.1159 5.99617C12.8015 5.69917 12.45 5.59117 12.1679 5.69917Z" fill="white"/>
<path d="M11.6904 5.8116C11.6164 5.8971 11.6673 6.0231 11.769 6.0051C11.8708 5.9871 11.9031 5.8116 11.8106 5.7756C11.7736 5.7621 11.7181 5.7801 11.6904 5.8116Z" fill="white"/>
<path d="M7.58954 5.95552C7.32594 6.00502 7.34444 6.18052 7.64966 6.50902C7.93638 6.81952 8.19074 6.93652 8.56995 6.93652C8.93529 6.93652 9.17115 6.85102 9.17115 6.71602C9.17115 6.65302 9.11565 6.61702 8.95379 6.57652C8.8243 6.54502 8.62082 6.43702 8.46821 6.32002C8.06587 6.01852 7.82539 5.91502 7.58954 5.95552ZM8.04275 6.32452C8.15374 6.39652 8.32022 6.52252 8.40809 6.59902C8.55608 6.72502 8.5607 6.73852 8.45434 6.70702C8.20461 6.64402 8.052 6.55852 7.87627 6.37852C7.65891 6.15802 7.74215 6.13102 8.04275 6.32452Z" fill="white"/>
<path d="M15.757 5.96452C15.572 6.02302 15.4332 6.10402 15.1465 6.32002C14.9939 6.43702 14.7904 6.54502 14.6609 6.57652C14.5037 6.61702 14.439 6.65302 14.4297 6.72052C14.4112 6.85102 14.6517 6.93652 15.0448 6.93652C15.313 6.93652 15.4055 6.91402 15.5859 6.81502C15.8032 6.68902 16.0622 6.42802 16.1778 6.21652C16.2333 6.11752 16.2333 6.09052 16.1732 6.03652C16.0853 5.95552 15.9049 5.92402 15.757 5.96452ZM15.7385 6.37852C15.5396 6.57652 15.3962 6.66202 15.1835 6.70702L15.0448 6.73402L15.2066 6.59902C15.4332 6.40552 15.7662 6.19402 15.8495 6.19402C15.8911 6.19402 15.8495 6.26152 15.7385 6.37852Z" fill="white"/>
<path d="M11.654 6.13553C11.6217 6.14903 11.5431 6.23453 11.4829 6.32453C11.3812 6.48203 11.3534 6.49553 11.1037 6.52253C10.7014 6.56303 10.1094 6.74303 9.3695 7.05353C8.74518 7.31453 8.68968 7.32803 8.40296 7.31003C8.02374 7.29203 7.63065 7.11203 7.19132 6.75203C7.00171 6.60353 6.85372 6.50903 6.8121 6.52703C6.70573 6.56303 6.72886 6.63953 6.89534 6.84203C7.11732 7.10753 7.27918 7.39553 7.36243 7.67453C7.50579 8.15153 7.45029 8.37653 7.03408 8.97053C6.88147 9.19103 6.70111 9.47003 6.63174 9.60053C6.52075 9.81653 6.49763 9.83453 6.3034 9.86603C5.90106 9.92453 5.49409 9.66803 5.49409 9.35303C5.49409 9.18653 5.61433 8.95253 5.74382 8.87153C5.80856 8.82653 6.01667 8.77703 6.20628 8.75453C6.62249 8.70953 6.7936 8.63303 6.92309 8.43053C7.25144 7.90853 6.68724 7.29203 6.14154 7.56653C5.99355 7.64303 5.97967 7.66553 6.04442 7.76453C6.08142 7.81853 6.11841 7.82303 6.25715 7.78253C6.56237 7.68803 6.8306 7.89053 6.76585 8.16953C6.71961 8.37653 6.5855 8.45753 6.19703 8.51603C6.0028 8.54303 5.78544 8.58353 5.71607 8.60153L5.58658 8.63303V7.67903V6.72953L5.48484 6.74303C5.37848 6.75653 5.37848 6.76103 5.34611 7.88153C5.33223 8.49803 5.30448 9.11903 5.28599 9.26303C5.22587 9.75353 5.52184 10.0685 6.07679 10.1C6.23865 10.1135 6.37276 10.1225 6.37276 10.127C6.37276 10.1315 6.32189 10.334 6.25715 10.577C5.76694 12.449 6.2664 14.3435 7.6029 15.734C8.17173 16.319 9.0134 16.877 9.67934 17.1065C10.0216 17.228 10.0169 17.2505 9.66547 17.255C9.07815 17.2685 8.40296 17.561 8.03762 17.966C7.95437 18.065 7.86651 18.119 7.82951 18.101C7.77401 18.083 7.78326 18.0425 7.88038 17.9075C8.09311 17.606 7.93125 17.246 7.56128 17.1875C7.40867 17.165 7.3763 17.138 7.31156 16.9895C7.27456 16.895 7.17282 16.7555 7.08495 16.6835C6.93234 16.5485 6.83985 16.517 6.31727 16.4135C5.70682 16.2875 5.43397 15.842 5.67908 15.374C5.80394 15.14 5.79932 15.05 5.66983 15.068C5.60508 15.077 5.52184 15.1535 5.4571 15.2615C5.36923 15.41 5.35536 15.491 5.3646 15.743C5.37848 15.9995 5.40623 16.076 5.53109 16.2515L5.67445 16.454L5.49872 16.544C5.138 16.7195 4.92064 17.0975 4.86515 17.651C4.8374 17.8985 4.84665 17.939 4.91602 17.966C4.96227 17.984 5.03163 17.975 5.07326 17.948C5.17962 17.867 5.29986 17.822 5.58658 17.7365C6.03517 17.6015 6.3034 17.327 6.27102 17.0255C6.26177 16.9175 6.23403 16.8815 6.16466 16.8815C6.09991 16.8815 6.06754 16.922 6.04442 17.0345C5.99817 17.2595 5.79469 17.4215 5.4386 17.525C5.08713 17.6285 5.08713 17.6285 5.19349 17.282C5.26286 17.057 5.45247 16.8365 5.67908 16.7195C5.82244 16.6475 6.2849 16.6475 6.59937 16.724C6.91384 16.796 7.1127 17.0075 7.1127 17.273C7.1127 17.426 7.08495 17.4845 6.93234 17.6285C6.73348 17.8265 6.60862 17.8445 6.34964 17.7275C6.2294 17.6735 6.17391 17.6645 6.13691 17.7005C6.05367 17.7815 6.12766 17.8895 6.32652 17.9795L6.5115 18.0605L6.39126 18.1685C6.32652 18.227 6.24328 18.335 6.20165 18.4025C6.09529 18.605 5.81319 18.884 5.7207 18.884C5.64208 18.884 5.63283 18.8435 5.63283 18.4385C5.63283 18.101 5.61433 17.984 5.56346 17.939C5.50797 17.894 5.48022 17.894 5.42472 17.939C5.36923 17.984 5.35536 18.11 5.35536 18.551C5.35536 19.055 5.3646 19.109 5.44785 19.154C5.50334 19.1855 6.05829 19.1945 7.05258 19.19L8.56482 19.1765L8.70818 18.9065C9.05502 18.245 9.82271 18.11 10.3592 18.614C10.6135 18.8525 10.6366 18.929 10.4516 18.929C10.3592 18.929 10.3037 18.893 10.2435 18.7985C10.1557 18.6545 9.83195 18.479 9.6516 18.479C9.36487 18.479 8.88854 18.8615 8.92554 19.0595C8.94866 19.172 9.13364 19.1765 9.17064 19.0685C9.25851 18.7895 9.71172 18.6545 9.93832 18.839C10.0354 18.911 10.0354 18.9245 9.96607 18.929C9.8597 18.929 9.81346 19.046 9.88745 19.1315C9.97069 19.2305 10.7754 19.226 10.8586 19.1315C10.9511 19.0235 10.7939 18.6725 10.5349 18.4295C9.91982 17.8445 8.89316 18.011 8.49545 18.7625L8.40758 18.929H8.07924C7.76476 18.929 7.75552 18.9245 7.78789 18.8255C7.96825 18.2495 8.63419 17.6915 9.32787 17.534C9.80883 17.426 10.4748 17.543 10.9002 17.8175C11.0852 17.9345 11.1546 18.047 11.2286 18.3305C11.2563 18.434 11.3534 18.6185 11.4506 18.7355C11.5431 18.857 11.6448 18.9965 11.6725 19.0415C11.7465 19.172 11.8436 19.154 11.9176 18.9965C11.95 18.92 12.0286 18.812 12.0888 18.749C12.2044 18.6275 12.3385 18.3485 12.3385 18.2315C12.3385 18.101 12.5836 17.8445 12.8194 17.7275C13.4669 17.408 14.1744 17.417 14.808 17.75C15.2011 17.957 15.5988 18.4025 15.7561 18.803L15.8069 18.929H15.4693H15.1364L15.0254 18.722C14.7988 18.3125 14.3733 18.074 13.86 18.074C13.4946 18.074 13.0738 18.2855 12.8611 18.578C12.6807 18.821 12.6113 19.0955 12.7131 19.1585C12.7963 19.208 13.8692 19.208 13.9478 19.1585C13.9848 19.136 14.0033 19.082 13.9941 19.037C13.9848 18.9695 13.9247 18.947 13.7259 18.929L13.4761 18.9065L13.5964 18.8255C13.8553 18.6635 14.2161 18.758 14.3271 19.019C14.3918 19.172 14.4843 19.217 14.5583 19.127C14.6924 18.974 14.3456 18.5645 14.0311 18.506C13.7767 18.4565 13.527 18.5465 13.3374 18.749C13.2264 18.8705 13.1339 18.929 13.0507 18.929H12.9304L13.0229 18.7805C13.1478 18.587 13.4946 18.3575 13.7259 18.3215C14.1698 18.2495 14.6924 18.533 14.8589 18.938C14.9005 19.046 14.9606 19.145 14.9884 19.163C15.0855 19.226 18.0915 19.208 18.1562 19.145C18.2441 19.0595 18.2302 18.011 18.1423 17.939C18.0868 17.894 18.0591 17.894 18.0036 17.939C17.9527 17.984 17.9342 18.101 17.9342 18.4385C17.9342 18.686 17.9157 18.884 17.8926 18.884C17.8094 18.884 17.5596 18.6455 17.4486 18.461C17.3839 18.3575 17.2822 18.2225 17.2174 18.164L17.1018 18.056L17.2729 17.9615C17.37 17.912 17.4533 17.8355 17.4625 17.7905C17.4856 17.678 17.3423 17.6465 17.1943 17.732C17.0232 17.8265 16.8798 17.822 16.7041 17.7185C16.3295 17.4935 16.348 16.985 16.7457 16.7825C16.9029 16.706 17.518 16.652 17.7677 16.697C18.0221 16.7465 18.2764 17.0075 18.3736 17.3225C18.4152 17.4665 18.4429 17.5925 18.4337 17.6015C18.4244 17.615 18.2718 17.579 18.0961 17.5295C17.7446 17.426 17.518 17.246 17.518 17.0705C17.518 16.9175 17.4024 16.8275 17.3099 16.904C17.2174 16.9805 17.222 17.066 17.3377 17.2955C17.444 17.5115 17.6845 17.6735 18.0267 17.759C18.1423 17.7905 18.3134 17.8535 18.4059 17.903C18.6695 18.047 18.7389 17.993 18.7019 17.678C18.6325 17.102 18.4106 16.715 18.0545 16.5485L17.8464 16.4495L17.9389 16.3595C18.0868 16.2155 18.2117 15.9095 18.2117 15.6845C18.2117 15.3245 17.9389 14.9465 17.7862 15.095C17.7539 15.1265 17.7724 15.1985 17.8464 15.311C18.147 15.788 17.8232 16.3505 17.1943 16.4315C16.792 16.4855 16.5561 16.589 16.3896 16.778C16.3018 16.877 16.2139 17.012 16.2 17.0795C16.1769 17.183 16.1491 17.201 16.0058 17.201C15.8809 17.201 15.8115 17.2325 15.7098 17.345C15.5387 17.5295 15.5294 17.7455 15.6913 17.93C15.7745 18.0245 15.7884 18.074 15.7514 18.11C15.7144 18.146 15.6219 18.092 15.4046 17.894C14.9467 17.4755 14.438 17.2685 13.8692 17.2595C13.6056 17.2595 13.5825 17.2505 13.6796 17.21C14.6924 16.778 15.1734 16.481 15.7653 15.9275C16.6532 15.095 17.2359 14.0195 17.4302 12.8585C17.5504 12.125 17.4671 11.1395 17.222 10.433L17.1064 10.109H17.3469C17.6059 10.109 17.9065 9.99653 18.036 9.85703C18.2256 9.65003 18.2395 9.51503 18.221 8.09303C18.2071 6.95903 18.1932 6.72503 18.1377 6.70253C18.1007 6.68903 18.0406 6.70253 18.0036 6.73403C17.9481 6.77903 17.9342 6.95453 17.9342 7.72853C17.9342 8.24603 17.925 8.66903 17.9157 8.66903C17.9065 8.66903 17.8232 8.63753 17.7354 8.60153C17.6429 8.56553 17.4903 8.53403 17.3932 8.53403C16.8844 8.53403 16.6208 8.28203 16.7596 7.92653C16.8105 7.80053 17.0417 7.72853 17.2267 7.78253C17.4024 7.83653 17.5041 7.78253 17.4579 7.66103C17.3793 7.47203 16.8983 7.45853 16.6995 7.64303C16.4405 7.87703 16.385 8.15603 16.5607 8.39903C16.7318 8.65103 16.8752 8.72303 17.2637 8.75903C17.7677 8.80853 17.9805 8.97953 17.9805 9.35303C17.9805 9.68603 17.6105 9.92903 17.185 9.86603C17.0001 9.83903 16.9769 9.81653 16.8567 9.60053C16.7873 9.47003 16.5977 9.16853 16.4359 8.92553C16.1121 8.45303 16.0474 8.25053 16.1029 7.86803C16.1399 7.60253 16.3942 7.08503 16.6162 6.83303C16.7873 6.63953 16.8058 6.50903 16.6578 6.50903C16.6162 6.50903 16.4636 6.61703 16.311 6.75203C15.904 7.10753 15.5017 7.29203 15.0855 7.31003C14.7571 7.32803 14.7294 7.32353 14.2669 7.09853C13.6704 6.81503 13.0599 6.61703 12.5882 6.54503C12.2414 6.49553 12.2136 6.48653 12.0471 6.29753C11.8806 6.11303 11.7928 6.08153 11.654 6.13553ZM11.8668 6.47303C12.0564 6.82853 12.1859 7.44953 12.1026 7.59803C11.9084 7.95353 11.4136 7.83203 11.4136 7.42703C11.4136 7.11203 11.6679 6.37403 11.7789 6.37403C11.7974 6.37403 11.839 6.41903 11.8668 6.47303ZM11.2563 6.87803C11.2378 6.95903 11.2101 7.09403 11.1962 7.17053C11.1777 7.27403 11.1453 7.31903 11.0898 7.31903C11.0436 7.31903 10.8077 7.36853 10.5673 7.42703C10.0956 7.54403 9.47124 7.80953 9.13827 8.03003C8.97178 8.14253 8.89779 8.16053 8.67118 8.16053L8.40296 8.15603L8.13936 7.85903C7.71852 7.39103 7.72314 7.40003 7.9035 7.47203C8.14861 7.57103 8.55094 7.60253 8.78217 7.54403C8.89316 7.51703 9.18451 7.40453 9.43424 7.29203C9.94295 7.06703 10.4563 6.89153 10.8725 6.80603C11.2979 6.71153 11.2933 6.71153 11.2563 6.87803ZM12.9397 6.87353C13.3466 6.96803 13.6796 7.09853 14.2577 7.36853C14.6369 7.54853 14.7016 7.56653 15.0207 7.56203C15.2335 7.56203 15.4323 7.53053 15.5433 7.48553C15.6358 7.44503 15.7144 7.42703 15.7144 7.44053C15.7144 7.45403 15.5803 7.61153 15.4138 7.79153C15.1225 8.11103 15.104 8.12003 14.8681 8.13803C14.6554 8.15153 14.5953 8.13353 14.3456 7.98503C13.9201 7.72403 13.3559 7.50353 12.8333 7.39103L12.3616 7.28753L12.3292 7.09403C12.3107 6.99053 12.283 6.86453 12.2645 6.81503C12.2414 6.73853 12.2552 6.72953 12.4171 6.75653C12.5142 6.77453 12.7501 6.82403 12.9397 6.87353ZM11.2794 7.80503C11.3211 7.87703 11.4228 7.96253 11.5014 7.99853C11.58 8.03453 11.6448 8.07503 11.6448 8.08853C11.6448 8.13803 11.5107 8.17403 11.3534 8.17403C10.9049 8.17853 10.1048 8.45753 9.5961 8.79053C9.25851 9.00653 9.21688 9.02453 9.15214 8.96153C9.10589 8.91653 9.07815 8.80403 9.07815 8.62853V8.36303L9.3325 8.20553C9.67934 7.98503 10.1372 7.78703 10.5441 7.68353C11.1315 7.53053 11.1222 7.52603 11.2794 7.80503ZM12.8056 7.63403C13.1802 7.71053 13.7814 7.94453 14.1143 8.14253L14.4334 8.33153L14.4473 8.59703L14.4565 8.86253L13.9525 9.42503C13.6565 9.74903 13.4484 10.0145 13.4576 10.055C13.4946 10.244 13.638 10.1405 14.1467 9.57353C14.6508 9.01103 14.6785 8.98853 14.8173 9.01103C14.9005 9.02453 15.0069 9.01553 15.0577 8.98853C15.1364 8.94803 15.1734 8.96603 15.3028 9.10553C15.5202 9.35303 15.8347 9.83903 15.9965 10.1855C16.1168 10.4375 16.3619 11.243 16.3619 11.369C16.3619 11.3915 16.2925 11.45 16.2046 11.4995C16.1168 11.5535 16.015 11.666 15.9734 11.7515C15.8485 12.008 15.7884 11.9495 15.7237 11.513C15.6312 10.829 15.3445 10.163 14.9144 9.62753C14.7248 9.39353 14.5814 9.32603 14.5305 9.45203C14.5167 9.48353 14.6138 9.65003 14.7433 9.81653C15.1317 10.316 15.4138 10.9505 15.4693 11.468L15.4971 11.7245L14.7849 11.054C14.3918 10.685 14.045 10.3835 14.0126 10.379C13.9802 10.379 13.9432 10.4105 13.9247 10.451C13.9062 10.5005 14.1189 10.739 14.6693 11.2745L15.437 12.0215L13.6102 13.799L11.7835 15.5765L9.95682 13.799L8.13011 12.0215L8.87467 11.297C9.60073 10.5905 9.70247 10.4465 9.52673 10.388C9.49436 10.379 9.14752 10.676 8.75443 11.0585C8.04224 11.7425 8.04224 11.7425 8.06536 11.567C8.14398 11.027 8.37521 10.442 8.69893 9.97403C8.84692 9.75803 9.14752 9.43403 9.19839 9.43403C9.21226 9.43403 9.3695 9.59603 9.54523 9.79403C9.8597 10.1495 9.98919 10.2215 10.0447 10.082C10.0632 10.0325 9.96144 9.88403 9.73021 9.62303L9.38337 9.24053L9.57298 9.09653C9.95219 8.80403 10.7199 8.49803 11.2517 8.42603L11.4829 8.39453L10.9141 8.94803C10.4933 9.36203 10.3545 9.52853 10.3777 9.58253C10.3915 9.62303 10.4378 9.65903 10.4794 9.65903C10.521 9.65903 10.8309 9.38903 11.1685 9.06503L11.7835 8.46653L12.4078 9.07403C12.9813 9.63203 13.0368 9.67253 13.1062 9.60503C13.2125 9.50603 13.1663 9.44303 12.5975 8.89853C12.3246 8.64203 12.1165 8.42153 12.1257 8.41253C12.1674 8.37203 12.8564 8.53403 13.1617 8.65103C13.3281 8.71853 13.5732 8.83103 13.6981 8.90303C13.9386 9.04253 14.0635 9.05153 14.0866 8.93003C14.1236 8.74103 12.9119 8.23703 12.2876 8.18753C11.987 8.16053 11.8252 8.09303 11.9639 8.04803C12.0841 8.00753 12.3292 7.76453 12.357 7.65653C12.3801 7.56653 12.4078 7.54853 12.4911 7.56653C12.5466 7.58003 12.6899 7.60703 12.8056 7.63403ZM7.9775 8.04803C8.19948 8.29553 8.20872 8.31803 8.19485 8.55203C8.1856 8.77253 8.15785 8.82653 7.94975 9.08303C7.51966 9.60953 7.12657 10.4465 7.00171 11.0945L6.94621 11.3825L6.63174 11.5085L6.31727 11.63L6.34964 11.3555C6.44213 10.568 6.73811 9.82103 7.26068 9.06953C7.6029 8.57453 7.68615 8.33603 7.6584 7.94903C7.63528 7.64303 7.61215 7.63853 7.9775 8.04803ZM15.8393 8.02553C15.8347 8.42153 15.904 8.61503 16.2139 9.05153C16.718 9.76253 17.1943 10.928 17.1943 11.4455C17.1943 11.5805 17.1804 11.5985 17.1157 11.567C17.0694 11.549 16.9353 11.504 16.8151 11.4635C16.6671 11.4185 16.5931 11.369 16.5931 11.3195C16.5931 11.279 16.5422 11.045 16.4775 10.802C16.3295 10.2395 16.0243 9.62303 15.6497 9.14603C15.3815 8.80853 15.3537 8.75003 15.3398 8.52503C15.3213 8.27753 15.326 8.26853 15.5664 7.99853C15.7006 7.85003 15.8208 7.72403 15.8254 7.72403C15.8347 7.72403 15.8393 7.85903 15.8393 8.02553ZM15.0392 8.42603C15.178 8.56103 15.0994 8.75903 14.9051 8.75903C14.8496 8.75903 14.7849 8.73653 14.7525 8.70503C14.7201 8.67353 14.697 8.61053 14.697 8.55653C14.697 8.36753 14.9005 8.29103 15.0392 8.42603ZM8.80992 8.51603C8.86542 8.60153 8.86079 8.62403 8.7868 8.71403C8.62031 8.91653 8.32896 8.71853 8.45383 8.48903C8.51857 8.36753 8.71743 8.38553 8.80992 8.51603ZM8.93478 9.11903C9.01803 9.20003 9.01803 9.20903 8.79142 9.46553C8.66193 9.60953 8.48158 9.84353 8.38908 9.98303C8.07924 10.46 7.81101 11.252 7.80639 11.693C7.80639 11.8955 7.73702 11.9495 7.66302 11.81C7.58441 11.6615 7.38092 11.459 7.31156 11.459C7.20057 11.459 7.19594 11.3375 7.29768 10.9325C7.45492 10.3115 7.83876 9.57353 8.22722 9.14603C8.35209 9.00653 8.37521 8.99753 8.60181 9.02003C8.7498 9.02903 8.87929 9.06953 8.93478 9.11903ZM7.24681 11.7065C7.47342 11.819 7.50579 12.071 7.31618 12.2555C7.21444 12.3545 7.16819 12.368 6.99708 12.35C6.76123 12.323 6.37739 12.152 6.34039 12.0575C6.29877 11.9585 6.47451 11.819 6.74736 11.7245C7.05258 11.6255 7.08495 11.621 7.24681 11.7065ZM16.9584 11.774C17.0556 11.819 17.1619 11.891 17.1943 11.9315C17.2544 11.999 17.2452 12.026 17.1157 12.1385C16.8521 12.368 16.4821 12.4175 16.2879 12.2555C16.0058 12.017 16.2278 11.5985 16.607 11.657C16.7041 11.675 16.866 11.7245 16.9584 11.774ZM7.80639 12.323C7.81101 12.8045 8.08849 13.6235 8.41683 14.114C8.5232 14.2715 8.7498 14.5415 8.91629 14.717L9.21688 15.0275L9.05502 15.0005C8.96716 14.9825 8.7498 14.96 8.57407 14.942L8.2596 14.9105L8.06074 14.663C7.76939 14.303 7.45029 13.646 7.3208 13.142C7.25606 12.9035 7.20519 12.683 7.20519 12.656C7.20519 12.629 7.28381 12.5615 7.38555 12.5075C7.48267 12.4535 7.58903 12.35 7.6214 12.2735C7.70927 12.0665 7.80639 12.0935 7.80639 12.323ZM15.978 12.269C16.0058 12.341 16.1029 12.4445 16.1954 12.4985C16.2879 12.548 16.3619 12.6065 16.3619 12.629C16.3619 12.647 16.311 12.863 16.2463 13.106C16.1121 13.6145 15.8115 14.2445 15.5156 14.636L15.3075 14.9105L14.993 14.9375C14.8173 14.9555 14.5907 14.9825 14.4889 15.0005L14.3039 15.0275L14.4797 14.8835C15.1086 14.3435 15.6034 13.412 15.7237 12.5255C15.7699 12.224 15.7977 12.134 15.8532 12.134C15.8948 12.134 15.9503 12.1925 15.978 12.269ZM11.4367 15.635C11.4274 15.644 11.2471 15.6215 11.0343 15.5765C9.63772 15.302 8.50007 14.249 8.16248 12.9125C7.9775 12.1925 7.85263 12.116 9.74871 13.9565C10.6875 14.87 11.4459 15.626 11.4367 15.635ZM15.3722 12.9935C15.0855 13.9565 14.4843 14.7035 13.5871 15.203C13.1848 15.428 12.1997 15.707 12.1119 15.6215C12.098 15.6035 12.8426 14.8565 13.7721 13.9655C15.3352 12.4535 15.4601 12.3455 15.474 12.4625C15.4832 12.5345 15.437 12.773 15.3722 12.9935ZM6.65024 12.512L6.94621 12.62L7.00633 12.9215C7.1127 13.4885 7.34393 14.051 7.69077 14.564C7.80176 14.7395 7.89888 14.897 7.89888 14.915C7.89425 14.933 7.76939 14.969 7.61678 14.996L7.3393 15.0455L7.22831 14.906C7.04333 14.6675 6.75661 14.1095 6.60862 13.691C6.45601 13.268 6.27565 12.3995 6.34039 12.404C6.34502 12.404 6.48375 12.4535 6.65024 12.512ZM17.2174 12.5255C17.1296 13.07 17.0741 13.3265 16.9769 13.619C16.8521 13.9835 16.4636 14.744 16.3018 14.9375C16.2093 15.05 16.1861 15.0545 16.0381 15.014C15.9503 14.9915 15.8208 14.969 15.7514 14.969C15.6774 14.969 15.6219 14.96 15.6219 14.942C15.6219 14.9285 15.7098 14.798 15.8115 14.645C16.1029 14.231 16.3572 13.664 16.5006 13.1105L16.6301 12.611L16.866 12.5345C17.0001 12.494 17.1203 12.449 17.1342 12.431C17.1989 12.368 17.2359 12.413 17.2174 12.5255ZM9.11977 15.266C9.31863 15.302 9.67934 15.4055 9.92907 15.491C10.6921 15.7655 10.8956 15.8195 11.3303 15.8735C12.0009 15.95 12.5975 15.8645 13.3651 15.5765C14.2484 15.2435 15.0439 15.1085 15.6497 15.194C15.8485 15.2165 16.0197 15.2525 16.0335 15.2615C16.0474 15.275 15.9734 15.365 15.8763 15.464C15.7006 15.635 15.6821 15.6395 15.5063 15.599C15.0392 15.491 14.1883 15.5675 13.5871 15.77C13.0877 15.941 12.3246 16.382 12.061 16.6565C11.913 16.8095 11.876 16.796 11.876 16.607C11.876 16.4675 11.8621 16.4495 11.7743 16.463C11.691 16.472 11.6633 16.5125 11.654 16.625L11.6402 16.769L11.3997 16.571C10.5626 15.878 9.51748 15.518 8.48158 15.5675C8.19948 15.581 7.93587 15.6035 7.89425 15.617C7.84801 15.6395 7.77401 15.59 7.67227 15.464C7.58903 15.3605 7.52891 15.266 7.54278 15.257C7.58903 15.212 8.19948 15.1625 8.47695 15.1805C8.62956 15.1895 8.91629 15.23 9.11977 15.266ZM9.50361 15.8915C10.1094 16.0265 10.7476 16.3595 11.3581 16.8545C11.6309 17.075 11.6448 17.0975 11.6448 17.2865C11.6448 17.399 11.6309 17.489 11.617 17.489C11.5985 17.489 11.3951 17.309 11.1638 17.093C10.4609 16.4405 9.72559 16.1435 8.81917 16.139C8.45845 16.139 8.40758 16.13 8.25497 16.013C8.16248 15.9455 8.08849 15.878 8.08386 15.86C8.07924 15.7655 9.03653 15.788 9.50361 15.8915ZM15.2982 15.815L15.5017 15.8465L15.3213 15.9905C15.1456 16.13 15.1179 16.139 14.7433 16.139C14.2299 16.139 13.7906 16.2335 13.3559 16.436C12.9304 16.6295 12.6391 16.8455 12.2321 17.246L11.9223 17.5565V17.3225C11.9223 17.0885 11.9223 17.084 12.2136 16.8545C13.2033 16.049 14.3224 15.671 15.2982 15.815ZM9.67009 16.4855C10.0077 16.58 10.3684 16.769 10.706 17.0165C11.0066 17.2325 11.3673 17.606 11.3673 17.7005C11.3673 17.831 11.2656 17.7905 11.0621 17.579C10.9419 17.453 10.6968 17.255 10.521 17.1425C10.2204 16.949 9.55448 16.679 9.36025 16.679C9.27238 16.679 8.77755 16.4225 8.77755 16.3775C8.77755 16.3325 9.41574 16.409 9.67009 16.4855ZM14.7248 16.4045C14.6785 16.4765 14.2901 16.679 14.2022 16.679C14.0126 16.679 13.3466 16.949 13.046 17.1425C12.8703 17.255 12.6252 17.453 12.505 17.579C12.3292 17.7635 12.2691 17.7995 12.2182 17.7545C12.1674 17.714 12.1859 17.669 12.3292 17.498C12.7408 17.0075 13.5131 16.553 14.1189 16.436C14.5028 16.3595 14.7571 16.346 14.7248 16.4045ZM7.6584 17.498C7.73702 17.5745 7.72777 17.7365 7.64453 17.804C7.46879 17.9435 7.20057 17.6825 7.34393 17.5115C7.4133 17.4305 7.57978 17.4215 7.6584 17.498ZM16.2093 17.561C16.2648 17.6465 16.2601 17.669 16.1861 17.759C16.0197 17.9615 15.7283 17.7635 15.8532 17.534C15.9179 17.4125 16.1168 17.4305 16.2093 17.561ZM11.9639 17.8715C12.0518 17.9705 12.1073 18.083 12.1073 18.155C12.1073 18.29 11.8621 18.704 11.7835 18.704C11.6818 18.704 11.4598 18.3305 11.4598 18.1595C11.4598 17.984 11.6402 17.714 11.7604 17.714C11.7928 17.714 11.8853 17.786 11.9639 17.8715ZM16.8613 18.173C16.9446 18.2225 17.1157 18.4115 17.2452 18.596L17.4764 18.929H16.7688H16.0613L15.9549 18.6545L15.8439 18.38L15.9688 18.254C16.1954 18.0245 16.5515 17.993 16.8613 18.173ZM7.57978 18.236L7.71389 18.371L7.58903 18.65L7.45954 18.929H6.80285H6.14616L6.32189 18.6725C6.65024 18.1955 6.85372 18.065 7.21906 18.092C7.3948 18.101 7.47804 18.137 7.57978 18.236Z" fill="white"/>
<path d="M14.947 9.27649C14.9331 9.31249 15.0071 9.45199 15.1227 9.60049C15.2337 9.74449 15.3817 9.95599 15.4511 10.0685C15.5944 10.3115 15.8071 10.91 15.8071 11.0675C15.8071 11.225 15.9274 11.315 16.0199 11.225C16.0846 11.1665 16.0846 11.126 16.0199 10.865C15.8858 10.307 15.599 9.74449 15.2614 9.37999C15.095 9.19999 14.9886 9.16399 14.947 9.27649Z" fill="white"/>
<path d="M11.3432 10.8247C10.9085 11.0137 10.7421 11.4187 10.7744 12.1972C10.7929 12.5932 10.816 12.7372 10.8947 12.8812C11.0935 13.2592 11.4219 13.4212 11.9028 13.3807C12.245 13.3582 12.4902 13.2277 12.6011 13.0207C12.6474 12.9352 12.6844 12.7282 12.6983 12.5077C12.7168 12.1522 12.7214 12.1387 12.8416 12.1117C13.0127 12.0757 13.3087 11.8327 13.3087 11.7247C13.3087 11.5987 13.1838 11.6167 13.0035 11.7697C12.9017 11.8552 12.763 11.9182 12.5826 11.9542C12.0693 12.0532 11.9768 12.0892 11.8335 12.2467C11.6762 12.4222 11.6531 12.5257 11.7641 12.5707C11.8103 12.5887 11.8797 12.5437 11.9722 12.4357C12.1017 12.2872 12.3468 12.1567 12.4023 12.2107C12.4162 12.2287 12.43 12.3457 12.43 12.4807C12.43 12.9577 12.2312 13.1692 11.7918 13.1692C11.5236 13.1692 11.3016 13.0432 11.1629 12.8092C11.0796 12.6742 11.0658 12.5752 11.0658 12.0892C11.0658 11.4457 11.1351 11.2432 11.408 11.0677C11.741 10.8517 12.2589 10.9732 12.3792 11.3017C12.4809 11.5627 12.5734 11.6167 12.6613 11.4547C12.7029 11.3827 12.6936 11.3242 12.615 11.1667C12.43 10.7887 11.8011 10.6222 11.3432 10.8247Z" fill="white"/>
<path d="M8.30601 9.37999C7.96842 9.74449 7.68169 10.307 7.54758 10.865C7.48284 11.126 7.48284 11.1665 7.54758 11.225C7.64007 11.315 7.76031 11.225 7.76031 11.0675C7.76031 10.748 8.13953 9.95149 8.48637 9.54199C8.7546 9.21799 8.59274 9.06949 8.30601 9.37999Z" fill="white"/>
<path d="M6.4648 6.22064C6.41393 6.27464 6.41393 6.30164 6.47405 6.35564C6.5388 6.41864 6.55267 6.41864 6.62204 6.35114C6.68216 6.29264 6.68678 6.26114 6.64516 6.21164C6.57579 6.13064 6.53417 6.13064 6.4648 6.22064Z" fill="white"/>
<path d="M16.8561 6.17554C16.8006 6.22954 16.8191 6.36454 16.8838 6.38704C16.981 6.42304 17.0642 6.35104 17.0457 6.25654C17.0318 6.17104 16.9116 6.12154 16.8561 6.17554Z" fill="white"/>
<path d="M6.10479 6.63035C5.87356 6.73835 5.75795 7.02185 5.84582 7.24685C5.89669 7.37285 6.17416 7.33685 6.3314 7.18385C6.45626 7.06685 6.47013 7.02635 6.45626 6.81485C6.44239 6.54035 6.36839 6.49985 6.10479 6.63035ZM6.23428 6.90935C6.23428 6.93185 6.20191 6.97235 6.16491 7.00385C6.10942 7.04885 6.09554 7.04885 6.09554 6.99485C6.09554 6.95885 6.10942 6.91385 6.12791 6.90035C6.16954 6.85535 6.23428 6.85985 6.23428 6.90935Z" fill="white"/>
<path d="M17.1345 6.58637C17.0836 6.63137 17.0975 7.00037 17.1483 7.09937C17.2501 7.28387 17.6663 7.39188 17.7218 7.24787C17.805 7.03187 17.6894 6.73037 17.472 6.62237C17.3287 6.55037 17.1853 6.53687 17.1345 6.58637ZM17.472 6.95987C17.5044 7.01837 17.5044 7.04987 17.4767 7.04987C17.4489 7.04987 17.4073 7.00937 17.3796 6.95987C17.3472 6.90137 17.3472 6.86987 17.3749 6.86987C17.4027 6.86987 17.4443 6.91037 17.472 6.95987Z" fill="white"/>
<path d="M5.97883 8.9886C5.78922 9.0921 5.71985 9.2946 5.79847 9.5016C5.83084 9.5826 6.05282 9.7041 6.16381 9.7041C6.28405 9.7041 6.51065 9.4566 6.51065 9.3261C6.51065 9.0921 6.18231 8.88061 5.97883 8.9886ZM6.24705 9.2631C6.27942 9.3576 6.22855 9.4341 6.14069 9.4341C6.03432 9.4341 5.98345 9.3621 6.02045 9.2766C6.05282 9.1956 6.2193 9.1866 6.24705 9.2631Z" fill="white"/>
<path d="M17.2172 8.99321C17.0738 9.07421 17.0137 9.17321 17.0137 9.32171C17.0137 9.66371 17.416 9.81221 17.6565 9.56021C17.823 9.38471 17.7629 9.11021 17.5316 8.99321C17.4068 8.92571 17.3374 8.92571 17.2172 8.99321ZM17.4946 9.32171C17.4946 9.42071 17.3513 9.47021 17.2773 9.39821C17.1987 9.32171 17.2726 9.20021 17.3883 9.21821C17.4576 9.22721 17.4946 9.26321 17.4946 9.32171Z" fill="white"/>
<path d="M5.38777 10.2757C5.3369 10.3207 5.35078 12.7102 5.39702 12.7372C5.42014 12.7552 5.47101 12.7507 5.51264 12.7372C5.57738 12.7147 5.58663 12.5752 5.58663 11.6527C5.58663 10.7527 5.59588 10.5997 5.65137 10.6177C5.85023 10.6942 6.03521 10.6987 6.09071 10.6312C6.17395 10.5322 6.08146 10.4242 5.91497 10.4242C5.85023 10.4242 5.72537 10.3837 5.64212 10.3342C5.48026 10.2397 5.43402 10.2262 5.38777 10.2757Z" fill="white"/>
<path d="M17.9243 10.3162C17.8781 10.3612 17.7532 10.4062 17.6469 10.4197C17.485 10.4422 17.4434 10.4647 17.4341 10.5502C17.4156 10.6807 17.4989 10.7077 17.7393 10.6537L17.9336 10.6132V11.6392C17.9336 12.4942 17.9428 12.6742 18.0029 12.7192C18.0584 12.7642 18.0862 12.7642 18.1417 12.7192C18.2018 12.6697 18.2111 12.4897 18.2018 11.4637C18.1879 10.3072 18.1833 10.2667 18.0954 10.2532C18.0446 10.2487 17.9659 10.2757 17.9243 10.3162Z" fill="white"/>
<path d="M5.41072 12.9399C5.32286 12.9894 5.35985 13.1424 5.46159 13.1604C5.50322 13.1694 5.55409 13.1424 5.56796 13.1019C5.60958 13.0074 5.49397 12.8904 5.41072 12.9399Z" fill="white"/>
<path d="M18.0128 12.9304C17.9666 12.9709 17.9758 13.1149 18.0221 13.1419C18.0961 13.1869 18.2117 13.1194 18.2117 13.0339C18.2117 12.9889 18.1793 12.9394 18.1377 12.9259C18.0498 12.8944 18.0498 12.8944 18.0128 12.9304Z" fill="white"/>
<path d="M5.33658 13.3444C5.3227 13.3669 5.3227 13.4209 5.33658 13.4614C5.3597 13.5154 5.4152 13.5289 5.55856 13.5199C5.71117 13.5109 5.74817 13.4884 5.74817 13.4164C5.74817 13.3444 5.71117 13.3219 5.55393 13.3129C5.45219 13.3039 5.35045 13.3174 5.33658 13.3444Z" fill="white"/>
<path d="M17.7825 13.3667C17.7408 13.4657 17.8657 13.5377 18.0368 13.5197C18.1524 13.5107 18.1941 13.4837 18.2033 13.4027C18.2172 13.3127 18.1987 13.3037 18.0137 13.3037C17.875 13.3037 17.7963 13.3262 17.7825 13.3667Z" fill="white"/>
<path d="M17.7259 13.6824C17.675 13.7184 17.6519 13.7679 17.6704 13.8174C17.7166 13.9344 18.1791 13.9029 18.2022 13.7814C18.2115 13.7364 18.193 13.6824 18.156 13.6599C18.0635 13.6014 17.823 13.6104 17.7259 13.6824Z" fill="white"/>
<path d="M5.3374 13.7048C5.3189 13.7272 5.32352 13.7812 5.3374 13.8217C5.36052 13.8757 5.42064 13.8892 5.60562 13.8802C5.8091 13.8667 5.84147 13.8532 5.85535 13.7632C5.86922 13.6733 5.85535 13.6643 5.61487 13.6643C5.47613 13.6643 5.35127 13.6823 5.3374 13.7048Z" fill="white"/>
<path d="M5.355 14.0466C5.30875 14.1006 5.30875 14.1276 5.355 14.1816C5.43824 14.2761 5.92382 14.2761 6.00706 14.1771C6.05793 14.1141 6.05331 14.0961 5.97932 14.0421C5.85908 13.9566 5.42899 13.9611 5.355 14.0466Z" fill="white"/>
<path d="M17.573 14.0186C17.536 14.0411 17.5175 14.0951 17.5268 14.1401C17.5406 14.2121 17.5869 14.2256 17.8644 14.2256C18.1418 14.2256 18.1881 14.2121 18.2019 14.1401C18.2251 14.0231 18.1326 13.9781 17.8644 13.9781C17.7395 13.9781 17.6054 13.9961 17.573 14.0186Z" fill="white"/>
<path d="M5.355 14.4069C5.30875 14.4609 5.30875 14.4879 5.355 14.5419C5.39662 14.5914 5.50761 14.6094 5.77121 14.6094C6.03481 14.6094 6.1458 14.5914 6.18742 14.5419C6.23367 14.4879 6.23367 14.4609 6.18742 14.4069C6.1458 14.3574 6.03481 14.3394 5.77121 14.3394C5.50761 14.3394 5.39662 14.3574 5.355 14.4069Z" fill="white"/>
<path d="M17.3931 14.3702C17.3608 14.3792 17.333 14.4287 17.333 14.4782C17.333 14.5862 17.4625 14.6177 17.8648 14.5997C18.1377 14.5862 18.1885 14.5727 18.2024 14.5007C18.2117 14.4557 18.1932 14.4017 18.1562 14.3792C18.0914 14.3387 17.4902 14.3297 17.3931 14.3702Z" fill="white"/>
<path d="M5.355 14.7663C5.30875 14.8203 5.30875 14.8473 5.355 14.9013C5.40124 14.9508 5.51686 14.9688 5.8637 14.9688C6.21054 14.9688 6.32616 14.9508 6.3724 14.9013C6.41865 14.8473 6.41865 14.8203 6.3724 14.7663C6.32616 14.7168 6.21054 14.6988 5.8637 14.6988C5.51686 14.6988 5.40124 14.7168 5.355 14.7663Z" fill="white"/>
<path d="M17.2079 14.7259C17.1247 14.7619 17.1339 14.9104 17.2218 14.9419C17.3328 14.9824 18.0866 14.9734 18.1559 14.9284C18.1929 14.9059 18.2114 14.8519 18.2022 14.8069C18.1883 14.7304 18.1374 14.7214 17.7259 14.7124C17.4715 14.7079 17.2357 14.7169 17.2079 14.7259Z" fill="white"/>
<path d="M6.09483 15.1266C6.00697 15.2301 6.11796 15.3291 6.32144 15.3291C6.52955 15.3291 6.61741 15.2751 6.59429 15.1671C6.57579 15.0501 6.18733 15.0186 6.09483 15.1266Z" fill="white"/>
<path d="M16.9445 15.1317C16.9029 15.2397 16.9584 15.2757 17.1711 15.2847C17.4624 15.2982 17.4809 15.2937 17.4624 15.1812C17.4486 15.0957 17.4162 15.0822 17.2127 15.0687C17.0231 15.0597 16.9676 15.0687 16.9445 15.1317Z" fill="white"/>
<path d="M5.89185 15.495C5.83636 15.63 5.98897 15.6885 6.39593 15.6885C6.82139 15.6885 6.9925 15.621 6.88614 15.4905C6.79365 15.3825 5.93347 15.387 5.89185 15.495Z" fill="white"/>
<path d="M16.6582 15.4816C16.6027 15.6166 16.6906 15.6436 17.1761 15.6436C17.6571 15.6436 17.6617 15.6436 17.6478 15.5401C17.634 15.4456 17.6108 15.4411 17.1576 15.4276C16.7738 15.4186 16.6813 15.4276 16.6582 15.4816Z" fill="white"/>
<path d="M5.88169 15.8472C5.8632 15.8877 5.87245 15.9417 5.90019 15.9687C5.96956 16.0362 6.10367 15.9732 6.08518 15.8832C6.06668 15.7797 5.91869 15.7527 5.88169 15.8472Z" fill="white"/>
<path d="M6.39103 15.8467C6.34016 15.9772 6.4419 16.0087 6.83961 15.9952C7.19108 15.9817 7.22808 15.9727 7.22808 15.8917C7.22808 15.8107 7.19108 15.8017 6.82111 15.7882C6.48352 15.7792 6.41415 15.7882 6.39103 15.8467Z" fill="white"/>
<path d="M16.3348 15.8464C16.2839 15.9724 16.3671 16.0039 16.7556 16.0039C17.1395 16.0039 17.2088 15.9724 17.1626 15.8329C17.1302 15.7474 16.3671 15.7564 16.3348 15.8464Z" fill="white"/>
<path d="M17.4811 15.8329C17.4118 15.9139 17.4857 16.0174 17.5921 15.9949C17.6985 15.9769 17.7124 15.8104 17.606 15.7879C17.5644 15.7834 17.5089 15.8014 17.4811 15.8329Z" fill="white"/>
<path d="M6.72866 16.1656C6.71016 16.1836 6.69629 16.2376 6.69629 16.2826C6.69629 16.3456 6.72404 16.3681 6.80265 16.3546C6.8674 16.3456 6.90439 16.3096 6.90439 16.2511C6.90439 16.1611 6.78878 16.1071 6.72866 16.1656Z" fill="white"/>
<path d="M7.08033 16.1878C6.96934 16.2958 7.07108 16.3633 7.34393 16.3633C7.61678 16.3633 7.71853 16.2958 7.60754 16.1878C7.54279 16.1248 7.14508 16.1248 7.08033 16.1878Z" fill="white"/>
<path d="M15.9183 16.2066C15.8674 16.3236 15.9645 16.3686 16.2281 16.3551C16.4409 16.3416 16.4779 16.3281 16.4779 16.2516C16.4779 16.1751 16.4409 16.1616 16.2096 16.1481C16.0015 16.1391 15.9368 16.1481 15.9183 16.2066Z" fill="white"/>
<path d="M16.6571 16.2066C16.6386 16.2471 16.6478 16.3011 16.6756 16.3281C16.7449 16.3956 16.8791 16.3326 16.8606 16.2426C16.8421 16.1391 16.6941 16.1121 16.6571 16.2066Z" fill="white"/>
</g>
</g>
<defs>
<clipPath id="clip0_3876_39199">
<rect width="24" height="24" rx="3.6" fill="white"/>
</clipPath>
<clipPath id="clip1_3876_39199">
<rect width="13.92" height="14.4" fill="white" transform="translate(4.7998 4.7998)"/>
</clipPath>
</defs>
</svg>
