<svg width="24" height="22" viewBox="0 0 24 22" fill="none" xmlns="http://www.w3.org/2000/svg">
<path opacity="0.4" d="M23.25 2H13.5V5H23.25C23.4489 5 23.6397 4.92098 23.7803 4.78033C23.921 4.63968 24 4.44891 24 4.25V2.75C24 2.55109 23.921 2.36032 23.7803 2.21967C23.6397 2.07902 23.4489 2 23.25 2ZM0.75 5H9V2H0.75C0.551088 2 0.360322 2.07902 0.21967 2.21967C0.0790176 2.36032 0 2.55109 0 2.75L0 4.25C0 4.44891 0.0790176 4.63968 0.21967 4.78033C0.360322 4.92098 0.551088 5 0.75 5ZM0.75 12.5H15V9.5H0.75C0.551088 9.5 0.360322 9.57902 0.21967 9.71967C0.0790176 9.86032 0 10.0511 0 10.25L0 11.75C0 11.9489 0.0790176 12.1397 0.21967 12.2803C0.360322 12.421 0.551088 12.5 0.75 12.5ZM23.25 9.5H19.5V12.5H23.25C23.4489 12.5 23.6397 12.421 23.7803 12.2803C23.921 12.1397 24 11.9489 24 11.75V10.25C24 10.0511 23.921 9.86032 23.7803 9.71967C23.6397 9.57902 23.4489 9.5 23.25 9.5ZM23.25 17H7.5V20H23.25C23.4489 20 23.6397 19.921 23.7803 19.7803C23.921 19.6397 24 19.4489 24 19.25V17.75C24 17.5511 23.921 17.3603 23.7803 17.2197C23.6397 17.079 23.4489 17 23.25 17ZM0 17.75V19.25C0 19.4489 0.0790176 19.6397 0.21967 19.7803C0.360322 19.921 0.551088 20 0.75 20H3V17H0.75C0.551088 17 0.360322 17.079 0.21967 17.2197C0.0790176 17.3603 0 17.5511 0 17.75H0Z" fill="black"/>
<path d="M12.75 0.5H11.25C11.0511 0.5 10.8603 0.579018 10.7197 0.71967C10.579 0.860322 10.5 1.05109 10.5 1.25V5.75C10.5 5.94891 10.579 6.13968 10.7197 6.28033C10.8603 6.42098 11.0511 6.5 11.25 6.5H12.75C12.9489 6.5 13.1397 6.42098 13.2803 6.28033C13.421 6.13968 13.5 5.94891 13.5 5.75V1.25C13.5 1.05109 13.421 0.860322 13.2803 0.71967C13.1397 0.579018 12.9489 0.5 12.75 0.5ZM18.75 8H17.25C17.0511 8 16.8603 8.07902 16.7197 8.21967C16.579 8.36032 16.5 8.55109 16.5 8.75V13.25C16.5 13.4489 16.579 13.6397 16.7197 13.7803C16.8603 13.921 17.0511 14 17.25 14H18.75C18.9489 14 19.1397 13.921 19.2803 13.7803C19.421 13.6397 19.5 13.4489 19.5 13.25V8.75C19.5 8.55109 19.421 8.36032 19.2803 8.21967C19.1397 8.07902 18.9489 8 18.75 8ZM6.75 15.5H5.25C5.05109 15.5 4.86032 15.579 4.71967 15.7197C4.57902 15.8603 4.5 16.0511 4.5 16.25V20.75C4.5 20.9489 4.57902 21.1397 4.71967 21.2803C4.86032 21.421 5.05109 21.5 5.25 21.5H6.75C6.94891 21.5 7.13968 21.421 7.28033 21.2803C7.42098 21.1397 7.5 20.9489 7.5 20.75V16.25C7.5 16.0511 7.42098 15.8603 7.28033 15.7197C7.13968 15.579 6.94891 15.5 6.75 15.5Z" fill="black"/>
</svg>
