<svg width="36" height="36" viewBox="0 0 36 36" fill="none" xmlns="http://www.w3.org/2000/svg">
<path fill-rule="evenodd" clip-rule="evenodd" d="M5 6H31C31.5523 6 32 6.44772 32 7V29C32 29.5523 31.5523 30 31 30H5C4.44772 30 4 29.5523 4 29V7C4 6.44772 4.44772 6 5 6ZM2 7C2 5.34315 3.34315 4 5 4H31C32.6569 4 34 5.34315 34 7V29C34 30.6569 32.6569 32 31 32H5C3.34315 32 2 30.6569 2 29V7ZM10 12C10.5523 12 11 11.5523 11 11C11 10.4477 10.5523 10 10 10C9.44772 10 9 10.4477 9 11C9 11.5523 9.44772 12 10 12ZM10 14C11.6569 14 13 12.6569 13 11C13 9.34315 11.6569 8 10 8C8.34315 8 7 9.34315 7 11C7 12.6569 8.34315 14 10 14ZM21.1057 12.5528C21.4802 11.8038 22.5545 11.8194 22.9072 12.579L29.4072 26.579C29.6397 27.0799 29.4222 27.6745 28.9213 27.9071C28.4203 28.1396 27.8257 27.9221 27.5931 27.4212L21.9668 15.3029L17.3946 24.4473C17.0261 25.1843 15.9742 25.1843 15.6057 24.4473L12.9204 19.0766L7.85764 27.5146C7.5735 27.9881 6.95924 28.1417 6.48566 27.8576C6.01207 27.5734 5.85851 26.9591 6.14266 26.4856L12.1427 16.4856C12.5486 15.8089 13.5417 15.8471 13.8946 16.5528L16.5002 21.764L21.1057 12.5528Z" fill="black"/>
</svg>
