<svg width="24" height="17" viewBox="0 0 24 17" fill="none" xmlns="http://www.w3.org/2000/svg">
<path opacity="0.4" d="M8.26139 4.34868L7.31306 3.42243C7.24532 3.35737 7.16493 3.30693 7.07687 3.27425C6.98882 3.24157 6.89498 3.22734 6.8012 3.23246C6.70741 3.23758 6.61568 3.26193 6.53171 3.304C6.44774 3.34607 6.37331 3.40496 6.31306 3.47701C5.2489 4.74389 4.66553 6.34542 4.66553 7.99993C4.66553 9.65444 5.2489 11.256 6.31306 12.5228C6.37331 12.5949 6.44774 12.6538 6.53171 12.6959C6.61568 12.7379 6.70741 12.7623 6.8012 12.7674C6.89498 12.7725 6.98882 12.7583 7.07687 12.7256C7.16493 12.6929 7.24532 12.6425 7.31306 12.5774L8.26139 11.6516C8.37516 11.5434 8.44441 11.3966 8.45559 11.24C8.46676 11.0833 8.41905 10.9282 8.32181 10.8049C7.68218 10.01 7.33346 9.02027 7.33346 7.99993C7.33346 6.97959 7.68218 5.9899 8.32181 5.19493C8.41903 5.07172 8.46672 4.91665 8.45555 4.7601C8.44437 4.60355 8.37513 4.45683 8.26139 4.34868ZM17.686 3.47701C17.6257 3.40496 17.5513 3.34607 17.4673 3.304C17.3833 3.26193 17.2916 3.23758 17.1978 3.23246C17.104 3.22734 17.0102 3.24157 16.9222 3.27425C16.8341 3.30693 16.7537 3.35737 16.686 3.42243L15.7376 4.34868C15.624 4.45688 15.5548 4.60359 15.5436 4.76011C15.5325 4.91663 15.5801 5.07168 15.6772 5.19493C16.3168 5.9899 16.6656 6.97959 16.6656 7.99993C16.6656 9.02027 16.3168 10.01 15.6772 10.8049C15.5802 10.9283 15.5326 11.0834 15.5437 11.2399C15.5549 11.3965 15.624 11.5433 15.7376 11.6516L16.686 12.5774C16.7537 12.6425 16.8341 12.6929 16.9222 12.7256C17.0102 12.7583 17.104 12.7725 17.1978 12.7674C17.2916 12.7623 17.3833 12.7379 17.4673 12.6959C17.5513 12.6538 17.6257 12.5949 17.686 12.5228C18.7501 11.256 19.3335 9.65444 19.3335 7.99993C19.3335 6.34542 18.7501 4.74389 17.686 3.47701Z" fill="black"/>
<path d="M12 5.6668C11.5385 5.6668 11.0874 5.80365 10.7037 6.06004C10.32 6.31643 10.0209 6.68085 9.84428 7.10721C9.66768 7.53357 9.62147 8.00272 9.7115 8.45535C9.80153 8.90797 10.0238 9.32373 10.3501 9.65005C10.6764 9.97637 11.0922 10.1986 11.5448 10.2886C11.9974 10.3787 12.4666 10.3325 12.8929 10.1559C13.3193 9.97925 13.6837 9.68018 13.9401 9.29647C14.1965 8.91275 14.3333 8.46163 14.3333 8.00014C14.3333 7.3813 14.0875 6.7878 13.6499 6.35022C13.2123 5.91263 12.6188 5.6668 12 5.6668ZM2.66667 8.00014C2.66409 5.78193 3.48725 3.64219 4.97583 1.99764C5.20875 1.73847 5.18042 1.3418 4.93083 1.09805L4 0.188886C3.93351 0.12579 3.85502 0.0767064 3.76918 0.0445536C3.68334 0.0124007 3.59192 -0.00216519 3.50034 0.00172185C3.40876 0.00560889 3.3189 0.0278694 3.23609 0.0671801C3.15329 0.106491 3.07924 0.162049 3.01833 0.230552C1.06625 2.37514 0 5.1068 0 8.00014C0 10.8935 1.06625 13.6251 3.01833 15.7718C3.07924 15.8403 3.15329 15.8959 3.23609 15.9352C3.3189 15.9745 3.40876 15.9967 3.50034 16.0006C3.59192 16.0045 3.68334 15.99 3.76918 15.9578C3.85502 15.9256 3.93351 15.8766 4 15.8135L4.93083 14.9043C5.18083 14.6606 5.20875 14.2639 4.97583 14.0047C3.48677 12.3596 2.66357 10.2191 2.66667 8.00014ZM20.9817 0.228469C20.9208 0.159966 20.8467 0.104408 20.7639 0.065097C20.6811 0.0257863 20.5912 0.00352559 20.4997 -0.000361451C20.4081 -0.00424849 20.3167 0.0103173 20.2308 0.0424701C20.145 0.074623 20.0665 0.123707 20 0.186802L19.0692 1.09805C18.8192 1.3418 18.7913 1.73847 19.0242 1.99764C20.5105 3.64357 21.3333 5.78242 21.3333 8.00014C21.3333 10.2178 20.5105 12.3567 19.0242 14.0026C18.7913 14.2618 18.8196 14.6585 19.0692 14.9022L20 15.8114C20.0665 15.8745 20.145 15.9236 20.2308 15.9557C20.3167 15.9879 20.4081 16.0024 20.4997 15.9986C20.5912 15.9947 20.6811 15.9724 20.7639 15.9331C20.8467 15.8938 20.9208 15.8382 20.9817 15.7697C22.9338 13.6251 24 10.8935 24 8.00014C24 5.1068 22.9338 2.37514 20.9817 0.228469Z" fill="black"/>
</svg>
