<svg width="24" height="22" viewBox="0 0 24 22" fill="none" xmlns="http://www.w3.org/2000/svg">
<path opacity="0.4" d="M14.3752 15.5H9.62484C9.32648 15.5 9.04033 15.6185 8.82935 15.8295C8.61837 16.0405 8.49984 16.3266 8.49984 16.625V20.375C8.49984 20.6734 8.61837 20.9595 8.82935 21.1705C9.04033 21.3815 9.32648 21.5 9.62484 21.5H14.3752C14.6735 21.5 14.9597 21.3815 15.1707 21.1705C15.3816 20.9595 15.5002 20.6734 15.5002 20.375V16.625C15.5002 16.3266 15.3816 16.0405 15.1707 15.8295C14.9597 15.6185 14.6735 15.5 14.3752 15.5ZM22.875 8H18.1252C17.8268 8 17.5406 8.11853 17.3297 8.3295C17.1187 8.54048 17.0002 8.82663 17.0002 9.125V12.875C17.0002 13.1734 17.1187 13.4595 17.3297 13.6705C17.5406 13.8815 17.8268 14 18.1252 14H22.875C23.1734 14 23.4595 13.8815 23.6705 13.6705C23.8815 13.4595 24 13.1734 24 12.875V9.125C24 8.82663 23.8815 8.54048 23.6705 8.3295C23.4595 8.11853 23.1734 8 22.875 8ZM14.3752 0.5H9.62484C9.32648 0.5 9.04033 0.618526 8.82935 0.829505C8.61837 1.04048 8.49984 1.32663 8.49984 1.625V5.375C8.49984 5.67337 8.61837 5.95952 8.82935 6.1705C9.04033 6.38147 9.32648 6.5 9.62484 6.5H14.3752C14.6735 6.5 14.9597 6.38147 15.1707 6.1705C15.3816 5.95952 15.5002 5.67337 15.5002 5.375V1.625C15.5002 1.32663 15.3816 1.04048 15.1707 0.829505C14.9597 0.618526 14.6735 0.5 14.3752 0.5ZM5.87484 8H1.125C0.826631 8 0.540483 8.11853 0.329505 8.3295C0.118526 8.54048 0 8.82663 0 9.125L0 12.875C0 13.1734 0.118526 13.4595 0.329505 13.6705C0.540483 13.8815 0.826631 14 1.125 14H5.87484C6.17321 14 6.45936 13.8815 6.67034 13.6705C6.88132 13.4595 6.99984 13.1734 6.99984 12.875V9.125C6.99984 8.82663 6.88132 8.54048 6.67034 8.3295C6.45936 8.11853 6.17321 8 5.87484 8Z" fill="black"/>
<path d="M22.875 15.5H18.1252C17.8268 15.5 17.5406 15.6185 17.3297 15.8295C17.1187 16.0405 17.0002 16.3266 17.0002 16.625V20.375C17.0002 20.6734 17.1187 20.9595 17.3297 21.1705C17.5406 21.3815 17.8268 21.5 18.1252 21.5H22.875C23.1734 21.5 23.4595 21.3815 23.6705 21.1705C23.8815 20.9595 24 20.6734 24 20.375V16.625C24 16.3266 23.8815 16.0405 23.6705 15.8295C23.4595 15.6185 23.1734 15.5 22.875 15.5ZM14.3752 8H9.62484C9.32648 8 9.04033 8.11853 8.82935 8.3295C8.61837 8.54048 8.49984 8.82663 8.49984 9.125V12.875C8.49984 13.1734 8.61837 13.4595 8.82935 13.6705C9.04033 13.8815 9.32648 14 9.62484 14H14.3752C14.6735 14 14.9597 13.8815 15.1707 13.6705C15.3816 13.4595 15.5002 13.1734 15.5002 12.875V9.125C15.5002 8.82663 15.3816 8.54048 15.1707 8.3295C14.9597 8.11853 14.6735 8 14.3752 8ZM22.875 0.5H18.1252C17.8268 0.5 17.5406 0.618526 17.3297 0.829505C17.1187 1.04048 17.0002 1.32663 17.0002 1.625V5.375C17.0002 5.67337 17.1187 5.95952 17.3297 6.1705C17.5406 6.38147 17.8268 6.5 18.1252 6.5H22.875C23.1734 6.5 23.4595 6.38147 23.6705 6.1705C23.8815 5.95952 24 5.67337 24 5.375V1.625C24 1.32663 23.8815 1.04048 23.6705 0.829505C23.4595 0.618526 23.1734 0.5 22.875 0.5ZM5.87484 0.5H1.125C0.826631 0.5 0.540483 0.618526 0.329505 0.829505C0.118526 1.04048 0 1.32663 0 1.625L0 5.375C0 5.67337 0.118526 5.95952 0.329505 6.1705C0.540483 6.38147 0.826631 6.5 1.125 6.5H5.87484C6.17321 6.5 6.45936 6.38147 6.67034 6.1705C6.88132 5.95952 6.99984 5.67337 6.99984 5.375V1.625C6.99984 1.32663 6.88132 1.04048 6.67034 0.829505C6.45936 0.618526 6.17321 0.5 5.87484 0.5ZM5.87484 15.5H1.125C0.826631 15.5 0.540483 15.6185 0.329505 15.8295C0.118526 16.0405 0 16.3266 0 16.625L0 20.375C0 20.6734 0.118526 20.9595 0.329505 21.1705C0.540483 21.3815 0.826631 21.5 1.125 21.5H5.87484C6.17321 21.5 6.45936 21.3815 6.67034 21.1705C6.88132 20.9595 6.99984 20.6734 6.99984 20.375V16.625C6.99984 16.3266 6.88132 16.0405 6.67034 15.8295C6.45936 15.6185 6.17321 15.5 5.87484 15.5Z" fill="black"/>
</svg>
