<svg width="16" height="16" viewBox="0 0 16 16" fill="none" xmlns="http://www.w3.org/2000/svg">
<circle cx="8" cy="8" r="8" fill="#6200FF"/>
<path fill-rule="evenodd" clip-rule="evenodd" d="M11.7468 5.02702C12.0425 5.32274 12.0425 5.80364 11.7458 6.10035L11.648 6.19829L10.9415 6.90569L10.9413 6.90584L10.2342 6.19873L9.76961 5.73413L9.0625 5.02702L9.77004 4.32036L9.86799 4.22253C10.1647 3.92582 10.6446 3.92582 10.9413 4.22253L11.7468 5.02702ZM10.1356 7.70977L8.25781 5.83195L8.66006 5.42871L10.5389 7.30752L10.1356 7.70977ZM6.47077 10.0638L6.48756 10.0463C6.8567 9.66276 7.48773 9.00635 8.02666 8.44563L8.33279 8.1271L7.85428 7.64859L5.90795 9.59492L5.89591 9.60696L5.88346 9.61859C5.81888 9.67891 5.79233 9.70782 5.78348 9.71812C5.78128 9.72253 5.77731 9.73088 5.77143 9.74471C5.75738 9.77769 5.73903 9.82577 5.70923 9.90923L5.59443 10.2413L5.49762 10.5214C5.75557 10.4247 5.99338 10.3356 6.17693 10.267L6.18174 10.2652L6.18174 10.2652C6.29749 10.2226 6.33551 10.204 6.34438 10.1992C6.35294 10.1919 6.38372 10.1635 6.45484 10.082L6.47077 10.0638ZM6.34175 10.2013L6.34355 10.1999C6.34228 10.201 6.34172 10.2014 6.34175 10.2013ZM5.0727 11.7488L5.03043 11.7646L4.83426 11.8382L4.75977 11.8661L4.44712 11.9833C4.33063 12.0291 3.89055 12.0062 4.07475 11.5741L4.17393 11.2885L4.18006 11.2708L4.27267 11.0036L4.28174 10.9774C4.40656 10.617 4.53886 10.2342 4.64906 9.91533L4.76574 9.57781C4.89318 9.22036 4.94396 9.12777 5.20084 8.88781L7.14717 6.94148L7.85428 6.23438L8.56138 6.94148L9.73309 8.11319L9.73309 8.11319C9.72986 8.11656 7.9462 9.97278 7.20809 10.7397C6.96814 11.0145 6.8626 11.0803 6.52706 11.2037C6.18203 11.3327 5.64526 11.534 5.14315 11.7223L5.14078 11.7232L5.13898 11.7239L5.0727 11.7488ZM5.77975 9.72273C5.77967 9.72278 5.78017 9.72207 5.78151 9.72046L5.77975 9.72273Z" fill="white"/>
</svg>
