<svg width="19" height="19" viewBox="0 0 19 19" fill="none" xmlns="http://www.w3.org/2000/svg">
<path d="M0.855469 9.3017C0.91174 9.37043 0.903579 9.43872 0.855469 9.50745V9.3017Z" fill="#282828"/>
<path d="M9.21833 18.3568C9.26687 18.3568 9.3197 18.3362 9.35664 18.3873H9.21962C9.20888 18.3808 9.20501 18.3744 9.20802 18.3675C9.21102 18.3606 9.21489 18.3568 9.21833 18.3568Z" fill="#424242"/>
<path d="M0.855469 9.88696C0.898424 9.91231 0.888974 9.95268 0.884678 9.99134C0.87394 10.0055 0.86406 10.0042 0.855469 9.99134V9.88696Z" fill="#3E3E3E"/>
<path d="M0.855469 9.98938H0.884678C0.884678 10.0237 0.884678 10.0581 0.884678 10.0929C0.87394 10.1058 0.864489 10.1054 0.855898 10.0908L0.855469 9.98938Z" fill="#545454"/>
<path d="M9.87109 18.3869C9.89644 18.344 9.93639 18.3534 9.97547 18.3573C9.98521 18.3644 9.98822 18.3713 9.9845 18.3779C9.98106 18.3839 9.97719 18.3869 9.97376 18.3869H9.87109Z" fill="#383838"/>
<path d="M9.97314 18.3882C9.9725 18.3783 9.9725 18.3684 9.97314 18.3585H10.0762C10.0857 18.3654 10.0887 18.3718 10.0848 18.3783C10.081 18.3847 10.0779 18.3869 10.0741 18.3869L9.97314 18.3882Z" fill="#4D4D4D"/>
<path d="M0.855469 9.06366C0.906586 9.08643 0.898424 9.10962 0.855469 9.13239V9.06366Z" fill="#7C7C7C"/>
<path d="M0.855469 10.091L0.884678 10.0932C0.888115 10.1211 0.895847 10.1507 0.855469 10.1593V10.091Z" fill="#7A7A7A"/>
<path d="M9.08594 18.3883C9.09496 18.3484 9.1246 18.3561 9.15252 18.3595C9.16498 18.3651 9.16927 18.3711 9.16583 18.378C9.1624 18.3849 9.15853 18.3883 9.15467 18.3883H9.08594Z" fill="#7A7A7A"/>
<path d="M9.15058 18.3873C9.15058 18.3779 9.15059 18.368 9.14844 18.3585H9.21759C9.21846 18.3687 9.21846 18.3789 9.21759 18.389L9.15058 18.3873Z" fill="#585858"/>
<path d="M10.0781 18.3878C10.0781 18.3784 10.0781 18.3689 10.0803 18.3595H10.1486C10.1585 18.3664 10.1615 18.3732 10.1576 18.3793C10.1537 18.3853 10.1503 18.3883 10.1469 18.3883L10.0781 18.3878Z" fill="#686868"/>
<path d="M10.145 18.3894C10.1444 18.3798 10.1444 18.3702 10.145 18.3606C10.1734 18.3567 10.2043 18.346 10.212 18.3894H10.145Z" fill="#8F8F8F"/>
<path fill-rule="evenodd" clip-rule="evenodd" d="M0.855469 8.88945V9.06127C0.860722 9.06528 0.864981 9.07045 0.867911 9.07637C0.870842 9.08229 0.872367 9.08881 0.872367 9.09542C0.872367 9.10203 0.870842 9.10855 0.867911 9.11447C0.864981 9.12039 0.860722 9.12556 0.855469 9.12957V9.30139C0.86928 9.33393 0.876398 9.36892 0.876398 9.40427C0.876398 9.43962 0.86928 9.4746 0.855469 9.50714V9.88429C0.87601 9.90542 0.8745 9.93016 0.872987 9.95494C0.872285 9.96644 0.871583 9.97794 0.87308 9.9891V10.075C0.872539 10.0821 0.872735 10.0893 0.872931 10.0965C0.873514 10.118 0.874099 10.1396 0.855469 10.1566V10.3284C0.874451 10.4224 0.878911 10.5176 0.883372 10.6128C0.886583 10.6814 0.889795 10.75 0.898424 10.8181C1.02643 11.8138 1.33657 12.7498 1.79103 13.6455C2.34559 14.7391 3.11062 15.6609 4.04962 16.4341C5.26483 17.4354 6.66088 18.0583 8.21629 18.316C8.33063 18.335 8.44604 18.3426 8.56145 18.3503L8.5615 18.3503L8.56154 18.3503C8.67806 18.358 8.79458 18.3657 8.91001 18.3851H9.08183C9.10041 18.3648 9.12414 18.3659 9.14741 18.367L9.14748 18.367C9.15194 18.3673 9.15638 18.3675 9.16077 18.3675C9.16152 18.3675 9.16227 18.3675 9.16302 18.3675H9.22831C9.24293 18.3697 9.25805 18.3687 9.27316 18.3676C9.30244 18.3656 9.33168 18.3636 9.35718 18.3851H9.8735C9.89493 18.3646 9.92016 18.3661 9.94537 18.3676C9.95706 18.3683 9.96874 18.369 9.98003 18.3675H10.1351C10.1421 18.3681 10.1492 18.3679 10.1563 18.3677C10.1776 18.3673 10.1989 18.3668 10.2163 18.3851H10.2829C10.3856 18.3672 10.4894 18.3631 10.5932 18.359C10.6761 18.3558 10.7589 18.3525 10.8413 18.3422C12.0509 18.1923 13.1677 17.7752 14.2068 17.148C15.2926 16.495 16.2222 15.612 16.9302 14.5613C17.5459 13.6571 17.9873 12.646 18.2317 11.5797C18.4263 10.7365 18.4345 9.88687 18.4126 9.02776C18.3937 8.28893 18.2463 7.5763 18.0178 6.88C17.5131 5.31574 16.5774 3.92559 15.3181 2.86927C14.3494 2.04753 13.2494 1.47837 12.0329 1.11712C10.9405 0.792808 9.82367 0.764887 8.70683 0.843925C7.64842 0.918667 6.64412 1.23525 5.69524 1.71033C4.53472 2.29247 3.51622 3.12238 2.7117 4.14142C1.90717 5.16045 1.33627 6.34374 1.03932 7.60766C0.938372 8.03034 0.895847 8.4599 0.855469 8.88945ZM6.14211 3.83808V2.69934L6.13385 2.70299L6.13384 2.70299C6.09222 2.72134 6.07485 2.729 6.05749 2.74273C4.77253 3.40872 3.70079 4.4227 2.96471 5.66884C2.90973 5.75947 2.91488 5.79341 3.01325 5.84066C3.44286 6.04639 3.87076 6.25652 4.2986 6.46663L4.29872 6.46669L4.29943 6.46704C4.43856 6.53536 4.57768 6.60368 4.71685 6.67184C5.11591 6.86729 5.20526 7.08207 5.06308 7.49916C4.97676 7.75207 4.89062 8.00517 4.80449 8.25826L4.80407 8.25948L4.80382 8.26021L4.80377 8.26038L4.80367 8.26067C4.59646 8.86952 4.38926 9.47836 4.17948 10.0846C4.16303 10.1263 4.15557 10.171 4.15756 10.2158C4.15956 10.2606 4.17098 10.3045 4.19108 10.3445C4.32029 10.6208 4.4451 10.8993 4.56992 11.1778L4.66359 11.3866C4.96313 12.0507 5.2621 12.7152 5.5605 13.3802C5.67691 13.6396 5.85173 13.8299 6.14684 13.875C6.60044 13.9442 6.94108 13.6998 7.05233 13.2208L7.10708 12.9856C7.27752 12.2535 7.44793 11.5215 7.60817 10.7878C7.6619 10.5258 7.77834 10.2807 7.94752 10.0735C8.35297 9.57336 8.75338 9.06947 9.15323 8.56628L9.15333 8.56615L9.15336 8.56612L9.15339 8.56609C9.41391 8.23823 9.6742 7.91067 9.93549 7.58464C10.1709 7.29126 10.2443 6.96995 10.1477 6.60741C10.1138 6.48036 10.0803 6.3533 10.0468 6.22629L10.0467 6.22594C10.0048 6.06664 9.96279 5.90741 9.92003 5.74831C9.81178 5.34367 9.54675 5.10398 9.14297 5.01807C8.32367 4.84367 7.50394 4.67056 6.68378 4.49874C6.28644 4.41583 6.14211 4.24272 6.14211 3.83808ZM16.4441 5.92297C16.8528 6.67055 17.1324 7.48178 17.271 8.32245C17.4921 9.63409 17.3717 10.9806 16.9214 12.2322C16.4711 13.4838 15.7061 14.5983 14.7001 15.4685C14.6442 15.517 14.6021 15.5338 14.5424 15.481C14.5089 15.4497 14.4701 15.4246 14.4278 15.4071C14.0064 15.2477 13.9033 14.9204 13.8766 14.5003C13.8442 13.9628 13.7801 13.4283 13.7159 12.8926C13.6951 12.7194 13.6743 12.5459 13.6546 12.3723C13.6136 12.0465 13.6989 11.7175 13.893 11.4526C14.1201 11.1323 14.3452 10.8112 14.5702 10.4902L14.5705 10.4898L14.5705 10.4897C14.8134 10.1432 15.0562 9.79686 15.3015 9.45175C15.4102 9.30433 15.467 9.12502 15.463 8.94187C15.4587 8.52754 15.4594 8.113 15.4602 7.69839V7.69836L15.4602 7.69687C15.4605 7.53513 15.4608 7.37338 15.4608 7.21163L15.4607 7.19262C15.4602 7.132 15.4597 7.07366 15.5068 7.01919C15.7091 6.78449 15.9104 6.5485 16.1157 6.30772C16.2238 6.18097 16.333 6.05289 16.4441 5.92297ZM9.19161 17.3445C9.9472 17.383 10.7044 17.3143 11.4408 17.1405C11.3707 17.0493 11.3031 16.9595 11.2365 16.871C11.098 16.6871 10.964 16.5092 10.8222 16.338C10.6366 16.113 10.3944 16.0726 10.1306 16.1989C10.0121 16.2554 9.89593 16.3157 9.77926 16.3763C9.7293 16.4023 9.67925 16.4283 9.6289 16.454C9.50016 16.5178 9.39732 16.624 9.33766 16.7547C9.31605 16.8002 9.29477 16.846 9.27349 16.8917C9.22287 17.0006 9.17221 17.1095 9.11687 17.2156C9.06747 17.3093 9.08208 17.3385 9.19161 17.3445Z" fill="white"/>
</svg>
