<svg width="24" height="20" viewBox="0 0 24 20" fill="none" xmlns="http://www.w3.org/2000/svg">
<path opacity="0.4" d="M18.6727 8.87265L10.7272 0.927152C10.3897 0.589582 9.93188 0.399925 9.4545 0.399902L1.8 0.399902C1.32261 0.399902 0.864773 0.589545 0.527208 0.92711C0.189642 1.26468 0 1.72251 0 2.1999L0 9.8544C2.23873e-05 10.3318 0.189679 10.7896 0.52725 11.1272L8.47275 19.0727C8.81031 19.4102 9.26813 19.5998 9.7455 19.5998C10.2229 19.5998 10.6807 19.4102 11.0182 19.0727L18.6727 11.4182C19.0103 11.0806 19.1999 10.6228 19.1999 10.1454C19.1999 9.66803 19.0103 9.21021 18.6727 8.87265ZM4.2 6.3999C3.84399 6.3999 3.49598 6.29433 3.19997 6.09655C2.90396 5.89876 2.67325 5.61764 2.53702 5.28873C2.40078 4.95983 2.36513 4.59791 2.43459 4.24874C2.50404 3.89957 2.67547 3.57884 2.92721 3.32711C3.17894 3.07538 3.49967 2.90394 3.84884 2.83449C4.198 2.76504 4.55992 2.80068 4.88883 2.93692C5.21774 3.07316 5.49886 3.30387 5.69664 3.59988C5.89443 3.89588 6 4.2439 6 4.5999C6 5.07729 5.81036 5.53513 5.47279 5.87269C5.13523 6.21026 4.67739 6.3999 4.2 6.3999Z" fill="black"/>
<path d="M23.4725 11.4182L15.818 19.0727C15.4804 19.4102 15.0226 19.5998 14.5452 19.5998C14.0679 19.5998 13.6101 19.4102 13.2725 19.0727L13.259 19.0592L19.7862 12.5319C20.0996 12.2185 20.3483 11.8464 20.5179 11.437C20.6875 11.0275 20.7748 10.5886 20.7748 10.1454C20.7748 9.70219 20.6875 9.26331 20.5179 8.85384C20.3483 8.44436 20.0996 8.0723 19.7862 7.7589L12.4272 0.399902H14.2542C14.7316 0.399925 15.1894 0.589582 15.527 0.927152L23.4725 8.87265C23.81 9.21021 23.9997 9.66803 23.9997 10.1454C23.9997 10.6228 23.81 11.0806 23.4725 11.4182Z" fill="black"/>
</svg>
