<svg width="36" height="36" viewBox="0 0 36 36" fill="none" xmlns="http://www.w3.org/2000/svg">
<path fill-rule="evenodd" clip-rule="evenodd" d="M8.73485 18C8.73485 19.6882 9.11055 21.3224 9.86195 22.7842L10.6277 19.5C10.7273 19 11.3251 18.6 11.8232 18.8C12.3214 18.9 12.7199 19.5 12.5206 20L11.2255 25.7C11.1258 26 11.0262 26.2 10.7273 26.3C10.7273 26.4 10.5281 26.4 10.3288 26.4H10.03L4.74978 25C4.25165 24.9 3.85315 24.3 4.0524 23.8C4.15203 23.3 4.74978 23 5.24791 23.1L8.07366 23.8256C7.14777 22.0528 6.6427 20.0264 6.6427 18C6.6427 16.4 6.94158 14.9 7.53933 13.4C8.13709 12 8.9341 10.7 10.03 9.5C11.1259 8.4 12.3214 7.5 13.7161 6.9C15.0113 6.3 16.5057 6 18.0001 6C19.6937 6 21.487 6.4 22.9814 7.3C23.4795 7.6 23.6788 8.2 23.3799 8.7C23.081 9.2 22.4832 9.4 21.9851 9.1C20.69 8.4 19.2952 8.1 17.9004 8.1C16.7049 8.1 15.5094 8.4 14.4135 8.8C13.3176 9.3 12.2218 10 11.4248 11C10.5281 11.9 9.83073 13 9.43223 14.2C8.9341 15.4 8.73485 16.7 8.73485 18ZM13.3176 28.9C14.7124 29.6 16.4061 30 18.0001 30C20.9889 30 23.878 28.7 26.0698 26.5C28.1619 24.2 29.3574 21.2 29.3574 18C29.3574 15.95 28.8596 13.9499 27.9343 12.1764L30.7522 12.9C31.2503 13.1 31.8481 12.7 31.9477 12.2C32.147 11.7 31.7485 11.1 31.2503 11L25.9701 9.69999C25.6713 9.59999 25.3724 9.69999 25.1731 9.79999C24.8743 9.89999 24.7746 10.1 24.675 10.4L23.3799 16.1C23.2802 16.6 23.6787 17.2 24.1769 17.3H24.3761C24.7746 17.3 25.1731 16.9 25.3724 16.5L26.1741 13.0618C26.9557 14.5608 27.3649 16.2804 27.3649 18C27.3649 20.7 26.269 23.2 24.5754 25.1C22.7821 27 20.4907 28 18.0001 28C16.6053 28 15.3102 27.7 14.1147 27.1C13.6165 26.9 13.0188 27.1 12.8195 27.6C12.6203 28.1 12.8195 28.7 13.3176 28.9Z" fill="#2C3149"/>
</svg>
