<svg width="16" height="16" viewBox="0 0 16 16" fill="none" xmlns="http://www.w3.org/2000/svg">
<g clip-path="url(#clip0_102_394)">
<path d="M7 -1.95336e-05C3.14 -1.95336e-05 0 3.13998 0 6.99998C0 10.86 3.14 14 7 14C8.18 14 9.34 13.72 10.32 13.18C10.3985 13.2744 10.4855 13.3615 10.58 13.44L12.58 15.44C12.7647 15.6478 12.8711 15.717 13.123 15.8346C13.3749 15.9522 13.6482 16.0171 13.926 16.0253C14.2039 16.0334 14.4806 15.9847 14.7389 15.8821C14.9973 15.7795 15.232 15.6252 15.4286 15.4286C15.6251 15.2321 15.7795 14.9974 15.8821 14.739C15.9847 14.4806 16.0334 14.204 16.0252 13.9261C16.017 13.6482 15.9521 13.375 15.8345 13.1231C15.7169 12.8712 15.6678 12.7447 15.46 12.56L13.46 10.56C13.3626 10.4625 13.2553 10.3754 13.14 10.3C13.68 9.31998 14.02 8.17998 14.02 6.97998C14.02 3.11998 10.88 -0.0200195 7.02 -0.0200195L7 -1.95336e-05ZM7 1.99998C9.78 1.99998 12 4.21998 12 6.99998C12 8.31998 11.52 9.53998 10.68 10.44L10.62 10.5C10.5255 10.5785 10.4385 10.6655 10.36 10.76C9.48 11.56 8.28 12.02 6.98 12.02C4.2 12.02 1.98 9.79998 1.98 7.01998C1.98 4.23998 4.2 2.01998 6.98 2.01998L7 1.99998Z" fill="#A5A5A5"/>
</g>
<defs>
<clipPath id="clip0_102_394">
<rect width="16" height="16" fill="white"/>
</clipPath>
</defs>
</svg>
