<svg width="8" height="14" viewBox="0 0 8 14" fill="none" xmlns="http://www.w3.org/2000/svg">
<path fill-rule="evenodd" clip-rule="evenodd" d="M0.540132 0.5C0.241825 0.5 0 0.741825 0 1.04013V2.95987C0 3.25817 0.241825 3.5 0.540132 3.5H2.45987C2.75817 3.5 3 3.25817 3 2.95987V1.04013C3 0.741825 2.75817 0.5 2.45987 0.5H0.540132ZM0.54 5.5C0.241766 5.5 0 5.74177 0 6.04V7.96C0 8.25823 0.241766 8.5 0.54 8.5H2.46C2.75823 8.5 3 8.25823 3 7.96V6.04C3 5.74177 2.75823 5.5 2.46 5.5H0.54ZM0 11.04C0 10.7418 0.241766 10.5 0.54 10.5H2.46C2.75823 10.5 3 10.7418 3 11.04V12.96C3 13.2582 2.75823 13.5 2.46 13.5H0.54C0.241766 13.5 0 13.2582 0 12.96V11.04ZM5.59535 0.5C5.26655 0.5 5 0.766548 5 1.09535V2.90465C5 3.23345 5.26655 3.5 5.59535 3.5H7.40465C7.73345 3.5 8 3.23345 8 2.90465V1.09535C8 0.766548 7.73345 0.5 7.40465 0.5H5.59535ZM5 6.04C5 5.74177 5.24177 5.5 5.54 5.5H7.46C7.75823 5.5 8 5.74177 8 6.04V7.96C8 8.25823 7.75823 8.5 7.46 8.5H5.54C5.24177 8.5 5 8.25823 5 7.96V6.04ZM5.54 10.5C5.24177 10.5 5 10.7418 5 11.04V12.96C5 13.2582 5.24177 13.5 5.54 13.5H7.46C7.75823 13.5 8 13.2582 8 12.96V11.04C8 10.7418 7.75823 10.5 7.46 10.5H5.54Z" fill="#B9B9B9"/>
</svg>
