<svg width="12" height="12" viewBox="0 0 12 12" fill="none" xmlns="http://www.w3.org/2000/svg">
<path d="M5.06738 9.2251C4.78496 9.54854 4.66074 9.62588 4.26582 9.77119C3.65762 9.99853 2.54316 10.4169 1.81777 10.6888C1.68066 10.7427 1.1627 10.7157 1.37949 10.2071C1.62559 9.49932 1.98652 8.454 2.19277 7.85752C2.34277 7.43682 2.40254 7.32783 2.70488 7.04541L5.82793 3.92236L8.03926 6.13369C8.03926 6.13369 5.93691 8.32158 5.06738 9.2251Z" fill="#1E1E1E"/>
<path d="M8.51289 5.65889L6.30273 3.44873L6.77617 2.97412L8.9875 5.18545L8.51289 5.65889Z" fill="#1E1E1E"/>
<path d="M10.4092 3.76406L9.4623 4.71211L7.25098 2.50078L8.19902 1.55391C8.54824 1.20469 9.11309 1.20469 9.4623 1.55391L10.4104 2.50078C10.7584 2.84883 10.7584 3.41484 10.4092 3.76406Z" fill="#1E1E1E"/>
</svg>
