<svg width="21" height="20" viewBox="0 0 21 20" fill="none" xmlns="http://www.w3.org/2000/svg">
<path fill-rule="evenodd" clip-rule="evenodd" d="M3.11937 10.0002L5.49838 7.62123L7.87739 10.0002L5.49838 12.3793L3.11937 10.0002ZM0.998047 10.0002L2.05871 8.93958L4.43772 6.56057L5.49838 5.49991L6.55904 6.56057L8.93805 8.93958L9.99871 10.0002L8.93805 11.0609L6.55904 13.4399L5.49838 14.5006L4.43772 13.4399L2.05871 11.0609L0.998047 10.0002ZM8.62038 15.5006L10.9994 13.1216L13.3784 15.5006L10.9994 17.8796L8.62038 15.5006ZM6.49906 15.5006L7.55972 14.4399L9.93873 12.0609L10.9994 11.0003L12.06 12.0609L14.4391 14.4399L15.4997 15.5006L14.4391 16.5613L12.06 18.9403L10.9994 20.0009L9.93873 18.9403L7.55972 16.5613L6.49906 15.5006ZM10.9994 2.12087L8.62038 4.49988L10.9994 6.87889L13.3784 4.49988L10.9994 2.12087ZM7.55972 3.43922L6.49906 4.49988L7.55972 5.56054L9.93873 7.93955L10.9994 9.00021L12.06 7.93955L14.4391 5.56054L15.4997 4.49988L14.4391 3.43922L12.06 1.06021L10.9994 -0.000447596L9.93873 1.06021L7.55972 3.43922ZM14.1203 10.0002L16.4993 7.62124L18.8784 10.0002L16.4993 12.3793L14.1203 10.0002ZM11.999 10.0002L13.0597 8.93958L15.4387 6.56058L16.4993 5.49992L17.56 6.56058L19.939 8.93958L20.9997 10.0002L19.939 11.0609L17.56 13.4399L16.4993 14.5006L15.4387 13.4399L13.0597 11.0609L11.999 10.0002Z" fill="#011627"/>
</svg>
