<svg width="24" height="24" viewBox="0 0 24 24" fill="none" xmlns="http://www.w3.org/2000/svg">
<path fill-rule="evenodd" clip-rule="evenodd" d="M14 6.5C14.8284 6.5 15.5 5.82843 15.5 5C15.5 4.17157 14.8284 3.5 14 3.5C13.1716 3.5 12.5 4.17157 12.5 5C12.5 5.82843 13.1716 6.5 14 6.5ZM16.9055 5.75C16.5725 7.04392 15.3979 8 14 8C12.6021 8 11.4275 7.04392 11.0945 5.75H3C2.58579 5.75 2.25 5.41421 2.25 5C2.25 4.58579 2.58579 4.25 3 4.25H11.0945C11.4275 2.95608 12.6021 2 14 2C15.3979 2 16.5725 2.95608 16.9055 4.25H21.25C21.6642 4.25 22 4.58579 22 5C22 5.41421 21.6642 5.75 21.25 5.75H16.9055ZM7 13.5C7.82843 13.5 8.5 12.8284 8.5 12C8.5 11.1716 7.82843 10.5 7 10.5C6.17157 10.5 5.5 11.1716 5.5 12C5.5 12.8284 6.17157 13.5 7 13.5ZM9.90549 12.75C9.57245 14.0439 8.39788 15 7 15C5.60212 15 4.42755 14.0439 4.09451 12.75H2.75391C2.33969 12.75 2.00391 12.4142 2.00391 12C2.00391 11.5858 2.33969 11.25 2.75391 11.25H4.09451C4.42755 9.95608 5.60212 9 7 9C8.39788 9 9.57245 9.95608 9.90549 11.25H21.25C21.6642 11.25 22 11.5858 22 12C22 12.4142 21.6642 12.75 21.25 12.75H9.90549ZM18.5 19C18.5 19.8284 17.8284 20.5 17 20.5C16.1716 20.5 15.5 19.8284 15.5 19C15.5 18.1716 16.1716 17.5 17 17.5C17.8284 17.5 18.5 18.1716 18.5 19ZM17 22C18.3979 22 19.5725 21.0439 19.9055 19.75H21.25C21.6642 19.75 22 19.4142 22 19C22 18.5858 21.6642 18.25 21.25 18.25H19.9055C19.5725 16.9561 18.3979 16 17 16C15.6021 16 14.4275 16.9561 14.0945 18.25H3C2.58579 18.25 2.25 18.5858 2.25 19C2.25 19.4142 2.58579 19.75 3 19.75H14.0945C14.4275 21.0439 15.6021 22 17 22Z" fill="#011627"/>
</svg>
