<svg width="17" height="17" viewBox="0 0 17 17" fill="none" xmlns="http://www.w3.org/2000/svg">
<g clip-path="url(#clip0_69_313)">
<path d="M1.75195 10.6149C1.99298 11.5598 2.45577 12.4336 3.10195 13.1639C3.13595 13.2039 3.17495 13.2399 3.20995 13.2789L10.152 6.33694L8.09095 4.27495L1.75195 10.6149ZM10.667 6.85194L3.72695 13.7929C4.4931 14.5111 5.45755 14.9822 6.49495 15.1449L12.728 8.91294L10.667 6.85194ZM16.077 2.98895L14.016 0.926945C13.5904 0.603752 13.0582 0.453867 12.5266 0.507495C11.9949 0.561124 11.5034 0.81428 11.151 1.21594L10.151 2.21594L14.789 6.85194L15.789 5.85194C16.1862 5.46433 16.4442 4.95634 16.523 4.40694C16.5632 4.1522 16.5439 3.89158 16.4665 3.64555C16.3892 3.39952 16.2558 3.17477 16.077 2.98895Z" fill="#888888"/>
<path d="M2.55076 13.639C1.95837 12.9604 1.50086 12.175 1.20276 11.325L0.0127578 16.554C0.000805235 16.6073 0.000959506 16.6627 0.0132093 16.716C0.0254591 16.7692 0.0494932 16.8191 0.0835454 16.8619C0.117598 16.9047 0.160803 16.9393 0.209986 16.9632C0.259169 16.9871 0.31308 16.9996 0.367758 17C0.395055 16.9998 0.422239 16.9964 0.448758 16.99L5.78576 15.776C5.79576 15.776 5.80276 15.764 5.81376 15.761C4.53699 15.3989 3.39954 14.6592 2.55076 13.639ZM14.3088 7.36796L13.2788 8.39896L8.64076 3.76196L9.67076 2.73096L14.3088 7.36796Z" fill="#888888"/>
</g>
<defs>
<clipPath id="clip0_69_313">
<rect width="16.538" height="17" fill="white"/>
</clipPath>
</defs>
</svg>
