<svg width="24" height="22" viewBox="0 0 24 22" fill="none" xmlns="http://www.w3.org/2000/svg">
<path opacity="0.4" d="M13.5 6.5V11H21V6.5H13.5ZM13.5 18.5H21V14H13.5V18.5ZM3 11H10.5V6.5H3V11ZM3 18.5H10.5V14H3V18.5Z" fill="black"/>
<path d="M21.75 0.5H2.25C1.65326 0.5 1.08097 0.737053 0.65901 1.15901C0.237053 1.58097 0 2.15326 0 2.75L0 19.25C0 19.8467 0.237053 20.419 0.65901 20.841C1.08097 21.2629 1.65326 21.5 2.25 21.5H21.75C22.3467 21.5 22.919 21.2629 23.341 20.841C23.7629 20.419 24 19.8467 24 19.25V2.75C24 2.15326 23.7629 1.58097 23.341 1.15901C22.919 0.737053 22.3467 0.5 21.75 0.5ZM10.5 18.5H3V14H10.5V18.5ZM10.5 11H3V6.5H10.5V11ZM21 18.5H13.5V14H21V18.5ZM21 11H13.5V6.5H21V11Z" fill="black"/>
</svg>
