<svg width="16" height="16" viewBox="0 0 16 16" fill="none" xmlns="http://www.w3.org/2000/svg">
<circle cx="8" cy="8" r="8" fill="#6200FF"/>
<path fill-rule="evenodd" clip-rule="evenodd" d="M7.33366 5.16699C7.28946 5.16699 7.24706 5.18455 7.21581 5.21581C7.18455 5.24706 7.16699 5.28946 7.16699 5.33366V5.5H8.83366V5.33366C8.83366 5.28946 8.8161 5.24706 8.78484 5.21581C8.75359 5.18455 8.71119 5.16699 8.66699 5.16699H7.33366ZM6.16699 5.33366V5.5H5.66667H5C4.72386 5.5 4.5 5.72386 4.5 6C4.5 6.27614 4.72386 6.5 5 6.5H5.16699V10.667C5.16699 10.9764 5.28991 11.2732 5.5087 11.4919C5.72749 11.7107 6.02424 11.8337 6.33366 11.8337H9.66699C9.97641 11.8337 10.2732 11.7107 10.4919 11.4919C10.7107 11.2732 10.8337 10.9764 10.8337 10.667V6.5H11C11.2761 6.5 11.5 6.27614 11.5 6C11.5 5.72386 11.2761 5.5 11 5.5H9.83366V5.33366C9.83366 5.02424 9.71074 4.72749 9.49195 4.5087C9.27316 4.28991 8.97641 4.16699 8.66699 4.16699H7.33366C7.02424 4.16699 6.72749 4.28991 6.5087 4.5087C6.28991 4.72749 6.16699 5.02424 6.16699 5.33366ZM9.33366 6.50033H6.66699H6.16699V10.667C6.16699 10.7112 6.18455 10.7536 6.21581 10.7848C6.24706 10.8161 6.28946 10.8337 6.33366 10.8337H9.66699C9.71119 10.8337 9.75359 10.8161 9.78484 10.7848C9.8161 10.7536 9.83366 10.7112 9.83366 10.667V6.50033H9.33366ZM8.5 7.66699C8.5 7.39085 8.27614 7.16699 8 7.16699C7.72386 7.16699 7.5 7.39085 7.5 7.66699V9.66699C7.5 9.94313 7.72386 10.167 8 10.167C8.27614 10.167 8.5 9.94313 8.5 9.66699V7.66699Z" fill="white"/>
</svg>
