<svg width="12" height="12" viewBox="0 0 12 12" fill="none" xmlns="http://www.w3.org/2000/svg">
<path fill-rule="evenodd" clip-rule="evenodd" d="M6.55084 0.248967C6.25794 -0.0439264 5.78307 -0.0439264 5.49018 0.248967L3.49018 2.24897C3.19728 2.54186 3.19728 3.01673 3.49018 3.30963C3.78307 3.60252 4.25794 3.60252 4.55084 3.30963L5.27051 2.58996V7.28054C5.27051 7.69475 5.60629 8.03054 6.02051 8.03054C6.43472 8.03054 6.77051 7.69475 6.77051 7.28054V2.58996L7.49018 3.30963C7.78307 3.60252 8.25794 3.60252 8.55084 3.30963C8.84373 3.01673 8.84373 2.54186 8.55084 2.24897L6.55084 0.248967ZM1.02051 7.0293C1.43472 7.0293 1.77051 7.36508 1.77051 7.7793V8.2793C1.77051 8.96965 2.33015 9.5293 3.02051 9.5293H9.02051C9.71086 9.5293 10.2705 8.96965 10.2705 8.2793V7.7793C10.2705 7.36508 10.6063 7.0293 11.0205 7.0293C11.4347 7.0293 11.7705 7.36508 11.7705 7.7793V8.2793C11.7705 9.79808 10.5393 11.0293 9.02051 11.0293H3.02051C1.50172 11.0293 0.270508 9.79808 0.270508 8.2793V7.7793C0.270508 7.36508 0.606294 7.0293 1.02051 7.0293Z" fill="#808B93"/>
</svg>
