<svg width="12" height="13" viewBox="0 0 12 13" fill="none" xmlns="http://www.w3.org/2000/svg">
<path d="M7.52019 6.37399C7.52019 7.30789 6.76553 8.06255 5.83163 8.06255C4.89773 8.06255 4.14307 7.30789 4.14307 6.37399C4.14307 5.44009 4.89773 4.68542 5.83163 4.68542C6.76553 4.68542 7.52019 5.44009 7.52019 6.37399Z" stroke="#8991A4" stroke-width="1.132" stroke-linecap="round" stroke-linejoin="round"/>
<path d="M5.83107 10.2747C7.49605 10.2747 9.04783 9.2936 10.1279 7.5956C10.5524 6.93056 10.5524 5.81271 10.1279 5.14766C9.04783 3.44966 7.49605 2.4686 5.83107 2.4686C4.16609 2.4686 2.61431 3.44966 1.53419 5.14766C1.1097 5.81271 1.1097 6.93056 1.53419 7.5956C2.61431 9.2936 4.16609 10.2747 5.83107 10.2747Z" stroke="#8991A4" stroke-width="1.132" stroke-linecap="round" stroke-linejoin="round"/>
</svg>
