<svg width="28" height="28" viewBox="0 0 28 28" fill="none" xmlns="http://www.w3.org/2000/svg">
<g clip-path="url(#clip0_8354_42245)">
<path d="M11.0346 7.06138C10.8325 7.25347 10.7832 7.37352 10.7832 7.67126C10.7832 8.12267 11.2071 8.47803 11.6852 8.4252C12.0204 8.39159 12.1978 8.26193 12.4837 7.85855C12.9569 7.19104 13.4399 7.1046 13.918 7.61363C14.1497 7.85855 14.0954 7.86815 14.4208 7.51279C14.5686 7.35431 14.8594 7.26787 15.1009 7.3159C15.308 7.34951 15.6234 7.63284 15.8748 8.00261C16.3085 8.65091 17.2401 8.53566 17.4422 7.81052C17.5211 7.52239 17.457 7.30149 17.2401 7.09019C17.0429 6.89811 16.9099 6.85969 16.8606 6.98454C16.8458 7.03257 16.8951 7.1142 17.0134 7.21505C17.1711 7.35912 17.1908 7.40234 17.1908 7.60403C17.1908 7.79612 17.1662 7.85374 17.0232 7.99301C16.693 8.31475 16.2543 8.18029 15.9438 7.66166C15.6973 7.25827 15.3622 7.05178 14.9482 7.05178C14.6968 7.05178 14.4109 7.15262 14.2532 7.29669L14.1447 7.39273L13.9229 7.23906C13.6814 7.07579 13.3512 7.01336 13.0209 7.07098C12.809 7.1142 12.4245 7.44556 12.2372 7.74809C12.0549 8.05544 11.9021 8.15628 11.6113 8.15628C11.3993 8.15628 11.3451 8.13707 11.1972 7.99301C10.9409 7.74329 10.9705 7.46957 11.286 7.18143C11.4042 7.07098 11.424 7.03737 11.3747 6.97974C11.286 6.87409 11.212 6.8933 11.0346 7.06138Z" fill="white"/>
<path d="M7.3364 7.02429C7.29695 7.06751 7.28216 7.33163 7.29202 7.85027C7.30682 8.59941 7.30682 8.61382 7.4153 8.62823C7.56324 8.64744 7.5879 8.52738 7.56817 7.94631C7.55831 7.6918 7.56817 7.49011 7.58297 7.49491C7.59776 7.50451 7.76542 7.67739 7.94788 7.87908C8.13034 8.08558 8.298 8.25366 8.31773 8.25366C8.3917 8.25366 8.47553 8.11439 8.43608 8.05196C8.36211 7.92711 7.46955 6.95706 7.4301 6.95706C7.41037 6.95706 7.36599 6.98587 7.3364 7.02429Z" fill="white"/>
<path d="M8.07118 7.03699C8.01736 7.09413 8.02225 7.1227 8.08586 7.18936C8.16415 7.26077 8.17394 7.26077 8.25223 7.18936C8.31584 7.1227 8.32073 7.09413 8.26691 7.03699C8.23266 6.99414 8.18862 6.96081 8.16905 6.96081C8.14947 6.96081 8.10544 6.99414 8.07118 7.03699Z" fill="white"/>
<path d="M8.68373 7.029C8.66402 7.06738 8.66402 7.13456 8.68373 7.17295C8.70837 7.23533 8.84635 7.24493 9.63479 7.23533L10.5612 7.22093V7.10097V6.98101L9.63479 6.96662C8.84635 6.95702 8.70837 6.96662 8.68373 7.029Z" fill="white"/>
<path d="M17.7521 7.02943C17.7324 7.06782 17.7324 7.135 17.7521 7.17338C17.7718 7.23576 17.9246 7.24536 18.6834 7.24536C19.4325 7.24536 19.6049 7.23097 19.6542 7.17338C19.7035 7.1158 19.7035 7.08701 19.6542 7.02943C19.6049 6.97185 19.4325 6.95746 18.6834 6.95746C17.9246 6.95746 17.7718 6.96705 17.7521 7.02943Z" fill="white"/>
<path d="M20.0528 7.00654C19.9598 7.05892 20.0088 7.2208 20.1213 7.2208C20.1849 7.2208 20.2241 7.18271 20.2338 7.12081C20.2485 7.0113 20.1507 6.94464 20.0528 7.00654Z" fill="white"/>
<path d="M20.2998 7.50936C20.0286 7.8167 19.8018 8.08082 19.8018 8.10483C19.8018 8.12884 19.8363 8.17206 19.8757 8.20567C19.9546 8.2681 19.999 8.22969 20.4576 7.73026L20.6894 7.47574V7.99438C20.6894 8.55143 20.719 8.65708 20.8669 8.62827C20.9557 8.61386 20.9606 8.55143 20.9754 7.85031C20.9852 7.12518 20.9606 6.9571 20.8373 6.9571C20.8176 6.9571 20.576 7.20682 20.2998 7.50936Z" fill="white"/>
<path d="M11.4823 7.27963C11.4478 7.29403 11.3887 7.36606 11.3444 7.4477C11.2508 7.62537 11.3198 7.83185 11.502 7.91349C11.6743 7.99032 11.7383 7.98071 11.886 7.86547C12.211 7.61576 11.8762 7.12597 11.4823 7.27963ZM11.7678 7.58695C11.7678 7.64458 11.625 7.7022 11.5857 7.66378C11.5709 7.64458 11.5709 7.60136 11.5857 7.56294C11.6152 7.48611 11.7678 7.51012 11.7678 7.58695Z" fill="white"/>
<path d="M16.416 7.31613C16.2732 7.41217 16.2339 7.59945 16.3225 7.76751C16.4456 7.99801 16.6819 8.03162 16.869 7.84435C17.1841 7.54182 16.7804 7.06643 16.416 7.31613ZM16.7164 7.63306C16.677 7.70029 16.549 7.68588 16.549 7.61385C16.549 7.57544 16.5637 7.53222 16.5834 7.51781C16.6278 7.47459 16.7508 7.58024 16.7164 7.63306Z" fill="white"/>
<path d="M9.02825 7.47987C8.81637 7.60464 8.71289 7.76299 8.71289 7.95013C8.71289 8.16607 8.8213 8.25724 9.02332 8.19966C9.28448 8.12768 9.40767 7.95013 9.39289 7.65742C9.37318 7.36951 9.28448 7.32632 9.02825 7.47987ZM9.15637 7.76779C9.15637 7.79178 9.12187 7.83497 9.08245 7.86856C9.02332 7.91654 9.00854 7.91654 9.00854 7.85896C9.00854 7.82057 9.02332 7.77259 9.04303 7.75819C9.08738 7.7102 9.15637 7.715 9.15637 7.76779Z" fill="white"/>
<path d="M18.8603 7.50473C18.7272 7.79265 18.9933 8.20532 19.3136 8.20532C19.6289 8.20532 19.5945 7.71587 19.2643 7.49993C19.0475 7.35598 18.9243 7.36078 18.8603 7.50473ZM19.2495 7.89821C19.2003 7.9462 19.1116 7.86942 19.1116 7.78305C19.1116 7.71107 19.1165 7.71107 19.1953 7.78785C19.2397 7.83103 19.2643 7.87902 19.2495 7.89821Z" fill="white"/>
<path d="M13.1284 7.83913C12.9017 7.92083 12.6258 8.13228 12.5173 8.31008C12.4434 8.43503 12.4434 8.44945 12.5173 8.52153C12.5863 8.58881 12.611 8.5792 12.7834 8.39658C13.0397 8.12747 13.1875 8.06019 13.5176 8.06019C13.7197 8.06019 13.7985 8.04097 13.8231 7.9833C13.8379 7.94486 13.833 7.892 13.8034 7.86316C13.7197 7.78147 13.3255 7.76705 13.1284 7.83913Z" fill="white"/>
<path d="M14.543 7.82062C14.479 7.84945 14.4297 7.90712 14.4297 7.96478C14.4297 8.05129 14.4593 8.0609 14.7056 8.0609C15.0407 8.0609 15.2772 8.16181 15.4497 8.38287C15.5335 8.4886 15.6123 8.54146 15.6764 8.53185C15.8587 8.50782 15.8242 8.39248 15.5532 8.13779C15.2181 7.82062 14.8436 7.70528 14.543 7.82062Z" fill="white"/>
<path d="M14.0362 7.94113C13.9579 8.0316 14.0117 8.16491 14.1194 8.14587C14.227 8.12682 14.2613 7.94113 14.1634 7.90304C14.1243 7.88876 14.0655 7.9078 14.0362 7.94113Z" fill="white"/>
<path d="M9.66315 8.09296C9.38226 8.14578 9.40197 8.33307 9.72721 8.68363C10.0327 9.01498 10.3038 9.13984 10.7078 9.13984C11.0971 9.13984 11.3484 9.0486 11.3484 8.90453C11.3484 8.8373 11.2893 8.79888 11.1168 8.75566C10.9789 8.72205 10.762 8.6068 10.5994 8.48194C10.1707 8.16019 9.91446 8.04974 9.66315 8.09296ZM10.1461 8.48674C10.2643 8.56358 10.4417 8.69804 10.5354 8.77967C10.693 8.91414 10.698 8.92854 10.5846 8.89493C10.3185 8.8277 10.1559 8.73645 9.96867 8.54437C9.73706 8.30906 9.82576 8.28025 10.1461 8.48674Z" fill="white"/>
<path d="M18.3675 8.10452C18.1704 8.16695 18.0225 8.25339 17.717 8.4839C17.5544 8.60876 17.3376 8.72401 17.1996 8.75762C17.0321 8.80084 16.9631 8.83926 16.9532 8.91129C16.9335 9.05056 17.1897 9.1418 17.6086 9.1418C17.8944 9.1418 17.993 9.11779 18.1852 9.01214C18.4168 8.87768 18.6927 8.59915 18.8159 8.37345C18.875 8.2678 18.875 8.23899 18.811 8.18136C18.7174 8.09492 18.5252 8.0613 18.3675 8.10452ZM18.3478 8.54633C18.1359 8.75762 17.9831 8.84887 17.7564 8.89689L17.6086 8.9257L17.7811 8.78163C18.0225 8.57514 18.3773 8.34944 18.466 8.34944C18.5104 8.34944 18.466 8.42147 18.3478 8.54633Z" fill="white"/>
<path d="M13.9963 8.28598C13.9618 8.30038 13.878 8.39163 13.8139 8.48767C13.7055 8.65575 13.6759 8.67015 13.4098 8.69897C12.9809 8.74219 12.35 8.93427 11.5614 9.26563C10.896 9.54415 10.8369 9.55856 10.5313 9.53935C10.1271 9.52014 9.70814 9.32805 9.23989 8.94388C9.0378 8.78541 8.88008 8.68456 8.83572 8.70377C8.72235 8.74219 8.747 8.82382 8.92444 9.03992C9.16103 9.32325 9.33354 9.63059 9.42226 9.92833C9.57506 10.4374 9.51591 10.6775 9.0723 11.3114C8.90965 11.5467 8.71742 11.8444 8.64349 11.9837C8.52519 12.2142 8.50055 12.2334 8.29353 12.267C7.86472 12.3294 7.43097 12.0557 7.43097 11.7196C7.43097 11.5419 7.55912 11.2922 7.69713 11.2057C7.76614 11.1577 7.98794 11.1049 8.19003 11.0809C8.63363 11.0328 8.816 10.9512 8.95401 10.7351C9.30396 10.178 8.70264 9.52014 8.12102 9.81308C7.9633 9.89471 7.94851 9.91873 8.01751 10.0244C8.05695 10.082 8.09638 10.0868 8.24425 10.0436C8.56955 9.94274 8.85543 10.1588 8.78643 10.4566C8.73714 10.6775 8.5942 10.7639 8.18017 10.8263C7.97315 10.8552 7.7415 10.8984 7.66756 10.9176L7.52955 10.9512V9.93313V8.91987L7.42111 8.93427C7.30775 8.94868 7.30775 8.95348 7.27325 10.1492C7.25846 10.8071 7.22889 11.4698 7.20917 11.6235C7.1451 12.1469 7.46055 12.4831 8.05202 12.5167C8.22453 12.5311 8.36747 12.5407 8.36747 12.5455C8.36747 12.5503 8.31325 12.7664 8.24425 13.0257C7.72178 15.0235 8.2541 17.0452 9.67856 18.5291C10.2848 19.1534 11.1819 19.7488 11.8916 19.9937C12.2564 20.1234 12.2515 20.1474 11.8769 20.1522C11.2509 20.1666 10.5313 20.4788 10.1419 20.911C10.0532 21.0166 9.95951 21.0742 9.92008 21.055C9.86093 21.0358 9.87079 20.9926 9.9743 20.8485C10.201 20.5268 10.0285 20.1426 9.6342 20.0802C9.47155 20.0562 9.43705 20.0274 9.36804 19.8689C9.32861 19.768 9.22017 19.6192 9.12652 19.5423C8.96387 19.3983 8.86529 19.3647 8.30832 19.2542C7.6577 19.1197 7.3669 18.6443 7.62813 18.1449C7.76121 17.8952 7.75628 17.7991 7.61827 17.8183C7.54927 17.8279 7.46055 17.9096 7.39154 18.0248C7.29789 18.1833 7.2831 18.2698 7.29296 18.5387C7.30775 18.8124 7.33732 18.894 7.4704 19.0813L7.6232 19.2974L7.4359 19.3935C7.05145 19.5808 6.81979 19.9841 6.76064 20.5748C6.73107 20.8389 6.74092 20.8821 6.81486 20.911C6.86415 20.9302 6.93808 20.9206 6.98244 20.8918C7.09581 20.8053 7.22396 20.7573 7.52955 20.666C8.00766 20.522 8.29353 20.229 8.25903 19.9073C8.24917 19.792 8.2196 19.7536 8.14567 19.7536C8.07666 19.7536 8.04216 19.7969 8.01751 19.9169C7.96823 20.157 7.75135 20.3299 7.37183 20.4403C6.99723 20.5508 6.99723 20.5508 7.11059 20.181C7.18453 19.9409 7.38661 19.7056 7.62813 19.5808C7.78093 19.5039 8.27382 19.5039 8.60899 19.5856C8.94415 19.6624 9.1561 19.8881 9.1561 20.1714C9.1561 20.3347 9.12652 20.3971 8.96387 20.5508C8.75192 20.7621 8.61884 20.7813 8.34282 20.6564C8.21467 20.5988 8.15552 20.5892 8.11609 20.6276C8.02737 20.7141 8.10624 20.8293 8.31818 20.9254L8.51534 21.0118L8.38718 21.1271C8.31818 21.1895 8.22946 21.3047 8.1851 21.3768C8.07173 21.5929 7.77107 21.8906 7.67249 21.8906C7.5887 21.8906 7.57884 21.8474 7.57884 21.4152C7.57884 21.055 7.55912 20.9302 7.50491 20.8821C7.44576 20.8341 7.41619 20.8341 7.35704 20.8821C7.29789 20.9302 7.2831 21.0646 7.2831 21.5352C7.2831 22.0731 7.29296 22.1307 7.38168 22.1787C7.44083 22.2124 8.0323 22.222 9.09202 22.2172L10.7038 22.2028L10.8566 21.9146C11.2262 21.2087 12.0444 21.0646 12.6162 21.6025C12.8873 21.857 12.9119 21.9386 12.7148 21.9386C12.6162 21.9386 12.5571 21.9002 12.493 21.7994C12.3993 21.6457 12.0543 21.4584 11.8621 21.4584C11.5565 21.4584 11.0488 21.8666 11.0882 22.0779C11.1129 22.198 11.31 22.2028 11.3495 22.0875C11.4431 21.7898 11.9262 21.6457 12.1677 21.8426C12.2712 21.9194 12.2712 21.9338 12.1972 21.9386C12.0839 21.9386 12.0346 22.0635 12.1135 22.1547C12.2022 22.2604 13.0598 22.2556 13.1485 22.1547C13.2471 22.0395 13.0795 21.6649 12.8035 21.4056C12.148 20.7813 11.0537 20.959 10.6298 21.761L10.5362 21.9386H10.1862C9.85107 21.9386 9.84122 21.9338 9.87572 21.8282C10.0679 21.2135 10.7777 20.618 11.5171 20.45C12.0297 20.3347 12.7394 20.4596 13.1929 20.7525C13.39 20.8773 13.464 20.9974 13.5428 21.2999C13.5724 21.4104 13.6759 21.6073 13.7794 21.7321C13.878 21.8618 13.9864 22.0107 14.016 22.0587C14.0949 22.198 14.1984 22.1787 14.2772 22.0107C14.3118 21.929 14.3955 21.8138 14.4596 21.7465C14.5828 21.6169 14.7258 21.3191 14.7258 21.1943C14.7258 21.055 14.987 20.7813 15.2384 20.6564C15.9284 20.3155 16.6826 20.3251 17.3578 20.6805C17.7768 20.9014 18.2007 21.3768 18.3683 21.8042L18.4225 21.9386H18.0627H17.7078L17.5895 21.7177C17.348 21.2807 16.8945 21.0262 16.3474 21.0262C15.958 21.0262 15.5095 21.2519 15.2828 21.5641C15.0905 21.8234 15.0166 22.1163 15.125 22.1835C15.2137 22.2364 16.3573 22.2364 16.441 22.1835C16.4805 22.1595 16.5002 22.1019 16.4903 22.0539C16.4805 21.9819 16.4164 21.9578 16.2045 21.9386L15.9383 21.9146L16.0664 21.8282C16.3425 21.6553 16.7269 21.7561 16.8452 22.0347C16.9142 22.198 17.0128 22.246 17.0917 22.1499C17.2346 21.9867 16.8649 21.5497 16.5298 21.4872C16.2587 21.4344 15.9925 21.5304 15.7904 21.7465C15.6721 21.8762 15.5736 21.9386 15.4848 21.9386H15.3567L15.4553 21.7802C15.5883 21.5737 15.958 21.3288 16.2045 21.2903C16.6776 21.2135 17.2346 21.516 17.412 21.9482C17.4564 22.0635 17.5205 22.1691 17.5501 22.1883C17.6536 22.2556 20.8574 22.2364 20.9264 22.1691C21.02 22.0779 21.0052 20.959 20.9116 20.8821C20.8524 20.8341 20.8229 20.8341 20.7637 20.8821C20.7095 20.9302 20.6898 21.055 20.6898 21.4152C20.6898 21.6793 20.6701 21.8906 20.6454 21.8906C20.5567 21.8906 20.2905 21.6361 20.1722 21.4392C20.1032 21.3288 19.9948 21.1847 19.9258 21.1223L19.8026 21.007L19.9849 20.9062C20.0885 20.8533 20.1772 20.7717 20.187 20.7237C20.2117 20.6036 20.0589 20.57 19.9012 20.6612C19.7188 20.7621 19.566 20.7573 19.3787 20.6468C18.9794 20.4067 18.9992 19.8641 19.423 19.648C19.5906 19.5663 20.2462 19.5087 20.5123 19.5567C20.7834 19.6096 21.0545 19.8881 21.158 20.2242C21.2024 20.3779 21.232 20.5124 21.2221 20.522C21.2122 20.5364 21.0496 20.498 20.8623 20.4451C20.4877 20.3347 20.2462 20.1426 20.2462 19.9553C20.2462 19.792 20.123 19.696 20.0244 19.7776C19.9258 19.8593 19.9307 19.9505 20.054 20.1954C20.1673 20.4259 20.4236 20.5988 20.7884 20.6901C20.9116 20.7237 21.094 20.7909 21.1925 20.8437C21.4735 20.9974 21.5474 20.9398 21.508 20.6036C21.434 19.9889 21.1975 19.576 20.8179 19.3983L20.5961 19.2926L20.6947 19.1966C20.8524 19.0429 20.9855 18.7164 20.9855 18.4762C20.9855 18.0921 20.6947 17.6887 20.5321 17.8472C20.4976 17.8808 20.5173 17.9576 20.5961 18.0777C20.9165 18.5867 20.5715 19.187 19.9012 19.2734C19.4723 19.331 19.221 19.4415 19.0435 19.6432C18.9499 19.7488 18.8562 19.8929 18.8414 19.9649C18.8168 20.0754 18.7872 20.0946 18.6344 20.0946C18.5013 20.0946 18.4274 20.1282 18.319 20.2483C18.1366 20.4451 18.1267 20.6757 18.2993 20.8725C18.388 20.9734 18.4028 21.0262 18.3633 21.0646C18.3239 21.103 18.2253 21.0454 17.9937 20.8341C17.5057 20.3875 16.9635 20.1666 16.3573 20.157C16.0763 20.157 16.0517 20.1474 16.1552 20.1042C17.2346 19.6432 17.7472 19.3262 18.3781 18.7356C19.3245 17.8472 19.9455 16.6994 20.1525 15.4605C20.2807 14.6777 20.192 13.626 19.9307 12.8721L19.8075 12.5263H20.0638C20.3398 12.5263 20.6602 12.4063 20.7982 12.2574C21.0003 12.0365 21.0151 11.8924 20.9954 10.3749C20.9806 9.16478 20.9658 8.91506 20.9067 8.89105C20.8672 8.87665 20.8031 8.89105 20.7637 8.92467C20.7046 8.97269 20.6898 9.15998 20.6898 9.98596C20.6898 10.5382 20.6799 10.9896 20.6701 10.9896C20.6602 10.9896 20.5715 10.956 20.4778 10.9176C20.3793 10.8792 20.2166 10.8455 20.1131 10.8455C19.5709 10.8455 19.29 10.5766 19.4378 10.1973C19.4921 10.0628 19.7385 9.98596 19.9357 10.0436C20.123 10.1012 20.2314 10.0436 20.1821 9.91392C20.0983 9.71223 19.5857 9.69782 19.3738 9.89471C19.0977 10.1444 19.0386 10.4422 19.2259 10.7015C19.4083 10.9704 19.5611 11.0472 19.9751 11.0857C20.5123 11.1385 20.7391 11.321 20.7391 11.7196C20.7391 12.0749 20.3448 12.3342 19.8913 12.267C19.6941 12.2382 19.6695 12.2142 19.5413 11.9837C19.4674 11.8444 19.2653 11.5227 19.0928 11.2633C18.7478 10.7591 18.6788 10.543 18.7379 10.1348C18.7774 9.85149 19.0484 9.29924 19.285 9.03032C19.4674 8.82382 19.4871 8.68456 19.3294 8.68456C19.285 8.68456 19.1224 8.79981 18.9597 8.94388C18.526 9.32325 18.0972 9.52014 17.6536 9.53935C17.3036 9.55856 17.274 9.55376 16.7811 9.31365C16.1453 9.01111 15.4947 8.79981 14.9919 8.72298C14.6223 8.67015 14.5927 8.66055 14.4153 8.45886C14.2378 8.26197 14.1442 8.22835 13.9963 8.28598ZM14.223 8.64614C14.4251 9.02552 14.5631 9.68822 14.4744 9.84669C14.2674 10.2261 13.74 10.0964 13.74 9.66421C13.74 9.32805 14.0111 8.54049 14.1294 8.54049C14.1491 8.54049 14.1935 8.58852 14.223 8.64614ZM13.5724 9.07834C13.5527 9.16478 13.5231 9.30885 13.5083 9.39048C13.4886 9.50093 13.4541 9.54896 13.395 9.54896C13.3457 9.54896 13.0943 9.60178 12.838 9.66421C12.3353 9.78907 11.6698 10.0724 11.315 10.3077C11.1375 10.4278 11.0587 10.447 10.8171 10.447L10.5313 10.4422L10.2503 10.1252C9.80179 9.62579 9.80671 9.6354 9.99894 9.71223C10.2602 9.81788 10.689 9.85149 10.9354 9.78907C11.0537 9.76025 11.3643 9.6402 11.6304 9.52014C12.1726 9.28003 12.7197 9.09275 13.1633 9.0015C13.6168 8.90066 13.6118 8.90066 13.5724 9.07834ZM15.3665 9.07354C15.8003 9.17438 16.1552 9.31365 16.7713 9.60178C17.1755 9.79387 17.2445 9.81308 17.5846 9.80827C17.8113 9.80827 18.0232 9.77466 18.1415 9.72664C18.2401 9.68342 18.3239 9.66421 18.3239 9.67861C18.3239 9.69302 18.181 9.8611 18.0035 10.0532C17.693 10.3941 17.6733 10.4037 17.4219 10.423C17.1952 10.4374 17.1311 10.4182 16.8649 10.2597C16.4115 9.98115 15.8101 9.74585 15.2532 9.62579L14.7504 9.51534L14.7159 9.30885C14.6962 9.19839 14.6666 9.06393 14.6469 9.01111C14.6223 8.92947 14.6371 8.91987 14.8096 8.94868C14.9131 8.96789 15.1645 9.02071 15.3665 9.07354ZM13.5971 10.0676C13.6414 10.1444 13.7499 10.2357 13.8336 10.2741C13.9174 10.3125 13.9864 10.3557 13.9864 10.3701C13.9864 10.423 13.8435 10.4614 13.6759 10.4614C13.1978 10.4662 12.3451 10.7639 11.8029 11.1193C11.4431 11.3498 11.3988 11.369 11.3298 11.3018C11.2805 11.2537 11.2509 11.1337 11.2509 10.9464V10.6631L11.522 10.495C11.8916 10.2597 12.3796 10.0484 12.8134 9.93793C13.4393 9.77466 13.4295 9.76986 13.5971 10.0676ZM15.2236 9.88511C15.6228 9.96675 16.2636 10.2165 16.6185 10.4278L16.9586 10.6295L16.9734 10.9128L16.9832 11.1961L16.446 11.7964C16.1305 12.1421 15.9087 12.4255 15.9186 12.4687C15.958 12.6704 16.1108 12.5599 16.653 11.9549C17.1902 11.3546 17.2198 11.3306 17.3677 11.3546C17.4564 11.369 17.5698 11.3594 17.624 11.3306C17.7078 11.2874 17.7472 11.3066 17.8852 11.4554C18.1169 11.7196 18.452 12.2382 18.6246 12.608C18.7527 12.8769 19.0139 13.7365 19.0139 13.8709C19.0139 13.8949 18.94 13.9574 18.8464 14.0102C18.7527 14.0678 18.6443 14.1879 18.5999 14.2791C18.4668 14.5528 18.4028 14.4904 18.3338 14.0246C18.2352 13.2947 17.9296 12.5839 17.4712 12.0125C17.2691 11.7628 17.1163 11.6907 17.0621 11.8252C17.0473 11.8588 17.1508 12.0365 17.2888 12.2142C17.7029 12.7472 18.0035 13.4243 18.0627 13.9766L18.0922 14.2503L17.3332 13.5348C16.9142 13.141 16.5446 12.8193 16.5101 12.8145C16.4755 12.8145 16.4361 12.8481 16.4164 12.8913C16.3967 12.9441 16.6234 13.1986 17.21 13.7701L18.0282 14.5673L16.0812 16.4641L14.1343 18.361L12.1874 16.4641L10.2405 14.5673L11.034 13.7941C11.8079 13.0402 11.9163 12.8865 11.729 12.8241C11.6945 12.8145 11.3248 13.1314 10.9059 13.5396C10.1468 14.2695 10.1468 14.2695 10.1715 14.0822C10.2552 13.506 10.5017 12.8817 10.8467 12.3823C11.0044 12.1517 11.3248 11.806 11.379 11.806C11.3938 11.806 11.5614 11.9789 11.7487 12.1902C12.0839 12.5695 12.2219 12.6464 12.281 12.4975C12.3008 12.4447 12.1923 12.2862 11.9459 12.0077L11.5762 11.5995L11.7783 11.4458C12.1825 11.1337 13.0007 10.8071 13.5675 10.7303L13.8139 10.6967L13.2077 11.2874C12.7591 11.7292 12.6113 11.9068 12.6359 11.9645C12.6507 12.0077 12.7 12.0461 12.7444 12.0461C12.7887 12.0461 13.119 11.758 13.4788 11.4122L14.1343 10.7735L14.7997 11.4218C15.4109 12.0173 15.47 12.0605 15.544 11.9885C15.6573 11.8828 15.6081 11.8156 15.0018 11.2345C14.711 10.9608 14.4892 10.7255 14.4991 10.7159C14.5434 10.6727 15.2778 10.8455 15.6031 10.9704C15.7806 11.0424 16.0418 11.1625 16.1749 11.2393C16.4312 11.3882 16.5643 11.3978 16.5889 11.2681C16.6283 11.0665 15.337 10.5286 14.6716 10.4758C14.3512 10.447 14.1787 10.3749 14.3265 10.3269C14.4547 10.2837 14.7159 10.0244 14.7455 9.90912C14.7701 9.81308 14.7997 9.79387 14.8884 9.81308C14.9476 9.82748 15.1004 9.8563 15.2236 9.88511ZM10.0778 10.3269C10.3144 10.591 10.3243 10.615 10.3095 10.8648C10.2996 11.1001 10.27 11.1577 10.0482 11.4314C9.58984 11.9933 9.17088 12.8865 9.0378 13.578L8.97866 13.8853L8.64349 14.0198L8.30832 14.1495L8.34282 13.8565C8.4414 13.0161 8.75685 12.219 9.31382 11.417C9.67856 10.8888 9.76728 10.6343 9.73771 10.2213C9.71307 9.89471 9.68842 9.88991 10.0778 10.3269ZM18.457 10.3029C18.452 10.7255 18.526 10.932 18.8562 11.3978C19.3935 12.1566 19.9012 13.4003 19.9012 13.9526C19.9012 14.0966 19.8864 14.1158 19.8174 14.0822C19.7681 14.063 19.6251 14.015 19.497 13.9718C19.3393 13.9238 19.2604 13.8709 19.2604 13.8181C19.2604 13.7749 19.2062 13.5252 19.1372 13.2659C18.9794 12.6656 18.6541 12.0077 18.2549 11.4986C17.969 11.1385 17.9394 11.0761 17.9247 10.8359C17.9049 10.5718 17.9099 10.5622 18.1662 10.2741C18.3091 10.1156 18.4373 9.98115 18.4422 9.98115C18.452 9.98115 18.457 10.1252 18.457 10.3029ZM17.6043 10.7303C17.7521 10.8744 17.6684 11.0857 17.4613 11.0857C17.4022 11.0857 17.3332 11.0616 17.2987 11.028C17.2642 10.9944 17.2395 10.9272 17.2395 10.8696C17.2395 10.6679 17.4564 10.5862 17.6043 10.7303ZM10.965 10.8263C11.0242 10.9176 11.0192 10.9416 10.9404 11.0376C10.7629 11.2537 10.4524 11.0424 10.5855 10.7975C10.6545 10.6679 10.8664 10.6871 10.965 10.8263ZM11.0981 11.4698C11.1868 11.5563 11.1868 11.5659 10.9453 11.8396C10.8073 11.9933 10.6151 12.243 10.5165 12.3919C10.1862 12.9009 9.90036 13.7461 9.89544 14.2167C9.89544 14.4328 9.8215 14.4904 9.74264 14.3416C9.65885 14.1831 9.44197 13.967 9.36804 13.967C9.24975 13.967 9.24482 13.8373 9.35325 13.4051C9.52084 12.7424 9.92994 11.9549 10.344 11.4986C10.477 11.3498 10.5017 11.3402 10.7432 11.3642C10.9009 11.3738 11.0389 11.417 11.0981 11.4698ZM9.29904 14.2311C9.54055 14.3512 9.57506 14.6201 9.37297 14.817C9.26453 14.9226 9.21524 14.937 9.03287 14.9178C8.7815 14.889 8.3724 14.7065 8.33297 14.6057C8.28861 14.5 8.4759 14.3512 8.76671 14.2503C9.09202 14.1447 9.12652 14.1399 9.29904 14.2311ZM19.6498 14.3031C19.7533 14.3512 19.8667 14.428 19.9012 14.4712C19.9652 14.5432 19.9554 14.5721 19.8174 14.6921C19.5364 14.937 19.1421 14.9898 18.9351 14.817C18.6344 14.5625 18.871 14.1158 19.2752 14.1783C19.3787 14.1975 19.5512 14.2503 19.6498 14.3031ZM9.89544 14.889C9.90036 15.4028 10.1961 16.2768 10.5461 16.8003C10.6594 16.9684 10.9009 17.2565 11.0784 17.4438L11.3988 17.7751L11.2262 17.7463C11.1326 17.7271 10.9009 17.7031 10.7136 17.6839L10.3785 17.6503L10.1665 17.3861C9.856 17.002 9.51591 16.3008 9.3779 15.763C9.30889 15.5085 9.25467 15.2732 9.25467 15.2444C9.25467 15.2156 9.33847 15.1435 9.4469 15.0859C9.55041 15.0283 9.66378 14.9178 9.69828 14.8362C9.79193 14.6153 9.89544 14.6441 9.89544 14.889ZM18.6048 14.8314C18.6344 14.9082 18.7379 15.0187 18.8365 15.0763C18.9351 15.1291 19.0139 15.1915 19.0139 15.2156C19.0139 15.2348 18.9597 15.4653 18.8907 15.7246C18.7478 16.2672 18.4274 16.9395 18.112 17.3573L17.8902 17.6503L17.555 17.6791C17.3677 17.6983 17.1262 17.7271 17.0177 17.7463L16.8206 17.7751L17.0079 17.6215C17.6782 17.0452 18.2056 16.0511 18.3338 15.1051C18.383 14.7834 18.4126 14.6873 18.4718 14.6873C18.5161 14.6873 18.5753 14.7497 18.6048 14.8314ZM13.7646 18.4234C13.7548 18.433 13.5626 18.409 13.3358 18.361C11.8473 18.0681 10.6348 16.9443 10.275 15.5181C10.0778 14.7497 9.94472 14.6681 11.9656 16.6322C12.9662 17.607 13.7745 18.4138 13.7646 18.4234ZM17.9592 15.6045C17.6536 16.6322 17.0128 17.4294 16.0566 17.9624C15.6278 18.2025 14.5779 18.5003 14.4843 18.409C14.4695 18.3898 15.263 17.5926 16.2537 16.6418C17.9197 15.0283 18.0528 14.913 18.0676 15.0379C18.0775 15.1147 18.0282 15.3692 17.9592 15.6045ZM8.6632 15.0907L8.97866 15.2059L9.04273 15.5277C9.1561 16.1328 9.40254 16.733 9.77221 17.2805C9.89051 17.4678 9.99401 17.6359 9.99401 17.6551C9.98908 17.6743 9.856 17.7127 9.69335 17.7415L9.39761 17.7943L9.27932 17.6455C9.08216 17.3909 8.77657 16.7955 8.61884 16.3489C8.45619 15.8975 8.26396 14.9706 8.33297 14.9754C8.33789 14.9754 8.48576 15.0283 8.6632 15.0907ZM19.9258 15.1051C19.8321 15.6862 19.773 15.9599 19.6695 16.272C19.5364 16.661 19.1224 17.4726 18.9499 17.6791C18.8513 17.7991 18.8266 17.8039 18.6689 17.7607C18.5753 17.7367 18.4373 17.7127 18.3633 17.7127C18.2845 17.7127 18.2253 17.7031 18.2253 17.6839C18.2253 17.6695 18.319 17.5302 18.4274 17.3669C18.7379 16.9251 19.009 16.3201 19.1618 15.7294L19.2998 15.1963L19.5512 15.1147C19.6941 15.0715 19.8223 15.0235 19.8371 15.0043C19.9061 14.937 19.9455 14.985 19.9258 15.1051ZM11.2952 18.0296C11.5072 18.0681 11.8916 18.1785 12.1578 18.2698C12.9711 18.5627 13.188 18.6203 13.6513 18.6779C14.366 18.7596 15.0018 18.6683 15.82 18.361C16.7614 18.0056 17.6092 17.8616 18.2549 17.9528C18.4668 17.9768 18.6492 18.0152 18.664 18.0248C18.6788 18.0392 18.5999 18.1353 18.4964 18.2409C18.3091 18.4234 18.2894 18.4282 18.1021 18.385C17.6043 18.2698 16.6974 18.3514 16.0566 18.5675C15.5243 18.75 14.711 19.2206 14.43 19.5135C14.2723 19.6768 14.2329 19.6624 14.2329 19.4607C14.2329 19.3118 14.2181 19.2926 14.1245 19.307C14.0357 19.3166 14.0062 19.3599 13.9963 19.4799L13.9815 19.6336L13.7252 19.4223C12.8331 18.6827 11.7191 18.2986 10.6151 18.3514C10.3144 18.3658 10.0334 18.3898 9.98908 18.4042C9.9398 18.4282 9.86093 18.3754 9.7525 18.2409C9.66378 18.1305 9.5997 18.0296 9.61449 18.02C9.66378 17.972 10.3144 17.9192 10.6101 17.9384C10.7728 17.948 11.0784 17.9912 11.2952 18.0296ZM11.7044 18.6971C12.35 18.8412 13.0302 19.1966 13.6808 19.7248C13.9717 19.9601 13.9864 19.9841 13.9864 20.1858C13.9864 20.3059 13.9717 20.4019 13.9569 20.4019C13.9372 20.4019 13.7203 20.2098 13.4738 19.9793C12.7246 19.283 11.9409 18.9661 10.9749 18.9613C10.5904 18.9613 10.5362 18.9517 10.3735 18.8268C10.275 18.7548 10.1961 18.6827 10.1912 18.6635C10.1862 18.5627 11.2065 18.5867 11.7044 18.6971ZM17.8803 18.6155L18.0972 18.6491L17.9049 18.8028C17.7176 18.9517 17.6881 18.9613 17.2888 18.9613C16.7417 18.9613 16.2735 19.0621 15.8101 19.2782C15.3567 19.4847 15.0462 19.7152 14.6124 20.1426L14.2822 20.474V20.2242C14.2822 19.9745 14.2822 19.9697 14.5927 19.7248C15.6475 18.8652 16.8403 18.4618 17.8803 18.6155ZM11.8818 19.331C12.2416 19.4319 12.6261 19.6336 12.9859 19.8977C13.3063 20.1282 13.6907 20.5268 13.6907 20.6276C13.6907 20.7669 13.5823 20.7237 13.3654 20.498C13.2372 20.3635 12.976 20.1522 12.7887 20.0322C12.4683 19.8257 11.7586 19.5375 11.5516 19.5375C11.4579 19.5375 10.9305 19.2638 10.9305 19.2158C10.9305 19.1678 11.6107 19.2494 11.8818 19.331ZM17.2691 19.2446C17.2198 19.3214 16.8058 19.5375 16.7121 19.5375C16.5101 19.5375 15.8003 19.8257 15.4799 20.0322C15.2926 20.1522 15.0314 20.3635 14.9032 20.498C14.7159 20.6949 14.6518 20.7333 14.5976 20.6853C14.5434 20.642 14.5631 20.594 14.7159 20.4115C15.1546 19.8881 15.9777 19.4031 16.6234 19.2782C17.0325 19.1966 17.3036 19.1822 17.2691 19.2446ZM9.73771 20.4115C9.8215 20.4932 9.81164 20.666 9.72292 20.7381C9.53562 20.887 9.24975 20.6084 9.40254 20.4259C9.47648 20.3395 9.65392 20.3299 9.73771 20.4115ZM18.8513 20.4788C18.9104 20.57 18.9055 20.594 18.8266 20.6901C18.6492 20.9062 18.3387 20.6949 18.4718 20.45C18.5408 20.3203 18.7527 20.3395 18.8513 20.4788ZM14.3265 20.8101C14.4202 20.9158 14.4793 21.0358 14.4793 21.1127C14.4793 21.2567 14.2181 21.6985 14.1343 21.6985C14.0259 21.6985 13.7893 21.2999 13.7893 21.1175C13.7893 20.9302 13.9815 20.642 14.1097 20.642C14.1442 20.642 14.2427 20.7189 14.3265 20.8101ZM19.5463 21.1319C19.635 21.1847 19.8174 21.3864 19.9554 21.5833L20.2018 21.9386H19.4477H18.6936L18.5802 21.6457L18.4619 21.3528L18.595 21.2183C18.8365 20.9734 19.216 20.9398 19.5463 21.1319ZM9.65392 21.1991L9.79686 21.3432L9.66378 21.6409L9.52577 21.9386H8.82586H8.12595L8.31325 21.6649C8.6632 21.1559 8.88008 21.0166 9.26946 21.0454C9.45676 21.055 9.54548 21.0934 9.65392 21.1991Z" fill="white"/>
<path d="M17.5057 11.6372C17.4909 11.6756 17.5698 11.8245 17.6931 11.983C17.8114 12.1367 17.9692 12.3624 18.0432 12.4824C18.1961 12.7417 18.4229 13.3804 18.4229 13.5485C18.4229 13.7166 18.5511 13.8126 18.6497 13.7166C18.7188 13.6542 18.7188 13.6109 18.6497 13.3324C18.5067 12.7369 18.201 12.1367 17.841 11.7477C17.6635 11.5556 17.5501 11.5172 17.5057 11.6372Z" fill="white"/>
<path d="M13.666 13.2904C13.2027 13.4921 13.0253 13.9243 13.0598 14.7551C13.0795 15.1777 13.1042 15.3313 13.188 15.485C13.3999 15.8884 13.7497 16.0613 14.2622 16.0181C14.6269 15.994 14.888 15.8548 15.0063 15.6339C15.0556 15.5426 15.095 15.3217 15.1098 15.0864C15.1295 14.707 15.1344 14.6926 15.2626 14.6638C15.4449 14.6254 15.7603 14.3661 15.7603 14.2508C15.7603 14.1164 15.6272 14.1356 15.435 14.2989C15.3266 14.3901 15.1788 14.4573 14.9866 14.4958C14.4396 14.6014 14.3411 14.6398 14.1883 14.8079C14.0208 14.9952 13.9961 15.1056 14.1144 15.1537C14.1637 15.1729 14.2376 15.1248 14.3361 15.0096C14.4741 14.8511 14.7353 14.7119 14.7944 14.7695C14.8092 14.7887 14.824 14.9135 14.824 15.0576C14.824 15.5666 14.6121 15.7923 14.144 15.7923C13.8581 15.7923 13.6216 15.6579 13.4738 15.4082C13.3851 15.2641 13.3703 15.1585 13.3703 14.6398C13.3703 13.9531 13.4442 13.737 13.7349 13.5497C14.0897 13.3192 14.6417 13.4489 14.7698 13.7994C14.8782 14.078 14.9767 14.1356 15.0704 13.9627C15.1147 13.8859 15.1049 13.8234 15.0211 13.6554C14.824 13.252 14.1538 13.0743 13.666 13.2904Z" fill="white"/>
<path d="M10.4279 11.7476C10.0679 12.1366 9.76217 12.7368 9.61916 13.3323C9.55012 13.6108 9.55012 13.6541 9.61916 13.7165C9.71779 13.8125 9.846 13.7165 9.846 13.5484C9.846 13.2075 10.2504 12.3575 10.6202 11.9205C10.9062 11.5747 10.7336 11.4162 10.4279 11.7476Z" fill="white"/>
<path d="M8.46403 8.38063C8.4102 8.43777 8.4102 8.46633 8.47381 8.52347C8.54231 8.59013 8.55699 8.59013 8.63039 8.51871C8.694 8.45681 8.69889 8.42348 8.65485 8.37111C8.58146 8.28541 8.53742 8.28541 8.46403 8.38063Z" fill="white"/>
<path d="M19.5406 8.33031C19.4819 8.38744 19.5015 8.53028 19.57 8.55409C19.6727 8.59218 19.7608 8.516 19.7412 8.41601C19.7266 8.32555 19.5993 8.27317 19.5406 8.33031Z" fill="white"/>
<path d="M8.08072 8.81629C7.83434 8.93146 7.71115 9.23377 7.80477 9.4737C7.85898 9.60806 8.15463 9.56967 8.32216 9.40652C8.45521 9.28175 8.46999 9.23857 8.45521 9.01304C8.44042 8.72032 8.36158 8.67714 8.08072 8.81629ZM8.21869 9.11381C8.21869 9.1378 8.18419 9.18098 8.14477 9.21457C8.08564 9.26256 8.07086 9.26256 8.07086 9.20498C8.07086 9.16659 8.08564 9.1186 8.10535 9.10421C8.1497 9.05622 8.21869 9.06102 8.21869 9.11381Z" fill="white"/>
<path d="M19.8358 8.76536C19.7816 8.81335 19.7963 9.20683 19.8505 9.3124C19.959 9.50914 20.4024 9.62431 20.4616 9.47075C20.5502 9.24042 20.4271 8.91892 20.1955 8.80375C20.0427 8.72697 19.89 8.71258 19.8358 8.76536ZM20.1955 9.16364C20.23 9.22603 20.23 9.25962 20.2004 9.25962C20.1708 9.25962 20.1265 9.21643 20.0969 9.16364C20.0624 9.10126 20.0624 9.06767 20.092 9.06767C20.1216 9.06767 20.1659 9.11086 20.1955 9.16364Z" fill="white"/>
<path d="M7.94878 11.3335C7.74675 11.4438 7.67284 11.6598 7.75661 11.8805C7.7911 11.9669 8.02762 12.0964 8.14588 12.0964C8.274 12.0964 8.51545 11.8325 8.51545 11.6934C8.51545 11.4438 8.16559 11.2183 7.94878 11.3335ZM8.23458 11.6262C8.26907 11.7269 8.21487 11.8085 8.12125 11.8085C8.00791 11.8085 7.95371 11.7317 7.99313 11.6406C8.02762 11.5542 8.20501 11.5446 8.23458 11.6262Z" fill="white"/>
<path d="M19.9258 11.3371C19.773 11.4235 19.709 11.529 19.709 11.6874C19.709 12.0521 20.1377 12.2104 20.3939 11.9417C20.5713 11.7546 20.5072 11.4619 20.2609 11.3371C20.1278 11.2651 20.0539 11.2651 19.9258 11.3371ZM20.2215 11.6874C20.2215 11.793 20.0687 11.8458 19.9899 11.769C19.9061 11.6874 19.9849 11.5578 20.1081 11.577C20.182 11.5866 20.2215 11.625 20.2215 11.6874Z" fill="white"/>
<path d="M7.31765 12.7051C7.2634 12.7531 7.2782 15.3031 7.32751 15.3319C7.35217 15.3511 7.40641 15.3463 7.45079 15.3319C7.51983 15.3079 7.52969 15.159 7.52969 14.1746C7.52969 13.2141 7.53956 13.0509 7.59873 13.0701C7.81078 13.1517 8.00803 13.1565 8.0672 13.0845C8.15597 12.9788 8.05734 12.8636 7.87981 12.8636C7.81078 12.8636 7.67763 12.8203 7.58887 12.7675C7.41627 12.6667 7.36696 12.6523 7.31765 12.7051Z" fill="white"/>
<path d="M20.6797 12.7461C20.6303 12.7941 20.4972 12.8422 20.3838 12.8566C20.2112 12.8806 20.1668 12.9046 20.1569 12.9958C20.1372 13.1351 20.226 13.1639 20.4824 13.1063L20.6895 13.0631V14.158C20.6895 15.0704 20.6994 15.2625 20.7635 15.3105C20.8227 15.3585 20.8523 15.3585 20.9114 15.3105C20.9755 15.2577 20.9854 15.0656 20.9755 13.9707C20.9607 12.7365 20.9558 12.6933 20.8621 12.6789C20.8079 12.6741 20.724 12.7029 20.6797 12.7461Z" fill="white"/>
<path d="M7.34133 15.5497C7.24836 15.6021 7.2875 15.7639 7.39515 15.783C7.43919 15.7925 7.49301 15.7639 7.50769 15.7211C7.55173 15.6211 7.4294 15.4973 7.34133 15.5497Z" fill="white"/>
<path d="M20.7734 15.539C20.7245 15.5818 20.7342 15.7342 20.7832 15.7628C20.8615 15.8104 20.9838 15.739 20.9838 15.6485C20.9838 15.6009 20.9495 15.5485 20.9055 15.5342C20.8125 15.5009 20.8125 15.5009 20.7734 15.539Z" fill="white"/>
<path d="M7.264 15.9798C7.24924 16.0038 7.24924 16.0612 7.264 16.1043C7.28861 16.1618 7.34767 16.1762 7.50024 16.1666C7.66265 16.157 7.70202 16.1331 7.70202 16.0564C7.70202 15.9798 7.66265 15.9559 7.49531 15.9463C7.38704 15.9367 7.27877 15.9511 7.264 15.9798Z" fill="white"/>
<path d="M20.5271 16.0055C20.4828 16.1109 20.6157 16.1875 20.7978 16.1683C20.9209 16.1587 20.9651 16.13 20.975 16.0438C20.9898 15.948 20.9701 15.9385 20.7732 15.9385C20.6256 15.9385 20.5419 15.9624 20.5271 16.0055Z" fill="white"/>
<path d="M20.4682 16.3411C20.414 16.3794 20.3894 16.4321 20.4091 16.4848C20.4583 16.6094 20.9507 16.5758 20.9753 16.4465C20.9852 16.3986 20.9655 16.3411 20.9261 16.3171C20.8276 16.2548 20.5716 16.2644 20.4682 16.3411Z" fill="white"/>
<path d="M7.26397 16.3642C7.24427 16.3882 7.2492 16.4457 7.26397 16.4888C7.28859 16.5463 7.3526 16.5607 7.54955 16.5511C7.76619 16.5367 7.80066 16.5223 7.81543 16.4265C7.8302 16.3307 7.81543 16.3211 7.55939 16.3211C7.41168 16.3211 7.27874 16.3403 7.26397 16.3642Z" fill="white"/>
<path d="M7.28207 16.7283C7.2328 16.7859 7.2328 16.8146 7.28207 16.8722C7.37077 16.9729 7.88816 16.9729 7.97686 16.8674C8.03106 16.8003 8.02613 16.7811 7.94729 16.7235C7.81918 16.6324 7.36091 16.6372 7.28207 16.7283Z" fill="white"/>
<path d="M20.3047 16.7003C20.2653 16.7242 20.2456 16.7817 20.2554 16.8296C20.2702 16.9063 20.3194 16.9207 20.6149 16.9207C20.9103 16.9207 20.9595 16.9063 20.9743 16.8296C20.9989 16.705 20.9004 16.6571 20.6149 16.6571C20.4819 16.6571 20.3391 16.6763 20.3047 16.7003Z" fill="white"/>
<path d="M7.28207 17.1139C7.2328 17.1714 7.2328 17.2002 7.28207 17.2577C7.32642 17.3105 7.44468 17.3296 7.72555 17.3296C8.00642 17.3296 8.12468 17.3105 8.16903 17.2577C8.21831 17.2002 8.21831 17.1714 8.16903 17.1139C8.12468 17.0611 8.00642 17.042 7.72555 17.042C7.44468 17.042 7.32642 17.0611 7.28207 17.1139Z" fill="white"/>
<path d="M20.1129 17.0737C20.0784 17.0833 20.0488 17.136 20.0488 17.1888C20.0488 17.3038 20.1868 17.3374 20.6155 17.3182C20.9062 17.3038 20.9604 17.2894 20.9752 17.2127C20.9851 17.1648 20.9653 17.1072 20.9259 17.0833C20.8569 17.0401 20.2164 17.0305 20.1129 17.0737Z" fill="white"/>
<path d="M7.28207 17.4964C7.2328 17.554 7.2328 17.5827 7.28207 17.6403C7.33135 17.693 7.45454 17.7122 7.8241 17.7122C8.19367 17.7122 8.31686 17.693 8.36613 17.6403C8.41541 17.5827 8.41541 17.554 8.36613 17.4964C8.31686 17.4437 8.19367 17.4245 7.8241 17.4245C7.45454 17.4245 7.33135 17.4437 7.28207 17.4964Z" fill="white"/>
<path d="M19.9168 17.452C19.8281 17.4904 19.8379 17.6486 19.9315 17.6822C20.0498 17.7253 20.853 17.7157 20.9269 17.6678C20.9663 17.6438 20.986 17.5863 20.9762 17.5383C20.9614 17.4568 20.9072 17.4472 20.4686 17.4376C20.1976 17.4328 19.9463 17.4424 19.9168 17.452Z" fill="white"/>
<path d="M8.07043 17.8808C7.97688 17.991 8.09505 18.0964 8.3117 18.0964C8.53327 18.0964 8.62682 18.0389 8.6022 17.924C8.58251 17.7994 8.16891 17.7658 8.07043 17.8808Z" fill="white"/>
<path d="M19.6348 17.886C19.5904 18.001 19.6495 18.0393 19.876 18.0489C20.1862 18.0633 20.2059 18.0585 20.1862 17.9387C20.1715 17.8477 20.137 17.8333 19.9203 17.8189C19.7185 17.8093 19.6594 17.8189 19.6348 17.886Z" fill="white"/>
<path d="M7.85449 18.2755C7.79535 18.4193 7.95796 18.4817 8.39159 18.4817C8.84492 18.4817 9.02724 18.4097 8.91391 18.2707C8.81536 18.1556 7.89883 18.1604 7.85449 18.2755Z" fill="white"/>
<path d="M19.33 18.2622C19.2709 18.406 19.3645 18.4348 19.8819 18.4348C20.3944 18.4348 20.3993 18.4348 20.3845 18.3245C20.3697 18.2239 20.3451 18.2191 19.8622 18.2047C19.4532 18.1951 19.3547 18.2047 19.33 18.2622Z" fill="white"/>
<path d="M7.84417 18.6519C7.82459 18.6947 7.83438 18.7518 7.86374 18.7804C7.93714 18.8518 8.07904 18.7852 8.05946 18.69C8.03989 18.5804 7.88331 18.5519 7.84417 18.6519Z" fill="white"/>
<path d="M8.38694 18.6491C8.33274 18.7881 8.44114 18.8217 8.86491 18.8073C9.2394 18.7929 9.27882 18.7833 9.27882 18.697C9.27882 18.6107 9.2394 18.6011 8.8452 18.5868C8.48549 18.5772 8.41158 18.5868 8.38694 18.6491Z" fill="white"/>
<path d="M18.9841 18.6494C18.9299 18.7837 19.0186 18.8172 19.4325 18.8172C19.8415 18.8172 19.9154 18.7837 19.8661 18.635C19.8316 18.5439 19.0186 18.5535 18.9841 18.6494Z" fill="white"/>
<path d="M20.2063 18.6357C20.1329 18.7214 20.2112 18.8309 20.3238 18.8071C20.4363 18.788 20.451 18.6119 20.3384 18.5881C20.2944 18.5833 20.2357 18.6023 20.2063 18.6357Z" fill="white"/>
<path d="M8.74714 18.9935C8.72757 19.0126 8.71289 19.0697 8.71289 19.1173C8.71289 19.184 8.74225 19.2078 8.82543 19.1935C8.89393 19.184 8.93308 19.1459 8.93308 19.084C8.93308 18.9888 8.81075 18.9317 8.74714 18.9935Z" fill="white"/>
<path d="M9.1203 19.015C9.00213 19.13 9.11045 19.2019 9.40096 19.2019C9.69146 19.2019 9.79979 19.13 9.68162 19.015C9.61268 18.948 9.18923 18.948 9.1203 19.015Z" fill="white"/>
<path d="M18.5412 19.0323C18.487 19.1569 18.5904 19.2048 18.8711 19.1905C19.0976 19.1761 19.137 19.1617 19.137 19.0803C19.137 18.9988 19.0976 18.9844 18.8514 18.9701C18.6298 18.9605 18.5609 18.9701 18.5412 19.0323Z" fill="white"/>
<path d="M19.3285 19.0346C19.309 19.0774 19.3188 19.1346 19.3481 19.1631C19.4215 19.2346 19.5634 19.1679 19.5438 19.0727C19.5243 18.9632 19.3677 18.9346 19.3285 19.0346Z" fill="white"/>
</g>
<g clip-path="url(#clip1_8354_42245)">
<path d="M26.6 0H1.4C0.640029 0 0 0.63998 0 1.4V26.6C0 27.3599 0.639982 28 1.4 28H26.6C27.3601 28 28 27.36 28 26.6V1.4C28 0.63998 27.3601 0 26.6 0Z" fill="#287CB2"/>
<g clip-path="url(#clip2_8354_42245)">
<path d="M11.8952 7.60305C9.76186 8.53058 8.94482 10.5181 9.10369 14.3386C9.19447 16.282 9.30795 16.9887 9.69377 17.6954C10.6697 19.5505 12.281 20.3455 14.6414 20.1467C16.3208 20.0363 17.5237 19.3959 18.0684 18.38C18.2953 17.9604 18.4769 16.9446 18.545 15.8624C18.6357 14.1178 18.6584 14.0516 19.2485 13.9191C20.0882 13.7424 21.5408 12.5499 21.5408 12.0198C21.5408 11.4015 20.928 11.4898 20.0429 12.2407C19.5436 12.6603 18.8627 12.9694 17.9776 13.1461C15.4584 13.632 15.0045 13.8086 14.3009 14.5816C13.5293 15.4428 13.4158 15.9508 13.9605 16.1716C14.1875 16.26 14.5279 16.0391 14.9818 15.5091C15.6173 14.7803 16.8201 14.1399 17.0925 14.4049C17.1605 14.4932 17.2286 15.0674 17.2286 15.7299C17.2286 18.0708 16.2527 19.1088 14.0967 19.1088C12.7803 19.1088 11.691 18.4904 11.0101 17.3421C10.6016 16.6795 10.5335 16.1937 10.5335 13.8086C10.5335 10.6506 10.8739 9.65686 12.213 8.79559C13.847 7.73556 16.3889 8.33182 16.979 9.94395C17.4783 11.2248 17.9322 11.4898 18.3634 10.6948C18.5677 10.3415 18.5223 10.0544 18.1364 9.28143C17.2286 7.42638 14.1421 6.60928 11.8952 7.60305Z" fill="white"/>
</g>
</g>
<defs>
<clipPath id="clip0_8354_42245">
<rect width="14.8361" height="15.367" fill="white" transform="translate(6.69336 6.86011)"/>
</clipPath>
<clipPath id="clip1_8354_42245">
<rect width="28" height="28" rx="14" fill="white"/>
</clipPath>
<clipPath id="clip2_8354_42245">
<rect width="14.4" height="14.8965" fill="white" transform="translate(7 7)"/>
</clipPath>
</defs>
</svg>
